%TF.GenerationSoftware,KiCad,Pcbnew,9.0.3*%
%TF.CreationDate,2026-03-18T00:58:17+00:00*%
%TF.ProjectId,vibook,7669626f-6f6b-42e6-9b69-6361645f7063,rev?*%
%TF.SameCoordinates,Original*%
%TF.FileFunction,Legend,Top*%
%TF.FilePolarity,Positive*%
%FSLAX46Y46*%
G04 Gerber Fmt 4.6, Leading zero omitted, Abs format (unit mm)*
G04 Created by KiCad (PCBNEW 9.0.3) date 2026-03-18 00:58:17*
%MOMM*%
%LPD*%
G01*
G04 APERTURE LIST*
G04 Aperture macros list*
%AMRoundRect*
0 Rectangle with rounded corners*
0 $1 Rounding radius*
0 $2 $3 $4 $5 $6 $7 $8 $9 X,Y pos of 4 corners*
0 Add a 4 corners polygon primitive as box body*
4,1,4,$2,$3,$4,$5,$6,$7,$8,$9,$2,$3,0*
0 Add four circle primitives for the rounded corners*
1,1,$1+$1,$2,$3*
1,1,$1+$1,$4,$5*
1,1,$1+$1,$6,$7*
1,1,$1+$1,$8,$9*
0 Add four rect primitives between the rounded corners*
20,1,$1+$1,$2,$3,$4,$5,0*
20,1,$1+$1,$4,$5,$6,$7,0*
20,1,$1+$1,$6,$7,$8,$9,0*
20,1,$1+$1,$8,$9,$2,$3,0*%
%AMRotRect*
0 Rectangle, with rotation*
0 The origin of the aperture is its center*
0 $1 length*
0 $2 width*
0 $3 Rotation angle, in degrees counterclockwise*
0 Add horizontal line*
21,1,$1,$2,0,0,$3*%
%AMFreePoly0*
4,1,14,0.354215,0.088284,0.450784,-0.008285,0.462500,-0.036569,0.462500,-0.060000,0.450784,-0.088284,0.422500,-0.100000,-0.422500,-0.100000,-0.450784,-0.088284,-0.462500,-0.060000,-0.462500,0.060000,-0.450784,0.088284,-0.422500,0.100000,0.325931,0.100000,0.354215,0.088284,0.354215,0.088284,$1*%
%AMFreePoly1*
4,1,14,0.450784,0.088284,0.462500,0.060000,0.462500,0.036569,0.450784,0.008285,0.354215,-0.088284,0.325931,-0.100000,-0.422500,-0.100000,-0.450784,-0.088284,-0.462500,-0.060000,-0.462500,0.060000,-0.450784,0.088284,-0.422500,0.100000,0.422500,0.100000,0.450784,0.088284,0.450784,0.088284,$1*%
%AMFreePoly2*
4,1,14,0.088284,0.450784,0.100000,0.422500,0.100000,-0.422500,0.088284,-0.450784,0.060000,-0.462500,-0.060000,-0.462500,-0.088284,-0.450784,-0.100000,-0.422500,-0.100000,0.325931,-0.088284,0.354215,0.008285,0.450784,0.036569,0.462500,0.060000,0.462500,0.088284,0.450784,0.088284,0.450784,$1*%
%AMFreePoly3*
4,1,14,-0.008285,0.450784,0.088284,0.354215,0.100000,0.325931,0.100000,-0.422500,0.088284,-0.450784,0.060000,-0.462500,-0.060000,-0.462500,-0.088284,-0.450784,-0.100000,-0.422500,-0.100000,0.422500,-0.088284,0.450784,-0.060000,0.462500,-0.036569,0.462500,-0.008285,0.450784,-0.008285,0.450784,$1*%
%AMFreePoly4*
4,1,14,0.450784,0.088284,0.462500,0.060000,0.462500,-0.060000,0.450784,-0.088284,0.422500,-0.100000,-0.325931,-0.100000,-0.354215,-0.088284,-0.450784,0.008285,-0.462500,0.036569,-0.462500,0.060000,-0.450784,0.088284,-0.422500,0.100000,0.422500,0.100000,0.450784,0.088284,0.450784,0.088284,$1*%
%AMFreePoly5*
4,1,14,0.450784,0.088284,0.462500,0.060000,0.462500,-0.060000,0.450784,-0.088284,0.422500,-0.100000,-0.422500,-0.100000,-0.450784,-0.088284,-0.462500,-0.060000,-0.462500,-0.036569,-0.450784,-0.008285,-0.354215,0.088284,-0.325931,0.100000,0.422500,0.100000,0.450784,0.088284,0.450784,0.088284,$1*%
%AMFreePoly6*
4,1,14,0.088284,0.450784,0.100000,0.422500,0.100000,-0.325931,0.088284,-0.354215,-0.008285,-0.450784,-0.036569,-0.462500,-0.060000,-0.462500,-0.088284,-0.450784,-0.100000,-0.422500,-0.100000,0.422500,-0.088284,0.450784,-0.060000,0.462500,0.060000,0.462500,0.088284,0.450784,0.088284,0.450784,$1*%
%AMFreePoly7*
4,1,14,0.088284,0.450784,0.100000,0.422500,0.100000,-0.422500,0.088284,-0.450784,0.060000,-0.462500,0.036569,-0.462500,0.008285,-0.450784,-0.088284,-0.354215,-0.100000,-0.325931,-0.100000,0.422500,-0.088284,0.450784,-0.060000,0.462500,0.060000,0.462500,0.088284,0.450784,0.088284,0.450784,$1*%
G04 Aperture macros list end*
%ADD10C,0.100000*%
%ADD11C,0.150000*%
%ADD12C,0.120000*%
%ADD13RoundRect,0.200000X0.200000X0.275000X-0.200000X0.275000X-0.200000X-0.275000X0.200000X-0.275000X0*%
%ADD14RoundRect,0.225000X-0.775000X-0.525000X0.775000X-0.525000X0.775000X0.525000X-0.775000X0.525000X0*%
%ADD15RoundRect,0.250000X0.250000X0.475000X-0.250000X0.475000X-0.250000X-0.475000X0.250000X-0.475000X0*%
%ADD16R,2.400000X0.740000*%
%ADD17RoundRect,0.200000X-0.200000X-0.275000X0.200000X-0.275000X0.200000X0.275000X-0.200000X0.275000X0*%
%ADD18RoundRect,0.250000X0.475000X-0.250000X0.475000X0.250000X-0.475000X0.250000X-0.475000X-0.250000X0*%
%ADD19RoundRect,0.250000X-0.250000X-0.475000X0.250000X-0.475000X0.250000X0.475000X-0.250000X0.475000X0*%
%ADD20RoundRect,0.250000X0.450000X-0.262500X0.450000X0.262500X-0.450000X0.262500X-0.450000X-0.262500X0*%
%ADD21RoundRect,0.190500X1.079500X0.444500X-1.079500X0.444500X-1.079500X-0.444500X1.079500X-0.444500X0*%
%ADD22RoundRect,0.200000X0.275000X-0.200000X0.275000X0.200000X-0.275000X0.200000X-0.275000X-0.200000X0*%
%ADD23C,2.000000*%
%ADD24FreePoly0,180.000000*%
%ADD25RoundRect,0.050000X0.412500X0.050000X-0.412500X0.050000X-0.412500X-0.050000X0.412500X-0.050000X0*%
%ADD26FreePoly1,180.000000*%
%ADD27FreePoly2,180.000000*%
%ADD28RoundRect,0.050000X0.050000X0.412500X-0.050000X0.412500X-0.050000X-0.412500X0.050000X-0.412500X0*%
%ADD29FreePoly3,180.000000*%
%ADD30FreePoly4,180.000000*%
%ADD31FreePoly5,180.000000*%
%ADD32FreePoly6,180.000000*%
%ADD33FreePoly7,180.000000*%
%ADD34RoundRect,0.100000X-0.225000X-0.100000X0.225000X-0.100000X0.225000X0.100000X-0.225000X0.100000X0*%
%ADD35RoundRect,0.062500X-0.220971X-0.309359X0.309359X0.220971X0.220971X0.309359X-0.309359X-0.220971X0*%
%ADD36RoundRect,0.062500X0.220971X-0.309359X0.309359X-0.220971X-0.220971X0.309359X-0.309359X0.220971X0*%
%ADD37RotRect,3.450000X3.450000X45.000000*%
%ADD38RoundRect,0.250000X-0.475000X0.250000X-0.475000X-0.250000X0.475000X-0.250000X0.475000X0.250000X0*%
%ADD39RoundRect,0.250000X-0.512652X-0.159099X-0.159099X-0.512652X0.512652X0.159099X0.159099X0.512652X0*%
G04 APERTURE END LIST*
D10*
X130661027Y-125992419D02*
X130994360Y-126992419D01*
X130994360Y-126992419D02*
X131327693Y-125992419D01*
X131661027Y-126992419D02*
X131661027Y-126325752D01*
X131661027Y-125992419D02*
X131613408Y-126040038D01*
X131613408Y-126040038D02*
X131661027Y-126087657D01*
X131661027Y-126087657D02*
X131708646Y-126040038D01*
X131708646Y-126040038D02*
X131661027Y-125992419D01*
X131661027Y-125992419D02*
X131661027Y-126087657D01*
X132137217Y-126325752D02*
X132137217Y-126992419D01*
X132137217Y-126420990D02*
X132184836Y-126373371D01*
X132184836Y-126373371D02*
X132280074Y-126325752D01*
X132280074Y-126325752D02*
X132422931Y-126325752D01*
X132422931Y-126325752D02*
X132518169Y-126373371D01*
X132518169Y-126373371D02*
X132565788Y-126468609D01*
X132565788Y-126468609D02*
X132565788Y-126992419D01*
X130827693Y-131920038D02*
X130732455Y-131872419D01*
X130732455Y-131872419D02*
X130589598Y-131872419D01*
X130589598Y-131872419D02*
X130446741Y-131920038D01*
X130446741Y-131920038D02*
X130351503Y-132015276D01*
X130351503Y-132015276D02*
X130303884Y-132110514D01*
X130303884Y-132110514D02*
X130256265Y-132300990D01*
X130256265Y-132300990D02*
X130256265Y-132443847D01*
X130256265Y-132443847D02*
X130303884Y-132634323D01*
X130303884Y-132634323D02*
X130351503Y-132729561D01*
X130351503Y-132729561D02*
X130446741Y-132824800D01*
X130446741Y-132824800D02*
X130589598Y-132872419D01*
X130589598Y-132872419D02*
X130684836Y-132872419D01*
X130684836Y-132872419D02*
X130827693Y-132824800D01*
X130827693Y-132824800D02*
X130875312Y-132777180D01*
X130875312Y-132777180D02*
X130875312Y-132443847D01*
X130875312Y-132443847D02*
X130684836Y-132443847D01*
X131303884Y-132205752D02*
X131303884Y-132872419D01*
X131303884Y-132300990D02*
X131351503Y-132253371D01*
X131351503Y-132253371D02*
X131446741Y-132205752D01*
X131446741Y-132205752D02*
X131589598Y-132205752D01*
X131589598Y-132205752D02*
X131684836Y-132253371D01*
X131684836Y-132253371D02*
X131732455Y-132348609D01*
X131732455Y-132348609D02*
X131732455Y-132872419D01*
X132637217Y-132872419D02*
X132637217Y-131872419D01*
X132637217Y-132824800D02*
X132541979Y-132872419D01*
X132541979Y-132872419D02*
X132351503Y-132872419D01*
X132351503Y-132872419D02*
X132256265Y-132824800D01*
X132256265Y-132824800D02*
X132208646Y-132777180D01*
X132208646Y-132777180D02*
X132161027Y-132681942D01*
X132161027Y-132681942D02*
X132161027Y-132396228D01*
X132161027Y-132396228D02*
X132208646Y-132300990D01*
X132208646Y-132300990D02*
X132256265Y-132253371D01*
X132256265Y-132253371D02*
X132351503Y-132205752D01*
X132351503Y-132205752D02*
X132541979Y-132205752D01*
X132541979Y-132205752D02*
X132637217Y-132253371D01*
X131161027Y-154872419D02*
X131732455Y-154872419D01*
X131446741Y-155872419D02*
X131446741Y-154872419D01*
X131970551Y-155872419D02*
X132494360Y-155205752D01*
X131970551Y-155205752D02*
X132494360Y-155872419D01*
X131875312Y-157372419D02*
X131541979Y-156896228D01*
X131303884Y-157372419D02*
X131303884Y-156372419D01*
X131303884Y-156372419D02*
X131684836Y-156372419D01*
X131684836Y-156372419D02*
X131780074Y-156420038D01*
X131780074Y-156420038D02*
X131827693Y-156467657D01*
X131827693Y-156467657D02*
X131875312Y-156562895D01*
X131875312Y-156562895D02*
X131875312Y-156705752D01*
X131875312Y-156705752D02*
X131827693Y-156800990D01*
X131827693Y-156800990D02*
X131780074Y-156848609D01*
X131780074Y-156848609D02*
X131684836Y-156896228D01*
X131684836Y-156896228D02*
X131303884Y-156896228D01*
X132208646Y-157372419D02*
X132732455Y-156705752D01*
X132208646Y-156705752D02*
X132732455Y-157372419D01*
D11*
X135833333Y-135524819D02*
X135500000Y-135048628D01*
X135261905Y-135524819D02*
X135261905Y-134524819D01*
X135261905Y-134524819D02*
X135642857Y-134524819D01*
X135642857Y-134524819D02*
X135738095Y-134572438D01*
X135738095Y-134572438D02*
X135785714Y-134620057D01*
X135785714Y-134620057D02*
X135833333Y-134715295D01*
X135833333Y-134715295D02*
X135833333Y-134858152D01*
X135833333Y-134858152D02*
X135785714Y-134953390D01*
X135785714Y-134953390D02*
X135738095Y-135001009D01*
X135738095Y-135001009D02*
X135642857Y-135048628D01*
X135642857Y-135048628D02*
X135261905Y-135048628D01*
X136690476Y-134858152D02*
X136690476Y-135524819D01*
X136452381Y-134477200D02*
X136214286Y-135191485D01*
X136214286Y-135191485D02*
X136833333Y-135191485D01*
X131073810Y-135954819D02*
X131073810Y-134954819D01*
X132121428Y-135859580D02*
X132073809Y-135907200D01*
X132073809Y-135907200D02*
X131930952Y-135954819D01*
X131930952Y-135954819D02*
X131835714Y-135954819D01*
X131835714Y-135954819D02*
X131692857Y-135907200D01*
X131692857Y-135907200D02*
X131597619Y-135811961D01*
X131597619Y-135811961D02*
X131550000Y-135716723D01*
X131550000Y-135716723D02*
X131502381Y-135526247D01*
X131502381Y-135526247D02*
X131502381Y-135383390D01*
X131502381Y-135383390D02*
X131550000Y-135192914D01*
X131550000Y-135192914D02*
X131597619Y-135097676D01*
X131597619Y-135097676D02*
X131692857Y-135002438D01*
X131692857Y-135002438D02*
X131835714Y-134954819D01*
X131835714Y-134954819D02*
X131930952Y-134954819D01*
X131930952Y-134954819D02*
X132073809Y-135002438D01*
X132073809Y-135002438D02*
X132121428Y-135050057D01*
X132454762Y-134954819D02*
X133073809Y-134954819D01*
X133073809Y-134954819D02*
X132740476Y-135335771D01*
X132740476Y-135335771D02*
X132883333Y-135335771D01*
X132883333Y-135335771D02*
X132978571Y-135383390D01*
X132978571Y-135383390D02*
X133026190Y-135431009D01*
X133026190Y-135431009D02*
X133073809Y-135526247D01*
X133073809Y-135526247D02*
X133073809Y-135764342D01*
X133073809Y-135764342D02*
X133026190Y-135859580D01*
X133026190Y-135859580D02*
X132978571Y-135907200D01*
X132978571Y-135907200D02*
X132883333Y-135954819D01*
X132883333Y-135954819D02*
X132597619Y-135954819D01*
X132597619Y-135954819D02*
X132502381Y-135907200D01*
X132502381Y-135907200D02*
X132454762Y-135859580D01*
D12*
%TO.C,R14*%
X132562258Y-117477500D02*
X132087742Y-117477500D01*
X132562258Y-118522500D02*
X132087742Y-118522500D01*
%TO.C,U6*%
D10*
X128000000Y-154500000D02*
X131000000Y-154500000D01*
X131000000Y-158500000D01*
X128000000Y-158500000D01*
X128000000Y-154500000D01*
D12*
%TO.C,C6*%
X132811252Y-133265000D02*
X132288748Y-133265000D01*
X132811252Y-134735000D02*
X132288748Y-134735000D01*
%TO.C,J1*%
X129960000Y-168780000D02*
X131235000Y-168780000D01*
X131235000Y-168715000D02*
X131235000Y-168780000D01*
X131235000Y-168715000D02*
X134865000Y-168715000D01*
X131235000Y-175220000D02*
X131235000Y-175285000D01*
X131235000Y-175285000D02*
X134865000Y-175285000D01*
X134865000Y-168715000D02*
X134865000Y-168780000D01*
X134865000Y-175220000D02*
X134865000Y-175285000D01*
%TO.C,R5*%
X135762742Y-137477500D02*
X136237258Y-137477500D01*
X135762742Y-138522500D02*
X136237258Y-138522500D01*
%TO.C,C7*%
X136702500Y-100211252D02*
X136702500Y-99688748D01*
X138172500Y-100211252D02*
X138172500Y-99688748D01*
%TO.C,R4*%
X135762742Y-135977500D02*
X136237258Y-135977500D01*
X135762742Y-137022500D02*
X136237258Y-137022500D01*
%TO.C,C9*%
X127265000Y-141761252D02*
X127265000Y-141238748D01*
X128735000Y-141761252D02*
X128735000Y-141238748D01*
%TO.C,R24*%
X132237258Y-94977500D02*
X131762742Y-94977500D01*
X132237258Y-96022500D02*
X131762742Y-96022500D01*
%TO.C,R2*%
X137737258Y-89977500D02*
X137262742Y-89977500D01*
X137737258Y-91022500D02*
X137262742Y-91022500D01*
%TO.C,R26*%
X132237258Y-97977500D02*
X131762742Y-97977500D01*
X132237258Y-99022500D02*
X131762742Y-99022500D01*
%TO.C,R17*%
X132562258Y-121977500D02*
X132087742Y-121977500D01*
X132562258Y-123022500D02*
X132087742Y-123022500D01*
%TO.C,C5*%
X132738748Y-159735000D02*
X133261252Y-159735000D01*
X132738748Y-158265000D02*
X133261252Y-158265000D01*
%TO.C,C2*%
X129311252Y-149265000D02*
X128788748Y-149265000D01*
X129311252Y-150735000D02*
X128788748Y-150735000D01*
%TO.C,R9*%
X132562258Y-109977500D02*
X132087742Y-109977500D01*
X132562258Y-111022500D02*
X132087742Y-111022500D01*
%TO.C,C1*%
X127265000Y-146261252D02*
X127265000Y-145738748D01*
X128735000Y-146261252D02*
X128735000Y-145738748D01*
%TO.C,R31*%
X134765000Y-155227064D02*
X134765000Y-154772936D01*
X136235000Y-155227064D02*
X136235000Y-154772936D01*
%TO.C,U4*%
D10*
X130325000Y-105500000D02*
X127325000Y-105500000D01*
X127325000Y-87000000D01*
X130325000Y-87000000D01*
X130325000Y-105500000D01*
D12*
%TO.C,R8*%
X132562258Y-108477500D02*
X132087742Y-108477500D01*
X132562258Y-109522500D02*
X132087742Y-109522500D01*
%TO.C,R6*%
X138477500Y-119237258D02*
X138477500Y-118762742D01*
X139522500Y-119237258D02*
X139522500Y-118762742D01*
%TO.C,C8*%
X136238748Y-119315000D02*
X136761252Y-119315000D01*
X136238748Y-120785000D02*
X136761252Y-120785000D01*
%TO.C,R10*%
X132562258Y-111477500D02*
X132087742Y-111477500D01*
X132562258Y-112522500D02*
X132087742Y-112522500D01*
%TO.C,R12*%
X132562258Y-114477500D02*
X132087742Y-114477500D01*
X132562258Y-115522500D02*
X132087742Y-115522500D01*
%TO.C,R16*%
X132562258Y-120477500D02*
X132087742Y-120477500D01*
X132562258Y-121522500D02*
X132087742Y-121522500D01*
%TO.C,R13*%
X132562258Y-115977500D02*
X132087742Y-115977500D01*
X132562258Y-117022500D02*
X132087742Y-117022500D01*
%TO.C,R15*%
X132562258Y-118977500D02*
X132087742Y-118977500D01*
X132562258Y-120022500D02*
X132087742Y-120022500D01*
%TO.C,SW3*%
X129750000Y-163000000D02*
X129750000Y-164500000D01*
X131000000Y-167000000D02*
X135500000Y-167000000D01*
X135500000Y-160500000D02*
X131000000Y-160500000D01*
X136750000Y-164500000D02*
X136750000Y-163000000D01*
%TO.C,R23*%
X132237258Y-93477500D02*
X131762742Y-93477500D01*
X132237258Y-94522500D02*
X131762742Y-94522500D01*
%TO.C,R25*%
X132237258Y-96477500D02*
X131762742Y-96477500D01*
X132237258Y-97522500D02*
X131762742Y-97522500D01*
%TO.C,R11*%
X132562258Y-112977500D02*
X132087742Y-112977500D01*
X132562258Y-114022500D02*
X132087742Y-114022500D01*
%TO.C,R28*%
X132237258Y-100977500D02*
X131762742Y-100977500D01*
X132237258Y-102022500D02*
X131762742Y-102022500D01*
%TO.C,R29*%
X132237258Y-102477500D02*
X131762742Y-102477500D01*
X132237258Y-103522500D02*
X131762742Y-103522500D01*
%TO.C,U3*%
X134652500Y-114277500D02*
X134652500Y-114727500D01*
X134652500Y-117497500D02*
X134652500Y-117047500D01*
X135102500Y-114277500D02*
X134652500Y-114277500D01*
X135102500Y-117497500D02*
X134652500Y-117497500D01*
X137422500Y-114277500D02*
X137872500Y-114277500D01*
X137422500Y-117497500D02*
X137572500Y-117497500D01*
X137872500Y-114277500D02*
X137872500Y-114727500D01*
X137872500Y-117047500D02*
X137872500Y-117257500D01*
X138112500Y-117827500D02*
X137632500Y-117827500D01*
X137872500Y-117497500D01*
X138112500Y-117827500D01*
G36*
X138112500Y-117827500D02*
G01*
X137632500Y-117827500D01*
X137872500Y-117497500D01*
X138112500Y-117827500D01*
G37*
%TO.C,IC3*%
X131340000Y-136590000D02*
X132750000Y-136590000D01*
X131350000Y-138910000D02*
X132750000Y-138910000D01*
X130970000Y-136640000D02*
X130730000Y-136310000D01*
X131210000Y-136310000D01*
X130970000Y-136640000D01*
G36*
X130970000Y-136640000D02*
G01*
X130730000Y-136310000D01*
X131210000Y-136310000D01*
X130970000Y-136640000D01*
G37*
%TO.C,U9*%
D10*
X128000000Y-127500000D02*
X131000000Y-127500000D01*
X131000000Y-131500000D01*
X128000000Y-131500000D01*
X128000000Y-127500000D01*
D12*
%TO.C,R18*%
X132562258Y-123477500D02*
X132087742Y-123477500D01*
X132562258Y-124522500D02*
X132087742Y-124522500D01*
%TO.C,U2*%
X129691574Y-145564473D02*
X129567831Y-145688217D01*
X129691574Y-146236225D02*
X129525404Y-146070055D01*
X132710920Y-142545127D02*
X133046796Y-142209252D01*
X133046796Y-142209252D02*
X133382672Y-142545127D01*
X133046796Y-149591446D02*
X132710920Y-149255571D01*
X133382672Y-149255571D02*
X133046796Y-149591446D01*
X136402018Y-146236225D02*
X136737893Y-145900349D01*
X136737893Y-145900349D02*
X136402018Y-145564473D01*
X129355699Y-145900349D02*
X128952648Y-145836709D01*
X129292059Y-145497298D01*
X129355699Y-145900349D01*
G36*
X129355699Y-145900349D02*
G01*
X128952648Y-145836709D01*
X129292059Y-145497298D01*
X129355699Y-145900349D01*
G37*
%TO.C,R1*%
X134477500Y-140737258D02*
X134477500Y-140262742D01*
X135522500Y-140737258D02*
X135522500Y-140262742D01*
%TO.C,R3*%
X138212258Y-110977500D02*
X137737742Y-110977500D01*
X138212258Y-112022500D02*
X137737742Y-112022500D01*
%TO.C,R30*%
X132237258Y-103977500D02*
X131762742Y-103977500D01*
X132237258Y-105022500D02*
X131762742Y-105022500D01*
%TO.C,R7*%
X132562258Y-106977500D02*
X132087742Y-106977500D01*
X132562258Y-108022500D02*
X132087742Y-108022500D01*
%TO.C,C11*%
X138265000Y-93261252D02*
X138265000Y-92738748D01*
X139735000Y-93261252D02*
X139735000Y-92738748D01*
%TO.C,R19*%
X132237258Y-87477500D02*
X131762742Y-87477500D01*
X132237258Y-88522500D02*
X131762742Y-88522500D01*
%TO.C,C10*%
X140235000Y-113688748D02*
X140235000Y-114211252D01*
X138765000Y-113688748D02*
X138765000Y-114211252D01*
%TO.C,R20*%
X132237258Y-88977500D02*
X131762742Y-88977500D01*
X132237258Y-90022500D02*
X131762742Y-90022500D01*
%TO.C,C4*%
X132238748Y-140265000D02*
X132761252Y-140265000D01*
X132238748Y-141735000D02*
X132761252Y-141735000D01*
%TO.C,U1*%
D10*
X130650000Y-125000000D02*
X127650000Y-125000000D01*
X127650000Y-106500000D01*
X130650000Y-106500000D01*
X130650000Y-125000000D01*
D12*
%TO.C,R21*%
X132237258Y-90477500D02*
X131762742Y-90477500D01*
X132237258Y-91522500D02*
X131762742Y-91522500D01*
%TO.C,R22*%
X132237258Y-91977500D02*
X131762742Y-91977500D01*
X132237258Y-93022500D02*
X131762742Y-93022500D01*
%TO.C,U7*%
D10*
X132000000Y-127500000D02*
X135000000Y-127500000D01*
X135000000Y-131500000D01*
X132000000Y-131500000D01*
X132000000Y-127500000D01*
D12*
%TO.C,C3*%
X136967294Y-145006741D02*
X137336761Y-145376208D01*
X138006741Y-143967294D02*
X138376208Y-144336761D01*
%TO.C,U5*%
X134327500Y-94390000D02*
X134327500Y-94840000D01*
X134327500Y-97610000D02*
X134327500Y-97160000D01*
X134777500Y-94390000D02*
X134327500Y-94390000D01*
X134777500Y-97610000D02*
X134327500Y-97610000D01*
X137097500Y-94390000D02*
X137547500Y-94390000D01*
X137097500Y-97610000D02*
X137247500Y-97610000D01*
X137547500Y-94390000D02*
X137547500Y-94840000D01*
X137547500Y-97160000D02*
X137547500Y-97370000D01*
X137787500Y-97940000D02*
X137307500Y-97940000D01*
X137547500Y-97610000D01*
X137787500Y-97940000D01*
G36*
X137787500Y-97940000D02*
G01*
X137307500Y-97940000D01*
X137547500Y-97610000D01*
X137787500Y-97940000D01*
G37*
%TO.C,R27*%
X132237258Y-99477500D02*
X131762742Y-99477500D01*
X132237258Y-100522500D02*
X131762742Y-100522500D01*
%TD*%
%LPC*%
D13*
%TO.C,R14*%
X133150000Y-118000000D03*
X131500000Y-118000000D03*
%TD*%
D14*
%TO.C,U6*%
X129500000Y-155500000D03*
X129500000Y-157500000D03*
%TD*%
D15*
%TO.C,C6*%
X133500000Y-134000000D03*
X131600000Y-134000000D03*
%TD*%
D16*
%TO.C,J1*%
X131100000Y-169460000D03*
X135000000Y-169460000D03*
X131100000Y-170730000D03*
X135000000Y-170730000D03*
X131100000Y-172000000D03*
X135000000Y-172000000D03*
X131100000Y-173270000D03*
X135000000Y-173270000D03*
X131100000Y-174540000D03*
X135000000Y-174540000D03*
%TD*%
D17*
%TO.C,R5*%
X135175000Y-138000000D03*
X136825000Y-138000000D03*
%TD*%
D18*
%TO.C,C7*%
X137437500Y-100900000D03*
X137437500Y-99000000D03*
%TD*%
D17*
%TO.C,R4*%
X135175000Y-136500000D03*
X136825000Y-136500000D03*
%TD*%
D18*
%TO.C,C9*%
X128000000Y-142450000D03*
X128000000Y-140550000D03*
%TD*%
D13*
%TO.C,R24*%
X132825000Y-95500000D03*
X131175000Y-95500000D03*
%TD*%
%TO.C,R2*%
X138325000Y-90500000D03*
X136675000Y-90500000D03*
%TD*%
%TO.C,R26*%
X132825000Y-98500000D03*
X131175000Y-98500000D03*
%TD*%
%TO.C,R17*%
X133150000Y-122500000D03*
X131500000Y-122500000D03*
%TD*%
D19*
%TO.C,C5*%
X132050000Y-159000000D03*
X133950000Y-159000000D03*
%TD*%
D15*
%TO.C,C2*%
X130000000Y-150000000D03*
X128100000Y-150000000D03*
%TD*%
D13*
%TO.C,R9*%
X133150000Y-110500000D03*
X131500000Y-110500000D03*
%TD*%
D18*
%TO.C,C1*%
X128000000Y-146950000D03*
X128000000Y-145050000D03*
%TD*%
D20*
%TO.C,R31*%
X135500000Y-155912500D03*
X135500000Y-154087500D03*
%TD*%
D21*
%TO.C,U4*%
X128825000Y-104500000D03*
X128825000Y-103000000D03*
X128825000Y-101500000D03*
X128825000Y-100000000D03*
X128825000Y-98500000D03*
X128825000Y-97000000D03*
X128825000Y-95500000D03*
X128825000Y-94000000D03*
X128825000Y-92500000D03*
X128825000Y-91000000D03*
X128825000Y-89500000D03*
X128825000Y-88000000D03*
%TD*%
D13*
%TO.C,R8*%
X133150000Y-109000000D03*
X131500000Y-109000000D03*
%TD*%
D22*
%TO.C,R6*%
X139000000Y-119825000D03*
X139000000Y-118175000D03*
%TD*%
D19*
%TO.C,C8*%
X135550000Y-120050000D03*
X137450000Y-120050000D03*
%TD*%
D13*
%TO.C,R10*%
X133150000Y-112000000D03*
X131500000Y-112000000D03*
%TD*%
%TO.C,R12*%
X133150000Y-115000000D03*
X131500000Y-115000000D03*
%TD*%
%TO.C,R16*%
X133150000Y-121000000D03*
X131500000Y-121000000D03*
%TD*%
%TO.C,R13*%
X133150000Y-116500000D03*
X131500000Y-116500000D03*
%TD*%
%TO.C,R15*%
X133150000Y-119500000D03*
X131500000Y-119500000D03*
%TD*%
D23*
%TO.C,SW3*%
X130000000Y-161500000D03*
X136500000Y-161500000D03*
X130000000Y-166000000D03*
X136500000Y-166000000D03*
%TD*%
D13*
%TO.C,R23*%
X132825000Y-94000000D03*
X131175000Y-94000000D03*
%TD*%
%TO.C,R25*%
X132825000Y-97000000D03*
X131175000Y-97000000D03*
%TD*%
%TO.C,R11*%
X133150000Y-113500000D03*
X131500000Y-113500000D03*
%TD*%
%TO.C,R28*%
X132825000Y-101500000D03*
X131175000Y-101500000D03*
%TD*%
%TO.C,R29*%
X132825000Y-103000000D03*
X131175000Y-103000000D03*
%TD*%
D24*
%TO.C,U3*%
X137650000Y-116687500D03*
D25*
X137650000Y-116287500D03*
X137650000Y-115887500D03*
X137650000Y-115487500D03*
D26*
X137650000Y-115087500D03*
D27*
X137062500Y-114500000D03*
D28*
X136662500Y-114500000D03*
X136262500Y-114500000D03*
X135862500Y-114500000D03*
D29*
X135462500Y-114500000D03*
D30*
X134875000Y-115087500D03*
D25*
X134875000Y-115487500D03*
X134875000Y-115887500D03*
X134875000Y-116287500D03*
D31*
X134875000Y-116687500D03*
D32*
X135462500Y-117275000D03*
D28*
X135862500Y-117275000D03*
X136262500Y-117275000D03*
X136662500Y-117275000D03*
D33*
X137062500Y-117275000D03*
%TD*%
D34*
%TO.C,IC3*%
X131100000Y-137100000D03*
X131100000Y-137750000D03*
X131100000Y-138400000D03*
X133000000Y-138400000D03*
X133000000Y-137100000D03*
%TD*%
D14*
%TO.C,U9*%
X129500000Y-128500000D03*
X129500000Y-130500000D03*
%TD*%
D13*
%TO.C,R18*%
X133150000Y-124000000D03*
X131500000Y-124000000D03*
%TD*%
D35*
%TO.C,U2*%
X130085786Y-146386485D03*
X130439340Y-146740038D03*
X130792893Y-147093592D03*
X131146447Y-147447145D03*
X131500000Y-147800698D03*
X131853553Y-148154252D03*
X132207107Y-148507805D03*
X132560660Y-148861359D03*
D36*
X133532932Y-148861359D03*
X133886485Y-148507805D03*
X134240039Y-148154252D03*
X134593592Y-147800698D03*
X134947145Y-147447145D03*
X135300699Y-147093592D03*
X135654252Y-146740038D03*
X136007806Y-146386485D03*
D35*
X136007806Y-145414213D03*
X135654252Y-145060660D03*
X135300699Y-144707106D03*
X134947145Y-144353553D03*
X134593592Y-144000000D03*
X134240039Y-143646446D03*
X133886485Y-143292893D03*
X133532932Y-142939339D03*
D36*
X132560660Y-142939339D03*
X132207107Y-143292893D03*
X131853553Y-143646446D03*
X131500000Y-144000000D03*
X131146447Y-144353553D03*
X130792893Y-144707106D03*
X130439340Y-145060660D03*
X130085786Y-145414213D03*
D37*
X133046796Y-145900349D03*
%TD*%
D22*
%TO.C,R1*%
X135000000Y-141325000D03*
X135000000Y-139675000D03*
%TD*%
D13*
%TO.C,R3*%
X138800000Y-111500000D03*
X137150000Y-111500000D03*
%TD*%
%TO.C,R30*%
X132825000Y-104500000D03*
X131175000Y-104500000D03*
%TD*%
%TO.C,R7*%
X133150000Y-107500000D03*
X131500000Y-107500000D03*
%TD*%
D18*
%TO.C,C11*%
X139000000Y-93950000D03*
X139000000Y-92050000D03*
%TD*%
D13*
%TO.C,R19*%
X132825000Y-88000000D03*
X131175000Y-88000000D03*
%TD*%
D38*
%TO.C,C10*%
X139500000Y-113000000D03*
X139500000Y-114900000D03*
%TD*%
D13*
%TO.C,R20*%
X132825000Y-89500000D03*
X131175000Y-89500000D03*
%TD*%
D19*
%TO.C,C4*%
X131550000Y-141000000D03*
X133450000Y-141000000D03*
%TD*%
D21*
%TO.C,U1*%
X129150000Y-124000000D03*
X129150000Y-122500000D03*
X129150000Y-121000000D03*
X129150000Y-119500000D03*
X129150000Y-118000000D03*
X129150000Y-116500000D03*
X129150000Y-115000000D03*
X129150000Y-113500000D03*
X129150000Y-112000000D03*
X129150000Y-110500000D03*
X129150000Y-109000000D03*
X129150000Y-107500000D03*
%TD*%
D13*
%TO.C,R21*%
X132825000Y-91000000D03*
X131175000Y-91000000D03*
%TD*%
%TO.C,R22*%
X132825000Y-92500000D03*
X131175000Y-92500000D03*
%TD*%
D14*
%TO.C,U7*%
X133500000Y-128500000D03*
X133500000Y-130500000D03*
%TD*%
D39*
%TO.C,C3*%
X137000000Y-144000000D03*
X138343502Y-145343502D03*
%TD*%
D24*
%TO.C,U5*%
X137325000Y-96800000D03*
D25*
X137325000Y-96400000D03*
X137325000Y-96000000D03*
X137325000Y-95600000D03*
D26*
X137325000Y-95200000D03*
D27*
X136737500Y-94612500D03*
D28*
X136337500Y-94612500D03*
X135937500Y-94612500D03*
X135537500Y-94612500D03*
D29*
X135137500Y-94612500D03*
D30*
X134550000Y-95200000D03*
D25*
X134550000Y-95600000D03*
X134550000Y-96000000D03*
X134550000Y-96400000D03*
D31*
X134550000Y-96800000D03*
D32*
X135137500Y-97387500D03*
D28*
X135537500Y-97387500D03*
X135937500Y-97387500D03*
X136337500Y-97387500D03*
D33*
X136737500Y-97387500D03*
%TD*%
D13*
%TO.C,R27*%
X132825000Y-100000000D03*
X131175000Y-100000000D03*
%TD*%
%LPD*%
M02*
