M48
; DRILL file {KiCad 9.0.3} date 2026-03-18T00:58:17+0000
; FORMAT={-:-/ absolute / inch / decimal}
; #@! TF.CreationDate,2026-03-18T00:58:17+00:00
; #@! TF.GenerationSoftware,Kicad,Pcbnew,9.0.3
; #@! TF.FileFunction,Plated,1,2,PTH
FMAT,2
INCH
; #@! TA.AperFunction,Plated,PTH,ViaDrill
T1C0.0118
; #@! TA.AperFunction,Plated,PTH,ComponentDrill
T2C0.0315
; #@! TA.AperFunction,Plated,PTH,ComponentDrill
T3C0.0394
; #@! TA.AperFunction,Plated,PTH,ComponentDrill
T4C0.0433
%
G90
G05
T1
X5.0394Y-5.9055
X5.061Y-6.7717
X5.0787Y-5.6496
X5.1181Y-5.4134
X5.1378Y-5.8268
X5.159Y-5.8677
X5.1772Y-5.1969
X5.1772Y-5.748
X5.1919Y-5.4271
X5.1969Y-5.7283
X5.2165Y-5.7874
X5.2308Y-5.6944
X5.2362Y-5.748
X5.2362Y-5.8071
X5.2362Y-5.9232
X5.2559Y-5.5512
X5.2559Y-5.7874
X5.2701Y-5.7338
X5.2743Y-5.598
X5.2756Y-6.2598
X5.2898Y-5.7535
X5.313Y-5.6299
X5.315Y-5.2756
X5.315Y-5.9843
X5.3219Y-5.4331
X5.3346Y-4.7244
X5.3543Y-4.5472
X5.3598Y-5.537
X5.3685Y-5.8358
X5.374Y-4.311
X5.3868Y-4.0157
X5.4094Y-4.4449
X5.4134Y-3.6614
X5.4134Y-4.2323
X5.4385Y-4.3449
X5.4466Y-5.7222
X5.4528Y-4.6063
X5.4528Y-5.8268
X5.4744Y-4.5854
X5.4902Y-4.5256
X5.5244Y-4.5741
X5.5315Y-5.748
T2
X5.0719Y-3.4646
X5.0719Y-3.5236
X5.0719Y-3.5827
X5.0719Y-3.6417
X5.0719Y-3.7008
X5.0719Y-3.7598
X5.0719Y-3.8189
X5.0719Y-3.878
X5.0719Y-3.937
X5.0719Y-3.9961
X5.0719Y-4.0551
X5.0719Y-4.1142
X5.0846Y-4.2323
X5.0846Y-4.2913
X5.0846Y-4.3504
X5.0846Y-4.4094
X5.0846Y-4.4685
X5.0846Y-4.5276
X5.0846Y-4.5866
X5.0846Y-4.6457
X5.0846Y-4.7047
X5.0846Y-4.7638
X5.0846Y-4.8228
X5.0846Y-4.8819
T3
X5.0984Y-5.0591
X5.0984Y-5.1378
X5.0984Y-6.122
X5.0984Y-6.2008
X5.2559Y-5.0591
X5.2559Y-5.1378
T4
X5.1181Y-6.3583
X5.1181Y-6.5354
X5.374Y-6.3583
X5.374Y-6.5354
M30
