M48
; DRILL file KiCad 10.0.0 date 2026-05-07T03:26:29
; FORMAT={-:-/ absolute / inch / decimal}
; #@! TF.CreationDate,2026-05-07T03:26:29+01:00
; #@! TF.GenerationSoftware,Kicad,Pcbnew,10.0.0
; #@! TF.FileFunction,Plated,1,2,PTH
FMAT,2
INCH
; #@! TA.AperFunction,Plated,PTH,ViaDrill
T1C0.0118
; #@! TA.AperFunction,Plated,PTH,ComponentDrill
T2C0.0197
; #@! TA.AperFunction,Plated,PTH,ComponentDrill
T3C0.0315
%
G90
G05
T1
X0.9843Y-4.0551
X0.9843Y-4.1732
X1.0236Y-4.1732
X1.0433Y-4.0551
X1.063Y-4.1732
X1.0827Y-4.0551
X1.3583Y-4.0551
X1.3583Y-4.1732
X1.5157Y-3.9252
X1.5945Y-4.2598
X1.6339Y-3.9843
X1.7717Y-4.0551
X1.7717Y-4.1535
X1.811Y-4.1535
X1.8307Y-4.0551
X1.8504Y-4.1535
X1.8701Y-4.0551
X2.1457Y-4.0551
X2.1457Y-4.1535
X2.3031Y-4.4488
X2.3228Y-3.8976
X2.3622Y-4.4528
X2.3819Y-4.0039
X2.3819Y-4.2402
X2.4014Y-4.207
X2.4213Y-3.9843
X2.4319Y-4.069
X2.4345Y-4.1766
X2.4454Y-4.2269
X2.5591Y-4.0551
X2.5591Y-4.1732
X2.9331Y-4.0551
X2.9331Y-4.1732
X2.9626Y-4.439
X3.0118Y-4.4488
X3.0906Y-4.4094
X3.0906Y-4.4488
X3.1102Y-4.3051
X3.111Y-3.9921
X3.1362Y-4.0882
X3.1693Y-4.4882
X3.1709Y-3.9134
X3.1953Y-4.2614
X3.2087Y-3.8189
X3.252Y-4.0535
X3.2677Y-4.4469
X3.2874Y-4.3189
X3.341Y-4.1984
X3.3465Y-4.3441
X3.3465Y-4.4094
X3.3716Y-4.1678
X3.3858Y-3.9192
X3.3913Y-4.3323
X3.4238Y-4.3096
X3.4252Y-4.4291
X3.4449Y-3.9764
X3.4515Y-4.1902
X3.4646Y-3.7992
X3.4883Y-4.1408
X3.4935Y-4.3793
X3.5039Y-4.0354
X3.5039Y-4.311
X3.5157Y-4.2717
X3.5173Y-3.8449
X3.5234Y-4.1161
X3.5299Y-3.8992
X3.5567Y-3.8725
X3.561Y-4.2913
X3.5782Y-3.9109
X3.5827Y-4.252
X3.5927Y-3.9921
X3.5969Y-4.1866
X3.6369Y-4.3712
X3.6417Y-3.9173
X3.6457Y-4.2126
X3.6551Y-4.1354
X3.6748Y-4.0418
X3.7008Y-4.2598
X3.7205Y-3.8189
X3.7283Y-4.3386
X3.7402Y-4.0472
X3.7795Y-4.1929
X3.7992Y-3.8189
X3.7992Y-4.128
X3.9168Y-4.4211
X3.9168Y-4.4488
X3.9173Y-4.3509
X3.9175Y-4.3898
X3.9567Y-4.1496
X4.0067Y-4.1496
X4.1067Y-4.1496
X4.3701Y-4.3504
X4.4154Y-4.4081
T2
X5.561Y-4.4488
X5.5659Y-3.8171
X5.6102Y-4.4488
X5.6152Y-3.8171
T3
X4.3154Y-3.7592
X4.3154Y-4.4692
X4.4154Y-3.7592
X4.4154Y-4.4692
X4.5154Y-3.7592
X4.5154Y-4.4692
X4.6154Y-3.7592
X4.6154Y-4.4692
X4.7154Y-3.7592
X4.7154Y-4.4692
X4.8154Y-3.7592
X4.8154Y-4.4692
X4.9154Y-3.7592
X4.9154Y-4.4692
X5.0154Y-3.7592
X5.0154Y-4.4692
M30
