%TF.GenerationSoftware,KiCad,Pcbnew,9.0.3*%
%TF.CreationDate,2026-03-18T00:58:17+00:00*%
%TF.ProjectId,vibook,7669626f-6f6b-42e6-9b69-6361645f7063,rev?*%
%TF.SameCoordinates,Original*%
%TF.FileFunction,Copper,L1,Top*%
%TF.FilePolarity,Positive*%
%FSLAX46Y46*%
G04 Gerber Fmt 4.6, Leading zero omitted, Abs format (unit mm)*
G04 Created by KiCad (PCBNEW 9.0.3) date 2026-03-18 00:58:17*
%MOMM*%
%LPD*%
G01*
G04 APERTURE LIST*
G04 Aperture macros list*
%AMRoundRect*
0 Rectangle with rounded corners*
0 $1 Rounding radius*
0 $2 $3 $4 $5 $6 $7 $8 $9 X,Y pos of 4 corners*
0 Add a 4 corners polygon primitive as box body*
4,1,4,$2,$3,$4,$5,$6,$7,$8,$9,$2,$3,0*
0 Add four circle primitives for the rounded corners*
1,1,$1+$1,$2,$3*
1,1,$1+$1,$4,$5*
1,1,$1+$1,$6,$7*
1,1,$1+$1,$8,$9*
0 Add four rect primitives between the rounded corners*
20,1,$1+$1,$2,$3,$4,$5,0*
20,1,$1+$1,$4,$5,$6,$7,0*
20,1,$1+$1,$6,$7,$8,$9,0*
20,1,$1+$1,$8,$9,$2,$3,0*%
%AMRotRect*
0 Rectangle, with rotation*
0 The origin of the aperture is its center*
0 $1 length*
0 $2 width*
0 $3 Rotation angle, in degrees counterclockwise*
0 Add horizontal line*
21,1,$1,$2,0,0,$3*%
%AMFreePoly0*
4,1,14,0.354215,0.088284,0.450784,-0.008285,0.462500,-0.036569,0.462500,-0.060000,0.450784,-0.088284,0.422500,-0.100000,-0.422500,-0.100000,-0.450784,-0.088284,-0.462500,-0.060000,-0.462500,0.060000,-0.450784,0.088284,-0.422500,0.100000,0.325931,0.100000,0.354215,0.088284,0.354215,0.088284,$1*%
%AMFreePoly1*
4,1,14,0.450784,0.088284,0.462500,0.060000,0.462500,0.036569,0.450784,0.008285,0.354215,-0.088284,0.325931,-0.100000,-0.422500,-0.100000,-0.450784,-0.088284,-0.462500,-0.060000,-0.462500,0.060000,-0.450784,0.088284,-0.422500,0.100000,0.422500,0.100000,0.450784,0.088284,0.450784,0.088284,$1*%
%AMFreePoly2*
4,1,14,0.088284,0.450784,0.100000,0.422500,0.100000,-0.422500,0.088284,-0.450784,0.060000,-0.462500,-0.060000,-0.462500,-0.088284,-0.450784,-0.100000,-0.422500,-0.100000,0.325931,-0.088284,0.354215,0.008285,0.450784,0.036569,0.462500,0.060000,0.462500,0.088284,0.450784,0.088284,0.450784,$1*%
%AMFreePoly3*
4,1,14,-0.008285,0.450784,0.088284,0.354215,0.100000,0.325931,0.100000,-0.422500,0.088284,-0.450784,0.060000,-0.462500,-0.060000,-0.462500,-0.088284,-0.450784,-0.100000,-0.422500,-0.100000,0.422500,-0.088284,0.450784,-0.060000,0.462500,-0.036569,0.462500,-0.008285,0.450784,-0.008285,0.450784,$1*%
%AMFreePoly4*
4,1,14,0.450784,0.088284,0.462500,0.060000,0.462500,-0.060000,0.450784,-0.088284,0.422500,-0.100000,-0.325931,-0.100000,-0.354215,-0.088284,-0.450784,0.008285,-0.462500,0.036569,-0.462500,0.060000,-0.450784,0.088284,-0.422500,0.100000,0.422500,0.100000,0.450784,0.088284,0.450784,0.088284,$1*%
%AMFreePoly5*
4,1,14,0.450784,0.088284,0.462500,0.060000,0.462500,-0.060000,0.450784,-0.088284,0.422500,-0.100000,-0.422500,-0.100000,-0.450784,-0.088284,-0.462500,-0.060000,-0.462500,-0.036569,-0.450784,-0.008285,-0.354215,0.088284,-0.325931,0.100000,0.422500,0.100000,0.450784,0.088284,0.450784,0.088284,$1*%
%AMFreePoly6*
4,1,14,0.088284,0.450784,0.100000,0.422500,0.100000,-0.325931,0.088284,-0.354215,-0.008285,-0.450784,-0.036569,-0.462500,-0.060000,-0.462500,-0.088284,-0.450784,-0.100000,-0.422500,-0.100000,0.422500,-0.088284,0.450784,-0.060000,0.462500,0.060000,0.462500,0.088284,0.450784,0.088284,0.450784,$1*%
%AMFreePoly7*
4,1,14,0.088284,0.450784,0.100000,0.422500,0.100000,-0.422500,0.088284,-0.450784,0.060000,-0.462500,0.036569,-0.462500,0.008285,-0.450784,-0.088284,-0.354215,-0.100000,-0.325931,-0.100000,0.422500,-0.088284,0.450784,-0.060000,0.462500,0.060000,0.462500,0.088284,0.450784,0.088284,0.450784,$1*%
G04 Aperture macros list end*
%TA.AperFunction,SMDPad,CuDef*%
%ADD10RoundRect,0.200000X0.200000X0.275000X-0.200000X0.275000X-0.200000X-0.275000X0.200000X-0.275000X0*%
%TD*%
%TA.AperFunction,ComponentPad*%
%ADD11RoundRect,0.225000X-0.775000X-0.525000X0.775000X-0.525000X0.775000X0.525000X-0.775000X0.525000X0*%
%TD*%
%TA.AperFunction,SMDPad,CuDef*%
%ADD12RoundRect,0.250000X0.250000X0.475000X-0.250000X0.475000X-0.250000X-0.475000X0.250000X-0.475000X0*%
%TD*%
%TA.AperFunction,SMDPad,CuDef*%
%ADD13R,2.400000X0.740000*%
%TD*%
%TA.AperFunction,SMDPad,CuDef*%
%ADD14RoundRect,0.200000X-0.200000X-0.275000X0.200000X-0.275000X0.200000X0.275000X-0.200000X0.275000X0*%
%TD*%
%TA.AperFunction,SMDPad,CuDef*%
%ADD15RoundRect,0.250000X0.475000X-0.250000X0.475000X0.250000X-0.475000X0.250000X-0.475000X-0.250000X0*%
%TD*%
%TA.AperFunction,SMDPad,CuDef*%
%ADD16RoundRect,0.250000X-0.250000X-0.475000X0.250000X-0.475000X0.250000X0.475000X-0.250000X0.475000X0*%
%TD*%
%TA.AperFunction,SMDPad,CuDef*%
%ADD17RoundRect,0.250000X0.450000X-0.262500X0.450000X0.262500X-0.450000X0.262500X-0.450000X-0.262500X0*%
%TD*%
%TA.AperFunction,ComponentPad*%
%ADD18RoundRect,0.190500X1.079500X0.444500X-1.079500X0.444500X-1.079500X-0.444500X1.079500X-0.444500X0*%
%TD*%
%TA.AperFunction,SMDPad,CuDef*%
%ADD19RoundRect,0.200000X0.275000X-0.200000X0.275000X0.200000X-0.275000X0.200000X-0.275000X-0.200000X0*%
%TD*%
%TA.AperFunction,ComponentPad*%
%ADD20C,2.000000*%
%TD*%
%TA.AperFunction,SMDPad,CuDef*%
%ADD21FreePoly0,180.000000*%
%TD*%
%TA.AperFunction,SMDPad,CuDef*%
%ADD22RoundRect,0.050000X0.412500X0.050000X-0.412500X0.050000X-0.412500X-0.050000X0.412500X-0.050000X0*%
%TD*%
%TA.AperFunction,SMDPad,CuDef*%
%ADD23FreePoly1,180.000000*%
%TD*%
%TA.AperFunction,SMDPad,CuDef*%
%ADD24FreePoly2,180.000000*%
%TD*%
%TA.AperFunction,SMDPad,CuDef*%
%ADD25RoundRect,0.050000X0.050000X0.412500X-0.050000X0.412500X-0.050000X-0.412500X0.050000X-0.412500X0*%
%TD*%
%TA.AperFunction,SMDPad,CuDef*%
%ADD26FreePoly3,180.000000*%
%TD*%
%TA.AperFunction,SMDPad,CuDef*%
%ADD27FreePoly4,180.000000*%
%TD*%
%TA.AperFunction,SMDPad,CuDef*%
%ADD28FreePoly5,180.000000*%
%TD*%
%TA.AperFunction,SMDPad,CuDef*%
%ADD29FreePoly6,180.000000*%
%TD*%
%TA.AperFunction,SMDPad,CuDef*%
%ADD30FreePoly7,180.000000*%
%TD*%
%TA.AperFunction,SMDPad,CuDef*%
%ADD31RoundRect,0.100000X-0.225000X-0.100000X0.225000X-0.100000X0.225000X0.100000X-0.225000X0.100000X0*%
%TD*%
%TA.AperFunction,SMDPad,CuDef*%
%ADD32RoundRect,0.062500X-0.220971X-0.309359X0.309359X0.220971X0.220971X0.309359X-0.309359X-0.220971X0*%
%TD*%
%TA.AperFunction,SMDPad,CuDef*%
%ADD33RoundRect,0.062500X0.220971X-0.309359X0.309359X-0.220971X-0.220971X0.309359X-0.309359X0.220971X0*%
%TD*%
%TA.AperFunction,HeatsinkPad*%
%ADD34RotRect,3.450000X3.450000X45.000000*%
%TD*%
%TA.AperFunction,SMDPad,CuDef*%
%ADD35RoundRect,0.250000X-0.475000X0.250000X-0.475000X-0.250000X0.475000X-0.250000X0.475000X0.250000X0*%
%TD*%
%TA.AperFunction,SMDPad,CuDef*%
%ADD36RoundRect,0.250000X-0.512652X-0.159099X-0.159099X-0.512652X0.512652X0.159099X0.159099X0.512652X0*%
%TD*%
%TA.AperFunction,ViaPad*%
%ADD37C,0.600000*%
%TD*%
%TA.AperFunction,Conductor*%
%ADD38C,0.200000*%
%TD*%
G04 APERTURE END LIST*
D10*
%TO.P,R14,1*%
%TO.N,Net-(U3-LED3{slash}ELE7)*%
X133150000Y-118000000D03*
%TO.P,R14,2*%
%TO.N,Net-(U1-P5)*%
X131500000Y-118000000D03*
%TD*%
D11*
%TO.P,U6,1,P1*%
%TO.N,Net-(U6-P1)*%
X129500000Y-155500000D03*
%TO.P,U6,2,P2*%
%TO.N,Net-(U2-PA3)*%
X129500000Y-157500000D03*
%TD*%
D12*
%TO.P,C6,1*%
%TO.N,GND*%
X133500000Y-134000000D03*
%TO.P,C6,2*%
%TO.N,Net-(IC3-EN)*%
X131600000Y-134000000D03*
%TD*%
D13*
%TO.P,J1,1,VTref*%
%TO.N,+3.3V*%
X131100000Y-169460000D03*
%TO.P,J1,2,SWDIO/TMS*%
%TO.N,Net-(J1-SWDIO{slash}TMS)*%
X135000000Y-169460000D03*
%TO.P,J1,3,GND*%
%TO.N,GND*%
X131100000Y-170730000D03*
%TO.P,J1,4,SWCLK/TCK*%
%TO.N,Net-(J1-SWCLK{slash}TCK)*%
X135000000Y-170730000D03*
%TO.P,J1,5,GND*%
%TO.N,GND*%
X131100000Y-172000000D03*
%TO.P,J1,6,SWO/TDO*%
%TO.N,unconnected-(J1-SWO{slash}TDO-Pad6)*%
X135000000Y-172000000D03*
%TO.P,J1,7,KEY*%
%TO.N,unconnected-(J1-KEY-Pad7)*%
X131100000Y-173270000D03*
%TO.P,J1,8,NC/TDI*%
%TO.N,unconnected-(J1-NC{slash}TDI-Pad8)*%
X135000000Y-173270000D03*
%TO.P,J1,9,GNDDetect*%
%TO.N,GND*%
X131100000Y-174540000D03*
%TO.P,J1,10,~{RESET}*%
%TO.N,Net-(J1-~{RESET})*%
X135000000Y-174540000D03*
%TD*%
D14*
%TO.P,R5,1*%
%TO.N,+3.3V*%
X135175000Y-138000000D03*
%TO.P,R5,2*%
%TO.N,Net-(U2-PA4)*%
X136825000Y-138000000D03*
%TD*%
D15*
%TO.P,C7,1*%
%TO.N,GND*%
X137437500Y-100900000D03*
%TO.P,C7,2*%
%TO.N,+3.3V*%
X137437500Y-99000000D03*
%TD*%
D14*
%TO.P,R4,1*%
%TO.N,+3.3V*%
X135175000Y-136500000D03*
%TO.P,R4,2*%
%TO.N,Net-(U2-PA10)*%
X136825000Y-136500000D03*
%TD*%
D15*
%TO.P,C9,1*%
%TO.N,GND*%
X128000000Y-142450000D03*
%TO.P,C9,2*%
%TO.N,+3.3V*%
X128000000Y-140550000D03*
%TD*%
D10*
%TO.P,R24,1*%
%TO.N,Net-(U5-LED1{slash}ELE5)*%
X132825000Y-95500000D03*
%TO.P,R24,2*%
%TO.N,Net-(U4-P7)*%
X131175000Y-95500000D03*
%TD*%
%TO.P,R2,1*%
%TO.N,GND*%
X138325000Y-90500000D03*
%TO.P,R2,2*%
%TO.N,Net-(U5-REXT)*%
X136675000Y-90500000D03*
%TD*%
%TO.P,R26,1*%
%TO.N,Net-(U5-LED3{slash}ELE7)*%
X132825000Y-98500000D03*
%TO.P,R26,2*%
%TO.N,Net-(U4-P5)*%
X131175000Y-98500000D03*
%TD*%
%TO.P,R17,1*%
%TO.N,Net-(U3-LED6{slash}ELE10)*%
X133150000Y-122500000D03*
%TO.P,R17,2*%
%TO.N,Net-(U1-P2)*%
X131500000Y-122500000D03*
%TD*%
D16*
%TO.P,C5,1*%
%TO.N,Net-(J1-~{RESET})*%
X132050000Y-159000000D03*
%TO.P,C5,2*%
%TO.N,GND*%
X133950000Y-159000000D03*
%TD*%
D12*
%TO.P,C2,1*%
%TO.N,+3.3V*%
X130000000Y-150000000D03*
%TO.P,C2,2*%
%TO.N,GND*%
X128100000Y-150000000D03*
%TD*%
D10*
%TO.P,R9,1*%
%TO.N,Net-(U3-ELE2)*%
X133150000Y-110500000D03*
%TO.P,R9,2*%
%TO.N,Net-(U1-P10)*%
X131500000Y-110500000D03*
%TD*%
D15*
%TO.P,C1,1*%
%TO.N,+3.3V*%
X128000000Y-146950000D03*
%TO.P,C1,2*%
%TO.N,GND*%
X128000000Y-145050000D03*
%TD*%
D17*
%TO.P,R31,1*%
%TO.N,Net-(U6-P1)*%
X135500000Y-155912500D03*
%TO.P,R31,2*%
%TO.N,Net-(U2-PA2)*%
X135500000Y-154087500D03*
%TD*%
D18*
%TO.P,U4,1,P1*%
%TO.N,Net-(U4-P1)*%
X128825000Y-104500000D03*
%TO.P,U4,2,P2*%
%TO.N,Net-(U4-P2)*%
X128825000Y-103000000D03*
%TO.P,U4,3,P3*%
%TO.N,Net-(U4-P3)*%
X128825000Y-101500000D03*
%TO.P,U4,4,P4*%
%TO.N,Net-(U4-P4)*%
X128825000Y-100000000D03*
%TO.P,U4,5,P5*%
%TO.N,Net-(U4-P5)*%
X128825000Y-98500000D03*
%TO.P,U4,6,P6*%
%TO.N,Net-(U4-P6)*%
X128825000Y-97000000D03*
%TO.P,U4,7,P7*%
%TO.N,Net-(U4-P7)*%
X128825000Y-95500000D03*
%TO.P,U4,8,P8*%
%TO.N,Net-(U4-P8)*%
X128825000Y-94000000D03*
%TO.P,U4,9,P9*%
%TO.N,Net-(U4-P9)*%
X128825000Y-92500000D03*
%TO.P,U4,10,P10*%
%TO.N,Net-(U4-P10)*%
X128825000Y-91000000D03*
%TO.P,U4,11,P11*%
%TO.N,Net-(U4-P11)*%
X128825000Y-89500000D03*
%TO.P,U4,12,P12*%
%TO.N,Net-(U4-P12)*%
X128825000Y-88000000D03*
%TD*%
D10*
%TO.P,R8,1*%
%TO.N,Net-(U3-ELE1)*%
X133150000Y-109000000D03*
%TO.P,R8,2*%
%TO.N,Net-(U1-P11)*%
X131500000Y-109000000D03*
%TD*%
D19*
%TO.P,R6,1*%
%TO.N,+3.3V*%
X139000000Y-119825000D03*
%TO.P,R6,2*%
%TO.N,Net-(U2-PA5)*%
X139000000Y-118175000D03*
%TD*%
D16*
%TO.P,C8,1*%
%TO.N,GND*%
X135550000Y-120050000D03*
%TO.P,C8,2*%
%TO.N,+3.3V*%
X137450000Y-120050000D03*
%TD*%
D10*
%TO.P,R10,1*%
%TO.N,Net-(U3-ELE3)*%
X133150000Y-112000000D03*
%TO.P,R10,2*%
%TO.N,Net-(U1-P9)*%
X131500000Y-112000000D03*
%TD*%
%TO.P,R12,1*%
%TO.N,Net-(U3-LED1{slash}ELE5)*%
X133150000Y-115000000D03*
%TO.P,R12,2*%
%TO.N,Net-(U1-P7)*%
X131500000Y-115000000D03*
%TD*%
%TO.P,R16,1*%
%TO.N,Net-(U3-LED5{slash}ELE9)*%
X133150000Y-121000000D03*
%TO.P,R16,2*%
%TO.N,Net-(U1-P3)*%
X131500000Y-121000000D03*
%TD*%
%TO.P,R13,1*%
%TO.N,Net-(U3-LED2{slash}ELE6)*%
X133150000Y-116500000D03*
%TO.P,R13,2*%
%TO.N,Net-(U1-P6)*%
X131500000Y-116500000D03*
%TD*%
%TO.P,R15,1*%
%TO.N,Net-(U3-LED4{slash}ELE8)*%
X133150000Y-119500000D03*
%TO.P,R15,2*%
%TO.N,Net-(U1-P4)*%
X131500000Y-119500000D03*
%TD*%
D20*
%TO.P,SW3,1,1*%
%TO.N,Net-(J1-~{RESET})*%
X130000000Y-161500000D03*
X136500000Y-161500000D03*
%TO.P,SW3,2,2*%
%TO.N,GND*%
X130000000Y-166000000D03*
X136500000Y-166000000D03*
%TD*%
D10*
%TO.P,R23,1*%
%TO.N,Net-(U5-LED0{slash}ELE4)*%
X132825000Y-94000000D03*
%TO.P,R23,2*%
%TO.N,Net-(U4-P8)*%
X131175000Y-94000000D03*
%TD*%
%TO.P,R25,1*%
%TO.N,Net-(U5-LED2{slash}ELE6)*%
X132825000Y-97000000D03*
%TO.P,R25,2*%
%TO.N,Net-(U4-P6)*%
X131175000Y-97000000D03*
%TD*%
%TO.P,R11,1*%
%TO.N,Net-(U3-LED0{slash}ELE4)*%
X133150000Y-113500000D03*
%TO.P,R11,2*%
%TO.N,Net-(U1-P8)*%
X131500000Y-113500000D03*
%TD*%
%TO.P,R28,1*%
%TO.N,Net-(U5-LED5{slash}ELE9)*%
X132825000Y-101500000D03*
%TO.P,R28,2*%
%TO.N,Net-(U4-P3)*%
X131175000Y-101500000D03*
%TD*%
%TO.P,R29,1*%
%TO.N,Net-(U5-LED6{slash}ELE10)*%
X132825000Y-103000000D03*
%TO.P,R29,2*%
%TO.N,Net-(U4-P2)*%
X131175000Y-103000000D03*
%TD*%
D21*
%TO.P,U3,1,~{IRQ}*%
%TO.N,Net-(U2-PA5)*%
X137650000Y-116687500D03*
D22*
%TO.P,U3,2,SCL*%
%TO.N,Net-(U2-PA4)*%
X137650000Y-116287500D03*
%TO.P,U3,3,SDA*%
%TO.N,Net-(U2-PA10)*%
X137650000Y-115887500D03*
%TO.P,U3,4,ADDR*%
%TO.N,GND*%
X137650000Y-115487500D03*
D23*
%TO.P,U3,5,VREG*%
%TO.N,Net-(U3-VREG)*%
X137650000Y-115087500D03*
D24*
%TO.P,U3,6,VSS*%
%TO.N,GND*%
X137062500Y-114500000D03*
D25*
%TO.P,U3,7,REXT*%
%TO.N,Net-(U3-REXT)*%
X136662500Y-114500000D03*
%TO.P,U3,8,ELE0*%
%TO.N,Net-(U3-ELE0)*%
X136262500Y-114500000D03*
%TO.P,U3,9,ELE1*%
%TO.N,Net-(U3-ELE1)*%
X135862500Y-114500000D03*
D26*
%TO.P,U3,10,ELE2*%
%TO.N,Net-(U3-ELE2)*%
X135462500Y-114500000D03*
D27*
%TO.P,U3,11,ELE3*%
%TO.N,Net-(U3-ELE3)*%
X134875000Y-115087500D03*
D22*
%TO.P,U3,12,LED0/ELE4*%
%TO.N,Net-(U3-LED0{slash}ELE4)*%
X134875000Y-115487500D03*
%TO.P,U3,13,LED1/ELE5*%
%TO.N,Net-(U3-LED1{slash}ELE5)*%
X134875000Y-115887500D03*
%TO.P,U3,14,LED2/ELE6*%
%TO.N,Net-(U3-LED2{slash}ELE6)*%
X134875000Y-116287500D03*
D28*
%TO.P,U3,15,LED3/ELE7*%
%TO.N,Net-(U3-LED3{slash}ELE7)*%
X134875000Y-116687500D03*
D29*
%TO.P,U3,16,LED4/ELE8*%
%TO.N,Net-(U3-LED4{slash}ELE8)*%
X135462500Y-117275000D03*
D25*
%TO.P,U3,17,LED5/ELE9*%
%TO.N,Net-(U3-LED5{slash}ELE9)*%
X135862500Y-117275000D03*
%TO.P,U3,18,LED6/ELE10*%
%TO.N,Net-(U3-LED6{slash}ELE10)*%
X136262500Y-117275000D03*
%TO.P,U3,19,LED7/ELE11*%
%TO.N,Net-(U3-LED7{slash}ELE11)*%
X136662500Y-117275000D03*
D30*
%TO.P,U3,20,VDD*%
%TO.N,+3.3V*%
X137062500Y-117275000D03*
%TD*%
D31*
%TO.P,IC3,1,VIN*%
%TO.N,Net-(IC3-EN)*%
X131100000Y-137100000D03*
%TO.P,IC3,2,GND*%
%TO.N,GND*%
X131100000Y-137750000D03*
%TO.P,IC3,3,EN*%
%TO.N,Net-(IC3-EN)*%
X131100000Y-138400000D03*
%TO.P,IC3,4,NC*%
%TO.N,unconnected-(IC3-NC-Pad4)*%
X133000000Y-138400000D03*
%TO.P,IC3,5,VOUT*%
%TO.N,+3.3V*%
X133000000Y-137100000D03*
%TD*%
D11*
%TO.P,U9,1,P1*%
%TO.N,Net-(IC3-EN)*%
X129500000Y-128500000D03*
%TO.P,U9,2,P2*%
%TO.N,GND*%
X129500000Y-130500000D03*
%TD*%
D10*
%TO.P,R18,1*%
%TO.N,Net-(U3-LED7{slash}ELE11)*%
X133150000Y-124000000D03*
%TO.P,R18,2*%
%TO.N,Net-(U1-P1)*%
X131500000Y-124000000D03*
%TD*%
D32*
%TO.P,U2,1,VDD*%
%TO.N,+3.3V*%
X130085786Y-146386485D03*
%TO.P,U2,2,PC14*%
%TO.N,unconnected-(U2-PC14-Pad2)*%
X130439340Y-146740038D03*
%TO.P,U2,3,PC15*%
%TO.N,unconnected-(U2-PC15-Pad3)*%
X130792893Y-147093592D03*
%TO.P,U2,4,NRST*%
%TO.N,Net-(J1-~{RESET})*%
X131146447Y-147447145D03*
%TO.P,U2,5,VDDA*%
%TO.N,+3.3V*%
X131500000Y-147800698D03*
%TO.P,U2,6,PA0*%
%TO.N,unconnected-(U2-PA0-Pad6)*%
X131853553Y-148154252D03*
%TO.P,U2,7,PA1*%
%TO.N,unconnected-(U2-PA1-Pad7)*%
X132207107Y-148507805D03*
%TO.P,U2,8,PA2*%
%TO.N,Net-(U2-PA2)*%
X132560660Y-148861359D03*
D33*
%TO.P,U2,9,PA3*%
%TO.N,Net-(U2-PA3)*%
X133532932Y-148861359D03*
%TO.P,U2,10,PA4*%
%TO.N,Net-(U2-PA4)*%
X133886485Y-148507805D03*
%TO.P,U2,11,PA5*%
%TO.N,Net-(U2-PA5)*%
X134240039Y-148154252D03*
%TO.P,U2,12,PA6*%
%TO.N,unconnected-(U2-PA6-Pad12)*%
X134593592Y-147800698D03*
%TO.P,U2,13,PA7*%
%TO.N,unconnected-(U2-PA7-Pad13)*%
X134947145Y-147447145D03*
%TO.P,U2,14,PB0*%
%TO.N,unconnected-(U2-PB0-Pad14)*%
X135300699Y-147093592D03*
%TO.P,U2,15,PB1*%
%TO.N,unconnected-(U2-PB1-Pad15)*%
X135654252Y-146740038D03*
%TO.P,U2,16,PB2*%
%TO.N,unconnected-(U2-PB2-Pad16)*%
X136007806Y-146386485D03*
D32*
%TO.P,U2,17,VDD*%
%TO.N,+3.3V*%
X136007806Y-145414213D03*
%TO.P,U2,18,PA8*%
%TO.N,unconnected-(U2-PA8-Pad18)*%
X135654252Y-145060660D03*
%TO.P,U2,19,PA9*%
%TO.N,Net-(U2-PA9)*%
X135300699Y-144707106D03*
%TO.P,U2,20,PA10*%
%TO.N,Net-(U2-PA10)*%
X134947145Y-144353553D03*
%TO.P,U2,21,PA11*%
%TO.N,unconnected-(U2-PA11-Pad21)*%
X134593592Y-144000000D03*
%TO.P,U2,22,PA12*%
%TO.N,unconnected-(U2-PA12-Pad22)*%
X134240039Y-143646446D03*
%TO.P,U2,23,PA13*%
%TO.N,Net-(J1-SWDIO{slash}TMS)*%
X133886485Y-143292893D03*
%TO.P,U2,24,PA14*%
%TO.N,Net-(J1-SWCLK{slash}TCK)*%
X133532932Y-142939339D03*
D33*
%TO.P,U2,25,PA15*%
%TO.N,unconnected-(U2-PA15-Pad25)*%
X132560660Y-142939339D03*
%TO.P,U2,26,PB3*%
%TO.N,unconnected-(U2-PB3-Pad26)*%
X132207107Y-143292893D03*
%TO.P,U2,27,PB4*%
%TO.N,unconnected-(U2-PB4-Pad27)*%
X131853553Y-143646446D03*
%TO.P,U2,28,PB5*%
%TO.N,unconnected-(U2-PB5-Pad28)*%
X131500000Y-144000000D03*
%TO.P,U2,29,PB6*%
%TO.N,unconnected-(U2-PB6-Pad29)*%
X131146447Y-144353553D03*
%TO.P,U2,30,PB7*%
%TO.N,unconnected-(U2-PB7-Pad30)*%
X130792893Y-144707106D03*
%TO.P,U2,31,PB9*%
%TO.N,unconnected-(U2-PB9-Pad31)*%
X130439340Y-145060660D03*
%TO.P,U2,32,PB8*%
%TO.N,unconnected-(U2-PB8-Pad32)*%
X130085786Y-145414213D03*
D34*
%TO.P,U2,33,VSS*%
%TO.N,GND*%
X133046796Y-145900349D03*
%TD*%
D19*
%TO.P,R1,1*%
%TO.N,Net-(U2-PA9)*%
X135000000Y-141325000D03*
%TO.P,R1,2*%
%TO.N,GND*%
X135000000Y-139675000D03*
%TD*%
D10*
%TO.P,R3,1*%
%TO.N,GND*%
X138800000Y-111500000D03*
%TO.P,R3,2*%
%TO.N,Net-(U3-REXT)*%
X137150000Y-111500000D03*
%TD*%
%TO.P,R30,1*%
%TO.N,Net-(U5-LED7{slash}ELE11)*%
X132825000Y-104500000D03*
%TO.P,R30,2*%
%TO.N,Net-(U4-P1)*%
X131175000Y-104500000D03*
%TD*%
%TO.P,R7,1*%
%TO.N,Net-(U3-ELE0)*%
X133150000Y-107500000D03*
%TO.P,R7,2*%
%TO.N,Net-(U1-P12)*%
X131500000Y-107500000D03*
%TD*%
D15*
%TO.P,C11,1*%
%TO.N,Net-(U5-VREG)*%
X139000000Y-93950000D03*
%TO.P,C11,2*%
%TO.N,GND*%
X139000000Y-92050000D03*
%TD*%
D10*
%TO.P,R19,1*%
%TO.N,Net-(U5-ELE0)*%
X132825000Y-88000000D03*
%TO.P,R19,2*%
%TO.N,Net-(U4-P12)*%
X131175000Y-88000000D03*
%TD*%
D35*
%TO.P,C10,1*%
%TO.N,Net-(U3-VREG)*%
X139500000Y-113000000D03*
%TO.P,C10,2*%
%TO.N,GND*%
X139500000Y-114900000D03*
%TD*%
D10*
%TO.P,R20,1*%
%TO.N,Net-(U5-ELE1)*%
X132825000Y-89500000D03*
%TO.P,R20,2*%
%TO.N,Net-(U4-P11)*%
X131175000Y-89500000D03*
%TD*%
D16*
%TO.P,C4,1*%
%TO.N,+3.3V*%
X131550000Y-141000000D03*
%TO.P,C4,2*%
%TO.N,GND*%
X133450000Y-141000000D03*
%TD*%
D18*
%TO.P,U1,1,P1*%
%TO.N,Net-(U1-P1)*%
X129150000Y-124000000D03*
%TO.P,U1,2,P2*%
%TO.N,Net-(U1-P2)*%
X129150000Y-122500000D03*
%TO.P,U1,3,P3*%
%TO.N,Net-(U1-P3)*%
X129150000Y-121000000D03*
%TO.P,U1,4,P4*%
%TO.N,Net-(U1-P4)*%
X129150000Y-119500000D03*
%TO.P,U1,5,P5*%
%TO.N,Net-(U1-P5)*%
X129150000Y-118000000D03*
%TO.P,U1,6,P6*%
%TO.N,Net-(U1-P6)*%
X129150000Y-116500000D03*
%TO.P,U1,7,P7*%
%TO.N,Net-(U1-P7)*%
X129150000Y-115000000D03*
%TO.P,U1,8,P8*%
%TO.N,Net-(U1-P8)*%
X129150000Y-113500000D03*
%TO.P,U1,9,P9*%
%TO.N,Net-(U1-P9)*%
X129150000Y-112000000D03*
%TO.P,U1,10,P10*%
%TO.N,Net-(U1-P10)*%
X129150000Y-110500000D03*
%TO.P,U1,11,P11*%
%TO.N,Net-(U1-P11)*%
X129150000Y-109000000D03*
%TO.P,U1,12,P12*%
%TO.N,Net-(U1-P12)*%
X129150000Y-107500000D03*
%TD*%
D10*
%TO.P,R21,1*%
%TO.N,Net-(U5-ELE2)*%
X132825000Y-91000000D03*
%TO.P,R21,2*%
%TO.N,Net-(U4-P10)*%
X131175000Y-91000000D03*
%TD*%
%TO.P,R22,1*%
%TO.N,Net-(U5-ELE3)*%
X132825000Y-92500000D03*
%TO.P,R22,2*%
%TO.N,Net-(U4-P9)*%
X131175000Y-92500000D03*
%TD*%
D11*
%TO.P,U7,1,P1*%
%TO.N,Net-(IC3-EN)*%
X133500000Y-128500000D03*
%TO.P,U7,2,P2*%
%TO.N,GND*%
X133500000Y-130500000D03*
%TD*%
D36*
%TO.P,C3,1*%
%TO.N,+3.3V*%
X137000000Y-144000000D03*
%TO.P,C3,2*%
%TO.N,GND*%
X138343502Y-145343502D03*
%TD*%
D21*
%TO.P,U5,1,~{IRQ}*%
%TO.N,Net-(U2-PA5)*%
X137325000Y-96800000D03*
D22*
%TO.P,U5,2,SCL*%
%TO.N,Net-(U2-PA4)*%
X137325000Y-96400000D03*
%TO.P,U5,3,SDA*%
%TO.N,Net-(U2-PA10)*%
X137325000Y-96000000D03*
%TO.P,U5,4,ADDR*%
X137325000Y-95600000D03*
D23*
%TO.P,U5,5,VREG*%
%TO.N,Net-(U5-VREG)*%
X137325000Y-95200000D03*
D24*
%TO.P,U5,6,VSS*%
%TO.N,GND*%
X136737500Y-94612500D03*
D25*
%TO.P,U5,7,REXT*%
%TO.N,Net-(U5-REXT)*%
X136337500Y-94612500D03*
%TO.P,U5,8,ELE0*%
%TO.N,Net-(U5-ELE0)*%
X135937500Y-94612500D03*
%TO.P,U5,9,ELE1*%
%TO.N,Net-(U5-ELE1)*%
X135537500Y-94612500D03*
D26*
%TO.P,U5,10,ELE2*%
%TO.N,Net-(U5-ELE2)*%
X135137500Y-94612500D03*
D27*
%TO.P,U5,11,ELE3*%
%TO.N,Net-(U5-ELE3)*%
X134550000Y-95200000D03*
D22*
%TO.P,U5,12,LED0/ELE4*%
%TO.N,Net-(U5-LED0{slash}ELE4)*%
X134550000Y-95600000D03*
%TO.P,U5,13,LED1/ELE5*%
%TO.N,Net-(U5-LED1{slash}ELE5)*%
X134550000Y-96000000D03*
%TO.P,U5,14,LED2/ELE6*%
%TO.N,Net-(U5-LED2{slash}ELE6)*%
X134550000Y-96400000D03*
D28*
%TO.P,U5,15,LED3/ELE7*%
%TO.N,Net-(U5-LED3{slash}ELE7)*%
X134550000Y-96800000D03*
D29*
%TO.P,U5,16,LED4/ELE8*%
%TO.N,Net-(U5-LED4{slash}ELE8)*%
X135137500Y-97387500D03*
D25*
%TO.P,U5,17,LED5/ELE9*%
%TO.N,Net-(U5-LED5{slash}ELE9)*%
X135537500Y-97387500D03*
%TO.P,U5,18,LED6/ELE10*%
%TO.N,Net-(U5-LED6{slash}ELE10)*%
X135937500Y-97387500D03*
%TO.P,U5,19,LED7/ELE11*%
%TO.N,Net-(U5-LED7{slash}ELE11)*%
X136337500Y-97387500D03*
D30*
%TO.P,U5,20,VDD*%
%TO.N,+3.3V*%
X136737500Y-97387500D03*
%TD*%
D10*
%TO.P,R27,1*%
%TO.N,Net-(U5-LED4{slash}ELE8)*%
X132825000Y-100000000D03*
%TO.P,R27,2*%
%TO.N,Net-(U4-P4)*%
X131175000Y-100000000D03*
%TD*%
D37*
%TO.N,GND*%
X137400000Y-112900000D03*
%TO.N,Net-(U2-PA10)*%
X137500000Y-107500000D03*
X136000000Y-115500000D03*
%TO.N,GND*%
X134000000Y-159000000D03*
%TO.N,Net-(U2-PA4)*%
X139050000Y-116468253D03*
X140318691Y-116181309D03*
X138138909Y-110361091D03*
%TO.N,Net-(U2-PA5)*%
X136500000Y-109500000D03*
X138500000Y-117000000D03*
%TO.N,GND*%
X135500000Y-120000000D03*
X137500000Y-93000000D03*
X139450000Y-114950000D03*
%TO.N,+3.3V*%
X135175000Y-138000000D03*
X136138909Y-140638909D03*
%TO.N,GND*%
X129000000Y-143500000D03*
X133000000Y-146000000D03*
X132000000Y-145500000D03*
X135000000Y-134000000D03*
X132861091Y-144638909D03*
X128550000Y-172000000D03*
X133500000Y-147000000D03*
X133500000Y-141000000D03*
X138343502Y-145343502D03*
X131500000Y-132000000D03*
X133861091Y-145638909D03*
X130000000Y-137500000D03*
X131500000Y-146000000D03*
X136825000Y-102000000D03*
X134361091Y-146138909D03*
X128000000Y-150000000D03*
X132500000Y-147000000D03*
X133000000Y-147500000D03*
%TO.N,Net-(U2-PA2)*%
X135000000Y-152000000D03*
X133000000Y-150450000D03*
%TO.N,Net-(J1-~{RESET})*%
X131039258Y-149039258D03*
X130500000Y-148000000D03*
%TO.N,Net-(J1-SWCLK{slash}TCK)*%
X133968150Y-142189320D03*
X138500000Y-148000000D03*
%TO.N,Net-(J1-SWDIO{slash}TMS)*%
X140500000Y-146000000D03*
X134950000Y-143000000D03*
%TO.N,Net-(U2-PA5)*%
X136361091Y-148228336D03*
X131875000Y-137847183D03*
%TD*%
D38*
%TO.N,Net-(U6-P1)*%
X129912500Y-155912500D02*
X129500000Y-155500000D01*
X135500000Y-155912500D02*
X129912500Y-155912500D01*
%TO.N,GND*%
X137062500Y-113237500D02*
X137400000Y-112900000D01*
%TO.N,Net-(U2-PA10)*%
X139702000Y-97772971D02*
X139500000Y-97570971D01*
X139702000Y-105298000D02*
X139702000Y-97772971D01*
X137500000Y-107500000D02*
X139702000Y-105298000D01*
X136387500Y-115887500D02*
X136000000Y-115500000D01*
X137650000Y-115887500D02*
X136387500Y-115887500D01*
%TO.N,Net-(J1-SWDIO{slash}TMS)*%
X140500390Y-146000000D02*
X140500000Y-146000000D01*
X139500000Y-147000390D02*
X140500390Y-146000000D01*
X139500000Y-168180000D02*
X139500000Y-147000390D01*
X138220000Y-169460000D02*
X139500000Y-168180000D01*
X135000000Y-169460000D02*
X138220000Y-169460000D01*
%TO.N,Net-(J1-SWCLK{slash}TCK)*%
X139000000Y-148500000D02*
X138500000Y-148000000D01*
X137000000Y-168000000D02*
X139000000Y-166000000D01*
X134388000Y-168000000D02*
X137000000Y-168000000D01*
X133549000Y-170081000D02*
X133549000Y-168839000D01*
X134198000Y-170730000D02*
X133549000Y-170081000D01*
X139000000Y-166000000D02*
X139000000Y-148500000D01*
X135000000Y-170730000D02*
X134198000Y-170730000D01*
X133549000Y-168839000D02*
X134388000Y-168000000D01*
%TO.N,Net-(U2-PA3)*%
X137092337Y-163132785D02*
X129863603Y-163132785D01*
X138500000Y-161725122D02*
X137092337Y-163132785D01*
X129500000Y-159000000D02*
X129500000Y-157500000D01*
X128749000Y-159751000D02*
X129500000Y-159000000D01*
X128749000Y-162018182D02*
X128749000Y-159751000D01*
X138500000Y-154003612D02*
X138500000Y-161725122D01*
X129863603Y-163132785D02*
X128749000Y-162018182D01*
X133532932Y-149036544D02*
X138500000Y-154003612D01*
X133532932Y-148861359D02*
X133532932Y-149036544D01*
%TO.N,Net-(J1-~{RESET})*%
X138000000Y-154000000D02*
X138000000Y-160000000D01*
X138000000Y-160000000D02*
X136500000Y-161500000D01*
X137100000Y-162100000D02*
X136500000Y-161500000D01*
X135000000Y-151000000D02*
X138000000Y-154000000D01*
X132000000Y-151000000D02*
X135000000Y-151000000D01*
%TO.N,GND*%
X133950000Y-159000000D02*
X134000000Y-159000000D01*
%TO.N,Net-(J1-~{RESET})*%
X130000000Y-161050000D02*
X130000000Y-161500000D01*
X132050000Y-159000000D02*
X130000000Y-161050000D01*
%TO.N,Net-(U2-PA2)*%
X135500000Y-152500000D02*
X135500000Y-154087500D01*
%TO.N,Net-(U2-PA4)*%
X138869247Y-116287500D02*
X139050000Y-116468253D01*
X137650000Y-116287500D02*
X138869247Y-116287500D01*
X140702000Y-116564618D02*
X140318691Y-116181309D01*
X140702000Y-118696723D02*
X140702000Y-116564618D01*
%TO.N,Net-(U2-PA10)*%
X140351000Y-116991436D02*
X139247064Y-115887500D01*
X138000000Y-131772228D02*
X140351000Y-129421228D01*
X140351000Y-129421228D02*
X140351000Y-116991436D01*
X136825000Y-135401000D02*
X138000000Y-134226000D01*
X138000000Y-134226000D02*
X138000000Y-131772228D01*
X136825000Y-136500000D02*
X136825000Y-135401000D01*
X139247064Y-115887500D02*
X137650000Y-115887500D01*
%TO.N,Net-(U2-PA4)*%
X140702000Y-129566616D02*
X140702000Y-118696723D01*
X140500000Y-129768617D02*
X140702000Y-129566616D01*
X140500000Y-145000000D02*
X140500000Y-129768617D01*
X140250000Y-145250000D02*
X140500000Y-145000000D01*
X139351000Y-102645388D02*
X139351000Y-102000000D01*
X136851000Y-105145388D02*
X139351000Y-102645388D01*
X136851000Y-109073182D02*
X136851000Y-105145388D01*
X138138909Y-110361091D02*
X136851000Y-109073182D01*
%TO.N,Net-(U2-PA5)*%
X136500000Y-105000000D02*
X139000000Y-102500000D01*
X136500000Y-109500000D02*
X136500000Y-105000000D01*
X139000000Y-102500000D02*
X139000000Y-98475000D01*
X138187500Y-116687500D02*
X138500000Y-117000000D01*
X137650000Y-116687500D02*
X138187500Y-116687500D01*
X139000000Y-118175000D02*
X139675000Y-118175000D01*
X139675000Y-118175000D02*
X140000000Y-118500000D01*
X137650000Y-116825000D02*
X139000000Y-118175000D01*
X137650000Y-116687500D02*
X137650000Y-116825000D01*
X139000000Y-118037500D02*
X138981250Y-118018750D01*
X139000000Y-118175000D02*
X139000000Y-118037500D01*
X140000000Y-129275840D02*
X140000000Y-118500000D01*
X135551000Y-133771768D02*
X135527536Y-133748304D01*
X135551000Y-134228232D02*
X135551000Y-133771768D01*
X134771768Y-134551000D02*
X135228232Y-134551000D01*
X135527536Y-133748304D02*
X140000000Y-129275840D01*
X135228232Y-134551000D02*
X135551000Y-134228232D01*
X131875000Y-137400840D02*
X134748304Y-134527536D01*
X131875000Y-137847183D02*
X131875000Y-137400840D01*
X134748304Y-134527536D02*
X134771768Y-134551000D01*
%TO.N,+3.3V*%
X137675000Y-119825000D02*
X137450000Y-120050000D01*
X139000000Y-119825000D02*
X137675000Y-119825000D01*
X137062500Y-119662500D02*
X137450000Y-120050000D01*
X137062500Y-117275000D02*
X137062500Y-119662500D01*
X137450000Y-120818352D02*
X132768352Y-125500000D01*
X137450000Y-120050000D02*
X137450000Y-120818352D01*
%TO.N,GND*%
X135550000Y-120050000D02*
X135500000Y-120000000D01*
%TO.N,Net-(U3-LED7{slash}ELE11)*%
X134000000Y-123150000D02*
X133150000Y-124000000D01*
X134000000Y-122500000D02*
X134000000Y-123150000D01*
X134702000Y-121798000D02*
X134000000Y-122500000D01*
X134702000Y-119298000D02*
X134702000Y-121798000D01*
X135000000Y-119000000D02*
X134702000Y-119298000D01*
X135637916Y-119000000D02*
X135000000Y-119000000D01*
X136662500Y-117975416D02*
X135637916Y-119000000D01*
X136662500Y-117275000D02*
X136662500Y-117975416D01*
%TO.N,Net-(U3-LED6{slash}ELE10)*%
X134351000Y-121299000D02*
X133150000Y-122500000D01*
X135641528Y-118500000D02*
X135000000Y-118500000D01*
X136262500Y-117879028D02*
X135641528Y-118500000D01*
X135000000Y-118500000D02*
X134351000Y-119149000D01*
X136262500Y-117275000D02*
X136262500Y-117879028D01*
X134351000Y-119149000D02*
X134351000Y-121299000D01*
%TO.N,Net-(U3-LED5{slash}ELE9)*%
X134000000Y-120150000D02*
X133150000Y-121000000D01*
X135000000Y-118000000D02*
X134000000Y-119000000D01*
X134000000Y-119000000D02*
X134000000Y-120150000D01*
X135862500Y-117782640D02*
X135645140Y-118000000D01*
X135645140Y-118000000D02*
X135000000Y-118000000D01*
X135862500Y-117275000D02*
X135862500Y-117782640D01*
%TO.N,Net-(U3-LED4{slash}ELE8)*%
X135027424Y-117275000D02*
X135010388Y-117257964D01*
X135462500Y-117275000D02*
X135027424Y-117275000D01*
X133150000Y-119118352D02*
X133150000Y-119500000D01*
X135010388Y-117257964D02*
X133150000Y-119118352D01*
%TO.N,Net-(U5-VREG)*%
X138575000Y-93950000D02*
X139000000Y-93950000D01*
X137325000Y-95200000D02*
X138575000Y-93950000D01*
%TO.N,Net-(U2-PA10)*%
X139500000Y-97175000D02*
X139500000Y-97570971D01*
X138325000Y-96000000D02*
X139500000Y-97175000D01*
%TO.N,Net-(U2-PA4)*%
X137832640Y-96400000D02*
X137325000Y-96400000D01*
X139351000Y-97918360D02*
X137832640Y-96400000D01*
X139351000Y-102000000D02*
X139351000Y-97918360D01*
%TO.N,Net-(U2-PA5)*%
X139000000Y-98475000D02*
X137325000Y-96800000D01*
%TO.N,GND*%
X138325000Y-90500000D02*
X138325000Y-91375000D01*
X138325000Y-91375000D02*
X139000000Y-92050000D01*
X138450000Y-92050000D02*
X137500000Y-93000000D01*
X139000000Y-92050000D02*
X138450000Y-92050000D01*
X136737500Y-93762500D02*
X137500000Y-93000000D01*
X136737500Y-94612500D02*
X136737500Y-93762500D01*
%TO.N,Net-(U5-REXT)*%
X136337500Y-94612500D02*
X136337500Y-90837500D01*
X136337500Y-90837500D02*
X136675000Y-90500000D01*
%TO.N,GND*%
X139500000Y-114900000D02*
X139450000Y-114950000D01*
X138912500Y-115487500D02*
X137650000Y-115487500D01*
X139450000Y-114950000D02*
X138912500Y-115487500D01*
%TO.N,Net-(U3-VREG)*%
X138000000Y-113500000D02*
X138500000Y-113000000D01*
X138000000Y-114737500D02*
X138000000Y-113500000D01*
X137650000Y-115087500D02*
X138000000Y-114737500D01*
X138500000Y-113000000D02*
X139500000Y-113000000D01*
%TO.N,GND*%
X137062500Y-114500000D02*
X137062500Y-113237500D01*
X137400000Y-112900000D02*
X138800000Y-111500000D01*
%TO.N,Net-(U3-REXT)*%
X136662500Y-111987500D02*
X137150000Y-111500000D01*
X136662500Y-114500000D02*
X136662500Y-111987500D01*
%TO.N,+3.3V*%
X138413500Y-102586500D02*
X138413500Y-99976000D01*
X127449000Y-139999000D02*
X127449000Y-126500000D01*
X137000000Y-144422019D02*
X136007806Y-145414213D01*
X130162000Y-169460000D02*
X131100000Y-169460000D01*
X128000000Y-140550000D02*
X129551000Y-142101000D01*
X133000000Y-137500000D02*
X133000000Y-137100000D01*
X130000000Y-150000000D02*
X130000000Y-149300698D01*
X129461702Y-145064611D02*
X129461702Y-145762401D01*
X129522271Y-148022271D02*
X129522271Y-146950000D01*
X135000000Y-106000000D02*
X138413500Y-102586500D01*
X129551000Y-142101000D02*
X129551000Y-144975313D01*
X127101000Y-126152000D02*
X127101000Y-106899000D01*
X127500000Y-140550000D02*
X127626000Y-140676000D01*
X138413500Y-99976000D02*
X137437500Y-99000000D01*
X128000000Y-146950000D02*
X129522271Y-146950000D01*
X130400349Y-148900349D02*
X129522271Y-148022271D01*
X137000000Y-144000000D02*
X137000000Y-144422019D01*
X128000000Y-140550000D02*
X129950000Y-140550000D01*
X137000000Y-144000000D02*
X136474000Y-143474000D01*
X131550000Y-141000000D02*
X128450000Y-141000000D01*
X127101000Y-147849000D02*
X128000000Y-146950000D01*
X128000000Y-106000000D02*
X127101000Y-106899000D01*
X133975000Y-136975000D02*
X134450000Y-136500000D01*
X137437500Y-99000000D02*
X137437500Y-98087500D01*
X137437500Y-98087500D02*
X136737500Y-97387500D01*
X128450000Y-141000000D02*
X128000000Y-140550000D01*
X133000000Y-137100000D02*
X133850000Y-137100000D01*
X129551000Y-144975313D02*
X129461702Y-145064611D01*
X134450000Y-136500000D02*
X135175000Y-136500000D01*
X129522271Y-146950000D02*
X130085786Y-146386485D01*
X127101000Y-166399000D02*
X127101000Y-147849000D01*
X135000000Y-138000000D02*
X135175000Y-138000000D01*
X129950000Y-140550000D02*
X133000000Y-137500000D01*
X133975000Y-136975000D02*
X135000000Y-138000000D01*
X136474000Y-140974000D02*
X136138909Y-140638909D01*
X129461702Y-145762401D02*
X130085786Y-146386485D01*
X135000000Y-106000000D02*
X128000000Y-106000000D01*
X127449000Y-126500000D02*
X127101000Y-126152000D01*
X128000000Y-140550000D02*
X127449000Y-139999000D01*
X127101000Y-166399000D02*
X130162000Y-169460000D01*
X133850000Y-137100000D02*
X133975000Y-136975000D01*
X136474000Y-143474000D02*
X136474000Y-140974000D01*
X128449000Y-125500000D02*
X132768352Y-125500000D01*
X130400349Y-148900349D02*
X131500000Y-147800698D01*
X130000000Y-149300698D02*
X130400349Y-148900349D01*
X127449000Y-126500000D02*
X128449000Y-125500000D01*
%TO.N,GND*%
X133046796Y-145953204D02*
X133000000Y-146000000D01*
X129000000Y-143500000D02*
X129000000Y-143450000D01*
X133500000Y-134000000D02*
X135000000Y-134000000D01*
X134825000Y-139675000D02*
X133500000Y-141000000D01*
X132000000Y-132000000D02*
X133500000Y-130500000D01*
X129050000Y-143500000D02*
X129000000Y-143500000D01*
X128100000Y-150000000D02*
X128000000Y-150000000D01*
X134122531Y-145900349D02*
X134361091Y-146138909D01*
X135000000Y-139675000D02*
X134825000Y-139675000D01*
X128550000Y-173000000D02*
X128550000Y-172000000D01*
X128000000Y-144500000D02*
X129000000Y-143500000D01*
X130250000Y-137750000D02*
X130000000Y-137500000D01*
X131000000Y-132000000D02*
X131500000Y-132000000D01*
X133046796Y-144824614D02*
X132861091Y-144638909D01*
X131100000Y-170730000D02*
X129820000Y-170730000D01*
X137437500Y-100900000D02*
X137437500Y-101387500D01*
X131100000Y-174540000D02*
X130090000Y-174540000D01*
X131100000Y-172000000D02*
X128550000Y-172000000D01*
X129820000Y-170730000D02*
X128550000Y-172000000D01*
X137437500Y-101387500D02*
X136825000Y-102000000D01*
X130090000Y-174540000D02*
X128550000Y-173000000D01*
X131500000Y-132000000D02*
X132000000Y-132000000D01*
X129500000Y-130500000D02*
X131000000Y-132000000D01*
X133046796Y-145900349D02*
X133046796Y-145953204D01*
X131599651Y-145900349D02*
X131500000Y-146000000D01*
X136500000Y-166000000D02*
X130000000Y-166000000D01*
X129000000Y-143450000D02*
X128000000Y-142450000D01*
X133046796Y-145900349D02*
X133046796Y-146453204D01*
X131100000Y-137750000D02*
X130250000Y-137750000D01*
X133450000Y-141000000D02*
X133500000Y-141000000D01*
X127500000Y-142450000D02*
X127950000Y-142450000D01*
X128000000Y-145050000D02*
X128000000Y-144500000D01*
X133046796Y-147453204D02*
X133000000Y-147500000D01*
%TO.N,Net-(U2-PA9)*%
X135000000Y-141325000D02*
X135000000Y-141500000D01*
X135000000Y-141500000D02*
X136000000Y-142500000D01*
X136000000Y-142500000D02*
X136000000Y-144007805D01*
X136000000Y-144007805D02*
X135300699Y-144707106D01*
%TO.N,Net-(U2-PA2)*%
X132000000Y-149422019D02*
X132560660Y-148861359D01*
X133000000Y-150450000D02*
X132950000Y-150500000D01*
X132500000Y-150500000D02*
X132000000Y-150000000D01*
X135000000Y-152000000D02*
X135500000Y-152500000D01*
X132950000Y-150500000D02*
X132500000Y-150500000D01*
X132000000Y-150000000D02*
X132000000Y-149422019D01*
%TO.N,Net-(J1-~{RESET})*%
X133198000Y-169198000D02*
X131251000Y-167251000D01*
X131052855Y-147447145D02*
X130500000Y-148000000D01*
X134198000Y-174540000D02*
X133198000Y-173540000D01*
X129203000Y-167251000D02*
X127452000Y-165500000D01*
X131039258Y-150039258D02*
X132000000Y-151000000D01*
X136500000Y-161500000D02*
X130000000Y-161500000D01*
X127452000Y-165500000D02*
X127452000Y-153000000D01*
X131039258Y-149039258D02*
X131039258Y-150039258D01*
X135000000Y-174540000D02*
X134198000Y-174540000D01*
X129452000Y-151000000D02*
X132000000Y-151000000D01*
X131251000Y-167251000D02*
X129203000Y-167251000D01*
X135000000Y-174540000D02*
X134170000Y-174540000D01*
X133198000Y-173540000D02*
X133198000Y-169198000D01*
X127452000Y-153000000D02*
X129452000Y-151000000D01*
X131146447Y-147447145D02*
X131052855Y-147447145D01*
%TO.N,Net-(J1-SWCLK{slash}TCK)*%
X133968150Y-142504121D02*
X133532932Y-142939339D01*
X133968150Y-142189320D02*
X133968150Y-142504121D01*
%TO.N,Net-(J1-SWDIO{slash}TMS)*%
X134179378Y-143000000D02*
X133886485Y-143292893D01*
X134950000Y-143000000D02*
X134179378Y-143000000D01*
%TO.N,Net-(IC3-EN)*%
X128000000Y-132000000D02*
X128000000Y-130000000D01*
X129713500Y-133713500D02*
X128000000Y-132000000D01*
X130000000Y-134000000D02*
X129713500Y-133713500D01*
X129713500Y-133713500D02*
X129100000Y-134327000D01*
X128000000Y-130000000D02*
X129500000Y-128500000D01*
X129100000Y-137379232D02*
X129100000Y-135100000D01*
X129100000Y-134327000D02*
X129100000Y-135100000D01*
X129500000Y-128500000D02*
X133500000Y-128500000D01*
X129100000Y-135100000D02*
X131100000Y-137100000D01*
X130120768Y-138400000D02*
X129100000Y-137379232D01*
X131600000Y-134000000D02*
X130000000Y-134000000D01*
X131100000Y-138400000D02*
X130120768Y-138400000D01*
%TO.N,Net-(U2-PA10)*%
X135217676Y-143650398D02*
X135217676Y-144083022D01*
X134274000Y-140932648D02*
X134274000Y-141717352D01*
X135217676Y-144083022D02*
X134947145Y-144353553D01*
X137325000Y-96000000D02*
X138325000Y-96000000D01*
X134532648Y-140674000D02*
X134274000Y-140932648D01*
X136000000Y-140000000D02*
X135326000Y-140674000D01*
X137325000Y-95600000D02*
X137925000Y-95600000D01*
X134532648Y-141976000D02*
X134979612Y-141976000D01*
X136000000Y-137325000D02*
X136000000Y-140000000D01*
X134274000Y-141717352D02*
X134532648Y-141976000D01*
X137925000Y-95600000D02*
X138325000Y-96000000D01*
X134979612Y-141976000D02*
X135500000Y-142496388D01*
X135500000Y-143368074D02*
X135217676Y-143650398D01*
X135500000Y-142496388D02*
X135500000Y-143368074D01*
X135326000Y-140674000D02*
X134532648Y-140674000D01*
X136825000Y-136500000D02*
X136000000Y-137325000D01*
X137650000Y-115887500D02*
X137699000Y-115838500D01*
%TO.N,Net-(U2-PA4)*%
X140250000Y-145250000D02*
X136825000Y-141825000D01*
X136721664Y-148778336D02*
X134157016Y-148778336D01*
X134157016Y-148778336D02*
X133886485Y-148507805D01*
X136825000Y-141825000D02*
X136825000Y-138000000D01*
X140250000Y-145250000D02*
X136721664Y-148778336D01*
%TO.N,Net-(U2-PA5)*%
X136361091Y-148228336D02*
X136162091Y-148427336D01*
X136162091Y-148427336D02*
X134513123Y-148427336D01*
X134513123Y-148427336D02*
X134240039Y-148154252D01*
%TO.N,Net-(U1-P3)*%
X131500000Y-121000000D02*
X129150000Y-121000000D01*
%TO.N,Net-(U1-P1)*%
X131500000Y-124000000D02*
X129150000Y-124000000D01*
%TO.N,Net-(U1-P2)*%
X131500000Y-122500000D02*
X129150000Y-122500000D01*
%TO.N,Net-(U1-P4)*%
X131500000Y-119500000D02*
X129150000Y-119500000D01*
%TO.N,Net-(U1-P5)*%
X131500000Y-118000000D02*
X129150000Y-118000000D01*
%TO.N,Net-(U1-P12)*%
X131500000Y-107500000D02*
X129150000Y-107500000D01*
%TO.N,Net-(U1-P10)*%
X131500000Y-110500000D02*
X129150000Y-110500000D01*
%TO.N,Net-(U1-P6)*%
X131500000Y-116500000D02*
X129150000Y-116500000D01*
%TO.N,Net-(U1-P9)*%
X131500000Y-112000000D02*
X129150000Y-112000000D01*
%TO.N,Net-(U1-P7)*%
X131500000Y-115000000D02*
X129150000Y-115000000D01*
%TO.N,Net-(U1-P11)*%
X131500000Y-109000000D02*
X129150000Y-109000000D01*
%TO.N,Net-(U1-P8)*%
X131500000Y-113500000D02*
X129150000Y-113500000D01*
%TO.N,Net-(U4-P3)*%
X131175000Y-101500000D02*
X128825000Y-101500000D01*
%TO.N,Net-(U4-P10)*%
X131175000Y-91000000D02*
X128825000Y-91000000D01*
%TO.N,Net-(U4-P6)*%
X131175000Y-97000000D02*
X128825000Y-97000000D01*
%TO.N,Net-(U4-P2)*%
X131175000Y-103000000D02*
X128825000Y-103000000D01*
%TO.N,Net-(U4-P1)*%
X131175000Y-104500000D02*
X128825000Y-104500000D01*
%TO.N,Net-(U4-P7)*%
X131175000Y-95500000D02*
X128825000Y-95500000D01*
%TO.N,Net-(U4-P12)*%
X131175000Y-88000000D02*
X128825000Y-88000000D01*
%TO.N,Net-(U4-P4)*%
X131175000Y-100000000D02*
X128825000Y-100000000D01*
%TO.N,Net-(U4-P8)*%
X131175000Y-94000000D02*
X128825000Y-94000000D01*
%TO.N,Net-(U4-P5)*%
X131175000Y-98500000D02*
X128825000Y-98500000D01*
%TO.N,Net-(U4-P9)*%
X131175000Y-92500000D02*
X128825000Y-92500000D01*
%TO.N,Net-(U4-P11)*%
X131175000Y-89500000D02*
X128825000Y-89500000D01*
%TO.N,Net-(U3-ELE0)*%
X136262500Y-110612500D02*
X133150000Y-107500000D01*
X136262500Y-114500000D02*
X136262500Y-110612500D01*
%TO.N,Net-(U3-ELE1)*%
X135862500Y-114500000D02*
X135862500Y-111712500D01*
X135862500Y-111712500D02*
X133150000Y-109000000D01*
%TO.N,Net-(U3-ELE2)*%
X135462500Y-112812500D02*
X133150000Y-110500000D01*
X135462500Y-114500000D02*
X135462500Y-112812500D01*
%TO.N,Net-(U3-ELE3)*%
X134875000Y-115087500D02*
X134875000Y-113725000D01*
X134875000Y-113725000D02*
X133150000Y-112000000D01*
%TO.N,Net-(U3-LED0{slash}ELE4)*%
X134150000Y-114500000D02*
X133150000Y-113500000D01*
X134150000Y-115270140D02*
X134150000Y-114500000D01*
X133150000Y-113500000D02*
X133150000Y-113682640D01*
X134367360Y-115487500D02*
X134150000Y-115270140D01*
X134875000Y-115487500D02*
X134367360Y-115487500D01*
%TO.N,Net-(U3-LED1{slash}ELE5)*%
X134875000Y-115887500D02*
X134037500Y-115887500D01*
X134037500Y-115887500D02*
X133150000Y-115000000D01*
%TO.N,Net-(U3-LED2{slash}ELE6)*%
X133362500Y-116287500D02*
X133150000Y-116500000D01*
X134875000Y-116287500D02*
X133362500Y-116287500D01*
%TO.N,Net-(U3-LED3{slash}ELE7)*%
X134875000Y-116687500D02*
X133562500Y-118000000D01*
X133562500Y-118000000D02*
X133150000Y-118000000D01*
%TO.N,Net-(U3-LED4{slash}ELE8)*%
X133237500Y-119500000D02*
X133150000Y-119500000D01*
%TO.N,Net-(U5-ELE0)*%
X135937500Y-94612500D02*
X135937500Y-91112500D01*
X135937500Y-91112500D02*
X132825000Y-88000000D01*
%TO.N,Net-(U5-ELE1)*%
X135537500Y-92212500D02*
X132825000Y-89500000D01*
X135537500Y-94612500D02*
X135537500Y-92212500D01*
%TO.N,Net-(U5-ELE2)*%
X135137500Y-94612500D02*
X135137500Y-93312500D01*
X135137500Y-93312500D02*
X132825000Y-91000000D01*
%TO.N,Net-(U5-ELE3)*%
X134550000Y-95200000D02*
X134550000Y-94225000D01*
X134550000Y-94225000D02*
X132825000Y-92500000D01*
%TO.N,Net-(U5-LED0{slash}ELE4)*%
X134550000Y-95600000D02*
X134042360Y-95600000D01*
X132825000Y-94382640D02*
X132825000Y-94000000D01*
X134042360Y-95600000D02*
X132825000Y-94382640D01*
X134550000Y-95600000D02*
X134037500Y-95600000D01*
%TO.N,Net-(U5-LED1{slash}ELE5)*%
X133325000Y-96000000D02*
X132825000Y-95500000D01*
X134550000Y-96000000D02*
X133325000Y-96000000D01*
%TO.N,Net-(U5-LED2{slash}ELE6)*%
X133425000Y-96400000D02*
X132825000Y-97000000D01*
X134550000Y-96400000D02*
X133425000Y-96400000D01*
%TO.N,Net-(U5-LED3{slash}ELE7)*%
X134550000Y-96800000D02*
X132850000Y-98500000D01*
X132850000Y-98500000D02*
X132825000Y-98500000D01*
%TO.N,Net-(U5-LED4{slash}ELE8)*%
X132825000Y-99700000D02*
X132825000Y-100000000D01*
X135137500Y-97387500D02*
X132825000Y-99700000D01*
%TO.N,Net-(U5-LED5{slash}ELE9)*%
X135537500Y-98787500D02*
X132825000Y-101500000D01*
X135537500Y-97387500D02*
X135537500Y-98787500D01*
%TO.N,Net-(U5-LED6{slash}ELE10)*%
X135937500Y-97387500D02*
X135937500Y-99887500D01*
X135937500Y-99887500D02*
X132825000Y-103000000D01*
%TO.N,Net-(U5-LED7{slash}ELE11)*%
X136337500Y-100987500D02*
X132825000Y-104500000D01*
X136337500Y-97387500D02*
X136337500Y-100987500D01*
%TD*%
M02*
