%TF.GenerationSoftware,KiCad,Pcbnew,10.0.0*%
%TF.CreationDate,2026-05-07T03:09:36+01:00*%
%TF.ProjectId,vibook,7669626f-6f6b-42e6-9b69-6361645f7063,rev?*%
%TF.SameCoordinates,Original*%
%TF.FileFunction,Paste,Top*%
%TF.FilePolarity,Positive*%
%FSLAX46Y46*%
G04 Gerber Fmt 4.6, Leading zero omitted, Abs format (unit mm)*
G04 Created by KiCad (PCBNEW 10.0.0) date 2026-05-07 03:09:36*
%MOMM*%
%LPD*%
G01*
G04 APERTURE LIST*
G04 Aperture macros list*
%AMRoundRect*
0 Rectangle with rounded corners*
0 $1 Rounding radius*
0 $2 $3 $4 $5 $6 $7 $8 $9 X,Y pos of 4 corners*
0 Add a 4 corners polygon primitive as box body*
4,1,4,$2,$3,$4,$5,$6,$7,$8,$9,$2,$3,0*
0 Add four circle primitives for the rounded corners*
1,1,$1+$1,$2,$3*
1,1,$1+$1,$4,$5*
1,1,$1+$1,$6,$7*
1,1,$1+$1,$8,$9*
0 Add four rect primitives between the rounded corners*
20,1,$1+$1,$2,$3,$4,$5,0*
20,1,$1+$1,$4,$5,$6,$7,0*
20,1,$1+$1,$6,$7,$8,$9,0*
20,1,$1+$1,$8,$9,$2,$3,0*%
%AMFreePoly0*
4,1,14,0.354215,0.088284,0.450784,-0.008285,0.462500,-0.036569,0.462500,-0.060000,0.450784,-0.088284,0.422500,-0.100000,-0.422500,-0.100000,-0.450784,-0.088284,-0.462500,-0.060000,-0.462500,0.060000,-0.450784,0.088284,-0.422500,0.100000,0.325931,0.100000,0.354215,0.088284,0.354215,0.088284,$1*%
%AMFreePoly1*
4,1,14,0.450784,0.088284,0.462500,0.060000,0.462500,0.036569,0.450784,0.008285,0.354215,-0.088284,0.325931,-0.100000,-0.422500,-0.100000,-0.450784,-0.088284,-0.462500,-0.060000,-0.462500,0.060000,-0.450784,0.088284,-0.422500,0.100000,0.422500,0.100000,0.450784,0.088284,0.450784,0.088284,$1*%
%AMFreePoly2*
4,1,14,0.088284,0.450784,0.100000,0.422500,0.100000,-0.422500,0.088284,-0.450784,0.060000,-0.462500,-0.060000,-0.462500,-0.088284,-0.450784,-0.100000,-0.422500,-0.100000,0.325931,-0.088284,0.354215,0.008285,0.450784,0.036569,0.462500,0.060000,0.462500,0.088284,0.450784,0.088284,0.450784,$1*%
%AMFreePoly3*
4,1,14,-0.008285,0.450784,0.088284,0.354215,0.100000,0.325931,0.100000,-0.422500,0.088284,-0.450784,0.060000,-0.462500,-0.060000,-0.462500,-0.088284,-0.450784,-0.100000,-0.422500,-0.100000,0.422500,-0.088284,0.450784,-0.060000,0.462500,-0.036569,0.462500,-0.008285,0.450784,-0.008285,0.450784,$1*%
%AMFreePoly4*
4,1,14,0.450784,0.088284,0.462500,0.060000,0.462500,-0.060000,0.450784,-0.088284,0.422500,-0.100000,-0.325931,-0.100000,-0.354215,-0.088284,-0.450784,0.008285,-0.462500,0.036569,-0.462500,0.060000,-0.450784,0.088284,-0.422500,0.100000,0.422500,0.100000,0.450784,0.088284,0.450784,0.088284,$1*%
%AMFreePoly5*
4,1,14,0.450784,0.088284,0.462500,0.060000,0.462500,-0.060000,0.450784,-0.088284,0.422500,-0.100000,-0.422500,-0.100000,-0.450784,-0.088284,-0.462500,-0.060000,-0.462500,-0.036569,-0.450784,-0.008285,-0.354215,0.088284,-0.325931,0.100000,0.422500,0.100000,0.450784,0.088284,0.450784,0.088284,$1*%
%AMFreePoly6*
4,1,14,0.088284,0.450784,0.100000,0.422500,0.100000,-0.325931,0.088284,-0.354215,-0.008285,-0.450784,-0.036569,-0.462500,-0.060000,-0.462500,-0.088284,-0.450784,-0.100000,-0.422500,-0.100000,0.422500,-0.088284,0.450784,-0.060000,0.462500,0.060000,0.462500,0.088284,0.450784,0.088284,0.450784,$1*%
%AMFreePoly7*
4,1,14,0.088284,0.450784,0.100000,0.422500,0.100000,-0.422500,0.088284,-0.450784,0.060000,-0.462500,0.036569,-0.462500,0.008285,-0.450784,-0.088284,-0.354215,-0.100000,-0.325931,-0.100000,0.422500,-0.088284,0.450784,-0.060000,0.462500,0.060000,0.462500,0.088284,0.450784,0.088284,0.450784,$1*%
G04 Aperture macros list end*
%ADD10RoundRect,0.250000X-0.262500X-0.450000X0.262500X-0.450000X0.262500X0.450000X-0.262500X0.450000X0*%
%ADD11RoundRect,0.135000X-0.185000X0.135000X-0.185000X-0.135000X0.185000X-0.135000X0.185000X0.135000X0*%
%ADD12RoundRect,0.140000X0.170000X-0.140000X0.170000X0.140000X-0.170000X0.140000X-0.170000X-0.140000X0*%
%ADD13RoundRect,0.250000X0.250000X0.475000X-0.250000X0.475000X-0.250000X-0.475000X0.250000X-0.475000X0*%
%ADD14RoundRect,0.250000X-0.785000X-1.895000X0.785000X-1.895000X0.785000X1.895000X-0.785000X1.895000X0*%
%ADD15RoundRect,0.135000X0.185000X-0.135000X0.185000X0.135000X-0.185000X0.135000X-0.185000X-0.135000X0*%
%ADD16RoundRect,0.250000X-0.475000X0.250000X-0.475000X-0.250000X0.475000X-0.250000X0.475000X0.250000X0*%
%ADD17R,0.740000X2.400000*%
%ADD18R,0.400000X1.500000*%
%ADD19R,0.800000X1.500000*%
%ADD20RoundRect,0.200000X-0.335876X-0.053033X-0.053033X-0.335876X0.335876X0.053033X0.053033X0.335876X0*%
%ADD21RoundRect,0.140000X-0.219203X-0.021213X-0.021213X-0.219203X0.219203X0.021213X0.021213X0.219203X0*%
%ADD22RoundRect,0.087500X0.087500X-0.425000X0.087500X0.425000X-0.087500X0.425000X-0.087500X-0.425000X0*%
%ADD23RoundRect,0.140000X-0.021213X0.219203X-0.219203X0.021213X0.021213X-0.219203X0.219203X-0.021213X0*%
%ADD24R,0.660400X1.041400*%
%ADD25FreePoly0,180.000000*%
%ADD26RoundRect,0.050000X0.412500X0.050000X-0.412500X0.050000X-0.412500X-0.050000X0.412500X-0.050000X0*%
%ADD27FreePoly1,180.000000*%
%ADD28FreePoly2,180.000000*%
%ADD29RoundRect,0.050000X0.050000X0.412500X-0.050000X0.412500X-0.050000X-0.412500X0.050000X-0.412500X0*%
%ADD30FreePoly3,180.000000*%
%ADD31FreePoly4,180.000000*%
%ADD32FreePoly5,180.000000*%
%ADD33FreePoly6,180.000000*%
%ADD34FreePoly7,180.000000*%
%ADD35RoundRect,0.250000X0.475000X-0.250000X0.475000X0.250000X-0.475000X0.250000X-0.475000X-0.250000X0*%
%ADD36RoundRect,0.140000X0.021213X-0.219203X0.219203X-0.021213X-0.021213X0.219203X-0.219203X0.021213X0*%
%ADD37RoundRect,0.140000X0.140000X0.170000X-0.140000X0.170000X-0.140000X-0.170000X0.140000X-0.170000X0*%
%ADD38RoundRect,0.140000X-0.170000X0.140000X-0.170000X-0.140000X0.170000X-0.140000X0.170000X0.140000X0*%
%ADD39RoundRect,0.075000X0.415425X0.521491X-0.521491X-0.415425X-0.415425X-0.521491X0.521491X0.415425X0*%
%ADD40RoundRect,0.075000X-0.415425X0.521491X-0.521491X0.415425X0.415425X-0.521491X0.521491X-0.415425X0*%
%ADD41RoundRect,0.135000X0.035355X-0.226274X0.226274X-0.035355X-0.035355X0.226274X-0.226274X0.035355X0*%
G04 APERTURE END LIST*
D10*
%TO.C,R31*%
X103587500Y-96500000D03*
X105412500Y-96500000D03*
%TD*%
D11*
%TO.C,R40*%
X70010000Y-107710000D03*
X70010000Y-108730000D03*
%TD*%
D12*
%TO.C,C10*%
X61500000Y-102180000D03*
X61500000Y-101220000D03*
%TD*%
D13*
%TO.C,C9*%
X93950000Y-108200000D03*
X92050000Y-108200000D03*
%TD*%
D14*
%TO.C,C12*%
X99504384Y-111500000D03*
X105744384Y-111500000D03*
%TD*%
D15*
%TO.C,R25*%
X33000000Y-108710000D03*
X33000000Y-107690000D03*
%TD*%
D11*
%TO.C,R34*%
X73010000Y-107700000D03*
X73010000Y-108720000D03*
%TD*%
D16*
%TO.C,C6*%
X94700000Y-110300000D03*
X94700000Y-112200000D03*
%TD*%
D11*
%TO.C,R10*%
X51500000Y-100390000D03*
X51500000Y-101410000D03*
%TD*%
D12*
%TO.C,C11*%
X41500000Y-102180000D03*
X41500000Y-101220000D03*
%TD*%
D17*
%TO.C,J1*%
X99230000Y-105400000D03*
X99230000Y-101500000D03*
X100500000Y-105400000D03*
X100500000Y-101500000D03*
X101770000Y-105400000D03*
X101770000Y-101500000D03*
X103040000Y-105400000D03*
X103040000Y-101500000D03*
X104310000Y-105400000D03*
X104310000Y-101500000D03*
%TD*%
D11*
%TO.C,R22*%
X31500000Y-100690000D03*
X31500000Y-101710000D03*
%TD*%
D18*
%TO.C,J5*%
X26000000Y-106000000D03*
X26500000Y-103200000D03*
X27000000Y-106000000D03*
X27500000Y-103200000D03*
X28000000Y-106000000D03*
X28500000Y-103200000D03*
X29000000Y-106000000D03*
X29500000Y-103200000D03*
X30000000Y-106000000D03*
X30500000Y-103200000D03*
X31000000Y-106000000D03*
X31500000Y-103200000D03*
X32000000Y-106000000D03*
X32500000Y-103200000D03*
X33000000Y-106000000D03*
X33500000Y-103200000D03*
D19*
X25000000Y-106000000D03*
X25000000Y-103200000D03*
X34500000Y-106000000D03*
X34500000Y-103200000D03*
%TD*%
D20*
%TO.C,R3*%
X58916637Y-98916637D03*
X60083363Y-100083363D03*
%TD*%
D21*
%TO.C,C1*%
X85460589Y-109360589D03*
X86139411Y-110039411D03*
%TD*%
D22*
%TO.C,IC3*%
X91700000Y-111700000D03*
X92350000Y-111700000D03*
X93000000Y-111700000D03*
X93000000Y-110025000D03*
X91700000Y-110025000D03*
%TD*%
D18*
%TO.C,J4*%
X46000000Y-105700000D03*
X46500000Y-102900000D03*
X47000000Y-105700000D03*
X47500000Y-102900000D03*
X48000000Y-105700000D03*
X48500000Y-102900000D03*
X49000000Y-105700000D03*
X49500000Y-102900000D03*
X50000000Y-105700000D03*
X50500000Y-102900000D03*
X51000000Y-105700000D03*
X51500000Y-102900000D03*
X52000000Y-105700000D03*
X52500000Y-102900000D03*
X53000000Y-105700000D03*
X53500000Y-102900000D03*
D19*
X45000000Y-105700000D03*
X45000000Y-102900000D03*
X54500000Y-105700000D03*
X54500000Y-102900000D03*
%TD*%
D11*
%TO.C,R48*%
X66000000Y-107490000D03*
X66000000Y-108510000D03*
%TD*%
D15*
%TO.C,R15*%
X51000000Y-108420000D03*
X51000000Y-107400000D03*
%TD*%
D23*
%TO.C,C19*%
X89978822Y-107821178D03*
X89300000Y-108500000D03*
%TD*%
D15*
%TO.C,R35*%
X72500000Y-101720000D03*
X72500000Y-100700000D03*
%TD*%
%TO.C,R13*%
X53000000Y-108410000D03*
X53000000Y-107390000D03*
%TD*%
D24*
%TO.C,SW1*%
X96574999Y-96925000D03*
X94425001Y-96925000D03*
X96574999Y-101075000D03*
X94425001Y-101075000D03*
%TD*%
D15*
%TO.C,R37*%
X71490000Y-101720000D03*
X71490000Y-100700000D03*
%TD*%
%TO.C,R28*%
X30000000Y-108710000D03*
X30000000Y-107690000D03*
%TD*%
D11*
%TO.C,R44*%
X68000000Y-107700000D03*
X68000000Y-108720000D03*
%TD*%
D15*
%TO.C,R43*%
X68500000Y-101720000D03*
X68500000Y-100700000D03*
%TD*%
D25*
%TO.C,U5*%
X41000000Y-105300000D03*
D26*
X41000000Y-104900000D03*
X41000000Y-104500000D03*
X41000000Y-104100000D03*
D27*
X41000000Y-103700000D03*
D28*
X40412500Y-103112500D03*
D29*
X40012500Y-103112500D03*
X39612500Y-103112500D03*
X39212500Y-103112500D03*
D30*
X38812500Y-103112500D03*
D31*
X38225000Y-103700000D03*
D26*
X38225000Y-104100000D03*
X38225000Y-104500000D03*
X38225000Y-104900000D03*
D32*
X38225000Y-105300000D03*
D33*
X38812500Y-105887500D03*
D29*
X39212500Y-105887500D03*
X39612500Y-105887500D03*
X40012500Y-105887500D03*
D34*
X40412500Y-105887500D03*
%TD*%
D11*
%TO.C,R38*%
X71000000Y-107700000D03*
X71000000Y-108720000D03*
%TD*%
D35*
%TO.C,C4*%
X95000000Y-104700000D03*
X95000000Y-102800000D03*
%TD*%
D15*
%TO.C,R27*%
X31000000Y-108710000D03*
X31000000Y-107690000D03*
%TD*%
D11*
%TO.C,R36*%
X72010000Y-107700000D03*
X72010000Y-108720000D03*
%TD*%
D15*
%TO.C,R30*%
X28000000Y-108710000D03*
X28000000Y-107690000D03*
%TD*%
%TO.C,R16*%
X50000000Y-108410000D03*
X50000000Y-107390000D03*
%TD*%
D36*
%TO.C,C7*%
X60317059Y-107536283D03*
X60995881Y-106857461D03*
%TD*%
D12*
%TO.C,C5*%
X92500000Y-100500000D03*
X92500000Y-99540000D03*
%TD*%
D11*
%TO.C,R7*%
X48500000Y-100400000D03*
X48500000Y-101420000D03*
%TD*%
%TO.C,R9*%
X50500000Y-100390000D03*
X50500000Y-101410000D03*
%TD*%
D15*
%TO.C,R41*%
X69500000Y-101720000D03*
X69500000Y-100700000D03*
%TD*%
%TO.C,R45*%
X67500000Y-101720000D03*
X67500000Y-100700000D03*
%TD*%
%TO.C,R17*%
X49000000Y-108420000D03*
X49000000Y-107400000D03*
%TD*%
D36*
%TO.C,C8*%
X79660589Y-103839411D03*
X80339411Y-103160589D03*
%TD*%
%TO.C,C15*%
X88660589Y-98339411D03*
X89339411Y-97660589D03*
%TD*%
D37*
%TO.C,C16*%
X82460000Y-97000000D03*
X81500000Y-97000000D03*
%TD*%
D11*
%TO.C,R42*%
X69000000Y-107710000D03*
X69000000Y-108730000D03*
%TD*%
D15*
%TO.C,R33*%
X73490000Y-101710000D03*
X73490000Y-100690000D03*
%TD*%
D25*
%TO.C,U3*%
X60887500Y-105200000D03*
D26*
X60887500Y-104800000D03*
X60887500Y-104400000D03*
X60887500Y-104000000D03*
D27*
X60887500Y-103600000D03*
D28*
X60300000Y-103012500D03*
D29*
X59900000Y-103012500D03*
X59500000Y-103012500D03*
X59100000Y-103012500D03*
D30*
X58700000Y-103012500D03*
D31*
X58112500Y-103600000D03*
D26*
X58112500Y-104000000D03*
X58112500Y-104400000D03*
X58112500Y-104800000D03*
D32*
X58112500Y-105200000D03*
D33*
X58700000Y-105787500D03*
D29*
X59100000Y-105787500D03*
X59500000Y-105787500D03*
X59900000Y-105787500D03*
D34*
X60300000Y-105787500D03*
%TD*%
D37*
%TO.C,C17*%
X81500000Y-99400000D03*
X80540000Y-99400000D03*
%TD*%
D11*
%TO.C,R46*%
X67000000Y-107700000D03*
X67000000Y-108720000D03*
%TD*%
%TO.C,R24*%
X33500000Y-100690000D03*
X33500000Y-101710000D03*
%TD*%
%TO.C,R8*%
X49500000Y-100390000D03*
X49500000Y-101410000D03*
%TD*%
%TO.C,R21*%
X30500000Y-100690000D03*
X30500000Y-101710000D03*
%TD*%
D36*
%TO.C,C2*%
X92660589Y-103339411D03*
X93339411Y-102660589D03*
%TD*%
D15*
%TO.C,R29*%
X29000000Y-108710000D03*
X29000000Y-107690000D03*
%TD*%
%TO.C,R14*%
X52000000Y-108410000D03*
X52000000Y-107390000D03*
%TD*%
%TO.C,R47*%
X66500000Y-101510000D03*
X66500000Y-100490000D03*
%TD*%
D11*
%TO.C,R20*%
X29500000Y-100690000D03*
X29500000Y-101710000D03*
%TD*%
D38*
%TO.C,C14*%
X40500000Y-107220000D03*
X40500000Y-108180000D03*
%TD*%
D11*
%TO.C,R23*%
X32500000Y-100690000D03*
X32500000Y-101710000D03*
%TD*%
%TO.C,R19*%
X28500000Y-100690000D03*
X28500000Y-101710000D03*
%TD*%
D15*
%TO.C,R18*%
X48000000Y-108410000D03*
X48000000Y-107390000D03*
%TD*%
D11*
%TO.C,R12*%
X53500000Y-100390000D03*
X53500000Y-101410000D03*
%TD*%
D18*
%TO.C,J6*%
X66000000Y-106010000D03*
X66500000Y-103210000D03*
X67000000Y-106010000D03*
X67500000Y-103210000D03*
X68000000Y-106010000D03*
X68500000Y-103210000D03*
X69000000Y-106010000D03*
X69500000Y-103210000D03*
X70000000Y-106010000D03*
X70500000Y-103210000D03*
X71000000Y-106010000D03*
X71500000Y-103210000D03*
X72000000Y-106010000D03*
X72500000Y-103210000D03*
X73000000Y-106010000D03*
X73500000Y-103210000D03*
D19*
X65000000Y-106010000D03*
X65000000Y-103210000D03*
X74500000Y-106010000D03*
X74500000Y-103210000D03*
%TD*%
D15*
%TO.C,R39*%
X70500000Y-101720000D03*
X70500000Y-100700000D03*
%TD*%
D20*
%TO.C,R2*%
X38416637Y-99616637D03*
X39583363Y-100783363D03*
%TD*%
D23*
%TO.C,C18*%
X81839411Y-107560589D03*
X81160589Y-108239411D03*
%TD*%
D36*
%TO.C,C3*%
X89660589Y-99039411D03*
X90339411Y-98360589D03*
%TD*%
D21*
%TO.C,C13*%
X92160589Y-104360589D03*
X92839411Y-105039411D03*
%TD*%
D37*
%TO.C,C20*%
X79980000Y-101400000D03*
X79020000Y-101400000D03*
%TD*%
D11*
%TO.C,R11*%
X52500000Y-100390000D03*
X52500000Y-101410000D03*
%TD*%
D15*
%TO.C,R26*%
X32000000Y-108710000D03*
X32000000Y-107690000D03*
%TD*%
D39*
%TO.C,U1*%
X90887876Y-102701212D03*
X90534322Y-102347658D03*
X90180769Y-101994105D03*
X89827215Y-101640551D03*
X89473662Y-101286998D03*
X89120109Y-100933445D03*
X88766555Y-100579891D03*
X88413002Y-100226338D03*
X88059449Y-99872785D03*
X87705895Y-99519231D03*
X87352342Y-99165678D03*
X86998788Y-98812124D03*
D40*
X85001212Y-98812124D03*
X84647658Y-99165678D03*
X84294105Y-99519231D03*
X83940551Y-99872785D03*
X83586998Y-100226338D03*
X83233445Y-100579891D03*
X82879891Y-100933445D03*
X82526338Y-101286998D03*
X82172785Y-101640551D03*
X81819231Y-101994105D03*
X81465678Y-102347658D03*
X81112124Y-102701212D03*
D39*
X81112124Y-104698788D03*
X81465678Y-105052342D03*
X81819231Y-105405895D03*
X82172785Y-105759449D03*
X82526338Y-106113002D03*
X82879891Y-106466555D03*
X83233445Y-106820109D03*
X83586998Y-107173662D03*
X83940551Y-107527215D03*
X84294105Y-107880769D03*
X84647658Y-108234322D03*
X85001212Y-108587876D03*
D40*
X86998788Y-108587876D03*
X87352342Y-108234322D03*
X87705895Y-107880769D03*
X88059449Y-107527215D03*
X88413002Y-107173662D03*
X88766555Y-106820109D03*
X89120109Y-106466555D03*
X89473662Y-106113002D03*
X89827215Y-105759449D03*
X90180769Y-105405895D03*
X90534322Y-105052342D03*
X90887876Y-104698788D03*
%TD*%
D41*
%TO.C,R32*%
X90639376Y-107060624D03*
X91360624Y-106339376D03*
%TD*%
M02*
