M48
; DRILL file KiCad 10.0.0 date 2026-05-07T03:09:38
; FORMAT={-:-/ absolute / metric / decimal}
; #@! TF.CreationDate,2026-05-07T03:09:38+01:00
; #@! TF.GenerationSoftware,Kicad,Pcbnew,10.0.0
; #@! TF.FileFunction,MixedPlating,1,2
FMAT,2
METRIC
; #@! TA.AperFunction,Plated,PTH,ViaDrill
T1C0.300
; #@! TA.AperFunction,Plated,PTH,ComponentDrill
T2C0.500
; #@! TA.AperFunction,Plated,PTH,ComponentDrill
T3C0.800
; #@! TA.AperFunction,NonPlated,NPTH,ComponentDrill
T4C3.000
%
G90
G05
T1
X25.0Y-103.0
X25.0Y-106.0
X26.0Y-106.0
X26.5Y-103.0
X27.0Y-106.0
X27.5Y-103.0
X34.5Y-103.0
X34.5Y-106.0
X38.5Y-99.7
X40.5Y-108.2
X41.5Y-101.2
X45.0Y-103.0
X45.0Y-105.5
X46.0Y-105.5
X46.5Y-103.0
X47.0Y-105.5
X47.5Y-103.0
X54.5Y-103.0
X54.5Y-105.5
X58.5Y-113.0
X59.0Y-99.0
X60.0Y-113.1
X60.5Y-101.7
X60.5Y-107.7
X60.996Y-106.857
X61.5Y-101.2
X61.77Y-103.352
X61.836Y-106.086
X62.114Y-107.364
X65.0Y-103.0
X65.0Y-106.0
X74.5Y-103.0
X74.5Y-106.0
X75.25Y-112.75
X76.5Y-113.0
X78.5Y-112.0
X78.5Y-113.0
X79.0Y-109.35
X79.02Y-101.4
X79.661Y-103.839
X80.5Y-114.0
X80.54Y-99.4
X81.161Y-108.239
X81.5Y-97.0
X82.601Y-102.959
X83.0Y-112.95
X83.5Y-109.7
X84.861Y-106.639
X85.0Y-110.34
X85.0Y-112.0
X85.639Y-105.861
X86.0Y-99.548
X86.139Y-110.039
X86.965Y-109.465
X87.0Y-112.5
X87.5Y-101.0
X87.669Y-106.43
X88.0Y-96.5
X88.603Y-105.175
X88.734Y-111.234
X89.0Y-102.5
X89.0Y-109.5
X89.3Y-108.5
X89.339Y-97.661
X89.495Y-104.55
X89.661Y-99.039
X90.339Y-98.361
X90.45Y-109.0
X90.885Y-99.337
X91.0Y-108.0
X91.255Y-101.399
X91.361Y-106.339
X92.377Y-111.029
X92.5Y-99.5
X92.6Y-107.0
X92.839Y-105.039
X93.339Y-102.661
X94.0Y-108.2
X94.5Y-97.0
X94.7Y-110.2
X95.0Y-102.8
X96.0Y-106.5
X96.5Y-97.0
X96.5Y-104.85
X99.486Y-112.297
X99.486Y-112.999
X99.5Y-110.514
X99.504Y-111.5
X100.5Y-105.4
X101.77Y-105.4
X104.31Y-105.4
X111.0Y-110.5
X112.15Y-111.967
T2
X141.25Y-113.0
X141.375Y-96.955
X142.5Y-113.0
X142.625Y-96.955
T3
X109.61Y-95.483
X109.61Y-113.517
X112.15Y-95.483
X112.15Y-113.517
X114.69Y-95.483
X114.69Y-113.517
X117.23Y-95.483
X117.23Y-113.517
X119.77Y-95.483
X119.77Y-113.517
X122.31Y-95.483
X122.31Y-113.517
X124.85Y-95.483
X124.85Y-113.517
X127.39Y-95.483
X127.39Y-113.517
T4
X132.5Y-97.6
X132.5Y-111.6
M30
