%TF.GenerationSoftware,KiCad,Pcbnew,9.0.3*%
%TF.CreationDate,2026-03-01T17:04:35+00:00*%
%TF.ProjectId,vibook,7669626f-6f6b-42e6-9b69-6361645f7063,rev?*%
%TF.SameCoordinates,Original*%
%TF.FileFunction,Copper,L1,Top*%
%TF.FilePolarity,Positive*%
%FSLAX46Y46*%
G04 Gerber Fmt 4.6, Leading zero omitted, Abs format (unit mm)*
G04 Created by KiCad (PCBNEW 9.0.3) date 2026-03-01 17:04:35*
%MOMM*%
%LPD*%
G01*
G04 APERTURE LIST*
G04 Aperture macros list*
%AMRoundRect*
0 Rectangle with rounded corners*
0 $1 Rounding radius*
0 $2 $3 $4 $5 $6 $7 $8 $9 X,Y pos of 4 corners*
0 Add a 4 corners polygon primitive as box body*
4,1,4,$2,$3,$4,$5,$6,$7,$8,$9,$2,$3,0*
0 Add four circle primitives for the rounded corners*
1,1,$1+$1,$2,$3*
1,1,$1+$1,$4,$5*
1,1,$1+$1,$6,$7*
1,1,$1+$1,$8,$9*
0 Add four rect primitives between the rounded corners*
20,1,$1+$1,$2,$3,$4,$5,0*
20,1,$1+$1,$4,$5,$6,$7,0*
20,1,$1+$1,$6,$7,$8,$9,0*
20,1,$1+$1,$8,$9,$2,$3,0*%
%AMFreePoly0*
4,1,14,0.354215,0.088284,0.450784,-0.008285,0.462500,-0.036569,0.462500,-0.060000,0.450784,-0.088284,0.422500,-0.100000,-0.422500,-0.100000,-0.450784,-0.088284,-0.462500,-0.060000,-0.462500,0.060000,-0.450784,0.088284,-0.422500,0.100000,0.325931,0.100000,0.354215,0.088284,0.354215,0.088284,$1*%
%AMFreePoly1*
4,1,14,0.450784,0.088284,0.462500,0.060000,0.462500,0.036569,0.450784,0.008285,0.354215,-0.088284,0.325931,-0.100000,-0.422500,-0.100000,-0.450784,-0.088284,-0.462500,-0.060000,-0.462500,0.060000,-0.450784,0.088284,-0.422500,0.100000,0.422500,0.100000,0.450784,0.088284,0.450784,0.088284,$1*%
%AMFreePoly2*
4,1,14,0.088284,0.450784,0.100000,0.422500,0.100000,-0.422500,0.088284,-0.450784,0.060000,-0.462500,-0.060000,-0.462500,-0.088284,-0.450784,-0.100000,-0.422500,-0.100000,0.325931,-0.088284,0.354215,0.008285,0.450784,0.036569,0.462500,0.060000,0.462500,0.088284,0.450784,0.088284,0.450784,$1*%
%AMFreePoly3*
4,1,14,-0.008285,0.450784,0.088284,0.354215,0.100000,0.325931,0.100000,-0.422500,0.088284,-0.450784,0.060000,-0.462500,-0.060000,-0.462500,-0.088284,-0.450784,-0.100000,-0.422500,-0.100000,0.422500,-0.088284,0.450784,-0.060000,0.462500,-0.036569,0.462500,-0.008285,0.450784,-0.008285,0.450784,$1*%
%AMFreePoly4*
4,1,14,0.450784,0.088284,0.462500,0.060000,0.462500,-0.060000,0.450784,-0.088284,0.422500,-0.100000,-0.325931,-0.100000,-0.354215,-0.088284,-0.450784,0.008285,-0.462500,0.036569,-0.462500,0.060000,-0.450784,0.088284,-0.422500,0.100000,0.422500,0.100000,0.450784,0.088284,0.450784,0.088284,$1*%
%AMFreePoly5*
4,1,14,0.450784,0.088284,0.462500,0.060000,0.462500,-0.060000,0.450784,-0.088284,0.422500,-0.100000,-0.422500,-0.100000,-0.450784,-0.088284,-0.462500,-0.060000,-0.462500,-0.036569,-0.450784,-0.008285,-0.354215,0.088284,-0.325931,0.100000,0.422500,0.100000,0.450784,0.088284,0.450784,0.088284,$1*%
%AMFreePoly6*
4,1,14,0.088284,0.450784,0.100000,0.422500,0.100000,-0.325931,0.088284,-0.354215,-0.008285,-0.450784,-0.036569,-0.462500,-0.060000,-0.462500,-0.088284,-0.450784,-0.100000,-0.422500,-0.100000,0.422500,-0.088284,0.450784,-0.060000,0.462500,0.060000,0.462500,0.088284,0.450784,0.088284,0.450784,$1*%
%AMFreePoly7*
4,1,14,0.088284,0.450784,0.100000,0.422500,0.100000,-0.422500,0.088284,-0.450784,0.060000,-0.462500,0.036569,-0.462500,0.008285,-0.450784,-0.088284,-0.354215,-0.100000,-0.325931,-0.100000,0.422500,-0.088284,0.450784,-0.060000,0.462500,0.060000,0.462500,0.088284,0.450784,0.088284,0.450784,$1*%
G04 Aperture macros list end*
%TA.AperFunction,ComponentPad*%
%ADD10C,2.000000*%
%TD*%
%TA.AperFunction,SMDPad,CuDef*%
%ADD11RoundRect,0.140000X0.170000X-0.140000X0.170000X0.140000X-0.170000X0.140000X-0.170000X-0.140000X0*%
%TD*%
%TA.AperFunction,SMDPad,CuDef*%
%ADD12R,1.750000X0.600000*%
%TD*%
%TA.AperFunction,SMDPad,CuDef*%
%ADD13RoundRect,0.250000X0.550000X-0.250000X0.550000X0.250000X-0.550000X0.250000X-0.550000X-0.250000X0*%
%TD*%
%TA.AperFunction,SMDPad,CuDef*%
%ADD14RoundRect,0.140000X-0.140000X-0.170000X0.140000X-0.170000X0.140000X0.170000X-0.140000X0.170000X0*%
%TD*%
%TA.AperFunction,SMDPad,CuDef*%
%ADD15R,2.350000X0.850000*%
%TD*%
%TA.AperFunction,SMDPad,CuDef*%
%ADD16FreePoly0,0.000000*%
%TD*%
%TA.AperFunction,SMDPad,CuDef*%
%ADD17RoundRect,0.050000X-0.412500X-0.050000X0.412500X-0.050000X0.412500X0.050000X-0.412500X0.050000X0*%
%TD*%
%TA.AperFunction,SMDPad,CuDef*%
%ADD18FreePoly1,0.000000*%
%TD*%
%TA.AperFunction,SMDPad,CuDef*%
%ADD19FreePoly2,0.000000*%
%TD*%
%TA.AperFunction,SMDPad,CuDef*%
%ADD20RoundRect,0.050000X-0.050000X-0.412500X0.050000X-0.412500X0.050000X0.412500X-0.050000X0.412500X0*%
%TD*%
%TA.AperFunction,SMDPad,CuDef*%
%ADD21FreePoly3,0.000000*%
%TD*%
%TA.AperFunction,SMDPad,CuDef*%
%ADD22FreePoly4,0.000000*%
%TD*%
%TA.AperFunction,SMDPad,CuDef*%
%ADD23FreePoly5,0.000000*%
%TD*%
%TA.AperFunction,SMDPad,CuDef*%
%ADD24FreePoly6,0.000000*%
%TD*%
%TA.AperFunction,SMDPad,CuDef*%
%ADD25FreePoly7,0.000000*%
%TD*%
%TA.AperFunction,SMDPad,CuDef*%
%ADD26R,2.400000X0.740000*%
%TD*%
%TA.AperFunction,SMDPad,CuDef*%
%ADD27RoundRect,0.100000X-0.130000X-0.100000X0.130000X-0.100000X0.130000X0.100000X-0.130000X0.100000X0*%
%TD*%
%TA.AperFunction,SMDPad,CuDef*%
%ADD28RoundRect,0.140000X0.140000X0.170000X-0.140000X0.170000X-0.140000X-0.170000X0.140000X-0.170000X0*%
%TD*%
%TA.AperFunction,SMDPad,CuDef*%
%ADD29RoundRect,0.062500X-0.062500X0.375000X-0.062500X-0.375000X0.062500X-0.375000X0.062500X0.375000X0*%
%TD*%
%TA.AperFunction,SMDPad,CuDef*%
%ADD30RoundRect,0.062500X-0.375000X0.062500X-0.375000X-0.062500X0.375000X-0.062500X0.375000X0.062500X0*%
%TD*%
%TA.AperFunction,HeatsinkPad*%
%ADD31R,3.450000X3.450000*%
%TD*%
%TA.AperFunction,ViaPad*%
%ADD32C,0.600000*%
%TD*%
%TA.AperFunction,Conductor*%
%ADD33C,0.200000*%
%TD*%
G04 APERTURE END LIST*
D10*
%TO.P,SW3,1,1*%
%TO.N,Net-(J1-~{RESET})*%
X101750000Y-114750000D03*
X108250000Y-114750000D03*
%TO.P,SW3,2,2*%
%TO.N,GND*%
X101750000Y-119250000D03*
X108250000Y-119250000D03*
%TD*%
D11*
%TO.P,C8,1*%
%TO.N,+3.3V*%
X97500000Y-70000000D03*
%TO.P,C8,2*%
%TO.N,GND*%
X97500000Y-69040000D03*
%TD*%
%TO.P,C7,1*%
%TO.N,+3.3V*%
X97000000Y-52000000D03*
%TO.P,C7,2*%
%TO.N,GND*%
X97000000Y-51040000D03*
%TD*%
%TO.P,C6,1*%
%TO.N,+3.3V*%
X97500000Y-34960000D03*
%TO.P,C6,2*%
%TO.N,GND*%
X97500000Y-34000000D03*
%TD*%
D12*
%TO.P,U7,1,P1*%
%TO.N,Net-(U1-LED7{slash}ELE11)*%
X110250000Y-50500000D03*
%TO.P,U7,2,P2*%
%TO.N,Net-(U1-LED6{slash}ELE10)*%
X112000000Y-51500000D03*
%TO.P,U7,3,P3*%
%TO.N,Net-(U1-LED5{slash}ELE9)*%
X110250000Y-52500000D03*
%TO.P,U7,4,P4*%
%TO.N,Net-(U1-LED4{slash}ELE8)*%
X112000000Y-53500000D03*
%TO.P,U7,5,P5*%
%TO.N,Net-(U1-LED3{slash}ELE7)*%
X110250000Y-54500000D03*
%TO.P,U7,6,P6*%
%TO.N,Net-(U1-LED2{slash}ELE6)*%
X112000000Y-55500000D03*
%TO.P,U7,7,P7*%
%TO.N,Net-(U1-LED1{slash}ELE5)*%
X110250000Y-56500000D03*
%TO.P,U7,8,P8*%
%TO.N,Net-(U1-LED0{slash}ELE4)*%
X112000000Y-57500000D03*
%TO.P,U7,9,P9*%
%TO.N,Net-(U1-ELE3)*%
X110250000Y-58500000D03*
%TO.P,U7,10,P10*%
%TO.N,Net-(U1-ELE2)*%
X112000000Y-59500000D03*
%TO.P,U7,11,P11*%
%TO.N,Net-(U1-ELE1)*%
X110250000Y-60500000D03*
%TO.P,U7,12,P12*%
%TO.N,Net-(U1-ELE0)*%
X112000000Y-61500000D03*
%TD*%
%TO.P,U8,1,P1*%
%TO.N,Net-(U5-LED7{slash}ELE11)*%
X110250000Y-33500000D03*
%TO.P,U8,2,P2*%
%TO.N,Net-(U5-LED6{slash}ELE10)*%
X112000000Y-34500000D03*
%TO.P,U8,3,P3*%
%TO.N,Net-(U5-LED5{slash}ELE9)*%
X110250000Y-35500000D03*
%TO.P,U8,4,P4*%
%TO.N,Net-(U5-LED4{slash}ELE8)*%
X112000000Y-36500000D03*
%TO.P,U8,5,P5*%
%TO.N,Net-(U5-LED3{slash}ELE7)*%
X110250000Y-37500000D03*
%TO.P,U8,6,P6*%
%TO.N,Net-(U5-LED2{slash}ELE6)*%
X112000000Y-38500000D03*
%TO.P,U8,7,P7*%
%TO.N,Net-(U5-LED1{slash}ELE5)*%
X110250000Y-39500000D03*
%TO.P,U8,8,P8*%
%TO.N,Net-(U5-LED0{slash}ELE4)*%
X112000000Y-40500000D03*
%TO.P,U8,9,P9*%
%TO.N,Net-(U5-ELE3)*%
X110250000Y-41500000D03*
%TO.P,U8,10,P10*%
%TO.N,Net-(U5-ELE2)*%
X112000000Y-42500000D03*
%TO.P,U8,11,P11*%
%TO.N,Net-(U5-ELE1)*%
X110250000Y-43500000D03*
%TO.P,U8,12,P12*%
%TO.N,Net-(U5-ELE0)*%
X112000000Y-44500000D03*
%TD*%
D13*
%TO.P,SW1,1,C*%
%TO.N,GND*%
X97300000Y-118250000D03*
%TO.P,SW1,2,B*%
%TO.N,Net-(SW1-B)*%
X95000000Y-116500000D03*
%TO.P,SW1,3,A*%
%TO.N,+3.3V*%
X97300000Y-114750000D03*
%TD*%
D14*
%TO.P,C1,1*%
%TO.N,+3.3V*%
X107520000Y-96000000D03*
%TO.P,C1,2*%
%TO.N,GND*%
X108480000Y-96000000D03*
%TD*%
D15*
%TO.P,U6,1,P1*%
%TO.N,Net-(U2-PA2)*%
X99500000Y-85500000D03*
%TO.P,U6,2,P2*%
%TO.N,Net-(U2-PA3)*%
X97150000Y-87500000D03*
%TD*%
D11*
%TO.P,C3,1*%
%TO.N,+3.3V*%
X104500000Y-95480000D03*
%TO.P,C3,2*%
%TO.N,GND*%
X104500000Y-94520000D03*
%TD*%
D16*
%TO.P,U1,1,~{IRQ}*%
%TO.N,unconnected-(U1-~{IRQ}-Pad1)*%
X97612500Y-53812500D03*
D17*
%TO.P,U1,2,SCL*%
%TO.N,Net-(U1-SCL)*%
X97612500Y-54212500D03*
%TO.P,U1,3,SDA*%
%TO.N,Net-(U1-SDA)*%
X97612500Y-54612500D03*
%TO.P,U1,4,ADDR*%
%TO.N,unconnected-(U1-ADDR-Pad4)*%
X97612500Y-55012500D03*
D18*
%TO.P,U1,5,VREG*%
%TO.N,unconnected-(U1-VREG-Pad5)*%
X97612500Y-55412500D03*
D19*
%TO.P,U1,6,VSS*%
%TO.N,GND*%
X98200000Y-56000000D03*
D20*
%TO.P,U1,7,REXT*%
%TO.N,unconnected-(U1-REXT-Pad7)*%
X98600000Y-56000000D03*
%TO.P,U1,8,ELE0*%
%TO.N,Net-(U1-ELE0)*%
X99000000Y-56000000D03*
%TO.P,U1,9,ELE1*%
%TO.N,Net-(U1-ELE1)*%
X99400000Y-56000000D03*
D21*
%TO.P,U1,10,ELE2*%
%TO.N,Net-(U1-ELE2)*%
X99800000Y-56000000D03*
D22*
%TO.P,U1,11,ELE3*%
%TO.N,Net-(U1-ELE3)*%
X100387500Y-55412500D03*
D17*
%TO.P,U1,12,LED0/ELE4*%
%TO.N,Net-(U1-LED0{slash}ELE4)*%
X100387500Y-55012500D03*
%TO.P,U1,13,LED1/ELE5*%
%TO.N,Net-(U1-LED1{slash}ELE5)*%
X100387500Y-54612500D03*
%TO.P,U1,14,LED2/ELE6*%
%TO.N,Net-(U1-LED2{slash}ELE6)*%
X100387500Y-54212500D03*
D23*
%TO.P,U1,15,LED3/ELE7*%
%TO.N,Net-(U1-LED3{slash}ELE7)*%
X100387500Y-53812500D03*
D24*
%TO.P,U1,16,LED4/ELE8*%
%TO.N,Net-(U1-LED4{slash}ELE8)*%
X99800000Y-53225000D03*
D20*
%TO.P,U1,17,LED5/ELE9*%
%TO.N,Net-(U1-LED5{slash}ELE9)*%
X99400000Y-53225000D03*
%TO.P,U1,18,LED6/ELE10*%
%TO.N,Net-(U1-LED6{slash}ELE10)*%
X99000000Y-53225000D03*
%TO.P,U1,19,LED7/ELE11*%
%TO.N,Net-(U1-LED7{slash}ELE11)*%
X98600000Y-53225000D03*
D25*
%TO.P,U1,20,VDD*%
%TO.N,+3.3V*%
X98200000Y-53225000D03*
%TD*%
D26*
%TO.P,J1,1,VTref*%
%TO.N,+3.3V*%
X103550000Y-129960000D03*
%TO.P,J1,2,SWDIO/TMS*%
%TO.N,Net-(J1-SWDIO{slash}TMS)*%
X107450000Y-129960000D03*
%TO.P,J1,3,GND*%
%TO.N,GND*%
X103550000Y-131230000D03*
%TO.P,J1,4,SWCLK/TCK*%
%TO.N,Net-(J1-SWCLK{slash}TCK)*%
X107450000Y-131230000D03*
%TO.P,J1,5,GND*%
%TO.N,GND*%
X103550000Y-132500000D03*
%TO.P,J1,6,SWO/TDO*%
%TO.N,unconnected-(J1-SWO{slash}TDO-Pad6)*%
X107450000Y-132500000D03*
%TO.P,J1,7,KEY*%
%TO.N,unconnected-(J1-KEY-Pad7)*%
X103550000Y-133770000D03*
%TO.P,J1,8,NC/TDI*%
%TO.N,unconnected-(J1-NC{slash}TDI-Pad8)*%
X107450000Y-133770000D03*
%TO.P,J1,9,GNDDetect*%
%TO.N,GND*%
X103550000Y-135040000D03*
%TO.P,J1,10,~{RESET}*%
%TO.N,Net-(J1-~{RESET})*%
X107450000Y-135040000D03*
%TD*%
D16*
%TO.P,U5,1,~{IRQ}*%
%TO.N,unconnected-(U5-~{IRQ}-Pad1)*%
X97612500Y-36700000D03*
D17*
%TO.P,U5,2,SCL*%
%TO.N,Net-(U1-SCL)*%
X97612500Y-37100000D03*
%TO.P,U5,3,SDA*%
%TO.N,Net-(U1-SDA)*%
X97612500Y-37500000D03*
%TO.P,U5,4,ADDR*%
%TO.N,unconnected-(U5-ADDR-Pad4)*%
X97612500Y-37900000D03*
D18*
%TO.P,U5,5,VREG*%
%TO.N,unconnected-(U5-VREG-Pad5)*%
X97612500Y-38300000D03*
D19*
%TO.P,U5,6,VSS*%
%TO.N,GND*%
X98200000Y-38887500D03*
D20*
%TO.P,U5,7,REXT*%
%TO.N,unconnected-(U5-REXT-Pad7)*%
X98600000Y-38887500D03*
%TO.P,U5,8,ELE0*%
%TO.N,Net-(U5-ELE0)*%
X99000000Y-38887500D03*
%TO.P,U5,9,ELE1*%
%TO.N,Net-(U5-ELE1)*%
X99400000Y-38887500D03*
D21*
%TO.P,U5,10,ELE2*%
%TO.N,Net-(U5-ELE2)*%
X99800000Y-38887500D03*
D22*
%TO.P,U5,11,ELE3*%
%TO.N,Net-(U5-ELE3)*%
X100387500Y-38300000D03*
D17*
%TO.P,U5,12,LED0/ELE4*%
%TO.N,Net-(U5-LED0{slash}ELE4)*%
X100387500Y-37900000D03*
%TO.P,U5,13,LED1/ELE5*%
%TO.N,Net-(U5-LED1{slash}ELE5)*%
X100387500Y-37500000D03*
%TO.P,U5,14,LED2/ELE6*%
%TO.N,Net-(U5-LED2{slash}ELE6)*%
X100387500Y-37100000D03*
D23*
%TO.P,U5,15,LED3/ELE7*%
%TO.N,Net-(U5-LED3{slash}ELE7)*%
X100387500Y-36700000D03*
D24*
%TO.P,U5,16,LED4/ELE8*%
%TO.N,Net-(U5-LED4{slash}ELE8)*%
X99800000Y-36112500D03*
D20*
%TO.P,U5,17,LED5/ELE9*%
%TO.N,Net-(U5-LED5{slash}ELE9)*%
X99400000Y-36112500D03*
%TO.P,U5,18,LED6/ELE10*%
%TO.N,Net-(U5-LED6{slash}ELE10)*%
X99000000Y-36112500D03*
%TO.P,U5,19,LED7/ELE11*%
%TO.N,Net-(U5-LED7{slash}ELE11)*%
X98600000Y-36112500D03*
D25*
%TO.P,U5,20,VDD*%
%TO.N,+3.3V*%
X98200000Y-36112500D03*
%TD*%
D27*
%TO.P,C4,1*%
%TO.N,+3.3V*%
X110835000Y-91500000D03*
%TO.P,C4,2*%
%TO.N,GND*%
X111475000Y-91500000D03*
%TD*%
%TO.P,R1,1*%
%TO.N,Net-(SW1-B)*%
X94360000Y-109500000D03*
%TO.P,R1,2*%
%TO.N,Net-(U2-PA9)*%
X95000000Y-109500000D03*
%TD*%
D15*
%TO.P,U9,1,P1*%
%TO.N,+3.3V*%
X113175000Y-85000000D03*
%TO.P,U9,2,P2*%
%TO.N,GND*%
X110825000Y-87000000D03*
%TD*%
D11*
%TO.P,C5,1*%
%TO.N,Net-(J1-~{RESET})*%
X106000000Y-110980000D03*
%TO.P,C5,2*%
%TO.N,GND*%
X106000000Y-110020000D03*
%TD*%
D28*
%TO.P,C2,1*%
%TO.N,+3.3V*%
X103480000Y-103500000D03*
%TO.P,C2,2*%
%TO.N,GND*%
X102520000Y-103500000D03*
%TD*%
D12*
%TO.P,U4,1,P1*%
%TO.N,Net-(U3-LED7{slash}ELE11)*%
X110750000Y-70000000D03*
%TO.P,U4,2,P2*%
%TO.N,Net-(U3-LED6{slash}ELE10)*%
X112500000Y-71000000D03*
%TO.P,U4,3,P3*%
%TO.N,Net-(U3-LED5{slash}ELE9)*%
X110750000Y-72000000D03*
%TO.P,U4,4,P4*%
%TO.N,Net-(U3-LED4{slash}ELE8)*%
X112500000Y-73000000D03*
%TO.P,U4,5,P5*%
%TO.N,Net-(U3-LED3{slash}ELE7)*%
X110750000Y-74000000D03*
%TO.P,U4,6,P6*%
%TO.N,Net-(U3-LED2{slash}ELE6)*%
X112500000Y-75000000D03*
%TO.P,U4,7,P7*%
%TO.N,Net-(U3-LED1{slash}ELE5)*%
X110750000Y-76000000D03*
%TO.P,U4,8,P8*%
%TO.N,Net-(U3-LED0{slash}ELE4)*%
X112500000Y-77000000D03*
%TO.P,U4,9,P9*%
%TO.N,Net-(U3-ELE3)*%
X110750000Y-78000000D03*
%TO.P,U4,10,P10*%
%TO.N,Net-(U3-ELE2)*%
X112500000Y-79000000D03*
%TO.P,U4,11,P11*%
%TO.N,Net-(U3-ELE1)*%
X110750000Y-80000000D03*
%TO.P,U4,12,P12*%
%TO.N,Net-(U3-ELE0)*%
X112500000Y-81000000D03*
%TD*%
D16*
%TO.P,U3,1,~{IRQ}*%
%TO.N,unconnected-(U3-~{IRQ}-Pad1)*%
X98112500Y-71700000D03*
D17*
%TO.P,U3,2,SCL*%
%TO.N,Net-(U1-SCL)*%
X98112500Y-72100000D03*
%TO.P,U3,3,SDA*%
%TO.N,Net-(U1-SDA)*%
X98112500Y-72500000D03*
%TO.P,U3,4,ADDR*%
%TO.N,unconnected-(U3-ADDR-Pad4)*%
X98112500Y-72900000D03*
D18*
%TO.P,U3,5,VREG*%
%TO.N,unconnected-(U3-VREG-Pad5)*%
X98112500Y-73300000D03*
D19*
%TO.P,U3,6,VSS*%
%TO.N,GND*%
X98700000Y-73887500D03*
D20*
%TO.P,U3,7,REXT*%
%TO.N,unconnected-(U3-REXT-Pad7)*%
X99100000Y-73887500D03*
%TO.P,U3,8,ELE0*%
%TO.N,Net-(U3-ELE0)*%
X99500000Y-73887500D03*
%TO.P,U3,9,ELE1*%
%TO.N,Net-(U3-ELE1)*%
X99900000Y-73887500D03*
D21*
%TO.P,U3,10,ELE2*%
%TO.N,Net-(U3-ELE2)*%
X100300000Y-73887500D03*
D22*
%TO.P,U3,11,ELE3*%
%TO.N,Net-(U3-ELE3)*%
X100887500Y-73300000D03*
D17*
%TO.P,U3,12,LED0/ELE4*%
%TO.N,Net-(U3-LED0{slash}ELE4)*%
X100887500Y-72900000D03*
%TO.P,U3,13,LED1/ELE5*%
%TO.N,Net-(U3-LED1{slash}ELE5)*%
X100887500Y-72500000D03*
%TO.P,U3,14,LED2/ELE6*%
%TO.N,Net-(U3-LED2{slash}ELE6)*%
X100887500Y-72100000D03*
D23*
%TO.P,U3,15,LED3/ELE7*%
%TO.N,Net-(U3-LED3{slash}ELE7)*%
X100887500Y-71700000D03*
D24*
%TO.P,U3,16,LED4/ELE8*%
%TO.N,Net-(U3-LED4{slash}ELE8)*%
X100300000Y-71112500D03*
D20*
%TO.P,U3,17,LED5/ELE9*%
%TO.N,Net-(U3-LED5{slash}ELE9)*%
X99900000Y-71112500D03*
%TO.P,U3,18,LED6/ELE10*%
%TO.N,Net-(U3-LED6{slash}ELE10)*%
X99500000Y-71112500D03*
%TO.P,U3,19,LED7/ELE11*%
%TO.N,Net-(U3-LED7{slash}ELE11)*%
X99100000Y-71112500D03*
D25*
%TO.P,U3,20,VDD*%
%TO.N,+3.3V*%
X98700000Y-71112500D03*
%TD*%
D29*
%TO.P,U2,1,VDD*%
%TO.N,+3.3V*%
X107250000Y-97412500D03*
%TO.P,U2,2,PC14*%
%TO.N,unconnected-(U2-PC14-Pad2)*%
X106750000Y-97412500D03*
%TO.P,U2,3,PC15*%
%TO.N,unconnected-(U2-PC15-Pad3)*%
X106250000Y-97412500D03*
%TO.P,U2,4,NRST*%
%TO.N,Net-(J1-~{RESET})*%
X105750000Y-97412500D03*
%TO.P,U2,5,VDDA*%
%TO.N,+3.3V*%
X105250000Y-97412500D03*
%TO.P,U2,6,PA0*%
%TO.N,unconnected-(U2-PA0-Pad6)*%
X104750000Y-97412500D03*
%TO.P,U2,7,PA1*%
%TO.N,unconnected-(U2-PA1-Pad7)*%
X104250000Y-97412500D03*
%TO.P,U2,8,PA2*%
%TO.N,Net-(U2-PA2)*%
X103750000Y-97412500D03*
D30*
%TO.P,U2,9,PA3*%
%TO.N,Net-(U2-PA3)*%
X103062500Y-98100000D03*
%TO.P,U2,10,PA4*%
%TO.N,Net-(U1-SCL)*%
X103062500Y-98600000D03*
%TO.P,U2,11,PA5*%
%TO.N,unconnected-(U2-PA5-Pad11)*%
X103062500Y-99100000D03*
%TO.P,U2,12,PA6*%
%TO.N,unconnected-(U2-PA6-Pad12)*%
X103062500Y-99600000D03*
%TO.P,U2,13,PA7*%
%TO.N,unconnected-(U2-PA7-Pad13)*%
X103062500Y-100100000D03*
%TO.P,U2,14,PB0*%
%TO.N,unconnected-(U2-PB0-Pad14)*%
X103062500Y-100600000D03*
%TO.P,U2,15,PB1*%
%TO.N,unconnected-(U2-PB1-Pad15)*%
X103062500Y-101100000D03*
%TO.P,U2,16,PB2*%
%TO.N,unconnected-(U2-PB2-Pad16)*%
X103062500Y-101600000D03*
D29*
%TO.P,U2,17,VDD*%
%TO.N,+3.3V*%
X103750000Y-102287500D03*
%TO.P,U2,18,PA8*%
%TO.N,unconnected-(U2-PA8-Pad18)*%
X104250000Y-102287500D03*
%TO.P,U2,19,PA9*%
%TO.N,Net-(U2-PA9)*%
X104750000Y-102287500D03*
%TO.P,U2,20,PA10*%
%TO.N,Net-(U1-SDA)*%
X105250000Y-102287500D03*
%TO.P,U2,21,PA11*%
%TO.N,unconnected-(U2-PA11-Pad21)*%
X105750000Y-102287500D03*
%TO.P,U2,22,PA12*%
%TO.N,unconnected-(U2-PA12-Pad22)*%
X106250000Y-102287500D03*
%TO.P,U2,23,PA13*%
%TO.N,Net-(J1-SWDIO{slash}TMS)*%
X106750000Y-102287500D03*
%TO.P,U2,24,PA14*%
%TO.N,Net-(J1-SWCLK{slash}TCK)*%
X107250000Y-102287500D03*
D30*
%TO.P,U2,25,PA15*%
%TO.N,unconnected-(U2-PA15-Pad25)*%
X107937500Y-101600000D03*
%TO.P,U2,26,PB3*%
%TO.N,unconnected-(U2-PB3-Pad26)*%
X107937500Y-101100000D03*
%TO.P,U2,27,PB4*%
%TO.N,unconnected-(U2-PB4-Pad27)*%
X107937500Y-100600000D03*
%TO.P,U2,28,PB5*%
%TO.N,unconnected-(U2-PB5-Pad28)*%
X107937500Y-100100000D03*
%TO.P,U2,29,PB6*%
%TO.N,unconnected-(U2-PB6-Pad29)*%
X107937500Y-99600000D03*
%TO.P,U2,30,PB7*%
%TO.N,unconnected-(U2-PB7-Pad30)*%
X107937500Y-99100000D03*
%TO.P,U2,31,PB9*%
%TO.N,unconnected-(U2-PB9-Pad31)*%
X107937500Y-98600000D03*
%TO.P,U2,32,PB8*%
%TO.N,unconnected-(U2-PB8-Pad32)*%
X107937500Y-98100000D03*
D31*
%TO.P,U2,33,VSS*%
%TO.N,GND*%
X105500000Y-99850000D03*
%TD*%
D32*
%TO.N,GND*%
X104500000Y-93500000D03*
X109500000Y-96000000D03*
X112500000Y-91500000D03*
X106000000Y-109000000D03*
X101500000Y-103500000D03*
%TO.N,+3.3V*%
X108500000Y-95000000D03*
X110500000Y-93500000D03*
%TO.N,GND*%
X97500000Y-32500000D03*
X97000000Y-50000000D03*
X97500000Y-68000000D03*
X105500000Y-100000000D03*
%TO.N,Net-(U1-SCL)*%
X96550000Y-37000000D03*
X95000000Y-37000000D03*
X96549999Y-54407619D03*
X93500000Y-55000000D03*
X102000000Y-99000000D03*
X99000000Y-99500000D03*
X97050000Y-72000000D03*
X93500000Y-71500000D03*
%TO.N,GND*%
X108500000Y-87000000D03*
%TO.N,Net-(U1-SDA)*%
X96550000Y-55500000D03*
X95450000Y-55500000D03*
X95450000Y-38500000D03*
X96550000Y-38000000D03*
X97080983Y-73000000D03*
X95500000Y-73000000D03*
X94500000Y-101500000D03*
X105300000Y-103119384D03*
%TO.N,GND*%
X102000000Y-132500000D03*
X102000000Y-131000000D03*
X98000000Y-57000000D03*
X98900000Y-75000000D03*
X102000000Y-135000000D03*
X98000000Y-40000000D03*
X98400000Y-118500000D03*
%TO.N,Net-(U2-PA9)*%
X96500000Y-108500000D03*
X104500000Y-104000000D03*
%TO.N,Net-(J1-SWCLK{slash}TCK)*%
X111500000Y-120500000D03*
X107500000Y-104000000D03*
%TO.N,Net-(J1-SWDIO{slash}TMS)*%
X110000000Y-119000000D03*
X106500000Y-106500000D03*
%TD*%
D33*
%TO.N,Net-(J1-~{RESET})*%
X104000000Y-112500000D02*
X106000000Y-112500000D01*
X101750000Y-114750000D02*
X104000000Y-112500000D01*
%TO.N,Net-(J1-SWDIO{slash}TMS)*%
X106626000Y-102794088D02*
X106626000Y-102411500D01*
X106626000Y-102411500D02*
X106750000Y-102287500D01*
X106500000Y-102920088D02*
X106626000Y-102794088D01*
X106500000Y-106500000D02*
X106500000Y-102920088D01*
%TO.N,GND*%
X104500000Y-94520000D02*
X104500000Y-93500000D01*
X108480000Y-96000000D02*
X109500000Y-96000000D01*
X111475000Y-91500000D02*
X112500000Y-91500000D01*
X106000000Y-110020000D02*
X106000000Y-109000000D01*
%TO.N,Net-(J1-~{RESET})*%
X106000000Y-112500000D02*
X108250000Y-114750000D01*
X106000000Y-110980000D02*
X106000000Y-112500000D01*
X112750000Y-114750000D02*
X113000000Y-115000000D01*
X108250000Y-114750000D02*
X112750000Y-114750000D01*
X113000000Y-115000000D02*
X113000000Y-97000000D01*
X101520000Y-114520000D02*
X101750000Y-114750000D01*
%TO.N,+3.3V*%
X97300000Y-114750000D02*
X97300000Y-105200000D01*
X103480000Y-105000000D02*
X103480000Y-105480000D01*
X97300000Y-105200000D02*
X98051000Y-104449000D01*
X98051000Y-104449000D02*
X102929000Y-104449000D01*
X102929000Y-104449000D02*
X103480000Y-105000000D01*
%TO.N,GND*%
X102520000Y-103500000D02*
X101500000Y-103500000D01*
%TO.N,+3.3V*%
X108626000Y-97905912D02*
X108132588Y-97412500D01*
X108626000Y-105153232D02*
X108626000Y-97905912D01*
X103480000Y-103500000D02*
X103480000Y-105000000D01*
X103480000Y-105480000D02*
X105051000Y-107051000D01*
X105051000Y-107051000D02*
X106728232Y-107051000D01*
X106728232Y-107051000D02*
X108626000Y-105153232D01*
X108132588Y-97412500D02*
X107250000Y-97412500D01*
X103480000Y-103500000D02*
X103480000Y-102557500D01*
X103480000Y-102557500D02*
X103750000Y-102287500D01*
X105250000Y-96230000D02*
X105250000Y-97412500D01*
X104500000Y-95480000D02*
X105250000Y-96230000D01*
X107520000Y-97142500D02*
X107250000Y-97412500D01*
X107520000Y-96000000D02*
X107520000Y-97142500D01*
X108500000Y-95000000D02*
X108500000Y-95020000D01*
X108500000Y-95020000D02*
X107520000Y-96000000D01*
X110500000Y-91835000D02*
X110500000Y-93500000D01*
X110835000Y-91500000D02*
X110500000Y-91835000D01*
X110835000Y-91500000D02*
X108480000Y-91500000D01*
X108480000Y-91500000D02*
X104500000Y-95480000D01*
X113175000Y-88325000D02*
X110835000Y-90665000D01*
X113175000Y-85000000D02*
X113175000Y-88325000D01*
X110835000Y-90665000D02*
X110835000Y-91500000D01*
%TO.N,Net-(J1-~{RESET})*%
X105750000Y-95250000D02*
X105750000Y-97412500D01*
X107000000Y-94000000D02*
X105750000Y-95250000D01*
X113000000Y-97000000D02*
X110000000Y-94000000D01*
X110000000Y-94000000D02*
X107000000Y-94000000D01*
X108352000Y-135040000D02*
X113000000Y-130392000D01*
X113000000Y-130392000D02*
X113000000Y-115000000D01*
X107450000Y-135040000D02*
X108352000Y-135040000D01*
%TO.N,GND*%
X97500000Y-34000000D02*
X97500000Y-32500000D01*
%TO.N,+3.3V*%
X97040000Y-34960000D02*
X96000000Y-36000000D01*
X97500000Y-34960000D02*
X97040000Y-34960000D01*
X98200000Y-35660000D02*
X97500000Y-34960000D01*
X98200000Y-36112500D02*
X98200000Y-35660000D01*
%TO.N,GND*%
X97000000Y-51040000D02*
X97000000Y-50000000D01*
%TO.N,+3.3V*%
X96025000Y-51025000D02*
X97000000Y-52000000D01*
X96000000Y-51025000D02*
X96025000Y-51025000D01*
X98200000Y-53200000D02*
X97000000Y-52000000D01*
X98200000Y-53225000D02*
X98200000Y-53200000D01*
%TO.N,GND*%
X97500000Y-69040000D02*
X97500000Y-68000000D01*
%TO.N,+3.3V*%
X96000000Y-68500000D02*
X97500000Y-70000000D01*
X96000000Y-54000000D02*
X96000000Y-68500000D01*
X96775000Y-53225000D02*
X96000000Y-54000000D01*
X98200000Y-53225000D02*
X96775000Y-53225000D01*
X98612500Y-71112500D02*
X97500000Y-70000000D01*
X98700000Y-71112500D02*
X98612500Y-71112500D01*
%TO.N,Net-(U2-PA2)*%
X103750000Y-89750000D02*
X99500000Y-85500000D01*
X103750000Y-97412500D02*
X103750000Y-89750000D01*
%TO.N,Net-(U2-PA3)*%
X97150000Y-92187500D02*
X97150000Y-87500000D01*
X103062500Y-98100000D02*
X97150000Y-92187500D01*
%TO.N,GND*%
X105500000Y-99850000D02*
X105500000Y-100000000D01*
%TO.N,Net-(U1-SCL)*%
X96650000Y-37100000D02*
X97612500Y-37100000D01*
X96550000Y-37000000D02*
X96650000Y-37100000D01*
X94000000Y-37000000D02*
X95000000Y-37000000D01*
X93101000Y-37899000D02*
X94000000Y-37000000D01*
X93101000Y-38000000D02*
X93101000Y-37899000D01*
X93101000Y-54601000D02*
X93101000Y-38000000D01*
X93500000Y-55000000D02*
X93101000Y-54601000D01*
%TO.N,+3.3V*%
X96000000Y-36000000D02*
X96000000Y-51025000D01*
X98200000Y-36112500D02*
X98200000Y-35656250D01*
%TO.N,Net-(U1-SCL)*%
X96549999Y-54407619D02*
X96745118Y-54212500D01*
X96745118Y-54212500D02*
X97612500Y-54212500D01*
X93101000Y-55399000D02*
X93500000Y-55000000D01*
X93101000Y-71101000D02*
X93101000Y-56500000D01*
X93101000Y-56500000D02*
X93101000Y-55399000D01*
X93500000Y-71500000D02*
X93101000Y-71101000D01*
X102400000Y-98600000D02*
X103062500Y-98600000D01*
X102000000Y-99000000D02*
X102400000Y-98600000D01*
X94000000Y-103500000D02*
X95000000Y-103500000D01*
X93101000Y-72500000D02*
X93101000Y-102601000D01*
X93101000Y-102601000D02*
X94000000Y-103500000D01*
X93101000Y-71899000D02*
X93101000Y-72500000D01*
X93500000Y-71500000D02*
X93101000Y-71899000D01*
X95000000Y-103500000D02*
X99000000Y-99500000D01*
X97150000Y-72100000D02*
X97050000Y-72000000D01*
X98112500Y-72100000D02*
X97150000Y-72100000D01*
%TO.N,+3.3V*%
X107958537Y-85000000D02*
X113175000Y-85000000D01*
X96500000Y-73541463D02*
X107958537Y-85000000D01*
X96500000Y-71500000D02*
X96500000Y-73541463D01*
X96887500Y-71112500D02*
X96500000Y-71500000D01*
X98700000Y-71112500D02*
X96887500Y-71112500D01*
%TO.N,Net-(U1-SDA)*%
X97550000Y-72530983D02*
X98081517Y-72530983D01*
X97080983Y-73000000D02*
X97550000Y-72530983D01*
X98081517Y-72530983D02*
X98112500Y-72500000D01*
%TO.N,GND*%
X110825000Y-87000000D02*
X108500000Y-87000000D01*
%TO.N,Net-(U1-SDA)*%
X97122936Y-54612500D02*
X97612500Y-54612500D01*
X96550000Y-55185436D02*
X97122936Y-54612500D01*
X96550000Y-55500000D02*
X96550000Y-55185436D01*
X95000000Y-55500000D02*
X95450000Y-55500000D01*
X94500000Y-56000000D02*
X95000000Y-55500000D01*
X94500000Y-56000000D02*
X94500000Y-39000000D01*
X97050000Y-37500000D02*
X97612500Y-37500000D01*
X96550000Y-38000000D02*
X97050000Y-37500000D01*
X95000000Y-38500000D02*
X95450000Y-38500000D01*
X94500000Y-39000000D02*
X95000000Y-38500000D01*
X94500000Y-74000000D02*
X94500000Y-56000000D01*
X94500000Y-74000000D02*
X95500000Y-73000000D01*
X94500000Y-101500000D02*
X94500000Y-74000000D01*
X105250000Y-103069384D02*
X105300000Y-103119384D01*
X105250000Y-102287500D02*
X105250000Y-103069384D01*
%TO.N,Net-(U5-LED2{slash}ELE6)*%
X103000000Y-37000000D02*
X104500000Y-38500000D01*
X102500000Y-37000000D02*
X103000000Y-37000000D01*
X104500000Y-38500000D02*
X112000000Y-38500000D01*
X100387500Y-37100000D02*
X102400000Y-37100000D01*
X102400000Y-37100000D02*
X102500000Y-37000000D01*
%TO.N,Net-(U5-LED1{slash}ELE5)*%
X101979922Y-37500000D02*
X100387500Y-37500000D01*
X101989961Y-37489961D02*
X101979922Y-37500000D01*
%TO.N,Net-(U5-LED6{slash}ELE10)*%
X105500000Y-34500000D02*
X112000000Y-34500000D01*
X105000000Y-34000000D02*
X105500000Y-34500000D01*
X100000000Y-34000000D02*
X105000000Y-34000000D01*
X99000000Y-35000000D02*
X100000000Y-34000000D01*
X99000000Y-36112500D02*
X99000000Y-35000000D01*
%TO.N,Net-(U5-LED7{slash}ELE11)*%
X105500000Y-33500000D02*
X110250000Y-33500000D01*
X99500000Y-33000000D02*
X105000000Y-33000000D01*
X105000000Y-33000000D02*
X105500000Y-33500000D01*
X98500000Y-34000000D02*
X99500000Y-33000000D01*
X98500000Y-35434148D02*
X98500000Y-34000000D01*
X98600000Y-35534148D02*
X98500000Y-35434148D01*
X98600000Y-36112500D02*
X98600000Y-35534148D01*
%TO.N,Net-(U5-LED5{slash}ELE9)*%
X99400000Y-35552226D02*
X99390961Y-35543187D01*
X99400000Y-36112500D02*
X99400000Y-35552226D01*
%TO.N,Net-(U5-LED0{slash}ELE4)*%
X100947774Y-37900000D02*
X100956813Y-37890961D01*
X100387500Y-37900000D02*
X100947774Y-37900000D01*
%TO.N,Net-(U5-ELE1)*%
X99400000Y-39900000D02*
X103000000Y-43500000D01*
X103000000Y-43500000D02*
X110250000Y-43500000D01*
X99400000Y-38887500D02*
X99400000Y-39900000D01*
%TO.N,Net-(U1-LED7{slash}ELE11)*%
X98600000Y-52646648D02*
X98588961Y-52635609D01*
X98600000Y-53225000D02*
X98600000Y-52646648D01*
%TO.N,Net-(U1-LED6{slash}ELE10)*%
X99000000Y-52664726D02*
X98989961Y-52654687D01*
X99000000Y-53225000D02*
X99000000Y-52664726D01*
%TO.N,Net-(U1-LED5{slash}ELE9)*%
X99400000Y-52664726D02*
X99390961Y-52655687D01*
X99400000Y-53225000D02*
X99400000Y-52664726D01*
%TO.N,Net-(U1-LED2{slash}ELE6)*%
X103500000Y-55500000D02*
X112000000Y-55500000D01*
X101178352Y-54000000D02*
X102000000Y-54000000D01*
X100965852Y-54212500D02*
X101178352Y-54000000D01*
X100387500Y-54212500D02*
X100965852Y-54212500D01*
X102000000Y-54000000D02*
X103500000Y-55500000D01*
%TO.N,Net-(U1-LED0{slash}ELE4)*%
X100965852Y-55012500D02*
X103453352Y-57500000D01*
X103453352Y-57500000D02*
X112000000Y-57500000D01*
X100387500Y-55012500D02*
X100965852Y-55012500D01*
%TO.N,Net-(U1-ELE1)*%
X99400000Y-56578352D02*
X99500000Y-56678352D01*
X99400000Y-56000000D02*
X99400000Y-56578352D01*
%TO.N,Net-(U3-ELE1)*%
X99900000Y-74832900D02*
X99900000Y-73887500D01*
X105067100Y-80000000D02*
X99900000Y-74832900D01*
X110750000Y-80000000D02*
X105067100Y-80000000D01*
%TO.N,Net-(U3-LED0{slash}ELE4)*%
X102500000Y-73934148D02*
X102500000Y-73500000D01*
X105565852Y-77000000D02*
X102500000Y-73934148D01*
X102500000Y-73500000D02*
X101900000Y-72900000D01*
X101900000Y-72900000D02*
X100887500Y-72900000D01*
%TO.N,Net-(U3-LED2{slash}ELE6)*%
X102900000Y-72100000D02*
X100887500Y-72100000D01*
X103000000Y-72000000D02*
X102900000Y-72100000D01*
%TO.N,Net-(U3-LED1{slash}ELE5)*%
X102479922Y-72500000D02*
X100887500Y-72500000D01*
X102489961Y-72489961D02*
X102479922Y-72500000D01*
%TO.N,Net-(U3-LED7{slash}ELE11)*%
X99100000Y-69400000D02*
X99100000Y-71112500D01*
X99500000Y-69000000D02*
X99100000Y-69400000D01*
X100000000Y-68000000D02*
X99500000Y-68500000D01*
X105500000Y-68000000D02*
X100000000Y-68000000D01*
X99500000Y-68500000D02*
X99500000Y-69000000D01*
X107500000Y-70000000D02*
X105500000Y-68000000D01*
X110750000Y-70000000D02*
X107500000Y-70000000D01*
%TO.N,Net-(U3-LED5{slash}ELE9)*%
X99900000Y-70534148D02*
X99900000Y-71112500D01*
X100934148Y-69500000D02*
X99900000Y-70534148D01*
%TO.N,Net-(U3-LED6{slash}ELE10)*%
X99500000Y-70000000D02*
X99500000Y-71112500D01*
X100500000Y-69000000D02*
X99500000Y-70000000D01*
%TO.N,+3.3V*%
X103550000Y-129960000D02*
X103550000Y-123550000D01*
X103550000Y-123550000D02*
X99000000Y-119000000D01*
X98250000Y-114750000D02*
X97300000Y-114750000D01*
X99000000Y-115500000D02*
X98250000Y-114750000D01*
X99000000Y-119000000D02*
X99000000Y-115500000D01*
%TO.N,GND*%
X103550000Y-131230000D02*
X102230000Y-131230000D01*
X98200000Y-39800000D02*
X98000000Y-40000000D01*
X98700000Y-73887500D02*
X98700000Y-74800000D01*
X102040000Y-135040000D02*
X102000000Y-135000000D01*
X98200000Y-56800000D02*
X98000000Y-57000000D01*
X97300000Y-118250000D02*
X98150000Y-118250000D01*
X102230000Y-131230000D02*
X102000000Y-131000000D01*
X103550000Y-135040000D02*
X102040000Y-135040000D01*
X98200000Y-56000000D02*
X98200000Y-56800000D01*
X98700000Y-74800000D02*
X98900000Y-75000000D01*
X98150000Y-118250000D02*
X98400000Y-118500000D01*
X103550000Y-132500000D02*
X102000000Y-132500000D01*
X98200000Y-38887500D02*
X98200000Y-39800000D01*
%TO.N,Net-(SW1-B)*%
X94360000Y-115860000D02*
X95000000Y-116500000D01*
X94360000Y-109500000D02*
X94360000Y-115860000D01*
%TO.N,Net-(U2-PA9)*%
X95000000Y-109500000D02*
X95500000Y-109500000D01*
X104500000Y-104000000D02*
X104750000Y-103750000D01*
X95500000Y-109500000D02*
X96500000Y-108500000D01*
X104750000Y-103750000D02*
X104750000Y-102287500D01*
%TO.N,Net-(U1-LED3{slash}ELE7)*%
X102500000Y-53500000D02*
X100700000Y-53500000D01*
X103500000Y-54500000D02*
X102500000Y-53500000D01*
X110250000Y-54500000D02*
X103500000Y-54500000D01*
X100700000Y-53500000D02*
X100387500Y-53812500D01*
%TO.N,Net-(U1-ELE1)*%
X102000000Y-60500000D02*
X99500000Y-58000000D01*
X110250000Y-60500000D02*
X102000000Y-60500000D01*
X99500000Y-58000000D02*
X99500000Y-56678352D01*
%TO.N,Net-(U1-LED5{slash}ELE9)*%
X102500000Y-51500000D02*
X100546648Y-51500000D01*
X103500000Y-52500000D02*
X102500000Y-51500000D01*
X100546648Y-51500000D02*
X99390961Y-52655687D01*
X110250000Y-52500000D02*
X103500000Y-52500000D01*
%TO.N,Net-(U1-LED4{slash}ELE8)*%
X112000000Y-53500000D02*
X103500000Y-53500000D01*
X100525000Y-52500000D02*
X99800000Y-53225000D01*
X103500000Y-53500000D02*
X102500000Y-52500000D01*
X102500000Y-52500000D02*
X100525000Y-52500000D01*
%TO.N,Net-(U1-ELE3)*%
X110250000Y-58500000D02*
X103475000Y-58500000D01*
X103475000Y-58500000D02*
X100387500Y-55412500D01*
%TO.N,Net-(U1-ELE0)*%
X99000000Y-58500000D02*
X99000000Y-56000000D01*
X112000000Y-61500000D02*
X102000000Y-61500000D01*
X102000000Y-61500000D02*
X99000000Y-58500000D01*
%TO.N,Net-(U1-LED7{slash}ELE11)*%
X98588961Y-52088961D02*
X98588961Y-52635609D01*
X103000000Y-49500000D02*
X101000000Y-49500000D01*
X98500000Y-52000000D02*
X98588961Y-52088961D01*
X101000000Y-49500000D02*
X98500000Y-52000000D01*
X104000000Y-50500000D02*
X103000000Y-49500000D01*
X110250000Y-50500000D02*
X104000000Y-50500000D01*
%TO.N,Net-(U1-LED1{slash}ELE5)*%
X103500000Y-56500000D02*
X101612500Y-54612500D01*
X110250000Y-56500000D02*
X103500000Y-56500000D01*
X101612500Y-54612500D02*
X100387500Y-54612500D01*
%TO.N,Net-(U1-LED6{slash}ELE10)*%
X112000000Y-51500000D02*
X104000000Y-51500000D01*
X100979548Y-50500000D02*
X98989961Y-52489587D01*
X103000000Y-50500000D02*
X100979548Y-50500000D01*
X104000000Y-51500000D02*
X103000000Y-50500000D01*
X98989961Y-52489587D02*
X98989961Y-52654687D01*
%TO.N,Net-(U1-ELE2)*%
X100000000Y-56200000D02*
X99800000Y-56000000D01*
X100000000Y-57500000D02*
X100000000Y-56200000D01*
X112000000Y-59500000D02*
X102000000Y-59500000D01*
X102000000Y-59500000D02*
X100000000Y-57500000D01*
%TO.N,Net-(U3-LED6{slash}ELE10)*%
X105000000Y-69000000D02*
X100500000Y-69000000D01*
X107000000Y-71000000D02*
X105000000Y-69000000D01*
X112500000Y-71000000D02*
X107000000Y-71000000D01*
%TO.N,Net-(U3-LED1{slash}ELE5)*%
X106000000Y-76000000D02*
X102489961Y-72489961D01*
X110750000Y-76000000D02*
X106000000Y-76000000D01*
%TO.N,Net-(U3-ELE0)*%
X99500000Y-75000000D02*
X99500000Y-73887500D01*
X105500000Y-81000000D02*
X99500000Y-75000000D01*
X112500000Y-81000000D02*
X105500000Y-81000000D01*
%TO.N,Net-(U3-LED3{slash}ELE7)*%
X101087500Y-71500000D02*
X100887500Y-71700000D01*
X106500000Y-74000000D02*
X104000000Y-71500000D01*
X104000000Y-71500000D02*
X101087500Y-71500000D01*
X110750000Y-74000000D02*
X106500000Y-74000000D01*
%TO.N,Net-(U3-ELE3)*%
X110750000Y-78000000D02*
X105587500Y-78000000D01*
X105587500Y-78000000D02*
X100887500Y-73300000D01*
%TO.N,Net-(U3-LED4{slash}ELE8)*%
X112500000Y-73000000D02*
X106500000Y-73000000D01*
X101412500Y-70000000D02*
X100300000Y-71112500D01*
X103500000Y-70000000D02*
X101412500Y-70000000D01*
X106500000Y-73000000D02*
X103500000Y-70000000D01*
%TO.N,Net-(U3-LED5{slash}ELE9)*%
X106500000Y-72000000D02*
X104000000Y-69500000D01*
X104000000Y-69500000D02*
X100934148Y-69500000D01*
X110750000Y-72000000D02*
X106500000Y-72000000D01*
%TO.N,Net-(U3-LED2{slash}ELE6)*%
X106000000Y-75000000D02*
X103000000Y-72000000D01*
X112500000Y-75000000D02*
X106000000Y-75000000D01*
%TO.N,Net-(U3-ELE2)*%
X105412500Y-79000000D02*
X100300000Y-73887500D01*
X112500000Y-79000000D02*
X105412500Y-79000000D01*
%TO.N,Net-(U3-LED0{slash}ELE4)*%
X112500000Y-77000000D02*
X105565852Y-77000000D01*
%TO.N,Net-(U5-LED0{slash}ELE4)*%
X112000000Y-40500000D02*
X103565852Y-40500000D01*
X103565852Y-40500000D02*
X100956813Y-37890961D01*
%TO.N,Net-(U5-LED5{slash}ELE9)*%
X99934148Y-35000000D02*
X99390961Y-35543187D01*
X104500000Y-35000000D02*
X99934148Y-35000000D01*
X110250000Y-35500000D02*
X105000000Y-35500000D01*
X105000000Y-35500000D02*
X104500000Y-35000000D01*
%TO.N,Net-(U5-LED1{slash}ELE5)*%
X110250000Y-39500000D02*
X104000000Y-39500000D01*
X104000000Y-39500000D02*
X101989961Y-37489961D01*
%TO.N,Net-(U5-LED4{slash}ELE8)*%
X112000000Y-36500000D02*
X105000000Y-36500000D01*
X105000000Y-36500000D02*
X104000000Y-35500000D01*
X100412500Y-35500000D02*
X99800000Y-36112500D01*
X104000000Y-35500000D02*
X100412500Y-35500000D01*
%TO.N,Net-(U5-ELE3)*%
X103587500Y-41500000D02*
X100387500Y-38300000D01*
X110250000Y-41500000D02*
X103587500Y-41500000D01*
%TO.N,Net-(U5-LED3{slash}ELE7)*%
X110250000Y-37500000D02*
X105000000Y-37500000D01*
X104000000Y-36500000D02*
X100587500Y-36500000D01*
X105000000Y-37500000D02*
X104000000Y-36500000D01*
X100587500Y-36500000D02*
X100387500Y-36700000D01*
%TO.N,Net-(U5-ELE2)*%
X103412500Y-42500000D02*
X99800000Y-38887500D01*
X112000000Y-42500000D02*
X103412500Y-42500000D01*
%TO.N,Net-(U5-ELE0)*%
X112000000Y-44500000D02*
X102500000Y-44500000D01*
X102500000Y-44500000D02*
X99000000Y-41000000D01*
X99000000Y-41000000D02*
X99000000Y-38887500D01*
%TO.N,Net-(J1-SWCLK{slash}TCK)*%
X107450000Y-131230000D02*
X108280000Y-131230000D01*
X107500000Y-102537500D02*
X107250000Y-102287500D01*
X107500000Y-104000000D02*
X107500000Y-102537500D01*
X108280000Y-131230000D02*
X111500000Y-128010000D01*
X111500000Y-128010000D02*
X111500000Y-120500000D01*
%TO.N,Net-(J1-SWDIO{slash}TMS)*%
X110000000Y-126500000D02*
X110000000Y-119000000D01*
X107450000Y-129050000D02*
X109500000Y-127000000D01*
X107450000Y-129960000D02*
X107450000Y-129050000D01*
X109500000Y-127000000D02*
X110000000Y-126500000D01*
%TD*%
M02*
