M48
; DRILL file {KiCad 9.0.3} date 2026-03-01T17:08:33+0000
; FORMAT={-:-/ absolute / metric / decimal}
; #@! TF.CreationDate,2026-03-01T17:08:33+00:00
; #@! TF.GenerationSoftware,Kicad,Pcbnew,9.0.3
; #@! TF.FileFunction,Plated,1,2,PTH
FMAT,2
METRIC
; #@! TA.AperFunction,Plated,PTH,ViaDrill
T1C0.300
; #@! TA.AperFunction,Plated,PTH,ComponentDrill
T2C1.100
%
G90
G05
T1
X93.5Y-55.0
X93.5Y-71.5
X94.5Y-101.5
X95.0Y-37.0
X95.45Y-38.5
X95.45Y-55.5
X95.5Y-73.0
X96.5Y-108.5
X96.55Y-54.408
X96.55Y-37.0
X96.55Y-38.0
X96.55Y-55.5
X97.0Y-50.0
X97.05Y-72.0
X97.081Y-73.0
X97.5Y-32.5
X97.5Y-68.0
X98.0Y-40.0
X98.0Y-57.0
X98.4Y-118.5
X98.9Y-75.0
X99.0Y-99.5
X101.5Y-103.5
X102.0Y-99.0
X102.0Y-131.0
X102.0Y-132.5
X102.0Y-135.0
X104.5Y-93.5
X104.5Y-104.0
X105.0Y-100.5
X105.3Y-103.119
X105.5Y-99.3
X105.5Y-100.0
X106.0Y-109.0
X106.5Y-100.5
X106.5Y-106.5
X107.5Y-104.0
X108.5Y-87.0
X108.5Y-95.0
X109.5Y-96.0
X110.0Y-119.0
X110.5Y-93.5
X111.5Y-120.5
X112.5Y-91.5
T2
X101.75Y-114.75
X101.75Y-119.25
X108.25Y-114.75
X108.25Y-119.25
M30
