%TF.GenerationSoftware,KiCad,Pcbnew,9.0.3*%
%TF.CreationDate,2026-03-01T17:04:36+00:00*%
%TF.ProjectId,vibook,7669626f-6f6b-42e6-9b69-6361645f7063,rev?*%
%TF.SameCoordinates,Original*%
%TF.FileFunction,Legend,Top*%
%TF.FilePolarity,Positive*%
%FSLAX46Y46*%
G04 Gerber Fmt 4.6, Leading zero omitted, Abs format (unit mm)*
G04 Created by KiCad (PCBNEW 9.0.3) date 2026-03-01 17:04:36*
%MOMM*%
%LPD*%
G01*
G04 APERTURE LIST*
%ADD10C,0.125000*%
%ADD11C,0.150000*%
%ADD12C,0.120000*%
G04 APERTURE END LIST*
D10*
X101607144Y-85432309D02*
X101607144Y-85837071D01*
X101607144Y-85837071D02*
X101630954Y-85884690D01*
X101630954Y-85884690D02*
X101654763Y-85908500D01*
X101654763Y-85908500D02*
X101702382Y-85932309D01*
X101702382Y-85932309D02*
X101797620Y-85932309D01*
X101797620Y-85932309D02*
X101845239Y-85908500D01*
X101845239Y-85908500D02*
X101869049Y-85884690D01*
X101869049Y-85884690D02*
X101892858Y-85837071D01*
X101892858Y-85837071D02*
X101892858Y-85432309D01*
X102107145Y-85908500D02*
X102178573Y-85932309D01*
X102178573Y-85932309D02*
X102297621Y-85932309D01*
X102297621Y-85932309D02*
X102345240Y-85908500D01*
X102345240Y-85908500D02*
X102369049Y-85884690D01*
X102369049Y-85884690D02*
X102392859Y-85837071D01*
X102392859Y-85837071D02*
X102392859Y-85789452D01*
X102392859Y-85789452D02*
X102369049Y-85741833D01*
X102369049Y-85741833D02*
X102345240Y-85718023D01*
X102345240Y-85718023D02*
X102297621Y-85694214D01*
X102297621Y-85694214D02*
X102202383Y-85670404D01*
X102202383Y-85670404D02*
X102154764Y-85646595D01*
X102154764Y-85646595D02*
X102130954Y-85622785D01*
X102130954Y-85622785D02*
X102107145Y-85575166D01*
X102107145Y-85575166D02*
X102107145Y-85527547D01*
X102107145Y-85527547D02*
X102130954Y-85479928D01*
X102130954Y-85479928D02*
X102154764Y-85456119D01*
X102154764Y-85456119D02*
X102202383Y-85432309D01*
X102202383Y-85432309D02*
X102321430Y-85432309D01*
X102321430Y-85432309D02*
X102392859Y-85456119D01*
X102583335Y-85789452D02*
X102821430Y-85789452D01*
X102535716Y-85932309D02*
X102702382Y-85432309D01*
X102702382Y-85432309D02*
X102869049Y-85932309D01*
X103321429Y-85932309D02*
X103154763Y-85694214D01*
X103035715Y-85932309D02*
X103035715Y-85432309D01*
X103035715Y-85432309D02*
X103226191Y-85432309D01*
X103226191Y-85432309D02*
X103273810Y-85456119D01*
X103273810Y-85456119D02*
X103297620Y-85479928D01*
X103297620Y-85479928D02*
X103321429Y-85527547D01*
X103321429Y-85527547D02*
X103321429Y-85598976D01*
X103321429Y-85598976D02*
X103297620Y-85646595D01*
X103297620Y-85646595D02*
X103273810Y-85670404D01*
X103273810Y-85670404D02*
X103226191Y-85694214D01*
X103226191Y-85694214D02*
X103035715Y-85694214D01*
X103464287Y-85432309D02*
X103750001Y-85432309D01*
X103607144Y-85932309D02*
X103607144Y-85432309D01*
X103892858Y-85479928D02*
X103916667Y-85456119D01*
X103916667Y-85456119D02*
X103964286Y-85432309D01*
X103964286Y-85432309D02*
X104083334Y-85432309D01*
X104083334Y-85432309D02*
X104130953Y-85456119D01*
X104130953Y-85456119D02*
X104154762Y-85479928D01*
X104154762Y-85479928D02*
X104178572Y-85527547D01*
X104178572Y-85527547D02*
X104178572Y-85575166D01*
X104178572Y-85575166D02*
X104154762Y-85646595D01*
X104154762Y-85646595D02*
X103869048Y-85932309D01*
X103869048Y-85932309D02*
X104178572Y-85932309D01*
X104273810Y-85979928D02*
X104654762Y-85979928D01*
X104702381Y-85432309D02*
X104988095Y-85432309D01*
X104845238Y-85932309D02*
X104845238Y-85432309D01*
X105107142Y-85432309D02*
X105440475Y-85932309D01*
X105440475Y-85432309D02*
X105107142Y-85932309D01*
X101701283Y-87432309D02*
X101701283Y-87837071D01*
X101701283Y-87837071D02*
X101725093Y-87884690D01*
X101725093Y-87884690D02*
X101748902Y-87908500D01*
X101748902Y-87908500D02*
X101796521Y-87932309D01*
X101796521Y-87932309D02*
X101891759Y-87932309D01*
X101891759Y-87932309D02*
X101939378Y-87908500D01*
X101939378Y-87908500D02*
X101963188Y-87884690D01*
X101963188Y-87884690D02*
X101986997Y-87837071D01*
X101986997Y-87837071D02*
X101986997Y-87432309D01*
X102201284Y-87908500D02*
X102272712Y-87932309D01*
X102272712Y-87932309D02*
X102391760Y-87932309D01*
X102391760Y-87932309D02*
X102439379Y-87908500D01*
X102439379Y-87908500D02*
X102463188Y-87884690D01*
X102463188Y-87884690D02*
X102486998Y-87837071D01*
X102486998Y-87837071D02*
X102486998Y-87789452D01*
X102486998Y-87789452D02*
X102463188Y-87741833D01*
X102463188Y-87741833D02*
X102439379Y-87718023D01*
X102439379Y-87718023D02*
X102391760Y-87694214D01*
X102391760Y-87694214D02*
X102296522Y-87670404D01*
X102296522Y-87670404D02*
X102248903Y-87646595D01*
X102248903Y-87646595D02*
X102225093Y-87622785D01*
X102225093Y-87622785D02*
X102201284Y-87575166D01*
X102201284Y-87575166D02*
X102201284Y-87527547D01*
X102201284Y-87527547D02*
X102225093Y-87479928D01*
X102225093Y-87479928D02*
X102248903Y-87456119D01*
X102248903Y-87456119D02*
X102296522Y-87432309D01*
X102296522Y-87432309D02*
X102415569Y-87432309D01*
X102415569Y-87432309D02*
X102486998Y-87456119D01*
X102677474Y-87789452D02*
X102915569Y-87789452D01*
X102629855Y-87932309D02*
X102796521Y-87432309D01*
X102796521Y-87432309D02*
X102963188Y-87932309D01*
X103415568Y-87932309D02*
X103248902Y-87694214D01*
X103129854Y-87932309D02*
X103129854Y-87432309D01*
X103129854Y-87432309D02*
X103320330Y-87432309D01*
X103320330Y-87432309D02*
X103367949Y-87456119D01*
X103367949Y-87456119D02*
X103391759Y-87479928D01*
X103391759Y-87479928D02*
X103415568Y-87527547D01*
X103415568Y-87527547D02*
X103415568Y-87598976D01*
X103415568Y-87598976D02*
X103391759Y-87646595D01*
X103391759Y-87646595D02*
X103367949Y-87670404D01*
X103367949Y-87670404D02*
X103320330Y-87694214D01*
X103320330Y-87694214D02*
X103129854Y-87694214D01*
X103558426Y-87432309D02*
X103844140Y-87432309D01*
X103701283Y-87932309D02*
X103701283Y-87432309D01*
X103986997Y-87479928D02*
X104010806Y-87456119D01*
X104010806Y-87456119D02*
X104058425Y-87432309D01*
X104058425Y-87432309D02*
X104177473Y-87432309D01*
X104177473Y-87432309D02*
X104225092Y-87456119D01*
X104225092Y-87456119D02*
X104248901Y-87479928D01*
X104248901Y-87479928D02*
X104272711Y-87527547D01*
X104272711Y-87527547D02*
X104272711Y-87575166D01*
X104272711Y-87575166D02*
X104248901Y-87646595D01*
X104248901Y-87646595D02*
X103963187Y-87932309D01*
X103963187Y-87932309D02*
X104272711Y-87932309D01*
X104367949Y-87979928D02*
X104748901Y-87979928D01*
X105153662Y-87932309D02*
X104986996Y-87694214D01*
X104867948Y-87932309D02*
X104867948Y-87432309D01*
X104867948Y-87432309D02*
X105058424Y-87432309D01*
X105058424Y-87432309D02*
X105106043Y-87456119D01*
X105106043Y-87456119D02*
X105129853Y-87479928D01*
X105129853Y-87479928D02*
X105153662Y-87527547D01*
X105153662Y-87527547D02*
X105153662Y-87598976D01*
X105153662Y-87598976D02*
X105129853Y-87646595D01*
X105129853Y-87646595D02*
X105106043Y-87670404D01*
X105106043Y-87670404D02*
X105058424Y-87694214D01*
X105058424Y-87694214D02*
X104867948Y-87694214D01*
X105320329Y-87432309D02*
X105653662Y-87932309D01*
X105653662Y-87432309D02*
X105320329Y-87932309D01*
D11*
X103666667Y-113157200D02*
X103809524Y-113204819D01*
X103809524Y-113204819D02*
X104047619Y-113204819D01*
X104047619Y-113204819D02*
X104142857Y-113157200D01*
X104142857Y-113157200D02*
X104190476Y-113109580D01*
X104190476Y-113109580D02*
X104238095Y-113014342D01*
X104238095Y-113014342D02*
X104238095Y-112919104D01*
X104238095Y-112919104D02*
X104190476Y-112823866D01*
X104190476Y-112823866D02*
X104142857Y-112776247D01*
X104142857Y-112776247D02*
X104047619Y-112728628D01*
X104047619Y-112728628D02*
X103857143Y-112681009D01*
X103857143Y-112681009D02*
X103761905Y-112633390D01*
X103761905Y-112633390D02*
X103714286Y-112585771D01*
X103714286Y-112585771D02*
X103666667Y-112490533D01*
X103666667Y-112490533D02*
X103666667Y-112395295D01*
X103666667Y-112395295D02*
X103714286Y-112300057D01*
X103714286Y-112300057D02*
X103761905Y-112252438D01*
X103761905Y-112252438D02*
X103857143Y-112204819D01*
X103857143Y-112204819D02*
X104095238Y-112204819D01*
X104095238Y-112204819D02*
X104238095Y-112252438D01*
X104571429Y-112204819D02*
X104809524Y-113204819D01*
X104809524Y-113204819D02*
X105000000Y-112490533D01*
X105000000Y-112490533D02*
X105190476Y-113204819D01*
X105190476Y-113204819D02*
X105428572Y-112204819D01*
X105714286Y-112204819D02*
X106333333Y-112204819D01*
X106333333Y-112204819D02*
X106000000Y-112585771D01*
X106000000Y-112585771D02*
X106142857Y-112585771D01*
X106142857Y-112585771D02*
X106238095Y-112633390D01*
X106238095Y-112633390D02*
X106285714Y-112681009D01*
X106285714Y-112681009D02*
X106333333Y-112776247D01*
X106333333Y-112776247D02*
X106333333Y-113014342D01*
X106333333Y-113014342D02*
X106285714Y-113109580D01*
X106285714Y-113109580D02*
X106238095Y-113157200D01*
X106238095Y-113157200D02*
X106142857Y-113204819D01*
X106142857Y-113204819D02*
X105857143Y-113204819D01*
X105857143Y-113204819D02*
X105761905Y-113157200D01*
X105761905Y-113157200D02*
X105714286Y-113109580D01*
X96699580Y-69686666D02*
X96747200Y-69734285D01*
X96747200Y-69734285D02*
X96794819Y-69877142D01*
X96794819Y-69877142D02*
X96794819Y-69972380D01*
X96794819Y-69972380D02*
X96747200Y-70115237D01*
X96747200Y-70115237D02*
X96651961Y-70210475D01*
X96651961Y-70210475D02*
X96556723Y-70258094D01*
X96556723Y-70258094D02*
X96366247Y-70305713D01*
X96366247Y-70305713D02*
X96223390Y-70305713D01*
X96223390Y-70305713D02*
X96032914Y-70258094D01*
X96032914Y-70258094D02*
X95937676Y-70210475D01*
X95937676Y-70210475D02*
X95842438Y-70115237D01*
X95842438Y-70115237D02*
X95794819Y-69972380D01*
X95794819Y-69972380D02*
X95794819Y-69877142D01*
X95794819Y-69877142D02*
X95842438Y-69734285D01*
X95842438Y-69734285D02*
X95890057Y-69686666D01*
X96223390Y-69115237D02*
X96175771Y-69210475D01*
X96175771Y-69210475D02*
X96128152Y-69258094D01*
X96128152Y-69258094D02*
X96032914Y-69305713D01*
X96032914Y-69305713D02*
X95985295Y-69305713D01*
X95985295Y-69305713D02*
X95890057Y-69258094D01*
X95890057Y-69258094D02*
X95842438Y-69210475D01*
X95842438Y-69210475D02*
X95794819Y-69115237D01*
X95794819Y-69115237D02*
X95794819Y-68924761D01*
X95794819Y-68924761D02*
X95842438Y-68829523D01*
X95842438Y-68829523D02*
X95890057Y-68781904D01*
X95890057Y-68781904D02*
X95985295Y-68734285D01*
X95985295Y-68734285D02*
X96032914Y-68734285D01*
X96032914Y-68734285D02*
X96128152Y-68781904D01*
X96128152Y-68781904D02*
X96175771Y-68829523D01*
X96175771Y-68829523D02*
X96223390Y-68924761D01*
X96223390Y-68924761D02*
X96223390Y-69115237D01*
X96223390Y-69115237D02*
X96271009Y-69210475D01*
X96271009Y-69210475D02*
X96318628Y-69258094D01*
X96318628Y-69258094D02*
X96413866Y-69305713D01*
X96413866Y-69305713D02*
X96604342Y-69305713D01*
X96604342Y-69305713D02*
X96699580Y-69258094D01*
X96699580Y-69258094D02*
X96747200Y-69210475D01*
X96747200Y-69210475D02*
X96794819Y-69115237D01*
X96794819Y-69115237D02*
X96794819Y-68924761D01*
X96794819Y-68924761D02*
X96747200Y-68829523D01*
X96747200Y-68829523D02*
X96699580Y-68781904D01*
X96699580Y-68781904D02*
X96604342Y-68734285D01*
X96604342Y-68734285D02*
X96413866Y-68734285D01*
X96413866Y-68734285D02*
X96318628Y-68781904D01*
X96318628Y-68781904D02*
X96271009Y-68829523D01*
X96271009Y-68829523D02*
X96223390Y-68924761D01*
X96199580Y-51686666D02*
X96247200Y-51734285D01*
X96247200Y-51734285D02*
X96294819Y-51877142D01*
X96294819Y-51877142D02*
X96294819Y-51972380D01*
X96294819Y-51972380D02*
X96247200Y-52115237D01*
X96247200Y-52115237D02*
X96151961Y-52210475D01*
X96151961Y-52210475D02*
X96056723Y-52258094D01*
X96056723Y-52258094D02*
X95866247Y-52305713D01*
X95866247Y-52305713D02*
X95723390Y-52305713D01*
X95723390Y-52305713D02*
X95532914Y-52258094D01*
X95532914Y-52258094D02*
X95437676Y-52210475D01*
X95437676Y-52210475D02*
X95342438Y-52115237D01*
X95342438Y-52115237D02*
X95294819Y-51972380D01*
X95294819Y-51972380D02*
X95294819Y-51877142D01*
X95294819Y-51877142D02*
X95342438Y-51734285D01*
X95342438Y-51734285D02*
X95390057Y-51686666D01*
X95294819Y-51353332D02*
X95294819Y-50686666D01*
X95294819Y-50686666D02*
X96294819Y-51115237D01*
X96699580Y-34646666D02*
X96747200Y-34694285D01*
X96747200Y-34694285D02*
X96794819Y-34837142D01*
X96794819Y-34837142D02*
X96794819Y-34932380D01*
X96794819Y-34932380D02*
X96747200Y-35075237D01*
X96747200Y-35075237D02*
X96651961Y-35170475D01*
X96651961Y-35170475D02*
X96556723Y-35218094D01*
X96556723Y-35218094D02*
X96366247Y-35265713D01*
X96366247Y-35265713D02*
X96223390Y-35265713D01*
X96223390Y-35265713D02*
X96032914Y-35218094D01*
X96032914Y-35218094D02*
X95937676Y-35170475D01*
X95937676Y-35170475D02*
X95842438Y-35075237D01*
X95842438Y-35075237D02*
X95794819Y-34932380D01*
X95794819Y-34932380D02*
X95794819Y-34837142D01*
X95794819Y-34837142D02*
X95842438Y-34694285D01*
X95842438Y-34694285D02*
X95890057Y-34646666D01*
X95794819Y-33789523D02*
X95794819Y-33979999D01*
X95794819Y-33979999D02*
X95842438Y-34075237D01*
X95842438Y-34075237D02*
X95890057Y-34122856D01*
X95890057Y-34122856D02*
X96032914Y-34218094D01*
X96032914Y-34218094D02*
X96223390Y-34265713D01*
X96223390Y-34265713D02*
X96604342Y-34265713D01*
X96604342Y-34265713D02*
X96699580Y-34218094D01*
X96699580Y-34218094D02*
X96747200Y-34170475D01*
X96747200Y-34170475D02*
X96794819Y-34075237D01*
X96794819Y-34075237D02*
X96794819Y-33884761D01*
X96794819Y-33884761D02*
X96747200Y-33789523D01*
X96747200Y-33789523D02*
X96699580Y-33741904D01*
X96699580Y-33741904D02*
X96604342Y-33694285D01*
X96604342Y-33694285D02*
X96366247Y-33694285D01*
X96366247Y-33694285D02*
X96271009Y-33741904D01*
X96271009Y-33741904D02*
X96223390Y-33789523D01*
X96223390Y-33789523D02*
X96175771Y-33884761D01*
X96175771Y-33884761D02*
X96175771Y-34075237D01*
X96175771Y-34075237D02*
X96223390Y-34170475D01*
X96223390Y-34170475D02*
X96271009Y-34218094D01*
X96271009Y-34218094D02*
X96366247Y-34265713D01*
X110363095Y-48344819D02*
X110363095Y-49154342D01*
X110363095Y-49154342D02*
X110410714Y-49249580D01*
X110410714Y-49249580D02*
X110458333Y-49297200D01*
X110458333Y-49297200D02*
X110553571Y-49344819D01*
X110553571Y-49344819D02*
X110744047Y-49344819D01*
X110744047Y-49344819D02*
X110839285Y-49297200D01*
X110839285Y-49297200D02*
X110886904Y-49249580D01*
X110886904Y-49249580D02*
X110934523Y-49154342D01*
X110934523Y-49154342D02*
X110934523Y-48344819D01*
X111315476Y-48344819D02*
X111982142Y-48344819D01*
X111982142Y-48344819D02*
X111553571Y-49344819D01*
X110363095Y-31344819D02*
X110363095Y-32154342D01*
X110363095Y-32154342D02*
X110410714Y-32249580D01*
X110410714Y-32249580D02*
X110458333Y-32297200D01*
X110458333Y-32297200D02*
X110553571Y-32344819D01*
X110553571Y-32344819D02*
X110744047Y-32344819D01*
X110744047Y-32344819D02*
X110839285Y-32297200D01*
X110839285Y-32297200D02*
X110886904Y-32249580D01*
X110886904Y-32249580D02*
X110934523Y-32154342D01*
X110934523Y-32154342D02*
X110934523Y-31344819D01*
X111553571Y-31773390D02*
X111458333Y-31725771D01*
X111458333Y-31725771D02*
X111410714Y-31678152D01*
X111410714Y-31678152D02*
X111363095Y-31582914D01*
X111363095Y-31582914D02*
X111363095Y-31535295D01*
X111363095Y-31535295D02*
X111410714Y-31440057D01*
X111410714Y-31440057D02*
X111458333Y-31392438D01*
X111458333Y-31392438D02*
X111553571Y-31344819D01*
X111553571Y-31344819D02*
X111744047Y-31344819D01*
X111744047Y-31344819D02*
X111839285Y-31392438D01*
X111839285Y-31392438D02*
X111886904Y-31440057D01*
X111886904Y-31440057D02*
X111934523Y-31535295D01*
X111934523Y-31535295D02*
X111934523Y-31582914D01*
X111934523Y-31582914D02*
X111886904Y-31678152D01*
X111886904Y-31678152D02*
X111839285Y-31725771D01*
X111839285Y-31725771D02*
X111744047Y-31773390D01*
X111744047Y-31773390D02*
X111553571Y-31773390D01*
X111553571Y-31773390D02*
X111458333Y-31821009D01*
X111458333Y-31821009D02*
X111410714Y-31868628D01*
X111410714Y-31868628D02*
X111363095Y-31963866D01*
X111363095Y-31963866D02*
X111363095Y-32154342D01*
X111363095Y-32154342D02*
X111410714Y-32249580D01*
X111410714Y-32249580D02*
X111458333Y-32297200D01*
X111458333Y-32297200D02*
X111553571Y-32344819D01*
X111553571Y-32344819D02*
X111744047Y-32344819D01*
X111744047Y-32344819D02*
X111839285Y-32297200D01*
X111839285Y-32297200D02*
X111886904Y-32249580D01*
X111886904Y-32249580D02*
X111934523Y-32154342D01*
X111934523Y-32154342D02*
X111934523Y-31963866D01*
X111934523Y-31963866D02*
X111886904Y-31868628D01*
X111886904Y-31868628D02*
X111839285Y-31821009D01*
X111839285Y-31821009D02*
X111744047Y-31773390D01*
X94816667Y-120607200D02*
X94959524Y-120654819D01*
X94959524Y-120654819D02*
X95197619Y-120654819D01*
X95197619Y-120654819D02*
X95292857Y-120607200D01*
X95292857Y-120607200D02*
X95340476Y-120559580D01*
X95340476Y-120559580D02*
X95388095Y-120464342D01*
X95388095Y-120464342D02*
X95388095Y-120369104D01*
X95388095Y-120369104D02*
X95340476Y-120273866D01*
X95340476Y-120273866D02*
X95292857Y-120226247D01*
X95292857Y-120226247D02*
X95197619Y-120178628D01*
X95197619Y-120178628D02*
X95007143Y-120131009D01*
X95007143Y-120131009D02*
X94911905Y-120083390D01*
X94911905Y-120083390D02*
X94864286Y-120035771D01*
X94864286Y-120035771D02*
X94816667Y-119940533D01*
X94816667Y-119940533D02*
X94816667Y-119845295D01*
X94816667Y-119845295D02*
X94864286Y-119750057D01*
X94864286Y-119750057D02*
X94911905Y-119702438D01*
X94911905Y-119702438D02*
X95007143Y-119654819D01*
X95007143Y-119654819D02*
X95245238Y-119654819D01*
X95245238Y-119654819D02*
X95388095Y-119702438D01*
X95721429Y-119654819D02*
X95959524Y-120654819D01*
X95959524Y-120654819D02*
X96150000Y-119940533D01*
X96150000Y-119940533D02*
X96340476Y-120654819D01*
X96340476Y-120654819D02*
X96578572Y-119654819D01*
X97483333Y-120654819D02*
X96911905Y-120654819D01*
X97197619Y-120654819D02*
X97197619Y-119654819D01*
X97197619Y-119654819D02*
X97102381Y-119797676D01*
X97102381Y-119797676D02*
X97007143Y-119892914D01*
X97007143Y-119892914D02*
X96911905Y-119940533D01*
X107833333Y-95199580D02*
X107785714Y-95247200D01*
X107785714Y-95247200D02*
X107642857Y-95294819D01*
X107642857Y-95294819D02*
X107547619Y-95294819D01*
X107547619Y-95294819D02*
X107404762Y-95247200D01*
X107404762Y-95247200D02*
X107309524Y-95151961D01*
X107309524Y-95151961D02*
X107261905Y-95056723D01*
X107261905Y-95056723D02*
X107214286Y-94866247D01*
X107214286Y-94866247D02*
X107214286Y-94723390D01*
X107214286Y-94723390D02*
X107261905Y-94532914D01*
X107261905Y-94532914D02*
X107309524Y-94437676D01*
X107309524Y-94437676D02*
X107404762Y-94342438D01*
X107404762Y-94342438D02*
X107547619Y-94294819D01*
X107547619Y-94294819D02*
X107642857Y-94294819D01*
X107642857Y-94294819D02*
X107785714Y-94342438D01*
X107785714Y-94342438D02*
X107833333Y-94390057D01*
X108785714Y-95294819D02*
X108214286Y-95294819D01*
X108500000Y-95294819D02*
X108500000Y-94294819D01*
X108500000Y-94294819D02*
X108404762Y-94437676D01*
X108404762Y-94437676D02*
X108309524Y-94532914D01*
X108309524Y-94532914D02*
X108214286Y-94580533D01*
X97563095Y-82844819D02*
X97563095Y-83654342D01*
X97563095Y-83654342D02*
X97610714Y-83749580D01*
X97610714Y-83749580D02*
X97658333Y-83797200D01*
X97658333Y-83797200D02*
X97753571Y-83844819D01*
X97753571Y-83844819D02*
X97944047Y-83844819D01*
X97944047Y-83844819D02*
X98039285Y-83797200D01*
X98039285Y-83797200D02*
X98086904Y-83749580D01*
X98086904Y-83749580D02*
X98134523Y-83654342D01*
X98134523Y-83654342D02*
X98134523Y-82844819D01*
X99039285Y-82844819D02*
X98848809Y-82844819D01*
X98848809Y-82844819D02*
X98753571Y-82892438D01*
X98753571Y-82892438D02*
X98705952Y-82940057D01*
X98705952Y-82940057D02*
X98610714Y-83082914D01*
X98610714Y-83082914D02*
X98563095Y-83273390D01*
X98563095Y-83273390D02*
X98563095Y-83654342D01*
X98563095Y-83654342D02*
X98610714Y-83749580D01*
X98610714Y-83749580D02*
X98658333Y-83797200D01*
X98658333Y-83797200D02*
X98753571Y-83844819D01*
X98753571Y-83844819D02*
X98944047Y-83844819D01*
X98944047Y-83844819D02*
X99039285Y-83797200D01*
X99039285Y-83797200D02*
X99086904Y-83749580D01*
X99086904Y-83749580D02*
X99134523Y-83654342D01*
X99134523Y-83654342D02*
X99134523Y-83416247D01*
X99134523Y-83416247D02*
X99086904Y-83321009D01*
X99086904Y-83321009D02*
X99039285Y-83273390D01*
X99039285Y-83273390D02*
X98944047Y-83225771D01*
X98944047Y-83225771D02*
X98753571Y-83225771D01*
X98753571Y-83225771D02*
X98658333Y-83273390D01*
X98658333Y-83273390D02*
X98610714Y-83321009D01*
X98610714Y-83321009D02*
X98563095Y-83416247D01*
X103699580Y-95166666D02*
X103747200Y-95214285D01*
X103747200Y-95214285D02*
X103794819Y-95357142D01*
X103794819Y-95357142D02*
X103794819Y-95452380D01*
X103794819Y-95452380D02*
X103747200Y-95595237D01*
X103747200Y-95595237D02*
X103651961Y-95690475D01*
X103651961Y-95690475D02*
X103556723Y-95738094D01*
X103556723Y-95738094D02*
X103366247Y-95785713D01*
X103366247Y-95785713D02*
X103223390Y-95785713D01*
X103223390Y-95785713D02*
X103032914Y-95738094D01*
X103032914Y-95738094D02*
X102937676Y-95690475D01*
X102937676Y-95690475D02*
X102842438Y-95595237D01*
X102842438Y-95595237D02*
X102794819Y-95452380D01*
X102794819Y-95452380D02*
X102794819Y-95357142D01*
X102794819Y-95357142D02*
X102842438Y-95214285D01*
X102842438Y-95214285D02*
X102890057Y-95166666D01*
X102794819Y-94833332D02*
X102794819Y-94214285D01*
X102794819Y-94214285D02*
X103175771Y-94547618D01*
X103175771Y-94547618D02*
X103175771Y-94404761D01*
X103175771Y-94404761D02*
X103223390Y-94309523D01*
X103223390Y-94309523D02*
X103271009Y-94261904D01*
X103271009Y-94261904D02*
X103366247Y-94214285D01*
X103366247Y-94214285D02*
X103604342Y-94214285D01*
X103604342Y-94214285D02*
X103699580Y-94261904D01*
X103699580Y-94261904D02*
X103747200Y-94309523D01*
X103747200Y-94309523D02*
X103794819Y-94404761D01*
X103794819Y-94404761D02*
X103794819Y-94690475D01*
X103794819Y-94690475D02*
X103747200Y-94785713D01*
X103747200Y-94785713D02*
X103699580Y-94833332D01*
X98238095Y-51267319D02*
X98238095Y-52076842D01*
X98238095Y-52076842D02*
X98285714Y-52172080D01*
X98285714Y-52172080D02*
X98333333Y-52219700D01*
X98333333Y-52219700D02*
X98428571Y-52267319D01*
X98428571Y-52267319D02*
X98619047Y-52267319D01*
X98619047Y-52267319D02*
X98714285Y-52219700D01*
X98714285Y-52219700D02*
X98761904Y-52172080D01*
X98761904Y-52172080D02*
X98809523Y-52076842D01*
X98809523Y-52076842D02*
X98809523Y-51267319D01*
X99809523Y-52267319D02*
X99238095Y-52267319D01*
X99523809Y-52267319D02*
X99523809Y-51267319D01*
X99523809Y-51267319D02*
X99428571Y-51410176D01*
X99428571Y-51410176D02*
X99333333Y-51505414D01*
X99333333Y-51505414D02*
X99238095Y-51553033D01*
X105166666Y-127669819D02*
X105166666Y-128384104D01*
X105166666Y-128384104D02*
X105119047Y-128526961D01*
X105119047Y-128526961D02*
X105023809Y-128622200D01*
X105023809Y-128622200D02*
X104880952Y-128669819D01*
X104880952Y-128669819D02*
X104785714Y-128669819D01*
X106166666Y-128669819D02*
X105595238Y-128669819D01*
X105880952Y-128669819D02*
X105880952Y-127669819D01*
X105880952Y-127669819D02*
X105785714Y-127812676D01*
X105785714Y-127812676D02*
X105690476Y-127907914D01*
X105690476Y-127907914D02*
X105595238Y-127955533D01*
X98238095Y-34154819D02*
X98238095Y-34964342D01*
X98238095Y-34964342D02*
X98285714Y-35059580D01*
X98285714Y-35059580D02*
X98333333Y-35107200D01*
X98333333Y-35107200D02*
X98428571Y-35154819D01*
X98428571Y-35154819D02*
X98619047Y-35154819D01*
X98619047Y-35154819D02*
X98714285Y-35107200D01*
X98714285Y-35107200D02*
X98761904Y-35059580D01*
X98761904Y-35059580D02*
X98809523Y-34964342D01*
X98809523Y-34964342D02*
X98809523Y-34154819D01*
X99761904Y-34154819D02*
X99285714Y-34154819D01*
X99285714Y-34154819D02*
X99238095Y-34631009D01*
X99238095Y-34631009D02*
X99285714Y-34583390D01*
X99285714Y-34583390D02*
X99380952Y-34535771D01*
X99380952Y-34535771D02*
X99619047Y-34535771D01*
X99619047Y-34535771D02*
X99714285Y-34583390D01*
X99714285Y-34583390D02*
X99761904Y-34631009D01*
X99761904Y-34631009D02*
X99809523Y-34726247D01*
X99809523Y-34726247D02*
X99809523Y-34964342D01*
X99809523Y-34964342D02*
X99761904Y-35059580D01*
X99761904Y-35059580D02*
X99714285Y-35107200D01*
X99714285Y-35107200D02*
X99619047Y-35154819D01*
X99619047Y-35154819D02*
X99380952Y-35154819D01*
X99380952Y-35154819D02*
X99285714Y-35107200D01*
X99285714Y-35107200D02*
X99238095Y-35059580D01*
X110988333Y-90809580D02*
X110940714Y-90857200D01*
X110940714Y-90857200D02*
X110797857Y-90904819D01*
X110797857Y-90904819D02*
X110702619Y-90904819D01*
X110702619Y-90904819D02*
X110559762Y-90857200D01*
X110559762Y-90857200D02*
X110464524Y-90761961D01*
X110464524Y-90761961D02*
X110416905Y-90666723D01*
X110416905Y-90666723D02*
X110369286Y-90476247D01*
X110369286Y-90476247D02*
X110369286Y-90333390D01*
X110369286Y-90333390D02*
X110416905Y-90142914D01*
X110416905Y-90142914D02*
X110464524Y-90047676D01*
X110464524Y-90047676D02*
X110559762Y-89952438D01*
X110559762Y-89952438D02*
X110702619Y-89904819D01*
X110702619Y-89904819D02*
X110797857Y-89904819D01*
X110797857Y-89904819D02*
X110940714Y-89952438D01*
X110940714Y-89952438D02*
X110988333Y-90000057D01*
X111845476Y-90238152D02*
X111845476Y-90904819D01*
X111607381Y-89857200D02*
X111369286Y-90571485D01*
X111369286Y-90571485D02*
X111988333Y-90571485D01*
X94513333Y-108904819D02*
X94180000Y-108428628D01*
X93941905Y-108904819D02*
X93941905Y-107904819D01*
X93941905Y-107904819D02*
X94322857Y-107904819D01*
X94322857Y-107904819D02*
X94418095Y-107952438D01*
X94418095Y-107952438D02*
X94465714Y-108000057D01*
X94465714Y-108000057D02*
X94513333Y-108095295D01*
X94513333Y-108095295D02*
X94513333Y-108238152D01*
X94513333Y-108238152D02*
X94465714Y-108333390D01*
X94465714Y-108333390D02*
X94418095Y-108381009D01*
X94418095Y-108381009D02*
X94322857Y-108428628D01*
X94322857Y-108428628D02*
X93941905Y-108428628D01*
X95465714Y-108904819D02*
X94894286Y-108904819D01*
X95180000Y-108904819D02*
X95180000Y-107904819D01*
X95180000Y-107904819D02*
X95084762Y-108047676D01*
X95084762Y-108047676D02*
X94989524Y-108142914D01*
X94989524Y-108142914D02*
X94894286Y-108190533D01*
X111238095Y-82344819D02*
X111238095Y-83154342D01*
X111238095Y-83154342D02*
X111285714Y-83249580D01*
X111285714Y-83249580D02*
X111333333Y-83297200D01*
X111333333Y-83297200D02*
X111428571Y-83344819D01*
X111428571Y-83344819D02*
X111619047Y-83344819D01*
X111619047Y-83344819D02*
X111714285Y-83297200D01*
X111714285Y-83297200D02*
X111761904Y-83249580D01*
X111761904Y-83249580D02*
X111809523Y-83154342D01*
X111809523Y-83154342D02*
X111809523Y-82344819D01*
X112333333Y-83344819D02*
X112523809Y-83344819D01*
X112523809Y-83344819D02*
X112619047Y-83297200D01*
X112619047Y-83297200D02*
X112666666Y-83249580D01*
X112666666Y-83249580D02*
X112761904Y-83106723D01*
X112761904Y-83106723D02*
X112809523Y-82916247D01*
X112809523Y-82916247D02*
X112809523Y-82535295D01*
X112809523Y-82535295D02*
X112761904Y-82440057D01*
X112761904Y-82440057D02*
X112714285Y-82392438D01*
X112714285Y-82392438D02*
X112619047Y-82344819D01*
X112619047Y-82344819D02*
X112428571Y-82344819D01*
X112428571Y-82344819D02*
X112333333Y-82392438D01*
X112333333Y-82392438D02*
X112285714Y-82440057D01*
X112285714Y-82440057D02*
X112238095Y-82535295D01*
X112238095Y-82535295D02*
X112238095Y-82773390D01*
X112238095Y-82773390D02*
X112285714Y-82868628D01*
X112285714Y-82868628D02*
X112333333Y-82916247D01*
X112333333Y-82916247D02*
X112428571Y-82963866D01*
X112428571Y-82963866D02*
X112619047Y-82963866D01*
X112619047Y-82963866D02*
X112714285Y-82916247D01*
X112714285Y-82916247D02*
X112761904Y-82868628D01*
X112761904Y-82868628D02*
X112809523Y-82773390D01*
X105199580Y-110666666D02*
X105247200Y-110714285D01*
X105247200Y-110714285D02*
X105294819Y-110857142D01*
X105294819Y-110857142D02*
X105294819Y-110952380D01*
X105294819Y-110952380D02*
X105247200Y-111095237D01*
X105247200Y-111095237D02*
X105151961Y-111190475D01*
X105151961Y-111190475D02*
X105056723Y-111238094D01*
X105056723Y-111238094D02*
X104866247Y-111285713D01*
X104866247Y-111285713D02*
X104723390Y-111285713D01*
X104723390Y-111285713D02*
X104532914Y-111238094D01*
X104532914Y-111238094D02*
X104437676Y-111190475D01*
X104437676Y-111190475D02*
X104342438Y-111095237D01*
X104342438Y-111095237D02*
X104294819Y-110952380D01*
X104294819Y-110952380D02*
X104294819Y-110857142D01*
X104294819Y-110857142D02*
X104342438Y-110714285D01*
X104342438Y-110714285D02*
X104390057Y-110666666D01*
X104294819Y-109761904D02*
X104294819Y-110238094D01*
X104294819Y-110238094D02*
X104771009Y-110285713D01*
X104771009Y-110285713D02*
X104723390Y-110238094D01*
X104723390Y-110238094D02*
X104675771Y-110142856D01*
X104675771Y-110142856D02*
X104675771Y-109904761D01*
X104675771Y-109904761D02*
X104723390Y-109809523D01*
X104723390Y-109809523D02*
X104771009Y-109761904D01*
X104771009Y-109761904D02*
X104866247Y-109714285D01*
X104866247Y-109714285D02*
X105104342Y-109714285D01*
X105104342Y-109714285D02*
X105199580Y-109761904D01*
X105199580Y-109761904D02*
X105247200Y-109809523D01*
X105247200Y-109809523D02*
X105294819Y-109904761D01*
X105294819Y-109904761D02*
X105294819Y-110142856D01*
X105294819Y-110142856D02*
X105247200Y-110238094D01*
X105247200Y-110238094D02*
X105199580Y-110285713D01*
X102833333Y-105019580D02*
X102785714Y-105067200D01*
X102785714Y-105067200D02*
X102642857Y-105114819D01*
X102642857Y-105114819D02*
X102547619Y-105114819D01*
X102547619Y-105114819D02*
X102404762Y-105067200D01*
X102404762Y-105067200D02*
X102309524Y-104971961D01*
X102309524Y-104971961D02*
X102261905Y-104876723D01*
X102261905Y-104876723D02*
X102214286Y-104686247D01*
X102214286Y-104686247D02*
X102214286Y-104543390D01*
X102214286Y-104543390D02*
X102261905Y-104352914D01*
X102261905Y-104352914D02*
X102309524Y-104257676D01*
X102309524Y-104257676D02*
X102404762Y-104162438D01*
X102404762Y-104162438D02*
X102547619Y-104114819D01*
X102547619Y-104114819D02*
X102642857Y-104114819D01*
X102642857Y-104114819D02*
X102785714Y-104162438D01*
X102785714Y-104162438D02*
X102833333Y-104210057D01*
X103214286Y-104210057D02*
X103261905Y-104162438D01*
X103261905Y-104162438D02*
X103357143Y-104114819D01*
X103357143Y-104114819D02*
X103595238Y-104114819D01*
X103595238Y-104114819D02*
X103690476Y-104162438D01*
X103690476Y-104162438D02*
X103738095Y-104210057D01*
X103738095Y-104210057D02*
X103785714Y-104305295D01*
X103785714Y-104305295D02*
X103785714Y-104400533D01*
X103785714Y-104400533D02*
X103738095Y-104543390D01*
X103738095Y-104543390D02*
X103166667Y-105114819D01*
X103166667Y-105114819D02*
X103785714Y-105114819D01*
X110863095Y-67844819D02*
X110863095Y-68654342D01*
X110863095Y-68654342D02*
X110910714Y-68749580D01*
X110910714Y-68749580D02*
X110958333Y-68797200D01*
X110958333Y-68797200D02*
X111053571Y-68844819D01*
X111053571Y-68844819D02*
X111244047Y-68844819D01*
X111244047Y-68844819D02*
X111339285Y-68797200D01*
X111339285Y-68797200D02*
X111386904Y-68749580D01*
X111386904Y-68749580D02*
X111434523Y-68654342D01*
X111434523Y-68654342D02*
X111434523Y-67844819D01*
X112339285Y-68178152D02*
X112339285Y-68844819D01*
X112101190Y-67797200D02*
X111863095Y-68511485D01*
X111863095Y-68511485D02*
X112482142Y-68511485D01*
X119413095Y-111142319D02*
X119413095Y-111951842D01*
X119413095Y-111951842D02*
X119460714Y-112047080D01*
X119460714Y-112047080D02*
X119508333Y-112094700D01*
X119508333Y-112094700D02*
X119603571Y-112142319D01*
X119603571Y-112142319D02*
X119794047Y-112142319D01*
X119794047Y-112142319D02*
X119889285Y-112094700D01*
X119889285Y-112094700D02*
X119936904Y-112047080D01*
X119936904Y-112047080D02*
X119984523Y-111951842D01*
X119984523Y-111951842D02*
X119984523Y-111142319D01*
X120365476Y-111142319D02*
X120984523Y-111142319D01*
X120984523Y-111142319D02*
X120651190Y-111523271D01*
X120651190Y-111523271D02*
X120794047Y-111523271D01*
X120794047Y-111523271D02*
X120889285Y-111570890D01*
X120889285Y-111570890D02*
X120936904Y-111618509D01*
X120936904Y-111618509D02*
X120984523Y-111713747D01*
X120984523Y-111713747D02*
X120984523Y-111951842D01*
X120984523Y-111951842D02*
X120936904Y-112047080D01*
X120936904Y-112047080D02*
X120889285Y-112094700D01*
X120889285Y-112094700D02*
X120794047Y-112142319D01*
X120794047Y-112142319D02*
X120508333Y-112142319D01*
X120508333Y-112142319D02*
X120413095Y-112094700D01*
X120413095Y-112094700D02*
X120365476Y-112047080D01*
X108784819Y-100611904D02*
X109594342Y-100611904D01*
X109594342Y-100611904D02*
X109689580Y-100564285D01*
X109689580Y-100564285D02*
X109737200Y-100516666D01*
X109737200Y-100516666D02*
X109784819Y-100421428D01*
X109784819Y-100421428D02*
X109784819Y-100230952D01*
X109784819Y-100230952D02*
X109737200Y-100135714D01*
X109737200Y-100135714D02*
X109689580Y-100088095D01*
X109689580Y-100088095D02*
X109594342Y-100040476D01*
X109594342Y-100040476D02*
X108784819Y-100040476D01*
X108880057Y-99611904D02*
X108832438Y-99564285D01*
X108832438Y-99564285D02*
X108784819Y-99469047D01*
X108784819Y-99469047D02*
X108784819Y-99230952D01*
X108784819Y-99230952D02*
X108832438Y-99135714D01*
X108832438Y-99135714D02*
X108880057Y-99088095D01*
X108880057Y-99088095D02*
X108975295Y-99040476D01*
X108975295Y-99040476D02*
X109070533Y-99040476D01*
X109070533Y-99040476D02*
X109213390Y-99088095D01*
X109213390Y-99088095D02*
X109784819Y-99659523D01*
X109784819Y-99659523D02*
X109784819Y-99040476D01*
D12*
%TO.C,SW3*%
X101500000Y-116250000D02*
X101500000Y-117750000D01*
X102750000Y-120250000D02*
X107250000Y-120250000D01*
X107250000Y-113750000D02*
X102750000Y-113750000D01*
X108500000Y-117750000D02*
X108500000Y-116250000D01*
%TO.C,C8*%
X97140000Y-69627836D02*
X97140000Y-69412164D01*
X97860000Y-69627836D02*
X97860000Y-69412164D01*
%TO.C,C7*%
X96640000Y-51627836D02*
X96640000Y-51412164D01*
X97360000Y-51627836D02*
X97360000Y-51412164D01*
%TO.C,C6*%
X97140000Y-34587836D02*
X97140000Y-34372164D01*
X97860000Y-34587836D02*
X97860000Y-34372164D01*
%TO.C,U7*%
X110380000Y-49890000D02*
X109435000Y-49890000D01*
X110380000Y-49890000D02*
X110380000Y-49890000D01*
X110380000Y-49890000D02*
X111870000Y-49890000D01*
X110380000Y-51110000D02*
X110380000Y-51890000D01*
X110380000Y-53110000D02*
X110380000Y-53890000D01*
X110380000Y-55110000D02*
X110380000Y-55890000D01*
X110380000Y-57110000D02*
X110380000Y-57890000D01*
X110380000Y-59110000D02*
X110380000Y-59890000D01*
X110380000Y-61110000D02*
X110380000Y-62110000D01*
X110380000Y-62110000D02*
X111870000Y-62110000D01*
X111870000Y-49890000D02*
X111870000Y-50890000D01*
X111870000Y-52110000D02*
X111870000Y-52890000D01*
X111870000Y-54110000D02*
X111870000Y-54890000D01*
X111870000Y-56110000D02*
X111870000Y-56890000D01*
X111870000Y-58110000D02*
X111870000Y-58890000D01*
X111870000Y-60110000D02*
X111870000Y-60890000D01*
X111870000Y-62110000D02*
X111870000Y-62110000D01*
%TO.C,U8*%
X110380000Y-32890000D02*
X109435000Y-32890000D01*
X110380000Y-32890000D02*
X110380000Y-32890000D01*
X110380000Y-32890000D02*
X111870000Y-32890000D01*
X110380000Y-34110000D02*
X110380000Y-34890000D01*
X110380000Y-36110000D02*
X110380000Y-36890000D01*
X110380000Y-38110000D02*
X110380000Y-38890000D01*
X110380000Y-40110000D02*
X110380000Y-40890000D01*
X110380000Y-42110000D02*
X110380000Y-42890000D01*
X110380000Y-44110000D02*
X110380000Y-45110000D01*
X110380000Y-45110000D02*
X111870000Y-45110000D01*
X111870000Y-32890000D02*
X111870000Y-33890000D01*
X111870000Y-35110000D02*
X111870000Y-35890000D01*
X111870000Y-37110000D02*
X111870000Y-37890000D01*
X111870000Y-39110000D02*
X111870000Y-39890000D01*
X111870000Y-41110000D02*
X111870000Y-41890000D01*
X111870000Y-43110000D02*
X111870000Y-43890000D01*
X111870000Y-45110000D02*
X111870000Y-45110000D01*
%TO.C,SW1*%
X94790000Y-115700000D02*
X94790000Y-113690000D01*
X94790000Y-119310000D02*
X94790000Y-117300000D01*
X94800000Y-113690000D02*
X97500000Y-113690000D01*
X97510000Y-113690000D02*
X97510000Y-113950000D01*
X97510000Y-117480000D02*
X97510000Y-115520000D01*
X97510000Y-119050000D02*
X97510000Y-119300000D01*
X97510000Y-119050000D02*
X98050000Y-119050000D01*
X97510000Y-119310000D02*
X94790000Y-119310000D01*
%TO.C,C1*%
X107892164Y-95640000D02*
X108107836Y-95640000D01*
X107892164Y-96360000D02*
X108107836Y-96360000D01*
%TO.C,U6*%
X97215000Y-84390000D02*
X97215000Y-86765000D01*
X97215000Y-84390000D02*
X99435000Y-84390000D01*
X97215000Y-84765000D02*
X97215000Y-86765000D01*
X97215000Y-88235000D02*
X97215000Y-88610000D01*
X97215000Y-88610000D02*
X99435000Y-88610000D01*
X99435000Y-84390000D02*
X99435000Y-84765000D01*
X99435000Y-84765000D02*
X100615000Y-84765000D01*
X99435000Y-86235000D02*
X99435000Y-88610000D01*
%TO.C,C3*%
X104140000Y-95107836D02*
X104140000Y-94892164D01*
X104860000Y-95107836D02*
X104860000Y-94892164D01*
%TO.C,U1*%
X97390000Y-53452500D02*
X97390000Y-53242500D01*
X97390000Y-56222500D02*
X97390000Y-55772500D01*
X97840000Y-53002500D02*
X97690000Y-53002500D01*
X97840000Y-56222500D02*
X97390000Y-56222500D01*
X100160000Y-53002500D02*
X100610000Y-53002500D01*
X100160000Y-56222500D02*
X100610000Y-56222500D01*
X100610000Y-53002500D02*
X100610000Y-53452500D01*
X100610000Y-56222500D02*
X100610000Y-55772500D01*
X97390000Y-53002500D02*
X97150000Y-52672500D01*
X97630000Y-52672500D01*
X97390000Y-53002500D01*
G36*
X97390000Y-53002500D02*
G01*
X97150000Y-52672500D01*
X97630000Y-52672500D01*
X97390000Y-53002500D01*
G37*
%TO.C,J1*%
X102410000Y-129280000D02*
X103685000Y-129280000D01*
X103685000Y-129215000D02*
X103685000Y-129280000D01*
X103685000Y-129215000D02*
X107315000Y-129215000D01*
X103685000Y-135720000D02*
X103685000Y-135785000D01*
X103685000Y-135785000D02*
X107315000Y-135785000D01*
X107315000Y-129215000D02*
X107315000Y-129280000D01*
X107315000Y-135720000D02*
X107315000Y-135785000D01*
%TO.C,U5*%
X97390000Y-36340000D02*
X97390000Y-36130000D01*
X97390000Y-39110000D02*
X97390000Y-38660000D01*
X97840000Y-35890000D02*
X97690000Y-35890000D01*
X97840000Y-39110000D02*
X97390000Y-39110000D01*
X100160000Y-35890000D02*
X100610000Y-35890000D01*
X100160000Y-39110000D02*
X100610000Y-39110000D01*
X100610000Y-35890000D02*
X100610000Y-36340000D01*
X100610000Y-39110000D02*
X100610000Y-38660000D01*
X97390000Y-35890000D02*
X97150000Y-35560000D01*
X97630000Y-35560000D01*
X97390000Y-35890000D01*
G36*
X97390000Y-35890000D02*
G01*
X97150000Y-35560000D01*
X97630000Y-35560000D01*
X97390000Y-35890000D01*
G37*
%TO.C,U9*%
X110890000Y-83890000D02*
X110890000Y-86265000D01*
X110890000Y-83890000D02*
X113110000Y-83890000D01*
X110890000Y-84265000D02*
X110890000Y-86265000D01*
X110890000Y-87735000D02*
X110890000Y-88110000D01*
X110890000Y-88110000D02*
X113110000Y-88110000D01*
X113110000Y-83890000D02*
X113110000Y-84265000D01*
X113110000Y-84265000D02*
X114290000Y-84265000D01*
X113110000Y-85735000D02*
X113110000Y-88110000D01*
%TO.C,C5*%
X105640000Y-110607836D02*
X105640000Y-110392164D01*
X106360000Y-110607836D02*
X106360000Y-110392164D01*
%TO.C,C2*%
X103107836Y-103860000D02*
X102892164Y-103860000D01*
X103107836Y-103140000D02*
X102892164Y-103140000D01*
%TO.C,U4*%
X110880000Y-69390000D02*
X109935000Y-69390000D01*
X110880000Y-69390000D02*
X110880000Y-69390000D01*
X110880000Y-69390000D02*
X112370000Y-69390000D01*
X110880000Y-70610000D02*
X110880000Y-71390000D01*
X110880000Y-72610000D02*
X110880000Y-73390000D01*
X110880000Y-74610000D02*
X110880000Y-75390000D01*
X110880000Y-76610000D02*
X110880000Y-77390000D01*
X110880000Y-78610000D02*
X110880000Y-79390000D01*
X110880000Y-80610000D02*
X110880000Y-81610000D01*
X110880000Y-81610000D02*
X112370000Y-81610000D01*
X112370000Y-69390000D02*
X112370000Y-70390000D01*
X112370000Y-71610000D02*
X112370000Y-72390000D01*
X112370000Y-73610000D02*
X112370000Y-74390000D01*
X112370000Y-75610000D02*
X112370000Y-76390000D01*
X112370000Y-77610000D02*
X112370000Y-78390000D01*
X112370000Y-79610000D02*
X112370000Y-80390000D01*
X112370000Y-81610000D02*
X112370000Y-81610000D01*
%TO.C,U3*%
X97890000Y-71340000D02*
X97890000Y-71130000D01*
X97890000Y-74110000D02*
X97890000Y-73660000D01*
X98340000Y-70890000D02*
X98190000Y-70890000D01*
X98340000Y-74110000D02*
X97890000Y-74110000D01*
X100660000Y-70890000D02*
X101110000Y-70890000D01*
X100660000Y-74110000D02*
X101110000Y-74110000D01*
X101110000Y-70890000D02*
X101110000Y-71340000D01*
X101110000Y-74110000D02*
X101110000Y-73660000D01*
X97890000Y-70890000D02*
X97650000Y-70560000D01*
X98130000Y-70560000D01*
X97890000Y-70890000D01*
G36*
X97890000Y-70890000D02*
G01*
X97650000Y-70560000D01*
X98130000Y-70560000D01*
X97890000Y-70890000D01*
G37*
%TO.C,U2*%
X102890000Y-97240000D02*
X103365000Y-97240000D01*
X102890000Y-97715000D02*
X102890000Y-97240000D01*
X102890000Y-101985000D02*
X102890000Y-102460000D01*
X102890000Y-102460000D02*
X103365000Y-102460000D01*
X107635000Y-97240000D02*
X107870000Y-97240000D01*
X108110000Y-97715000D02*
X108110000Y-97540000D01*
X108110000Y-101985000D02*
X108110000Y-102460000D01*
X108110000Y-102460000D02*
X107635000Y-102460000D01*
X108440000Y-97480000D02*
X108110000Y-97240000D01*
X108440000Y-97000000D01*
X108440000Y-97480000D01*
G36*
X108440000Y-97480000D02*
G01*
X108110000Y-97240000D01*
X108440000Y-97000000D01*
X108440000Y-97480000D01*
G37*
%TD*%
M02*
