%TF.GenerationSoftware,KiCad,Pcbnew,10.0.0*%
%TF.CreationDate,2026-05-07T03:09:36+01:00*%
%TF.ProjectId,vibook,7669626f-6f6b-42e6-9b69-6361645f7063,rev?*%
%TF.SameCoordinates,Original*%
%TF.FileFunction,Legend,Top*%
%TF.FilePolarity,Positive*%
%FSLAX46Y46*%
G04 Gerber Fmt 4.6, Leading zero omitted, Abs format (unit mm)*
G04 Created by KiCad (PCBNEW 10.0.0) date 2026-05-07 03:09:36*
%MOMM*%
%LPD*%
G01*
G04 APERTURE LIST*
G04 Aperture macros list*
%AMRoundRect*
0 Rectangle with rounded corners*
0 $1 Rounding radius*
0 $2 $3 $4 $5 $6 $7 $8 $9 X,Y pos of 4 corners*
0 Add a 4 corners polygon primitive as box body*
4,1,4,$2,$3,$4,$5,$6,$7,$8,$9,$2,$3,0*
0 Add four circle primitives for the rounded corners*
1,1,$1+$1,$2,$3*
1,1,$1+$1,$4,$5*
1,1,$1+$1,$6,$7*
1,1,$1+$1,$8,$9*
0 Add four rect primitives between the rounded corners*
20,1,$1+$1,$2,$3,$4,$5,0*
20,1,$1+$1,$4,$5,$6,$7,0*
20,1,$1+$1,$6,$7,$8,$9,0*
20,1,$1+$1,$8,$9,$2,$3,0*%
%AMFreePoly0*
4,1,14,0.354215,0.088284,0.450784,-0.008285,0.462500,-0.036569,0.462500,-0.060000,0.450784,-0.088284,0.422500,-0.100000,-0.422500,-0.100000,-0.450784,-0.088284,-0.462500,-0.060000,-0.462500,0.060000,-0.450784,0.088284,-0.422500,0.100000,0.325931,0.100000,0.354215,0.088284,0.354215,0.088284,$1*%
%AMFreePoly1*
4,1,14,0.450784,0.088284,0.462500,0.060000,0.462500,0.036569,0.450784,0.008285,0.354215,-0.088284,0.325931,-0.100000,-0.422500,-0.100000,-0.450784,-0.088284,-0.462500,-0.060000,-0.462500,0.060000,-0.450784,0.088284,-0.422500,0.100000,0.422500,0.100000,0.450784,0.088284,0.450784,0.088284,$1*%
%AMFreePoly2*
4,1,14,0.088284,0.450784,0.100000,0.422500,0.100000,-0.422500,0.088284,-0.450784,0.060000,-0.462500,-0.060000,-0.462500,-0.088284,-0.450784,-0.100000,-0.422500,-0.100000,0.325931,-0.088284,0.354215,0.008285,0.450784,0.036569,0.462500,0.060000,0.462500,0.088284,0.450784,0.088284,0.450784,$1*%
%AMFreePoly3*
4,1,14,-0.008285,0.450784,0.088284,0.354215,0.100000,0.325931,0.100000,-0.422500,0.088284,-0.450784,0.060000,-0.462500,-0.060000,-0.462500,-0.088284,-0.450784,-0.100000,-0.422500,-0.100000,0.422500,-0.088284,0.450784,-0.060000,0.462500,-0.036569,0.462500,-0.008285,0.450784,-0.008285,0.450784,$1*%
%AMFreePoly4*
4,1,14,0.450784,0.088284,0.462500,0.060000,0.462500,-0.060000,0.450784,-0.088284,0.422500,-0.100000,-0.325931,-0.100000,-0.354215,-0.088284,-0.450784,0.008285,-0.462500,0.036569,-0.462500,0.060000,-0.450784,0.088284,-0.422500,0.100000,0.422500,0.100000,0.450784,0.088284,0.450784,0.088284,$1*%
%AMFreePoly5*
4,1,14,0.450784,0.088284,0.462500,0.060000,0.462500,-0.060000,0.450784,-0.088284,0.422500,-0.100000,-0.422500,-0.100000,-0.450784,-0.088284,-0.462500,-0.060000,-0.462500,-0.036569,-0.450784,-0.008285,-0.354215,0.088284,-0.325931,0.100000,0.422500,0.100000,0.450784,0.088284,0.450784,0.088284,$1*%
%AMFreePoly6*
4,1,14,0.088284,0.450784,0.100000,0.422500,0.100000,-0.325931,0.088284,-0.354215,-0.008285,-0.450784,-0.036569,-0.462500,-0.060000,-0.462500,-0.088284,-0.450784,-0.100000,-0.422500,-0.100000,0.422500,-0.088284,0.450784,-0.060000,0.462500,0.060000,0.462500,0.088284,0.450784,0.088284,0.450784,$1*%
%AMFreePoly7*
4,1,14,0.088284,0.450784,0.100000,0.422500,0.100000,-0.422500,0.088284,-0.450784,0.060000,-0.462500,0.036569,-0.462500,0.008285,-0.450784,-0.088284,-0.354215,-0.100000,-0.325931,-0.100000,0.422500,-0.088284,0.450784,-0.060000,0.462500,0.060000,0.462500,0.088284,0.450784,0.088284,0.450784,$1*%
G04 Aperture macros list end*
%ADD10C,0.100000*%
%ADD11C,0.150000*%
%ADD12C,0.120000*%
%ADD13C,0.200000*%
%ADD14C,0.152400*%
%ADD15C,0.508000*%
%ADD16C,0.127000*%
%ADD17C,3.000000*%
%ADD18RoundRect,0.250000X-0.262500X-0.450000X0.262500X-0.450000X0.262500X0.450000X-0.262500X0.450000X0*%
%ADD19RoundRect,0.135000X-0.185000X0.135000X-0.185000X-0.135000X0.185000X-0.135000X0.185000X0.135000X0*%
%ADD20RoundRect,0.140000X0.170000X-0.140000X0.170000X0.140000X-0.170000X0.140000X-0.170000X-0.140000X0*%
%ADD21RoundRect,0.250000X0.250000X0.475000X-0.250000X0.475000X-0.250000X-0.475000X0.250000X-0.475000X0*%
%ADD22RoundRect,0.250000X-0.785000X-1.895000X0.785000X-1.895000X0.785000X1.895000X-0.785000X1.895000X0*%
%ADD23RoundRect,0.135000X0.185000X-0.135000X0.185000X0.135000X-0.185000X0.135000X-0.185000X-0.135000X0*%
%ADD24RoundRect,0.250000X-0.475000X0.250000X-0.475000X-0.250000X0.475000X-0.250000X0.475000X0.250000X0*%
%ADD25R,0.740000X2.400000*%
%ADD26RoundRect,0.102000X-0.200000X-0.750000X0.200000X-0.750000X0.200000X0.750000X-0.200000X0.750000X0*%
%ADD27RoundRect,0.102000X-0.400000X-0.750000X0.400000X-0.750000X0.400000X0.750000X-0.400000X0.750000X0*%
%ADD28RoundRect,0.200000X-0.335876X-0.053033X-0.053033X-0.335876X0.335876X0.053033X0.053033X0.335876X0*%
%ADD29RoundRect,0.140000X-0.219203X-0.021213X-0.021213X-0.219203X0.219203X0.021213X0.021213X0.219203X0*%
%ADD30RoundRect,0.087500X0.087500X-0.425000X0.087500X0.425000X-0.087500X0.425000X-0.087500X-0.425000X0*%
%ADD31RoundRect,0.140000X-0.021213X0.219203X-0.219203X0.021213X0.021213X-0.219203X0.219203X-0.021213X0*%
%ADD32R,0.660400X1.041400*%
%ADD33FreePoly0,180.000000*%
%ADD34RoundRect,0.050000X0.412500X0.050000X-0.412500X0.050000X-0.412500X-0.050000X0.412500X-0.050000X0*%
%ADD35FreePoly1,180.000000*%
%ADD36FreePoly2,180.000000*%
%ADD37RoundRect,0.050000X0.050000X0.412500X-0.050000X0.412500X-0.050000X-0.412500X0.050000X-0.412500X0*%
%ADD38FreePoly3,180.000000*%
%ADD39FreePoly4,180.000000*%
%ADD40FreePoly5,180.000000*%
%ADD41FreePoly6,180.000000*%
%ADD42FreePoly7,180.000000*%
%ADD43RoundRect,0.250000X0.475000X-0.250000X0.475000X0.250000X-0.475000X0.250000X-0.475000X-0.250000X0*%
%ADD44RoundRect,0.102000X0.654000X-0.654000X0.654000X0.654000X-0.654000X0.654000X-0.654000X-0.654000X0*%
%ADD45C,1.512000*%
%ADD46RoundRect,0.200000X-0.200000X-0.450000X0.200000X-0.450000X0.200000X0.450000X-0.200000X0.450000X0*%
%ADD47O,0.800000X1.300000*%
%ADD48RoundRect,0.140000X0.021213X-0.219203X0.219203X-0.021213X-0.021213X0.219203X-0.219203X0.021213X0*%
%ADD49RoundRect,0.140000X0.140000X0.170000X-0.140000X0.170000X-0.140000X-0.170000X0.140000X-0.170000X0*%
%ADD50RoundRect,0.140000X-0.170000X0.140000X-0.170000X-0.140000X0.170000X-0.140000X0.170000X0.140000X0*%
%ADD51RoundRect,0.075000X0.415425X0.521491X-0.521491X-0.415425X-0.415425X-0.521491X0.521491X0.415425X0*%
%ADD52RoundRect,0.075000X-0.415425X0.521491X-0.521491X0.415425X0.415425X-0.521491X0.521491X-0.415425X0*%
%ADD53RoundRect,0.135000X0.035355X-0.226274X0.226274X-0.035355X-0.035355X0.226274X-0.226274X0.035355X0*%
G04 APERTURE END LIST*
D10*
X140372419Y-100838972D02*
X141372419Y-100505639D01*
X141372419Y-100505639D02*
X140372419Y-100172306D01*
X141372419Y-99838972D02*
X140705752Y-99838972D01*
X140372419Y-99838972D02*
X140420038Y-99886591D01*
X140420038Y-99886591D02*
X140467657Y-99838972D01*
X140467657Y-99838972D02*
X140420038Y-99791353D01*
X140420038Y-99791353D02*
X140372419Y-99838972D01*
X140372419Y-99838972D02*
X140467657Y-99838972D01*
X140705752Y-99362782D02*
X141372419Y-99362782D01*
X140800990Y-99362782D02*
X140753371Y-99315163D01*
X140753371Y-99315163D02*
X140705752Y-99219925D01*
X140705752Y-99219925D02*
X140705752Y-99077068D01*
X140705752Y-99077068D02*
X140753371Y-98981830D01*
X140753371Y-98981830D02*
X140848609Y-98934211D01*
X140848609Y-98934211D02*
X141372419Y-98934211D01*
X142420038Y-100672306D02*
X142372419Y-100767544D01*
X142372419Y-100767544D02*
X142372419Y-100910401D01*
X142372419Y-100910401D02*
X142420038Y-101053258D01*
X142420038Y-101053258D02*
X142515276Y-101148496D01*
X142515276Y-101148496D02*
X142610514Y-101196115D01*
X142610514Y-101196115D02*
X142800990Y-101243734D01*
X142800990Y-101243734D02*
X142943847Y-101243734D01*
X142943847Y-101243734D02*
X143134323Y-101196115D01*
X143134323Y-101196115D02*
X143229561Y-101148496D01*
X143229561Y-101148496D02*
X143324800Y-101053258D01*
X143324800Y-101053258D02*
X143372419Y-100910401D01*
X143372419Y-100910401D02*
X143372419Y-100815163D01*
X143372419Y-100815163D02*
X143324800Y-100672306D01*
X143324800Y-100672306D02*
X143277180Y-100624687D01*
X143277180Y-100624687D02*
X142943847Y-100624687D01*
X142943847Y-100624687D02*
X142943847Y-100815163D01*
X142705752Y-100196115D02*
X143372419Y-100196115D01*
X142800990Y-100196115D02*
X142753371Y-100148496D01*
X142753371Y-100148496D02*
X142705752Y-100053258D01*
X142705752Y-100053258D02*
X142705752Y-99910401D01*
X142705752Y-99910401D02*
X142753371Y-99815163D01*
X142753371Y-99815163D02*
X142848609Y-99767544D01*
X142848609Y-99767544D02*
X143372419Y-99767544D01*
X143372419Y-98862782D02*
X142372419Y-98862782D01*
X143324800Y-98862782D02*
X143372419Y-98958020D01*
X143372419Y-98958020D02*
X143372419Y-99148496D01*
X143372419Y-99148496D02*
X143324800Y-99243734D01*
X143324800Y-99243734D02*
X143277180Y-99291353D01*
X143277180Y-99291353D02*
X143181942Y-99338972D01*
X143181942Y-99338972D02*
X142896228Y-99338972D01*
X142896228Y-99338972D02*
X142800990Y-99291353D01*
X142800990Y-99291353D02*
X142753371Y-99243734D01*
X142753371Y-99243734D02*
X142705752Y-99148496D01*
X142705752Y-99148496D02*
X142705752Y-98958020D01*
X142705752Y-98958020D02*
X142753371Y-98862782D01*
D11*
X141108095Y-109194819D02*
X141108095Y-110004342D01*
X141108095Y-110004342D02*
X141155714Y-110099580D01*
X141155714Y-110099580D02*
X141203333Y-110147200D01*
X141203333Y-110147200D02*
X141298571Y-110194819D01*
X141298571Y-110194819D02*
X141489047Y-110194819D01*
X141489047Y-110194819D02*
X141584285Y-110147200D01*
X141584285Y-110147200D02*
X141631904Y-110099580D01*
X141631904Y-110099580D02*
X141679523Y-110004342D01*
X141679523Y-110004342D02*
X141679523Y-109194819D01*
X142060476Y-109194819D02*
X142727142Y-109194819D01*
X142727142Y-109194819D02*
X142298571Y-110194819D01*
%TO.C,R31*%
D12*
X104272936Y-95765000D02*
X104727064Y-95765000D01*
X104272936Y-97235000D02*
X104727064Y-97235000D01*
%TO.C,R40*%
X69630000Y-108066359D02*
X69630000Y-108373641D01*
X70390000Y-108066359D02*
X70390000Y-108373641D01*
%TO.C,C10*%
X61140000Y-101807836D02*
X61140000Y-101592164D01*
X61860000Y-101807836D02*
X61860000Y-101592164D01*
%TO.C,C9*%
X93261252Y-107465000D02*
X92738748Y-107465000D01*
X93261252Y-108935000D02*
X92738748Y-108935000D01*
%TO.C,C12*%
X98209384Y-108390000D02*
X98209384Y-114610000D01*
X98209384Y-114610000D02*
X106274384Y-114610000D01*
X106274384Y-108390000D02*
X98209384Y-108390000D01*
%TO.C,R25*%
X32620000Y-108353641D02*
X32620000Y-108046359D01*
X33380000Y-108353641D02*
X33380000Y-108046359D01*
%TO.C,R34*%
X72630000Y-108056359D02*
X72630000Y-108363641D01*
X73390000Y-108056359D02*
X73390000Y-108363641D01*
%TO.C,C6*%
X93965000Y-110988748D02*
X93965000Y-111511252D01*
X95435000Y-110988748D02*
X95435000Y-111511252D01*
%TO.C,R10*%
X51120000Y-100746359D02*
X51120000Y-101053641D01*
X51880000Y-100746359D02*
X51880000Y-101053641D01*
%TO.C,C11*%
X41140000Y-101807836D02*
X41140000Y-101592164D01*
X41860000Y-101807836D02*
X41860000Y-101592164D01*
%TO.C,J1*%
X98485000Y-101635000D02*
X98550000Y-101635000D01*
X98485000Y-105265000D02*
X98485000Y-101635000D01*
X98485000Y-105265000D02*
X98550000Y-105265000D01*
X98550000Y-106540000D02*
X98550000Y-105265000D01*
X104990000Y-101635000D02*
X105055000Y-101635000D01*
X104990000Y-105265000D02*
X105055000Y-105265000D01*
X105055000Y-105265000D02*
X105055000Y-101635000D01*
%TO.C,R22*%
X31120000Y-101046359D02*
X31120000Y-101353641D01*
X31880000Y-101046359D02*
X31880000Y-101353641D01*
%TO.C,J5*%
D13*
X22450000Y-103500000D02*
X22450000Y-105700000D01*
X22450000Y-105700000D02*
X24250000Y-105700000D01*
X24250000Y-103500000D02*
X22450000Y-103500000D01*
X35250000Y-103500000D02*
X37050000Y-103500000D01*
X37050000Y-103500000D02*
X37050000Y-105700000D01*
X37050000Y-105700000D02*
X35250000Y-105700000D01*
X26050000Y-104700000D02*
G75*
G02*
X25850000Y-104700000I-100000J0D01*
G01*
X25850000Y-104700000D02*
G75*
G02*
X26050000Y-104700000I100000J0D01*
G01*
%TO.C,R3*%
D12*
X58962770Y-99701697D02*
X59298303Y-100037230D01*
X59701697Y-98962770D02*
X60037230Y-99298303D01*
%TO.C,C1*%
X85469190Y-109878307D02*
X85621693Y-110030810D01*
X85978307Y-109369190D02*
X86130810Y-109521693D01*
%TO.C,IC3*%
X91240000Y-110127500D02*
X91265000Y-110127500D01*
X91240000Y-111597500D02*
X91240000Y-110127500D01*
X91265000Y-111597500D02*
X91240000Y-111597500D01*
X92135000Y-110127500D02*
X92565000Y-110127500D01*
X93435000Y-110127500D02*
X93460000Y-110127500D01*
X93460000Y-110127500D02*
X93460000Y-111597500D01*
X93460000Y-111597500D02*
X93435000Y-111597500D01*
X91260000Y-112042500D02*
X91070000Y-112182500D01*
X91070000Y-111902500D01*
X91260000Y-112042500D01*
G36*
X91260000Y-112042500D02*
G01*
X91070000Y-112182500D01*
X91070000Y-111902500D01*
X91260000Y-112042500D01*
G37*
%TO.C,J4*%
D13*
X42450000Y-103200000D02*
X42450000Y-105400000D01*
X42450000Y-105400000D02*
X44250000Y-105400000D01*
X44250000Y-103200000D02*
X42450000Y-103200000D01*
X55250000Y-103200000D02*
X57050000Y-103200000D01*
X57050000Y-103200000D02*
X57050000Y-105400000D01*
X57050000Y-105400000D02*
X55250000Y-105400000D01*
X46050000Y-104400000D02*
G75*
G02*
X45850000Y-104400000I-100000J0D01*
G01*
X45850000Y-104400000D02*
G75*
G02*
X46050000Y-104400000I100000J0D01*
G01*
%TO.C,R48*%
D12*
X65620000Y-107846359D02*
X65620000Y-108153641D01*
X66380000Y-107846359D02*
X66380000Y-108153641D01*
%TO.C,R15*%
X50620000Y-108063641D02*
X50620000Y-107756359D01*
X51380000Y-108063641D02*
X51380000Y-107756359D01*
%TO.C,C19*%
X89461104Y-107829779D02*
X89308601Y-107982282D01*
X89970221Y-108338896D02*
X89817718Y-108491399D01*
%TO.C,R35*%
X72120000Y-101363641D02*
X72120000Y-101056359D01*
X72880000Y-101363641D02*
X72880000Y-101056359D01*
%TO.C,R13*%
X52620000Y-108053641D02*
X52620000Y-107746359D01*
X53380000Y-108053641D02*
X53380000Y-107746359D01*
%TO.C,SW1*%
D14*
X93772800Y-97529553D02*
X93772800Y-100470447D01*
X95087941Y-101222500D02*
X95912059Y-101222500D01*
X95912059Y-96777500D02*
X95087941Y-96777500D01*
X97227200Y-100470447D02*
X97227200Y-97529553D01*
D15*
X96286400Y-95893760D02*
G75*
G02*
X96863598Y-95893760I288599J-248741D01*
G01*
%TO.C,R37*%
D12*
X71110000Y-101363641D02*
X71110000Y-101056359D01*
X71870000Y-101363641D02*
X71870000Y-101056359D01*
%TO.C,R28*%
X29620000Y-108353641D02*
X29620000Y-108046359D01*
X30380000Y-108353641D02*
X30380000Y-108046359D01*
%TO.C,R44*%
X67620000Y-108056359D02*
X67620000Y-108363641D01*
X68380000Y-108056359D02*
X68380000Y-108363641D01*
%TO.C,R43*%
X68120000Y-101363641D02*
X68120000Y-101056359D01*
X68880000Y-101363641D02*
X68880000Y-101056359D01*
%TO.C,U5*%
X38002500Y-102890000D02*
X38452500Y-102890000D01*
X38002500Y-103340000D02*
X38002500Y-102890000D01*
X38002500Y-106110000D02*
X38002500Y-105660000D01*
X38452500Y-106110000D02*
X38002500Y-106110000D01*
X40772500Y-102890000D02*
X41222500Y-102890000D01*
X41222500Y-102890000D02*
X41222500Y-103340000D01*
X41222500Y-105660000D02*
X41222500Y-106110000D01*
X41222500Y-106110000D02*
X40772500Y-106110000D01*
X42062500Y-105540000D02*
X41732500Y-105300000D01*
X42062500Y-105060000D01*
X42062500Y-105540000D01*
G36*
X42062500Y-105540000D02*
G01*
X41732500Y-105300000D01*
X42062500Y-105060000D01*
X42062500Y-105540000D01*
G37*
%TO.C,R38*%
X70620000Y-108056359D02*
X70620000Y-108363641D01*
X71380000Y-108056359D02*
X71380000Y-108363641D01*
%TO.C,C4*%
X94265000Y-104011252D02*
X94265000Y-103488748D01*
X95735000Y-104011252D02*
X95735000Y-103488748D01*
%TO.C,U6*%
D16*
X108340000Y-94340000D02*
X128660000Y-94340000D01*
X108340000Y-114660000D02*
X108340000Y-94340000D01*
X128660000Y-94340000D02*
X128660000Y-114660000D01*
X128660000Y-114660000D02*
X108340000Y-114660000D01*
D13*
X109710000Y-115300000D02*
G75*
G02*
X109510000Y-115300000I-100000J0D01*
G01*
X109510000Y-115300000D02*
G75*
G02*
X109710000Y-115300000I100000J0D01*
G01*
%TO.C,R27*%
D12*
X30620000Y-108353641D02*
X30620000Y-108046359D01*
X31380000Y-108353641D02*
X31380000Y-108046359D01*
%TO.C,R36*%
X71630000Y-108056359D02*
X71630000Y-108363641D01*
X72390000Y-108056359D02*
X72390000Y-108363641D01*
%TO.C,R30*%
X27620000Y-108353641D02*
X27620000Y-108046359D01*
X28380000Y-108353641D02*
X28380000Y-108046359D01*
%TO.C,R16*%
X49620000Y-108053641D02*
X49620000Y-107746359D01*
X50380000Y-108053641D02*
X50380000Y-107746359D01*
%TO.C,U9*%
X139475000Y-98505000D02*
X139475000Y-97505000D01*
X139475000Y-98505000D02*
X140475000Y-98505000D01*
X140075000Y-96155000D02*
X140275000Y-96155000D01*
X140075000Y-96955000D02*
X140075000Y-96155000D01*
X140275000Y-95305000D02*
X142000000Y-95305000D01*
X140275000Y-96155000D02*
X140275000Y-95305000D01*
X140275000Y-96955000D02*
X140075000Y-96955000D01*
X140275000Y-97705000D02*
X140275000Y-96955000D01*
X142000000Y-97705000D02*
X140275000Y-97705000D01*
X142000000Y-97705000D02*
X143725000Y-97705000D01*
X143725000Y-95305000D02*
X142000000Y-95305000D01*
X143725000Y-96155000D02*
X143725000Y-95305000D01*
X143725000Y-96955000D02*
X143925000Y-96955000D01*
X143725000Y-97705000D02*
X143725000Y-96955000D01*
X143925000Y-96155000D02*
X143725000Y-96155000D01*
X143925000Y-96955000D02*
X143925000Y-96155000D01*
X139765000Y-94795000D02*
X144235000Y-94795000D01*
X144235000Y-98215000D01*
X139765000Y-98215000D01*
X139765000Y-94795000D01*
%TO.C,C7*%
X60325660Y-107018565D02*
X60478163Y-106866062D01*
X60834777Y-107527682D02*
X60987280Y-107375179D01*
%TO.C,C5*%
X92140000Y-100127836D02*
X92140000Y-99912164D01*
X92860000Y-100127836D02*
X92860000Y-99912164D01*
%TO.C,R7*%
X48120000Y-100756359D02*
X48120000Y-101063641D01*
X48880000Y-100756359D02*
X48880000Y-101063641D01*
%TO.C,R9*%
X50120000Y-100746359D02*
X50120000Y-101053641D01*
X50880000Y-100746359D02*
X50880000Y-101053641D01*
%TO.C,R41*%
X69120000Y-101363641D02*
X69120000Y-101056359D01*
X69880000Y-101363641D02*
X69880000Y-101056359D01*
%TO.C,R45*%
X67120000Y-101363641D02*
X67120000Y-101056359D01*
X67880000Y-101363641D02*
X67880000Y-101056359D01*
%TO.C,R17*%
X48620000Y-108063641D02*
X48620000Y-107756359D01*
X49380000Y-108063641D02*
X49380000Y-107756359D01*
%TO.C,C8*%
X79669190Y-103321693D02*
X79821693Y-103169190D01*
X80178307Y-103830810D02*
X80330810Y-103678307D01*
%TO.C,C15*%
X88669190Y-97821693D02*
X88821693Y-97669190D01*
X89178307Y-98330810D02*
X89330810Y-98178307D01*
%TO.C,C16*%
X82087836Y-96640000D02*
X81872164Y-96640000D01*
X82087836Y-97360000D02*
X81872164Y-97360000D01*
%TO.C,R42*%
X68620000Y-108066359D02*
X68620000Y-108373641D01*
X69380000Y-108066359D02*
X69380000Y-108373641D01*
%TO.C,R33*%
X73110000Y-101353641D02*
X73110000Y-101046359D01*
X73870000Y-101353641D02*
X73870000Y-101046359D01*
%TO.C,U3*%
X57890000Y-102790000D02*
X58340000Y-102790000D01*
X57890000Y-103240000D02*
X57890000Y-102790000D01*
X57890000Y-106010000D02*
X57890000Y-105560000D01*
X58340000Y-106010000D02*
X57890000Y-106010000D01*
X60660000Y-102790000D02*
X61110000Y-102790000D01*
X61110000Y-102790000D02*
X61110000Y-103240000D01*
X61110000Y-105560000D02*
X61110000Y-106010000D01*
X61110000Y-106010000D02*
X60660000Y-106010000D01*
X61950000Y-105440000D02*
X61620000Y-105200000D01*
X61950000Y-104960000D01*
X61950000Y-105440000D01*
G36*
X61950000Y-105440000D02*
G01*
X61620000Y-105200000D01*
X61950000Y-104960000D01*
X61950000Y-105440000D01*
G37*
%TO.C,C17*%
X81127836Y-99040000D02*
X80912164Y-99040000D01*
X81127836Y-99760000D02*
X80912164Y-99760000D01*
%TO.C,R46*%
X66620000Y-108056359D02*
X66620000Y-108363641D01*
X67380000Y-108056359D02*
X67380000Y-108363641D01*
%TO.C,R24*%
X33120000Y-101046359D02*
X33120000Y-101353641D01*
X33880000Y-101046359D02*
X33880000Y-101353641D01*
%TO.C,R8*%
X49120000Y-100746359D02*
X49120000Y-101053641D01*
X49880000Y-100746359D02*
X49880000Y-101053641D01*
%TO.C,R21*%
X30120000Y-101046359D02*
X30120000Y-101353641D01*
X30880000Y-101046359D02*
X30880000Y-101353641D01*
%TO.C,C2*%
X92669190Y-102821693D02*
X92821693Y-102669190D01*
X93178307Y-103330810D02*
X93330810Y-103178307D01*
%TO.C,R29*%
X28620000Y-108353641D02*
X28620000Y-108046359D01*
X29380000Y-108353641D02*
X29380000Y-108046359D01*
%TO.C,R14*%
X51620000Y-108053641D02*
X51620000Y-107746359D01*
X52380000Y-108053641D02*
X52380000Y-107746359D01*
%TO.C,U7*%
X139350000Y-114550000D02*
X139350000Y-113550000D01*
X139350000Y-114550000D02*
X140350000Y-114550000D01*
X139950000Y-112200000D02*
X140150000Y-112200000D01*
X139950000Y-113000000D02*
X139950000Y-112200000D01*
X140150000Y-111350000D02*
X141875000Y-111350000D01*
X140150000Y-112200000D02*
X140150000Y-111350000D01*
X140150000Y-113000000D02*
X139950000Y-113000000D01*
X140150000Y-113750000D02*
X140150000Y-113000000D01*
X141875000Y-113750000D02*
X140150000Y-113750000D01*
X141875000Y-113750000D02*
X143600000Y-113750000D01*
X143600000Y-111350000D02*
X141875000Y-111350000D01*
X143600000Y-112200000D02*
X143600000Y-111350000D01*
X143600000Y-113000000D02*
X143800000Y-113000000D01*
X143600000Y-113750000D02*
X143600000Y-113000000D01*
X143800000Y-112200000D02*
X143600000Y-112200000D01*
X143800000Y-113000000D02*
X143800000Y-112200000D01*
X139640000Y-110840000D02*
X144110000Y-110840000D01*
X144110000Y-114260000D01*
X139640000Y-114260000D01*
X139640000Y-110840000D01*
%TO.C,R47*%
X66120000Y-101153641D02*
X66120000Y-100846359D01*
X66880000Y-101153641D02*
X66880000Y-100846359D01*
%TO.C,R20*%
X29120000Y-101046359D02*
X29120000Y-101353641D01*
X29880000Y-101046359D02*
X29880000Y-101353641D01*
%TO.C,C14*%
X40140000Y-107592164D02*
X40140000Y-107807836D01*
X40860000Y-107592164D02*
X40860000Y-107807836D01*
%TO.C,R23*%
X32120000Y-101046359D02*
X32120000Y-101353641D01*
X32880000Y-101046359D02*
X32880000Y-101353641D01*
%TO.C,R19*%
X28120000Y-101046359D02*
X28120000Y-101353641D01*
X28880000Y-101046359D02*
X28880000Y-101353641D01*
%TO.C,R18*%
X47620000Y-108053641D02*
X47620000Y-107746359D01*
X48380000Y-108053641D02*
X48380000Y-107746359D01*
%TO.C,R12*%
X53120000Y-100746359D02*
X53120000Y-101053641D01*
X53880000Y-100746359D02*
X53880000Y-101053641D01*
%TO.C,J6*%
D13*
X62450000Y-103510000D02*
X62450000Y-105710000D01*
X62450000Y-105710000D02*
X64250000Y-105710000D01*
X64250000Y-103510000D02*
X62450000Y-103510000D01*
X75250000Y-103510000D02*
X77050000Y-103510000D01*
X77050000Y-103510000D02*
X77050000Y-105710000D01*
X77050000Y-105710000D02*
X75250000Y-105710000D01*
X66050000Y-104710000D02*
G75*
G02*
X65850000Y-104710000I-100000J0D01*
G01*
X65850000Y-104710000D02*
G75*
G02*
X66050000Y-104710000I100000J0D01*
G01*
%TO.C,R39*%
D12*
X70120000Y-101363641D02*
X70120000Y-101056359D01*
X70880000Y-101363641D02*
X70880000Y-101056359D01*
%TO.C,R2*%
X38462770Y-100401697D02*
X38798303Y-100737230D01*
X39201697Y-99662770D02*
X39537230Y-99998303D01*
%TO.C,C18*%
X81321693Y-107569190D02*
X81169190Y-107721693D01*
X81830810Y-108078307D02*
X81678307Y-108230810D01*
%TO.C,C3*%
X89669190Y-98521693D02*
X89821693Y-98369190D01*
X90178307Y-99030810D02*
X90330810Y-98878307D01*
%TO.C,C13*%
X92169190Y-104878307D02*
X92321693Y-105030810D01*
X92678307Y-104369190D02*
X92830810Y-104521693D01*
%TO.C,C20*%
X79607836Y-101040000D02*
X79392164Y-101040000D01*
X79607836Y-101760000D02*
X79392164Y-101760000D01*
%TO.C,R11*%
X52120000Y-100746359D02*
X52120000Y-101053641D01*
X52880000Y-100746359D02*
X52880000Y-101053641D01*
%TO.C,R26*%
X31620000Y-108353641D02*
X31620000Y-108046359D01*
X32380000Y-108353641D02*
X32380000Y-108046359D01*
%TO.C,U1*%
X80894689Y-103700000D02*
X81212887Y-103381802D01*
X81212887Y-104018198D02*
X80894689Y-103700000D01*
X85681802Y-98912887D02*
X86000000Y-98594689D01*
X86000000Y-98594689D02*
X86318198Y-98912887D01*
X86000000Y-108805311D02*
X85681802Y-108487113D01*
X86318198Y-108487113D02*
X86000000Y-108805311D01*
X90787113Y-103381802D02*
X91105311Y-103700000D01*
X91105311Y-103700000D02*
X90787113Y-104018198D01*
X91812418Y-103021177D02*
X91331585Y-103502010D01*
X91239661Y-102929254D01*
X91812418Y-103021177D01*
G36*
X91812418Y-103021177D02*
G01*
X91331585Y-103502010D01*
X91239661Y-102929254D01*
X91812418Y-103021177D01*
G37*
%TO.C,R32*%
X90622659Y-106539940D02*
X90839940Y-106322659D01*
X91160060Y-107077341D02*
X91377341Y-106860060D01*
%TD*%
%LPC*%
D17*
%TO.C,REF\u002A\u002A*%
X132500000Y-97600000D03*
%TD*%
%TO.C,REF\u002A\u002A*%
X132500000Y-111600000D03*
%TD*%
D18*
%TO.C,R31*%
X103587500Y-96500000D03*
X105412500Y-96500000D03*
%TD*%
D19*
%TO.C,R40*%
X70010000Y-107710000D03*
X70010000Y-108730000D03*
%TD*%
D20*
%TO.C,C10*%
X61500000Y-102180000D03*
X61500000Y-101220000D03*
%TD*%
D21*
%TO.C,C9*%
X93950000Y-108200000D03*
X92050000Y-108200000D03*
%TD*%
D22*
%TO.C,C12*%
X99504384Y-111500000D03*
X105744384Y-111500000D03*
%TD*%
D23*
%TO.C,R25*%
X33000000Y-108710000D03*
X33000000Y-107690000D03*
%TD*%
D19*
%TO.C,R34*%
X73010000Y-107700000D03*
X73010000Y-108720000D03*
%TD*%
D24*
%TO.C,C6*%
X94700000Y-110300000D03*
X94700000Y-112200000D03*
%TD*%
D19*
%TO.C,R10*%
X51500000Y-100390000D03*
X51500000Y-101410000D03*
%TD*%
D20*
%TO.C,C11*%
X41500000Y-102180000D03*
X41500000Y-101220000D03*
%TD*%
D25*
%TO.C,J1*%
X99230000Y-105400000D03*
X99230000Y-101500000D03*
X100500000Y-105400000D03*
X100500000Y-101500000D03*
X101770000Y-105400000D03*
X101770000Y-101500000D03*
X103040000Y-105400000D03*
X103040000Y-101500000D03*
X104310000Y-105400000D03*
X104310000Y-101500000D03*
%TD*%
D19*
%TO.C,R22*%
X31500000Y-100690000D03*
X31500000Y-101710000D03*
%TD*%
D26*
%TO.C,J5*%
X26000000Y-106000000D03*
X26500000Y-103200000D03*
X27000000Y-106000000D03*
X27500000Y-103200000D03*
X28000000Y-106000000D03*
X28500000Y-103200000D03*
X29000000Y-106000000D03*
X29500000Y-103200000D03*
X30000000Y-106000000D03*
X30500000Y-103200000D03*
X31000000Y-106000000D03*
X31500000Y-103200000D03*
X32000000Y-106000000D03*
X32500000Y-103200000D03*
X33000000Y-106000000D03*
X33500000Y-103200000D03*
D27*
X25000000Y-106000000D03*
X25000000Y-103200000D03*
X34500000Y-106000000D03*
X34500000Y-103200000D03*
%TD*%
D28*
%TO.C,R3*%
X58916637Y-98916637D03*
X60083363Y-100083363D03*
%TD*%
D29*
%TO.C,C1*%
X85460589Y-109360589D03*
X86139411Y-110039411D03*
%TD*%
D30*
%TO.C,IC3*%
X91700000Y-111700000D03*
X92350000Y-111700000D03*
X93000000Y-111700000D03*
X93000000Y-110025000D03*
X91700000Y-110025000D03*
%TD*%
D26*
%TO.C,J4*%
X46000000Y-105700000D03*
X46500000Y-102900000D03*
X47000000Y-105700000D03*
X47500000Y-102900000D03*
X48000000Y-105700000D03*
X48500000Y-102900000D03*
X49000000Y-105700000D03*
X49500000Y-102900000D03*
X50000000Y-105700000D03*
X50500000Y-102900000D03*
X51000000Y-105700000D03*
X51500000Y-102900000D03*
X52000000Y-105700000D03*
X52500000Y-102900000D03*
X53000000Y-105700000D03*
X53500000Y-102900000D03*
D27*
X45000000Y-105700000D03*
X45000000Y-102900000D03*
X54500000Y-105700000D03*
X54500000Y-102900000D03*
%TD*%
D19*
%TO.C,R48*%
X66000000Y-107490000D03*
X66000000Y-108510000D03*
%TD*%
D23*
%TO.C,R15*%
X51000000Y-108420000D03*
X51000000Y-107400000D03*
%TD*%
D31*
%TO.C,C19*%
X89978822Y-107821178D03*
X89300000Y-108500000D03*
%TD*%
D23*
%TO.C,R35*%
X72500000Y-101720000D03*
X72500000Y-100700000D03*
%TD*%
%TO.C,R13*%
X53000000Y-108410000D03*
X53000000Y-107390000D03*
%TD*%
D32*
%TO.C,SW1*%
X96574999Y-96925000D03*
X94425001Y-96925000D03*
X96574999Y-101075000D03*
X94425001Y-101075000D03*
%TD*%
D23*
%TO.C,R37*%
X71490000Y-101720000D03*
X71490000Y-100700000D03*
%TD*%
%TO.C,R28*%
X30000000Y-108710000D03*
X30000000Y-107690000D03*
%TD*%
D19*
%TO.C,R44*%
X68000000Y-107700000D03*
X68000000Y-108720000D03*
%TD*%
D23*
%TO.C,R43*%
X68500000Y-101720000D03*
X68500000Y-100700000D03*
%TD*%
D33*
%TO.C,U5*%
X41000000Y-105300000D03*
D34*
X41000000Y-104900000D03*
X41000000Y-104500000D03*
X41000000Y-104100000D03*
D35*
X41000000Y-103700000D03*
D36*
X40412500Y-103112500D03*
D37*
X40012500Y-103112500D03*
X39612500Y-103112500D03*
X39212500Y-103112500D03*
D38*
X38812500Y-103112500D03*
D39*
X38225000Y-103700000D03*
D34*
X38225000Y-104100000D03*
X38225000Y-104500000D03*
X38225000Y-104900000D03*
D40*
X38225000Y-105300000D03*
D41*
X38812500Y-105887500D03*
D37*
X39212500Y-105887500D03*
X39612500Y-105887500D03*
X40012500Y-105887500D03*
D42*
X40412500Y-105887500D03*
%TD*%
D19*
%TO.C,R38*%
X71000000Y-107700000D03*
X71000000Y-108720000D03*
%TD*%
D43*
%TO.C,C4*%
X95000000Y-104700000D03*
X95000000Y-102800000D03*
%TD*%
D44*
%TO.C,U6*%
X109610000Y-113517000D03*
D45*
X112150000Y-113517000D03*
X114690000Y-113517000D03*
X117230000Y-113517000D03*
X119770000Y-113517000D03*
X122310000Y-113517000D03*
X124850000Y-113517000D03*
X127390000Y-113517000D03*
X127390000Y-95483000D03*
X124850000Y-95483000D03*
X122310000Y-95483000D03*
X119770000Y-95483000D03*
X117230000Y-95483000D03*
X114690000Y-95483000D03*
X112150000Y-95483000D03*
X109610000Y-95483000D03*
%TD*%
D23*
%TO.C,R27*%
X31000000Y-108710000D03*
X31000000Y-107690000D03*
%TD*%
D19*
%TO.C,R36*%
X72010000Y-107700000D03*
X72010000Y-108720000D03*
%TD*%
D23*
%TO.C,R30*%
X28000000Y-108710000D03*
X28000000Y-107690000D03*
%TD*%
%TO.C,R16*%
X50000000Y-108410000D03*
X50000000Y-107390000D03*
%TD*%
D46*
%TO.C,U9*%
X141375000Y-96955000D03*
D47*
X142625000Y-96955000D03*
%TD*%
D48*
%TO.C,C7*%
X60317059Y-107536283D03*
X60995881Y-106857461D03*
%TD*%
D20*
%TO.C,C5*%
X92500000Y-100500000D03*
X92500000Y-99540000D03*
%TD*%
D19*
%TO.C,R7*%
X48500000Y-100400000D03*
X48500000Y-101420000D03*
%TD*%
%TO.C,R9*%
X50500000Y-100390000D03*
X50500000Y-101410000D03*
%TD*%
D23*
%TO.C,R41*%
X69500000Y-101720000D03*
X69500000Y-100700000D03*
%TD*%
%TO.C,R45*%
X67500000Y-101720000D03*
X67500000Y-100700000D03*
%TD*%
%TO.C,R17*%
X49000000Y-108420000D03*
X49000000Y-107400000D03*
%TD*%
D48*
%TO.C,C8*%
X79660589Y-103839411D03*
X80339411Y-103160589D03*
%TD*%
%TO.C,C15*%
X88660589Y-98339411D03*
X89339411Y-97660589D03*
%TD*%
D49*
%TO.C,C16*%
X82460000Y-97000000D03*
X81500000Y-97000000D03*
%TD*%
D19*
%TO.C,R42*%
X69000000Y-107710000D03*
X69000000Y-108730000D03*
%TD*%
D23*
%TO.C,R33*%
X73490000Y-101710000D03*
X73490000Y-100690000D03*
%TD*%
D33*
%TO.C,U3*%
X60887500Y-105200000D03*
D34*
X60887500Y-104800000D03*
X60887500Y-104400000D03*
X60887500Y-104000000D03*
D35*
X60887500Y-103600000D03*
D36*
X60300000Y-103012500D03*
D37*
X59900000Y-103012500D03*
X59500000Y-103012500D03*
X59100000Y-103012500D03*
D38*
X58700000Y-103012500D03*
D39*
X58112500Y-103600000D03*
D34*
X58112500Y-104000000D03*
X58112500Y-104400000D03*
X58112500Y-104800000D03*
D40*
X58112500Y-105200000D03*
D41*
X58700000Y-105787500D03*
D37*
X59100000Y-105787500D03*
X59500000Y-105787500D03*
X59900000Y-105787500D03*
D42*
X60300000Y-105787500D03*
%TD*%
D49*
%TO.C,C17*%
X81500000Y-99400000D03*
X80540000Y-99400000D03*
%TD*%
D19*
%TO.C,R46*%
X67000000Y-107700000D03*
X67000000Y-108720000D03*
%TD*%
%TO.C,R24*%
X33500000Y-100690000D03*
X33500000Y-101710000D03*
%TD*%
%TO.C,R8*%
X49500000Y-100390000D03*
X49500000Y-101410000D03*
%TD*%
%TO.C,R21*%
X30500000Y-100690000D03*
X30500000Y-101710000D03*
%TD*%
D48*
%TO.C,C2*%
X92660589Y-103339411D03*
X93339411Y-102660589D03*
%TD*%
D23*
%TO.C,R29*%
X29000000Y-108710000D03*
X29000000Y-107690000D03*
%TD*%
%TO.C,R14*%
X52000000Y-108410000D03*
X52000000Y-107390000D03*
%TD*%
D46*
%TO.C,U7*%
X141250000Y-113000000D03*
D47*
X142500000Y-113000000D03*
%TD*%
D23*
%TO.C,R47*%
X66500000Y-101510000D03*
X66500000Y-100490000D03*
%TD*%
D19*
%TO.C,R20*%
X29500000Y-100690000D03*
X29500000Y-101710000D03*
%TD*%
D50*
%TO.C,C14*%
X40500000Y-107220000D03*
X40500000Y-108180000D03*
%TD*%
D19*
%TO.C,R23*%
X32500000Y-100690000D03*
X32500000Y-101710000D03*
%TD*%
%TO.C,R19*%
X28500000Y-100690000D03*
X28500000Y-101710000D03*
%TD*%
D23*
%TO.C,R18*%
X48000000Y-108410000D03*
X48000000Y-107390000D03*
%TD*%
D19*
%TO.C,R12*%
X53500000Y-100390000D03*
X53500000Y-101410000D03*
%TD*%
D26*
%TO.C,J6*%
X66000000Y-106010000D03*
X66500000Y-103210000D03*
X67000000Y-106010000D03*
X67500000Y-103210000D03*
X68000000Y-106010000D03*
X68500000Y-103210000D03*
X69000000Y-106010000D03*
X69500000Y-103210000D03*
X70000000Y-106010000D03*
X70500000Y-103210000D03*
X71000000Y-106010000D03*
X71500000Y-103210000D03*
X72000000Y-106010000D03*
X72500000Y-103210000D03*
X73000000Y-106010000D03*
X73500000Y-103210000D03*
D27*
X65000000Y-106010000D03*
X65000000Y-103210000D03*
X74500000Y-106010000D03*
X74500000Y-103210000D03*
%TD*%
D23*
%TO.C,R39*%
X70500000Y-101720000D03*
X70500000Y-100700000D03*
%TD*%
D28*
%TO.C,R2*%
X38416637Y-99616637D03*
X39583363Y-100783363D03*
%TD*%
D31*
%TO.C,C18*%
X81839411Y-107560589D03*
X81160589Y-108239411D03*
%TD*%
D48*
%TO.C,C3*%
X89660589Y-99039411D03*
X90339411Y-98360589D03*
%TD*%
D29*
%TO.C,C13*%
X92160589Y-104360589D03*
X92839411Y-105039411D03*
%TD*%
D49*
%TO.C,C20*%
X79980000Y-101400000D03*
X79020000Y-101400000D03*
%TD*%
D19*
%TO.C,R11*%
X52500000Y-100390000D03*
X52500000Y-101410000D03*
%TD*%
D23*
%TO.C,R26*%
X32000000Y-108710000D03*
X32000000Y-107690000D03*
%TD*%
D51*
%TO.C,U1*%
X90887876Y-102701212D03*
X90534322Y-102347658D03*
X90180769Y-101994105D03*
X89827215Y-101640551D03*
X89473662Y-101286998D03*
X89120109Y-100933445D03*
X88766555Y-100579891D03*
X88413002Y-100226338D03*
X88059449Y-99872785D03*
X87705895Y-99519231D03*
X87352342Y-99165678D03*
X86998788Y-98812124D03*
D52*
X85001212Y-98812124D03*
X84647658Y-99165678D03*
X84294105Y-99519231D03*
X83940551Y-99872785D03*
X83586998Y-100226338D03*
X83233445Y-100579891D03*
X82879891Y-100933445D03*
X82526338Y-101286998D03*
X82172785Y-101640551D03*
X81819231Y-101994105D03*
X81465678Y-102347658D03*
X81112124Y-102701212D03*
D51*
X81112124Y-104698788D03*
X81465678Y-105052342D03*
X81819231Y-105405895D03*
X82172785Y-105759449D03*
X82526338Y-106113002D03*
X82879891Y-106466555D03*
X83233445Y-106820109D03*
X83586998Y-107173662D03*
X83940551Y-107527215D03*
X84294105Y-107880769D03*
X84647658Y-108234322D03*
X85001212Y-108587876D03*
D52*
X86998788Y-108587876D03*
X87352342Y-108234322D03*
X87705895Y-107880769D03*
X88059449Y-107527215D03*
X88413002Y-107173662D03*
X88766555Y-106820109D03*
X89120109Y-106466555D03*
X89473662Y-106113002D03*
X89827215Y-105759449D03*
X90180769Y-105405895D03*
X90534322Y-105052342D03*
X90887876Y-104698788D03*
%TD*%
D53*
%TO.C,R32*%
X90639376Y-107060624D03*
X91360624Y-106339376D03*
%TD*%
%LPD*%
M02*
