%TF.GenerationSoftware,KiCad,Pcbnew,10.0.0*%
%TF.CreationDate,2026-04-02T18:55:30+01:00*%
%TF.ProjectId,vibook,7669626f-6f6b-42e6-9b69-6361645f7063,rev?*%
%TF.SameCoordinates,Original*%
%TF.FileFunction,Legend,Top*%
%TF.FilePolarity,Positive*%
%FSLAX46Y46*%
G04 Gerber Fmt 4.6, Leading zero omitted, Abs format (unit mm)*
G04 Created by KiCad (PCBNEW 10.0.0) date 2026-04-02 18:55:30*
%MOMM*%
%LPD*%
G01*
G04 APERTURE LIST*
G04 Aperture macros list*
%AMRoundRect*
0 Rectangle with rounded corners*
0 $1 Rounding radius*
0 $2 $3 $4 $5 $6 $7 $8 $9 X,Y pos of 4 corners*
0 Add a 4 corners polygon primitive as box body*
4,1,4,$2,$3,$4,$5,$6,$7,$8,$9,$2,$3,0*
0 Add four circle primitives for the rounded corners*
1,1,$1+$1,$2,$3*
1,1,$1+$1,$4,$5*
1,1,$1+$1,$6,$7*
1,1,$1+$1,$8,$9*
0 Add four rect primitives between the rounded corners*
20,1,$1+$1,$2,$3,$4,$5,0*
20,1,$1+$1,$4,$5,$6,$7,0*
20,1,$1+$1,$6,$7,$8,$9,0*
20,1,$1+$1,$8,$9,$2,$3,0*%
%AMRotRect*
0 Rectangle, with rotation*
0 The origin of the aperture is its center*
0 $1 length*
0 $2 width*
0 $3 Rotation angle, in degrees counterclockwise*
0 Add horizontal line*
21,1,$1,$2,0,0,$3*%
%AMFreePoly0*
4,1,14,0.354215,0.088284,0.450784,-0.008285,0.462500,-0.036569,0.462500,-0.060000,0.450784,-0.088284,0.422500,-0.100000,-0.422500,-0.100000,-0.450784,-0.088284,-0.462500,-0.060000,-0.462500,0.060000,-0.450784,0.088284,-0.422500,0.100000,0.325931,0.100000,0.354215,0.088284,0.354215,0.088284,$1*%
%AMFreePoly1*
4,1,14,0.450784,0.088284,0.462500,0.060000,0.462500,0.036569,0.450784,0.008285,0.354215,-0.088284,0.325931,-0.100000,-0.422500,-0.100000,-0.450784,-0.088284,-0.462500,-0.060000,-0.462500,0.060000,-0.450784,0.088284,-0.422500,0.100000,0.422500,0.100000,0.450784,0.088284,0.450784,0.088284,$1*%
%AMFreePoly2*
4,1,14,0.088284,0.450784,0.100000,0.422500,0.100000,-0.422500,0.088284,-0.450784,0.060000,-0.462500,-0.060000,-0.462500,-0.088284,-0.450784,-0.100000,-0.422500,-0.100000,0.325931,-0.088284,0.354215,0.008285,0.450784,0.036569,0.462500,0.060000,0.462500,0.088284,0.450784,0.088284,0.450784,$1*%
%AMFreePoly3*
4,1,14,-0.008285,0.450784,0.088284,0.354215,0.100000,0.325931,0.100000,-0.422500,0.088284,-0.450784,0.060000,-0.462500,-0.060000,-0.462500,-0.088284,-0.450784,-0.100000,-0.422500,-0.100000,0.422500,-0.088284,0.450784,-0.060000,0.462500,-0.036569,0.462500,-0.008285,0.450784,-0.008285,0.450784,$1*%
%AMFreePoly4*
4,1,14,0.450784,0.088284,0.462500,0.060000,0.462500,-0.060000,0.450784,-0.088284,0.422500,-0.100000,-0.325931,-0.100000,-0.354215,-0.088284,-0.450784,0.008285,-0.462500,0.036569,-0.462500,0.060000,-0.450784,0.088284,-0.422500,0.100000,0.422500,0.100000,0.450784,0.088284,0.450784,0.088284,$1*%
%AMFreePoly5*
4,1,14,0.450784,0.088284,0.462500,0.060000,0.462500,-0.060000,0.450784,-0.088284,0.422500,-0.100000,-0.422500,-0.100000,-0.450784,-0.088284,-0.462500,-0.060000,-0.462500,-0.036569,-0.450784,-0.008285,-0.354215,0.088284,-0.325931,0.100000,0.422500,0.100000,0.450784,0.088284,0.450784,0.088284,$1*%
%AMFreePoly6*
4,1,14,0.088284,0.450784,0.100000,0.422500,0.100000,-0.325931,0.088284,-0.354215,-0.008285,-0.450784,-0.036569,-0.462500,-0.060000,-0.462500,-0.088284,-0.450784,-0.100000,-0.422500,-0.100000,0.422500,-0.088284,0.450784,-0.060000,0.462500,0.060000,0.462500,0.088284,0.450784,0.088284,0.450784,$1*%
%AMFreePoly7*
4,1,14,0.088284,0.450784,0.100000,0.422500,0.100000,-0.422500,0.088284,-0.450784,0.060000,-0.462500,0.036569,-0.462500,0.008285,-0.450784,-0.088284,-0.354215,-0.100000,-0.325931,-0.100000,0.422500,-0.088284,0.450784,-0.060000,0.462500,0.060000,0.462500,0.088284,0.450784,0.088284,0.450784,$1*%
G04 Aperture macros list end*
%ADD10C,0.100000*%
%ADD11C,0.150000*%
%ADD12C,0.120000*%
%ADD13C,0.200000*%
%ADD14C,0.127000*%
%ADD15RoundRect,0.200000X-0.275000X0.200000X-0.275000X-0.200000X0.275000X-0.200000X0.275000X0.200000X0*%
%ADD16RoundRect,0.250000X-0.785000X-1.895000X0.785000X-1.895000X0.785000X1.895000X-0.785000X1.895000X0*%
%ADD17RoundRect,0.250000X-0.475000X0.250000X-0.475000X-0.250000X0.475000X-0.250000X0.475000X0.250000X0*%
%ADD18R,0.740000X2.400000*%
%ADD19RoundRect,0.200000X0.275000X-0.200000X0.275000X0.200000X-0.275000X0.200000X-0.275000X-0.200000X0*%
%ADD20RoundRect,0.250000X0.250000X0.475000X-0.250000X0.475000X-0.250000X-0.475000X0.250000X-0.475000X0*%
%ADD21RoundRect,0.102000X-0.300000X-0.650000X0.300000X-0.650000X0.300000X0.650000X-0.300000X0.650000X0*%
%ADD22RoundRect,0.102000X-1.000000X-0.900000X1.000000X-0.900000X1.000000X0.900000X-1.000000X0.900000X0*%
%ADD23RoundRect,0.250000X0.475000X-0.250000X0.475000X0.250000X-0.475000X0.250000X-0.475000X-0.250000X0*%
%ADD24RoundRect,0.102000X0.654000X-0.654000X0.654000X0.654000X-0.654000X0.654000X-0.654000X-0.654000X0*%
%ADD25C,1.512000*%
%ADD26RoundRect,0.250000X0.262500X0.450000X-0.262500X0.450000X-0.262500X-0.450000X0.262500X-0.450000X0*%
%ADD27C,2.000000*%
%ADD28FreePoly0,270.000000*%
%ADD29RoundRect,0.050000X-0.050000X0.412500X-0.050000X-0.412500X0.050000X-0.412500X0.050000X0.412500X0*%
%ADD30FreePoly1,270.000000*%
%ADD31FreePoly2,270.000000*%
%ADD32RoundRect,0.050000X-0.412500X0.050000X-0.412500X-0.050000X0.412500X-0.050000X0.412500X0.050000X0*%
%ADD33FreePoly3,270.000000*%
%ADD34FreePoly4,270.000000*%
%ADD35FreePoly5,270.000000*%
%ADD36FreePoly6,270.000000*%
%ADD37FreePoly7,270.000000*%
%ADD38RoundRect,0.100000X0.100000X-0.225000X0.100000X0.225000X-0.100000X0.225000X-0.100000X-0.225000X0*%
%ADD39R,1.700000X1.700000*%
%ADD40C,1.700000*%
%ADD41RoundRect,0.062500X0.309359X-0.220971X-0.220971X0.309359X-0.309359X0.220971X0.220971X-0.309359X0*%
%ADD42RoundRect,0.062500X0.309359X0.220971X0.220971X0.309359X-0.309359X-0.220971X-0.220971X-0.309359X0*%
%ADD43RotRect,3.450000X3.450000X135.000000*%
%ADD44RoundRect,0.200000X0.200000X0.275000X-0.200000X0.275000X-0.200000X-0.275000X0.200000X-0.275000X0*%
%ADD45RoundRect,0.200000X-0.200000X-0.275000X0.200000X-0.275000X0.200000X0.275000X-0.200000X0.275000X0*%
%ADD46RoundRect,0.200000X-0.200000X-0.450000X0.200000X-0.450000X0.200000X0.450000X-0.200000X0.450000X0*%
%ADD47O,0.800000X1.300000*%
%ADD48RoundRect,0.250000X0.159099X-0.512652X0.512652X-0.159099X-0.159099X0.512652X-0.512652X0.159099X0*%
G04 APERTURE END LIST*
D10*
X141912093Y-94968520D02*
X171912093Y-94968520D01*
X171912093Y-114968520D01*
X141912093Y-114968520D01*
X141912093Y-94968520D01*
X175872419Y-101838972D02*
X176872419Y-101505639D01*
X176872419Y-101505639D02*
X175872419Y-101172306D01*
X176872419Y-100838972D02*
X176205752Y-100838972D01*
X175872419Y-100838972D02*
X175920038Y-100886591D01*
X175920038Y-100886591D02*
X175967657Y-100838972D01*
X175967657Y-100838972D02*
X175920038Y-100791353D01*
X175920038Y-100791353D02*
X175872419Y-100838972D01*
X175872419Y-100838972D02*
X175967657Y-100838972D01*
X176205752Y-100362782D02*
X176872419Y-100362782D01*
X176300990Y-100362782D02*
X176253371Y-100315163D01*
X176253371Y-100315163D02*
X176205752Y-100219925D01*
X176205752Y-100219925D02*
X176205752Y-100077068D01*
X176205752Y-100077068D02*
X176253371Y-99981830D01*
X176253371Y-99981830D02*
X176348609Y-99934211D01*
X176348609Y-99934211D02*
X176872419Y-99934211D01*
X175920038Y-110672306D02*
X175872419Y-110767544D01*
X175872419Y-110767544D02*
X175872419Y-110910401D01*
X175872419Y-110910401D02*
X175920038Y-111053258D01*
X175920038Y-111053258D02*
X176015276Y-111148496D01*
X176015276Y-111148496D02*
X176110514Y-111196115D01*
X176110514Y-111196115D02*
X176300990Y-111243734D01*
X176300990Y-111243734D02*
X176443847Y-111243734D01*
X176443847Y-111243734D02*
X176634323Y-111196115D01*
X176634323Y-111196115D02*
X176729561Y-111148496D01*
X176729561Y-111148496D02*
X176824800Y-111053258D01*
X176824800Y-111053258D02*
X176872419Y-110910401D01*
X176872419Y-110910401D02*
X176872419Y-110815163D01*
X176872419Y-110815163D02*
X176824800Y-110672306D01*
X176824800Y-110672306D02*
X176777180Y-110624687D01*
X176777180Y-110624687D02*
X176443847Y-110624687D01*
X176443847Y-110624687D02*
X176443847Y-110815163D01*
X176205752Y-110196115D02*
X176872419Y-110196115D01*
X176300990Y-110196115D02*
X176253371Y-110148496D01*
X176253371Y-110148496D02*
X176205752Y-110053258D01*
X176205752Y-110053258D02*
X176205752Y-109910401D01*
X176205752Y-109910401D02*
X176253371Y-109815163D01*
X176253371Y-109815163D02*
X176348609Y-109767544D01*
X176348609Y-109767544D02*
X176872419Y-109767544D01*
X176872419Y-108862782D02*
X175872419Y-108862782D01*
X176824800Y-108862782D02*
X176872419Y-108958020D01*
X176872419Y-108958020D02*
X176872419Y-109148496D01*
X176872419Y-109148496D02*
X176824800Y-109243734D01*
X176824800Y-109243734D02*
X176777180Y-109291353D01*
X176777180Y-109291353D02*
X176681942Y-109338972D01*
X176681942Y-109338972D02*
X176396228Y-109338972D01*
X176396228Y-109338972D02*
X176300990Y-109291353D01*
X176300990Y-109291353D02*
X176253371Y-109243734D01*
X176253371Y-109243734D02*
X176205752Y-109148496D01*
X176205752Y-109148496D02*
X176205752Y-108958020D01*
X176205752Y-108958020D02*
X176253371Y-108862782D01*
D11*
X108977142Y-107909580D02*
X108929523Y-107957200D01*
X108929523Y-107957200D02*
X108786666Y-108004819D01*
X108786666Y-108004819D02*
X108691428Y-108004819D01*
X108691428Y-108004819D02*
X108548571Y-107957200D01*
X108548571Y-107957200D02*
X108453333Y-107861961D01*
X108453333Y-107861961D02*
X108405714Y-107766723D01*
X108405714Y-107766723D02*
X108358095Y-107576247D01*
X108358095Y-107576247D02*
X108358095Y-107433390D01*
X108358095Y-107433390D02*
X108405714Y-107242914D01*
X108405714Y-107242914D02*
X108453333Y-107147676D01*
X108453333Y-107147676D02*
X108548571Y-107052438D01*
X108548571Y-107052438D02*
X108691428Y-107004819D01*
X108691428Y-107004819D02*
X108786666Y-107004819D01*
X108786666Y-107004819D02*
X108929523Y-107052438D01*
X108929523Y-107052438D02*
X108977142Y-107100057D01*
X109929523Y-108004819D02*
X109358095Y-108004819D01*
X109643809Y-108004819D02*
X109643809Y-107004819D01*
X109643809Y-107004819D02*
X109548571Y-107147676D01*
X109548571Y-107147676D02*
X109453333Y-107242914D01*
X109453333Y-107242914D02*
X109358095Y-107290533D01*
X110310476Y-107100057D02*
X110358095Y-107052438D01*
X110358095Y-107052438D02*
X110453333Y-107004819D01*
X110453333Y-107004819D02*
X110691428Y-107004819D01*
X110691428Y-107004819D02*
X110786666Y-107052438D01*
X110786666Y-107052438D02*
X110834285Y-107100057D01*
X110834285Y-107100057D02*
X110881904Y-107195295D01*
X110881904Y-107195295D02*
X110881904Y-107290533D01*
X110881904Y-107290533D02*
X110834285Y-107433390D01*
X110834285Y-107433390D02*
X110262857Y-108004819D01*
X110262857Y-108004819D02*
X110881904Y-108004819D01*
X138108095Y-109694819D02*
X138108095Y-110504342D01*
X138108095Y-110504342D02*
X138155714Y-110599580D01*
X138155714Y-110599580D02*
X138203333Y-110647200D01*
X138203333Y-110647200D02*
X138298571Y-110694819D01*
X138298571Y-110694819D02*
X138489047Y-110694819D01*
X138489047Y-110694819D02*
X138584285Y-110647200D01*
X138584285Y-110647200D02*
X138631904Y-110599580D01*
X138631904Y-110599580D02*
X138679523Y-110504342D01*
X138679523Y-110504342D02*
X138679523Y-109694819D01*
X139060476Y-109694819D02*
X139727142Y-109694819D01*
X139727142Y-109694819D02*
X139298571Y-110694819D01*
%TO.C,R14*%
D12*
X52723116Y-101262742D02*
X52723116Y-101737258D01*
X53768116Y-101262742D02*
X53768116Y-101737258D01*
%TO.C,C12*%
X105205000Y-108390000D02*
X105205000Y-114610000D01*
X105205000Y-114610000D02*
X113270000Y-114610000D01*
X113270000Y-108390000D02*
X105205000Y-108390000D01*
%TO.C,C6*%
X69765000Y-107238748D02*
X69765000Y-107761252D01*
X71235000Y-107238748D02*
X71235000Y-107761252D01*
%TO.C,J1*%
X104215000Y-100685000D02*
X104280000Y-100685000D01*
X104215000Y-104315000D02*
X104215000Y-100685000D01*
X104215000Y-104315000D02*
X104280000Y-104315000D01*
X104280000Y-105590000D02*
X104280000Y-104315000D01*
X110720000Y-100685000D02*
X110785000Y-100685000D01*
X110720000Y-104315000D02*
X110785000Y-104315000D01*
X110785000Y-104315000D02*
X110785000Y-100685000D01*
%TO.C,R5*%
X72723116Y-102502872D02*
X72723116Y-102028356D01*
X73768116Y-102502872D02*
X73768116Y-102028356D01*
%TO.C,C7*%
X35711252Y-95765000D02*
X35188748Y-95765000D01*
X35711252Y-97235000D02*
X35188748Y-97235000D01*
%TO.C,J3*%
D13*
X23100000Y-104500000D02*
X23100000Y-105650000D01*
X23100000Y-108200000D02*
X23100000Y-110500000D01*
X23100000Y-110500000D02*
X39900000Y-110500000D01*
X25350000Y-104500000D02*
X23100000Y-104500000D01*
X37650000Y-104500000D02*
X39900000Y-104500000D01*
X39900000Y-104500000D02*
X39900000Y-105650000D01*
X39900000Y-110500000D02*
X39900000Y-108200000D01*
X25400000Y-105000000D02*
G75*
G02*
X25200000Y-105000000I-100000J0D01*
G01*
X25200000Y-105000000D02*
G75*
G02*
X25400000Y-105000000I100000J0D01*
G01*
%TO.C,R4*%
D12*
X71223116Y-102502872D02*
X71223116Y-102028356D01*
X72268116Y-102502872D02*
X72268116Y-102028356D01*
%TO.C,C9*%
X77006868Y-109530614D02*
X76484364Y-109530614D01*
X77006868Y-111000614D02*
X76484364Y-111000614D01*
%TO.C,R24*%
X30477500Y-101262742D02*
X30477500Y-101737258D01*
X31522500Y-101262742D02*
X31522500Y-101737258D01*
%TO.C,R2*%
X24477500Y-96587742D02*
X24477500Y-97062258D01*
X25522500Y-96587742D02*
X25522500Y-97062258D01*
%TO.C,R26*%
X33477500Y-101262742D02*
X33477500Y-101737258D01*
X34522500Y-101262742D02*
X34522500Y-101737258D01*
%TO.C,R17*%
X57223116Y-101262742D02*
X57223116Y-101737258D01*
X58268116Y-101262742D02*
X58268116Y-101737258D01*
%TO.C,C5*%
X93510616Y-108311252D02*
X93510616Y-107788748D01*
X94980616Y-108311252D02*
X94980616Y-107788748D01*
%TO.C,C2*%
X84510616Y-108954362D02*
X84510616Y-109476866D01*
X85980616Y-108954362D02*
X85980616Y-109476866D01*
%TO.C,R9*%
X45223116Y-101262742D02*
X45223116Y-101737258D01*
X46268116Y-101262742D02*
X46268116Y-101737258D01*
%TO.C,U6*%
D14*
X115195616Y-94588614D02*
X135515616Y-94588614D01*
X115195616Y-114908614D02*
X115195616Y-94588614D01*
X135515616Y-94588614D02*
X135515616Y-114908614D01*
X135515616Y-114908614D02*
X115195616Y-114908614D01*
D13*
X116565616Y-115548614D02*
G75*
G02*
X116365616Y-115548614I-100000J0D01*
G01*
X116365616Y-115548614D02*
G75*
G02*
X116565616Y-115548614I100000J0D01*
G01*
%TO.C,C1*%
D12*
X81506868Y-109530614D02*
X80984364Y-109530614D01*
X81506868Y-111000614D02*
X80984364Y-111000614D01*
%TO.C,R31*%
X90472680Y-102030614D02*
X90018552Y-102030614D01*
X90472680Y-103500614D02*
X90018552Y-103500614D01*
%TO.C,R8*%
X43723116Y-101262742D02*
X43723116Y-101737258D01*
X44768116Y-101262742D02*
X44768116Y-101737258D01*
%TO.C,R6*%
X60477500Y-97737258D02*
X60477500Y-97262742D01*
X61522500Y-97737258D02*
X61522500Y-97262742D01*
%TO.C,C8*%
X55761252Y-95765000D02*
X55238748Y-95765000D01*
X55761252Y-97235000D02*
X55238748Y-97235000D01*
%TO.C,R10*%
X46723116Y-101262742D02*
X46723116Y-101737258D01*
X47768116Y-101262742D02*
X47768116Y-101737258D01*
%TO.C,R12*%
X49723116Y-101262742D02*
X49723116Y-101737258D01*
X50768116Y-101262742D02*
X50768116Y-101737258D01*
%TO.C,R16*%
X55723116Y-101262742D02*
X55723116Y-101737258D01*
X56768116Y-101262742D02*
X56768116Y-101737258D01*
%TO.C,R13*%
X51223116Y-101262742D02*
X51223116Y-101737258D01*
X52268116Y-101262742D02*
X52268116Y-101737258D01*
%TO.C,R15*%
X54223116Y-101262742D02*
X54223116Y-101737258D01*
X55268116Y-101262742D02*
X55268116Y-101737258D01*
%TO.C,SW3*%
X95745616Y-102765614D02*
X95745616Y-107265614D01*
X98245616Y-108515614D02*
X99745616Y-108515614D01*
X99745616Y-101515614D02*
X98245616Y-101515614D01*
X102245616Y-107265614D02*
X102245616Y-102765614D01*
%TO.C,R23*%
X28977500Y-101262742D02*
X28977500Y-101737258D01*
X30022500Y-101262742D02*
X30022500Y-101737258D01*
%TO.C,R25*%
X31977500Y-101262742D02*
X31977500Y-101737258D01*
X33022500Y-101262742D02*
X33022500Y-101737258D01*
%TO.C,R11*%
X48223116Y-101262742D02*
X48223116Y-101737258D01*
X49268116Y-101262742D02*
X49268116Y-101737258D01*
%TO.C,R28*%
X36477500Y-101262742D02*
X36477500Y-101737258D01*
X37522500Y-101262742D02*
X37522500Y-101737258D01*
%TO.C,R29*%
X37977500Y-101262742D02*
X37977500Y-101737258D01*
X39022500Y-101262742D02*
X39022500Y-101737258D01*
%TO.C,U3*%
X49523116Y-95890000D02*
X49973116Y-95890000D01*
X49523116Y-96340000D02*
X49523116Y-95890000D01*
X49523116Y-98660000D02*
X49523116Y-99110000D01*
X49523116Y-99110000D02*
X49973116Y-99110000D01*
X52293116Y-95890000D02*
X52503116Y-95890000D01*
X52743116Y-96340000D02*
X52743116Y-96190000D01*
X52743116Y-98660000D02*
X52743116Y-99110000D01*
X52743116Y-99110000D02*
X52293116Y-99110000D01*
X53073116Y-96130000D02*
X52743116Y-95890000D01*
X53073116Y-95650000D01*
X53073116Y-96130000D01*
G36*
X53073116Y-96130000D02*
G01*
X52743116Y-95890000D01*
X53073116Y-95650000D01*
X53073116Y-96130000D01*
G37*
%TO.C,IC3*%
X71835616Y-106925614D02*
X71835616Y-105515614D01*
X74155616Y-106915614D02*
X74155616Y-105515614D01*
X71885616Y-107295614D02*
X71555616Y-107535614D01*
X71555616Y-107055614D01*
X71885616Y-107295614D01*
G36*
X71885616Y-107295614D02*
G01*
X71555616Y-107535614D01*
X71555616Y-107055614D01*
X71885616Y-107295614D01*
G37*
%TO.C,U9*%
X172730000Y-102730000D02*
X174000000Y-102730000D01*
X172730000Y-104000000D02*
X172730000Y-102730000D01*
X175077358Y-106110000D02*
X175390000Y-106110000D01*
X175077358Y-106970000D02*
X175390000Y-106970000D01*
X175160000Y-103570000D02*
X175390000Y-103570000D01*
X175160000Y-104430000D02*
X175390000Y-104430000D01*
X175390000Y-105270000D02*
X178150000Y-105270000D01*
X178150000Y-106110000D02*
X184150000Y-106110000D01*
X184150000Y-106110000D02*
X184150000Y-106970000D01*
X184150000Y-106970000D02*
X178150000Y-106970000D01*
X175390000Y-102620000D02*
X178150000Y-102620000D01*
X178150000Y-107920000D01*
X175390000Y-107920000D01*
X175390000Y-102620000D01*
X178150000Y-103570000D02*
X184150000Y-103570000D01*
X184150000Y-104430000D01*
X178150000Y-104430000D01*
X178150000Y-103570000D01*
G36*
X178150000Y-103570000D02*
G01*
X184150000Y-103570000D01*
X184150000Y-104430000D01*
X178150000Y-104430000D01*
X178150000Y-103570000D01*
G37*
%TO.C,R18*%
X58723116Y-101262742D02*
X58723116Y-101737258D01*
X59768116Y-101262742D02*
X59768116Y-101737258D01*
%TO.C,U2*%
X77454868Y-105218818D02*
X77790743Y-104882942D01*
X77790743Y-105554694D02*
X77454868Y-105218818D01*
X80810089Y-108574040D02*
X80933833Y-108697783D01*
X81145965Y-101527721D02*
X80810089Y-101863596D01*
X81481841Y-101863596D02*
X81145965Y-101527721D01*
X81481841Y-108574040D02*
X81315671Y-108740210D01*
X84501187Y-104882942D02*
X84837062Y-105218818D01*
X84837062Y-105218818D02*
X84501187Y-105554694D01*
X81082325Y-109312966D02*
X80742914Y-108973555D01*
X81145965Y-108909915D01*
X81082325Y-109312966D01*
G36*
X81082325Y-109312966D02*
G01*
X80742914Y-108973555D01*
X81145965Y-108909915D01*
X81082325Y-109312966D01*
G37*
%TO.C,R1*%
X75982874Y-102743114D02*
X75508358Y-102743114D01*
X75982874Y-103788114D02*
X75508358Y-103788114D01*
%TO.C,R3*%
X43587742Y-97477500D02*
X44062258Y-97477500D01*
X43587742Y-98522500D02*
X44062258Y-98522500D01*
%TO.C,R30*%
X39477500Y-101262742D02*
X39477500Y-101737258D01*
X40522500Y-101262742D02*
X40522500Y-101737258D01*
%TO.C,U7*%
X136350000Y-115050000D02*
X136350000Y-114050000D01*
X136350000Y-115050000D02*
X137350000Y-115050000D01*
X136950000Y-112700000D02*
X137150000Y-112700000D01*
X136950000Y-113500000D02*
X136950000Y-112700000D01*
X137150000Y-111850000D02*
X138875000Y-111850000D01*
X137150000Y-112700000D02*
X137150000Y-111850000D01*
X137150000Y-113500000D02*
X136950000Y-113500000D01*
X137150000Y-114250000D02*
X137150000Y-113500000D01*
X138875000Y-114250000D02*
X137150000Y-114250000D01*
X138875000Y-114250000D02*
X140600000Y-114250000D01*
X140600000Y-111850000D02*
X138875000Y-111850000D01*
X140600000Y-112700000D02*
X140600000Y-111850000D01*
X140600000Y-113500000D02*
X140800000Y-113500000D01*
X140600000Y-114250000D02*
X140600000Y-113500000D01*
X140800000Y-112700000D02*
X140600000Y-112700000D01*
X140800000Y-113500000D02*
X140800000Y-112700000D01*
X136640000Y-111340000D02*
X141110000Y-111340000D01*
X141110000Y-114760000D01*
X136640000Y-114760000D01*
X136640000Y-111340000D01*
%TO.C,R7*%
X42223116Y-101262742D02*
X42223116Y-101737258D01*
X43268116Y-101262742D02*
X43268116Y-101737258D01*
%TO.C,C11*%
X27761252Y-94590000D02*
X27238748Y-94590000D01*
X27761252Y-96060000D02*
X27238748Y-96060000D01*
%TO.C,J2*%
D13*
X42600000Y-104500000D02*
X42600000Y-105650000D01*
X42600000Y-108200000D02*
X42600000Y-110500000D01*
X42600000Y-110500000D02*
X59400000Y-110500000D01*
X44850000Y-104500000D02*
X42600000Y-104500000D01*
X57150000Y-104500000D02*
X59400000Y-104500000D01*
X59400000Y-104500000D02*
X59400000Y-105650000D01*
X59400000Y-110500000D02*
X59400000Y-108200000D01*
X44900000Y-105000000D02*
G75*
G02*
X44700000Y-105000000I-100000J0D01*
G01*
X44700000Y-105000000D02*
G75*
G02*
X44900000Y-105000000I100000J0D01*
G01*
%TO.C,R19*%
D12*
X22977500Y-101262742D02*
X22977500Y-101737258D01*
X24022500Y-101262742D02*
X24022500Y-101737258D01*
%TO.C,C10*%
X47261252Y-95265000D02*
X46738748Y-95265000D01*
X47261252Y-96735000D02*
X46738748Y-96735000D01*
%TO.C,R20*%
X24477500Y-101262742D02*
X24477500Y-101737258D01*
X25522500Y-101262742D02*
X25522500Y-101737258D01*
%TO.C,C4*%
X75510616Y-106026866D02*
X75510616Y-105504362D01*
X76980616Y-106026866D02*
X76980616Y-105504362D01*
%TO.C,R21*%
X25977500Y-101262742D02*
X25977500Y-101737258D01*
X27022500Y-101262742D02*
X27022500Y-101737258D01*
%TO.C,R22*%
X27477500Y-101262742D02*
X27477500Y-101737258D01*
X28522500Y-101262742D02*
X28522500Y-101737258D01*
%TO.C,C3*%
X79212910Y-100258873D02*
X79582377Y-99889406D01*
X80252357Y-101298320D02*
X80621824Y-100928853D01*
%TO.C,U5*%
X29635616Y-95890000D02*
X30085616Y-95890000D01*
X29635616Y-96340000D02*
X29635616Y-95890000D01*
X29635616Y-98660000D02*
X29635616Y-99110000D01*
X29635616Y-99110000D02*
X30085616Y-99110000D01*
X32405616Y-95890000D02*
X32615616Y-95890000D01*
X32855616Y-96340000D02*
X32855616Y-96190000D01*
X32855616Y-98660000D02*
X32855616Y-99110000D01*
X32855616Y-99110000D02*
X32405616Y-99110000D01*
X33185616Y-96130000D02*
X32855616Y-95890000D01*
X33185616Y-95650000D01*
X33185616Y-96130000D01*
G36*
X33185616Y-96130000D02*
G01*
X32855616Y-95890000D01*
X33185616Y-95650000D01*
X33185616Y-96130000D01*
G37*
%TO.C,R27*%
X34977500Y-101262742D02*
X34977500Y-101737258D01*
X36022500Y-101262742D02*
X36022500Y-101737258D01*
%TD*%
%LPC*%
D15*
%TO.C,R14*%
X53245616Y-100675000D03*
X53245616Y-102325000D03*
%TD*%
D16*
%TO.C,C12*%
X106500000Y-111500000D03*
X112740000Y-111500000D03*
%TD*%
D17*
%TO.C,C6*%
X70500000Y-106550000D03*
X70500000Y-108450000D03*
%TD*%
D18*
%TO.C,J1*%
X104960000Y-104450000D03*
X104960000Y-100550000D03*
X106230000Y-104450000D03*
X106230000Y-100550000D03*
X107500000Y-104450000D03*
X107500000Y-100550000D03*
X108770000Y-104450000D03*
X108770000Y-100550000D03*
X110040000Y-104450000D03*
X110040000Y-100550000D03*
%TD*%
D19*
%TO.C,R5*%
X73245616Y-103090614D03*
X73245616Y-101440614D03*
%TD*%
D20*
%TO.C,C7*%
X36400000Y-96500000D03*
X34500000Y-96500000D03*
%TD*%
D21*
%TO.C,J3*%
X26000000Y-104150000D03*
X27000000Y-104150000D03*
X28000000Y-104150000D03*
X29000000Y-104150000D03*
X30000000Y-104150000D03*
X31000000Y-104150000D03*
X32000000Y-104150000D03*
X33000000Y-104150000D03*
X34000000Y-104150000D03*
X35000000Y-104150000D03*
X36000000Y-104150000D03*
X37000000Y-104150000D03*
D22*
X23700000Y-106900000D03*
X39300000Y-106900000D03*
%TD*%
D19*
%TO.C,R4*%
X71745616Y-103090614D03*
X71745616Y-101440614D03*
%TD*%
D20*
%TO.C,C9*%
X77695616Y-110265614D03*
X75795616Y-110265614D03*
%TD*%
D15*
%TO.C,R24*%
X31000000Y-100675000D03*
X31000000Y-102325000D03*
%TD*%
%TO.C,R2*%
X25000000Y-96000000D03*
X25000000Y-97650000D03*
%TD*%
%TO.C,R26*%
X34000000Y-100675000D03*
X34000000Y-102325000D03*
%TD*%
%TO.C,R17*%
X57745616Y-100675000D03*
X57745616Y-102325000D03*
%TD*%
D23*
%TO.C,C5*%
X94245616Y-109000000D03*
X94245616Y-107100000D03*
%TD*%
D17*
%TO.C,C2*%
X85245616Y-108265614D03*
X85245616Y-110165614D03*
%TD*%
D15*
%TO.C,R9*%
X45745616Y-100675000D03*
X45745616Y-102325000D03*
%TD*%
D24*
%TO.C,U6*%
X116465616Y-113765614D03*
D25*
X119005616Y-113765614D03*
X121545616Y-113765614D03*
X124085616Y-113765614D03*
X126625616Y-113765614D03*
X129165616Y-113765614D03*
X131705616Y-113765614D03*
X134245616Y-113765614D03*
X134245616Y-95731614D03*
X131705616Y-95731614D03*
X129165616Y-95731614D03*
X126625616Y-95731614D03*
X124085616Y-95731614D03*
X121545616Y-95731614D03*
X119005616Y-95731614D03*
X116465616Y-95731614D03*
%TD*%
D20*
%TO.C,C1*%
X82195616Y-110265614D03*
X80295616Y-110265614D03*
%TD*%
D26*
%TO.C,R31*%
X91158116Y-102765614D03*
X89333116Y-102765614D03*
%TD*%
D15*
%TO.C,R8*%
X44245616Y-100675000D03*
X44245616Y-102325000D03*
%TD*%
D19*
%TO.C,R6*%
X61000000Y-98325000D03*
X61000000Y-96675000D03*
%TD*%
D20*
%TO.C,C8*%
X56450000Y-96500000D03*
X54550000Y-96500000D03*
%TD*%
D15*
%TO.C,R10*%
X47245616Y-100675000D03*
X47245616Y-102325000D03*
%TD*%
%TO.C,R12*%
X50245616Y-100675000D03*
X50245616Y-102325000D03*
%TD*%
%TO.C,R16*%
X56245616Y-100675000D03*
X56245616Y-102325000D03*
%TD*%
%TO.C,R13*%
X51745616Y-100675000D03*
X51745616Y-102325000D03*
%TD*%
%TO.C,R15*%
X54745616Y-100675000D03*
X54745616Y-102325000D03*
%TD*%
D27*
%TO.C,SW3*%
X96745616Y-108265614D03*
X96745616Y-101765614D03*
X101245616Y-108265614D03*
X101245616Y-101765614D03*
%TD*%
D15*
%TO.C,R23*%
X29500000Y-100675000D03*
X29500000Y-102325000D03*
%TD*%
%TO.C,R25*%
X32500000Y-100675000D03*
X32500000Y-102325000D03*
%TD*%
%TO.C,R11*%
X48745616Y-100675000D03*
X48745616Y-102325000D03*
%TD*%
%TO.C,R28*%
X37000000Y-100675000D03*
X37000000Y-102325000D03*
%TD*%
%TO.C,R29*%
X38500000Y-100675000D03*
X38500000Y-102325000D03*
%TD*%
D28*
%TO.C,U3*%
X51933116Y-96112500D03*
D29*
X51533116Y-96112500D03*
X51133116Y-96112500D03*
X50733116Y-96112500D03*
D30*
X50333116Y-96112500D03*
D31*
X49745616Y-96700000D03*
D32*
X49745616Y-97100000D03*
X49745616Y-97500000D03*
X49745616Y-97900000D03*
D33*
X49745616Y-98300000D03*
D34*
X50333116Y-98887500D03*
D29*
X50733116Y-98887500D03*
X51133116Y-98887500D03*
X51533116Y-98887500D03*
D35*
X51933116Y-98887500D03*
D36*
X52520616Y-98300000D03*
D32*
X52520616Y-97900000D03*
X52520616Y-97500000D03*
X52520616Y-97100000D03*
D37*
X52520616Y-96700000D03*
%TD*%
D38*
%TO.C,IC3*%
X72345616Y-107165614D03*
X72995616Y-107165614D03*
X73645616Y-107165614D03*
X73645616Y-105265614D03*
X72345616Y-105265614D03*
%TD*%
D39*
%TO.C,U9*%
X174000000Y-104000000D03*
D40*
X174000000Y-106540000D03*
%TD*%
D15*
%TO.C,R18*%
X59245616Y-100675000D03*
X59245616Y-102325000D03*
%TD*%
D41*
%TO.C,U2*%
X81632101Y-108179828D03*
X81985654Y-107826274D03*
X82339208Y-107472721D03*
X82692761Y-107119167D03*
X83046314Y-106765614D03*
X83399868Y-106412061D03*
X83753421Y-106058507D03*
X84106975Y-105704954D03*
D42*
X84106975Y-104732682D03*
X83753421Y-104379129D03*
X83399868Y-104025575D03*
X83046314Y-103672022D03*
X82692761Y-103318469D03*
X82339208Y-102964915D03*
X81985654Y-102611362D03*
X81632101Y-102257808D03*
D41*
X80659829Y-102257808D03*
X80306276Y-102611362D03*
X79952722Y-102964915D03*
X79599169Y-103318469D03*
X79245616Y-103672022D03*
X78892062Y-104025575D03*
X78538509Y-104379129D03*
X78184955Y-104732682D03*
D42*
X78184955Y-105704954D03*
X78538509Y-106058507D03*
X78892062Y-106412061D03*
X79245616Y-106765614D03*
X79599169Y-107119167D03*
X79952722Y-107472721D03*
X80306276Y-107826274D03*
X80659829Y-108179828D03*
D43*
X81145965Y-105218818D03*
%TD*%
D44*
%TO.C,R1*%
X76570616Y-103265614D03*
X74920616Y-103265614D03*
%TD*%
D45*
%TO.C,R3*%
X43000000Y-98000000D03*
X44650000Y-98000000D03*
%TD*%
D15*
%TO.C,R30*%
X40000000Y-100675000D03*
X40000000Y-102325000D03*
%TD*%
D46*
%TO.C,U7*%
X138250000Y-113500000D03*
D47*
X139500000Y-113500000D03*
%TD*%
D15*
%TO.C,R7*%
X42745616Y-100675000D03*
X42745616Y-102325000D03*
%TD*%
D20*
%TO.C,C11*%
X28450000Y-95325000D03*
X26550000Y-95325000D03*
%TD*%
D21*
%TO.C,J2*%
X45500000Y-104150000D03*
X46500000Y-104150000D03*
X47500000Y-104150000D03*
X48500000Y-104150000D03*
X49500000Y-104150000D03*
X50500000Y-104150000D03*
X51500000Y-104150000D03*
X52500000Y-104150000D03*
X53500000Y-104150000D03*
X54500000Y-104150000D03*
X55500000Y-104150000D03*
X56500000Y-104150000D03*
D22*
X43200000Y-106900000D03*
X58800000Y-106900000D03*
%TD*%
D15*
%TO.C,R19*%
X23500000Y-100675000D03*
X23500000Y-102325000D03*
%TD*%
D20*
%TO.C,C10*%
X47950000Y-96000000D03*
X46050000Y-96000000D03*
%TD*%
D15*
%TO.C,R20*%
X25000000Y-100675000D03*
X25000000Y-102325000D03*
%TD*%
D23*
%TO.C,C4*%
X76245616Y-106715614D03*
X76245616Y-104815614D03*
%TD*%
D15*
%TO.C,R21*%
X26500000Y-100675000D03*
X26500000Y-102325000D03*
%TD*%
%TO.C,R22*%
X28000000Y-100675000D03*
X28000000Y-102325000D03*
%TD*%
D48*
%TO.C,C3*%
X79245616Y-101265614D03*
X80589118Y-99922112D03*
%TD*%
D28*
%TO.C,U5*%
X32045616Y-96112500D03*
D29*
X31645616Y-96112500D03*
X31245616Y-96112500D03*
X30845616Y-96112500D03*
D30*
X30445616Y-96112500D03*
D31*
X29858116Y-96700000D03*
D32*
X29858116Y-97100000D03*
X29858116Y-97500000D03*
X29858116Y-97900000D03*
D33*
X29858116Y-98300000D03*
D34*
X30445616Y-98887500D03*
D29*
X30845616Y-98887500D03*
X31245616Y-98887500D03*
X31645616Y-98887500D03*
D35*
X32045616Y-98887500D03*
D36*
X32633116Y-98300000D03*
D32*
X32633116Y-97900000D03*
X32633116Y-97500000D03*
X32633116Y-97100000D03*
D37*
X32633116Y-96700000D03*
%TD*%
D15*
%TO.C,R27*%
X35500000Y-100675000D03*
X35500000Y-102325000D03*
%TD*%
%LPD*%
M02*
