M48
; DRILL file KiCad 10.0.0 date 2026-04-02T18:56:43
; FORMAT={-:-/ absolute / metric / decimal}
; #@! TF.CreationDate,2026-04-02T18:56:43+01:00
; #@! TF.GenerationSoftware,Kicad,Pcbnew,10.0.0
; #@! TF.FileFunction,MixedPlating,1,2
FMAT,2
METRIC
; #@! TA.AperFunction,Plated,PTH,ViaDrill
T1C0.300
; #@! TA.AperFunction,Plated,PTH,ViaDrill
T2C0.400
; #@! TA.AperFunction,Plated,PTH,ComponentDrill
T3C0.500
; #@! TA.AperFunction,Plated,PTH,ComponentDrill
T4C0.800
; #@! TA.AperFunction,Plated,PTH,ComponentDrill
T5C1.000
; #@! TA.AperFunction,Plated,PTH,ComponentDrill
T6C1.100
%
G90
G05
T1
X23.5Y-107.0
X25.0Y-96.0
X26.55Y-95.325
X36.5Y-96.5
X39.5Y-107.0
X41.0Y-94.95
X42.5Y-95.5
X43.0Y-98.0
X43.5Y-107.0
X44.5Y-98.95
X46.0Y-96.0
X47.0Y-96.0
X49.0Y-94.8
X49.0Y-96.55
X49.5Y-95.45
X50.997Y-97.018
X53.0Y-95.275
X53.725Y-95.625
X56.5Y-96.5
X59.0Y-107.0
X66.015Y-98.485
X70.5Y-106.5
X72.746Y-108.266
X73.093Y-106.391
X73.246Y-103.091
X75.885Y-102.127
X76.246Y-104.766
X77.435Y-104.297
X78.246Y-103.316
X78.746Y-109.266
X79.885Y-105.405
X80.589Y-99.922
X80.746Y-106.266
X80.885Y-104.405
X81.246Y-97.766
X81.246Y-105.266
X81.246Y-106.766
X81.385Y-103.905
X82.246Y-104.766
X82.246Y-105.766
X82.746Y-105.266
X83.246Y-99.766
X83.246Y-107.766
X83.474Y-101.905
X84.285Y-107.226
X85.246Y-110.266
X85.696Y-105.266
X87.246Y-103.266
X91.0Y-101.0
X94.0Y-98.0
X94.5Y-107.0
X99.0Y-100.0
X106.5Y-98.0
X106.5Y-110.5
X106.5Y-111.5
X106.5Y-113.0
X107.5Y-107.0
X118.5Y-110.5
X119.0Y-109.5
X120.0Y-112.0
X120.5Y-111.0
T2
X73.0Y-110.0
X73.5Y-112.5
T3
X138.25Y-113.5
X139.5Y-113.5
T4
X116.466Y-95.732
X116.466Y-113.766
X119.006Y-95.732
X119.006Y-113.766
X121.546Y-95.732
X121.546Y-113.766
X124.086Y-95.732
X124.086Y-113.766
X126.626Y-95.732
X126.626Y-113.766
X129.166Y-95.732
X129.166Y-113.766
X131.706Y-95.732
X131.706Y-113.766
X134.246Y-95.732
X134.246Y-113.766
T5
X174.0Y-104.0
X174.0Y-106.54
T6
X96.746Y-101.766
X96.746Y-108.266
X101.246Y-101.766
X101.246Y-108.266
M30
