%TF.GenerationSoftware,KiCad,Pcbnew,10.0.0*%
%TF.CreationDate,2026-04-02T18:55:30+01:00*%
%TF.ProjectId,vibook,7669626f-6f6b-42e6-9b69-6361645f7063,rev?*%
%TF.SameCoordinates,Original*%
%TF.FileFunction,Copper,L1,Top*%
%TF.FilePolarity,Positive*%
%FSLAX46Y46*%
G04 Gerber Fmt 4.6, Leading zero omitted, Abs format (unit mm)*
G04 Created by KiCad (PCBNEW 10.0.0) date 2026-04-02 18:55:30*
%MOMM*%
%LPD*%
G01*
G04 APERTURE LIST*
G04 Aperture macros list*
%AMRoundRect*
0 Rectangle with rounded corners*
0 $1 Rounding radius*
0 $2 $3 $4 $5 $6 $7 $8 $9 X,Y pos of 4 corners*
0 Add a 4 corners polygon primitive as box body*
4,1,4,$2,$3,$4,$5,$6,$7,$8,$9,$2,$3,0*
0 Add four circle primitives for the rounded corners*
1,1,$1+$1,$2,$3*
1,1,$1+$1,$4,$5*
1,1,$1+$1,$6,$7*
1,1,$1+$1,$8,$9*
0 Add four rect primitives between the rounded corners*
20,1,$1+$1,$2,$3,$4,$5,0*
20,1,$1+$1,$4,$5,$6,$7,0*
20,1,$1+$1,$6,$7,$8,$9,0*
20,1,$1+$1,$8,$9,$2,$3,0*%
%AMRotRect*
0 Rectangle, with rotation*
0 The origin of the aperture is its center*
0 $1 length*
0 $2 width*
0 $3 Rotation angle, in degrees counterclockwise*
0 Add horizontal line*
21,1,$1,$2,0,0,$3*%
%AMFreePoly0*
4,1,14,0.354215,0.088284,0.450784,-0.008285,0.462500,-0.036569,0.462500,-0.060000,0.450784,-0.088284,0.422500,-0.100000,-0.422500,-0.100000,-0.450784,-0.088284,-0.462500,-0.060000,-0.462500,0.060000,-0.450784,0.088284,-0.422500,0.100000,0.325931,0.100000,0.354215,0.088284,0.354215,0.088284,$1*%
%AMFreePoly1*
4,1,14,0.450784,0.088284,0.462500,0.060000,0.462500,0.036569,0.450784,0.008285,0.354215,-0.088284,0.325931,-0.100000,-0.422500,-0.100000,-0.450784,-0.088284,-0.462500,-0.060000,-0.462500,0.060000,-0.450784,0.088284,-0.422500,0.100000,0.422500,0.100000,0.450784,0.088284,0.450784,0.088284,$1*%
%AMFreePoly2*
4,1,14,0.088284,0.450784,0.100000,0.422500,0.100000,-0.422500,0.088284,-0.450784,0.060000,-0.462500,-0.060000,-0.462500,-0.088284,-0.450784,-0.100000,-0.422500,-0.100000,0.325931,-0.088284,0.354215,0.008285,0.450784,0.036569,0.462500,0.060000,0.462500,0.088284,0.450784,0.088284,0.450784,$1*%
%AMFreePoly3*
4,1,14,-0.008285,0.450784,0.088284,0.354215,0.100000,0.325931,0.100000,-0.422500,0.088284,-0.450784,0.060000,-0.462500,-0.060000,-0.462500,-0.088284,-0.450784,-0.100000,-0.422500,-0.100000,0.422500,-0.088284,0.450784,-0.060000,0.462500,-0.036569,0.462500,-0.008285,0.450784,-0.008285,0.450784,$1*%
%AMFreePoly4*
4,1,14,0.450784,0.088284,0.462500,0.060000,0.462500,-0.060000,0.450784,-0.088284,0.422500,-0.100000,-0.325931,-0.100000,-0.354215,-0.088284,-0.450784,0.008285,-0.462500,0.036569,-0.462500,0.060000,-0.450784,0.088284,-0.422500,0.100000,0.422500,0.100000,0.450784,0.088284,0.450784,0.088284,$1*%
%AMFreePoly5*
4,1,14,0.450784,0.088284,0.462500,0.060000,0.462500,-0.060000,0.450784,-0.088284,0.422500,-0.100000,-0.422500,-0.100000,-0.450784,-0.088284,-0.462500,-0.060000,-0.462500,-0.036569,-0.450784,-0.008285,-0.354215,0.088284,-0.325931,0.100000,0.422500,0.100000,0.450784,0.088284,0.450784,0.088284,$1*%
%AMFreePoly6*
4,1,14,0.088284,0.450784,0.100000,0.422500,0.100000,-0.325931,0.088284,-0.354215,-0.008285,-0.450784,-0.036569,-0.462500,-0.060000,-0.462500,-0.088284,-0.450784,-0.100000,-0.422500,-0.100000,0.422500,-0.088284,0.450784,-0.060000,0.462500,0.060000,0.462500,0.088284,0.450784,0.088284,0.450784,$1*%
%AMFreePoly7*
4,1,14,0.088284,0.450784,0.100000,0.422500,0.100000,-0.422500,0.088284,-0.450784,0.060000,-0.462500,0.036569,-0.462500,0.008285,-0.450784,-0.088284,-0.354215,-0.100000,-0.325931,-0.100000,0.422500,-0.088284,0.450784,-0.060000,0.462500,0.060000,0.462500,0.088284,0.450784,0.088284,0.450784,$1*%
G04 Aperture macros list end*
%TA.AperFunction,SMDPad,CuDef*%
%ADD10RoundRect,0.200000X-0.275000X0.200000X-0.275000X-0.200000X0.275000X-0.200000X0.275000X0.200000X0*%
%TD*%
%TA.AperFunction,SMDPad,CuDef*%
%ADD11RoundRect,0.250000X-0.785000X-1.895000X0.785000X-1.895000X0.785000X1.895000X-0.785000X1.895000X0*%
%TD*%
%TA.AperFunction,SMDPad,CuDef*%
%ADD12RoundRect,0.250000X-0.475000X0.250000X-0.475000X-0.250000X0.475000X-0.250000X0.475000X0.250000X0*%
%TD*%
%TA.AperFunction,SMDPad,CuDef*%
%ADD13R,0.740000X2.400000*%
%TD*%
%TA.AperFunction,SMDPad,CuDef*%
%ADD14RoundRect,0.200000X0.275000X-0.200000X0.275000X0.200000X-0.275000X0.200000X-0.275000X-0.200000X0*%
%TD*%
%TA.AperFunction,SMDPad,CuDef*%
%ADD15RoundRect,0.250000X0.250000X0.475000X-0.250000X0.475000X-0.250000X-0.475000X0.250000X-0.475000X0*%
%TD*%
%TA.AperFunction,SMDPad,CuDef*%
%ADD16R,0.600000X1.300000*%
%TD*%
%TA.AperFunction,SMDPad,CuDef*%
%ADD17R,2.000000X1.800000*%
%TD*%
%TA.AperFunction,SMDPad,CuDef*%
%ADD18RoundRect,0.250000X0.475000X-0.250000X0.475000X0.250000X-0.475000X0.250000X-0.475000X-0.250000X0*%
%TD*%
%TA.AperFunction,ComponentPad*%
%ADD19R,1.308000X1.308000*%
%TD*%
%TA.AperFunction,ComponentPad*%
%ADD20C,1.308000*%
%TD*%
%TA.AperFunction,SMDPad,CuDef*%
%ADD21RoundRect,0.250000X0.262500X0.450000X-0.262500X0.450000X-0.262500X-0.450000X0.262500X-0.450000X0*%
%TD*%
%TA.AperFunction,ComponentPad*%
%ADD22C,2.000000*%
%TD*%
%TA.AperFunction,SMDPad,CuDef*%
%ADD23FreePoly0,270.000000*%
%TD*%
%TA.AperFunction,SMDPad,CuDef*%
%ADD24RoundRect,0.050000X-0.050000X0.412500X-0.050000X-0.412500X0.050000X-0.412500X0.050000X0.412500X0*%
%TD*%
%TA.AperFunction,SMDPad,CuDef*%
%ADD25FreePoly1,270.000000*%
%TD*%
%TA.AperFunction,SMDPad,CuDef*%
%ADD26FreePoly2,270.000000*%
%TD*%
%TA.AperFunction,SMDPad,CuDef*%
%ADD27RoundRect,0.050000X-0.412500X0.050000X-0.412500X-0.050000X0.412500X-0.050000X0.412500X0.050000X0*%
%TD*%
%TA.AperFunction,SMDPad,CuDef*%
%ADD28FreePoly3,270.000000*%
%TD*%
%TA.AperFunction,SMDPad,CuDef*%
%ADD29FreePoly4,270.000000*%
%TD*%
%TA.AperFunction,SMDPad,CuDef*%
%ADD30FreePoly5,270.000000*%
%TD*%
%TA.AperFunction,SMDPad,CuDef*%
%ADD31FreePoly6,270.000000*%
%TD*%
%TA.AperFunction,SMDPad,CuDef*%
%ADD32FreePoly7,270.000000*%
%TD*%
%TA.AperFunction,SMDPad,CuDef*%
%ADD33RoundRect,0.100000X0.100000X-0.225000X0.100000X0.225000X-0.100000X0.225000X-0.100000X-0.225000X0*%
%TD*%
%TA.AperFunction,ComponentPad*%
%ADD34R,1.700000X1.700000*%
%TD*%
%TA.AperFunction,ComponentPad*%
%ADD35C,1.700000*%
%TD*%
%TA.AperFunction,SMDPad,CuDef*%
%ADD36RoundRect,0.062500X0.309359X-0.220971X-0.220971X0.309359X-0.309359X0.220971X0.220971X-0.309359X0*%
%TD*%
%TA.AperFunction,SMDPad,CuDef*%
%ADD37RoundRect,0.062500X0.309359X0.220971X0.220971X0.309359X-0.309359X-0.220971X-0.220971X-0.309359X0*%
%TD*%
%TA.AperFunction,HeatsinkPad*%
%ADD38RotRect,3.450000X3.450000X135.000000*%
%TD*%
%TA.AperFunction,SMDPad,CuDef*%
%ADD39RoundRect,0.200000X0.200000X0.275000X-0.200000X0.275000X-0.200000X-0.275000X0.200000X-0.275000X0*%
%TD*%
%TA.AperFunction,SMDPad,CuDef*%
%ADD40RoundRect,0.200000X-0.200000X-0.275000X0.200000X-0.275000X0.200000X0.275000X-0.200000X0.275000X0*%
%TD*%
%TA.AperFunction,ComponentPad*%
%ADD41RoundRect,0.200000X-0.200000X-0.450000X0.200000X-0.450000X0.200000X0.450000X-0.200000X0.450000X0*%
%TD*%
%TA.AperFunction,ComponentPad*%
%ADD42O,0.800000X1.300000*%
%TD*%
%TA.AperFunction,SMDPad,CuDef*%
%ADD43RoundRect,0.250000X0.159099X-0.512652X0.512652X-0.159099X-0.159099X0.512652X-0.512652X0.159099X0*%
%TD*%
%TA.AperFunction,ViaPad*%
%ADD44C,0.600000*%
%TD*%
%TA.AperFunction,ViaPad*%
%ADD45C,0.800000*%
%TD*%
%TA.AperFunction,Conductor*%
%ADD46C,0.200000*%
%TD*%
%TA.AperFunction,Conductor*%
%ADD47C,0.400000*%
%TD*%
G04 APERTURE END LIST*
D10*
%TO.P,R14,1*%
%TO.N,Net-(U3-LED3{slash}ELE7)*%
X53245616Y-100675000D03*
%TO.P,R14,2*%
%TO.N,Net-(J2-Pad8)*%
X53245616Y-102325000D03*
%TD*%
D11*
%TO.P,C12,1*%
%TO.N,GND*%
X106500000Y-111500000D03*
%TO.P,C12,2*%
%TO.N,+4.5V*%
X112740000Y-111500000D03*
%TD*%
D12*
%TO.P,C6,1*%
%TO.N,GND*%
X70500000Y-106550000D03*
%TO.P,C6,2*%
%TO.N,+4.5V*%
X70500000Y-108450000D03*
%TD*%
D13*
%TO.P,J1,1,VTref_1*%
%TO.N,+3.3V*%
X104960000Y-104450000D03*
%TO.P,J1,2,SWDIO/TMS_2*%
%TO.N,Net-(J1-SWDIO{slash}TMS)*%
X104960000Y-100550000D03*
%TO.P,J1,3,GND_3*%
%TO.N,GND*%
X106230000Y-104450000D03*
%TO.P,J1,4,SWCLK/TCK_4*%
%TO.N,Net-(J1-SWCLK{slash}TCK)*%
X106230000Y-100550000D03*
%TO.P,J1,5,GND_5*%
%TO.N,GND*%
X107500000Y-104450000D03*
%TO.P,J1,6,SWO/TDO_6*%
%TO.N,unconnected-(J1-SWO{slash}TDO-Pad6)*%
X107500000Y-100550000D03*
%TO.P,J1,7,KEY_7*%
%TO.N,unconnected-(J1-KEY-Pad7)*%
X108770000Y-104450000D03*
%TO.P,J1,8,NC/TDI_8*%
%TO.N,unconnected-(J1-NC{slash}TDI-Pad8)*%
X108770000Y-100550000D03*
%TO.P,J1,9,GNDDetect_9*%
%TO.N,GND*%
X110040000Y-104450000D03*
%TO.P,J1,10,~{RESET}_10*%
%TO.N,Net-(J1-~{RESET})*%
X110040000Y-100550000D03*
%TD*%
D14*
%TO.P,R5,1*%
%TO.N,+3.3V*%
X73245616Y-103090614D03*
%TO.P,R5,2*%
%TO.N,Net-(U2-PA4)*%
X73245616Y-101440614D03*
%TD*%
D15*
%TO.P,C7,1*%
%TO.N,GND*%
X36400000Y-96500000D03*
%TO.P,C7,2*%
%TO.N,+3.3V*%
X34500000Y-96500000D03*
%TD*%
D16*
%TO.P,J3,1*%
%TO.N,Net-(J3-Pad1)*%
X26000000Y-104150000D03*
%TO.P,J3,2*%
%TO.N,Net-(J3-Pad2)*%
X27000000Y-104150000D03*
%TO.P,J3,3*%
%TO.N,Net-(J3-Pad3)*%
X28000000Y-104150000D03*
%TO.P,J3,4*%
%TO.N,Net-(J3-Pad4)*%
X29000000Y-104150000D03*
%TO.P,J3,5*%
%TO.N,Net-(J3-Pad5)*%
X30000000Y-104150000D03*
%TO.P,J3,6*%
%TO.N,Net-(J3-Pad6)*%
X31000000Y-104150000D03*
%TO.P,J3,7*%
%TO.N,Net-(J3-Pad7)*%
X32000000Y-104150000D03*
%TO.P,J3,8*%
%TO.N,Net-(J3-Pad8)*%
X33000000Y-104150000D03*
%TO.P,J3,9*%
%TO.N,Net-(J3-Pad9)*%
X34000000Y-104150000D03*
%TO.P,J3,10*%
%TO.N,Net-(J3-Pad10)*%
X35000000Y-104150000D03*
%TO.P,J3,11*%
%TO.N,Net-(J3-Pad11)*%
X36000000Y-104150000D03*
%TO.P,J3,12*%
%TO.N,Net-(J3-Pad12)*%
X37000000Y-104150000D03*
D17*
%TO.P,J3,Z1*%
%TO.N,GND*%
X23700000Y-106900000D03*
%TO.P,J3,Z2*%
X39300000Y-106900000D03*
%TD*%
D14*
%TO.P,R4,1*%
%TO.N,+3.3V*%
X71745616Y-103090614D03*
%TO.P,R4,2*%
%TO.N,Net-(U2-PA10)*%
X71745616Y-101440614D03*
%TD*%
D15*
%TO.P,C9,1*%
%TO.N,GND*%
X77695616Y-110265614D03*
%TO.P,C9,2*%
%TO.N,+3.3V*%
X75795616Y-110265614D03*
%TD*%
D10*
%TO.P,R24,1*%
%TO.N,Net-(U5-LED1{slash}ELE5)*%
X31000000Y-100675000D03*
%TO.P,R24,2*%
%TO.N,Net-(J3-Pad6)*%
X31000000Y-102325000D03*
%TD*%
%TO.P,R2,1*%
%TO.N,GND*%
X25000000Y-96000000D03*
%TO.P,R2,2*%
%TO.N,Net-(U5-REXT)*%
X25000000Y-97650000D03*
%TD*%
%TO.P,R26,1*%
%TO.N,Net-(U5-LED3{slash}ELE7)*%
X34000000Y-100675000D03*
%TO.P,R26,2*%
%TO.N,Net-(J3-Pad8)*%
X34000000Y-102325000D03*
%TD*%
%TO.P,R17,1*%
%TO.N,Net-(U3-LED6{slash}ELE10)*%
X57745616Y-100675000D03*
%TO.P,R17,2*%
%TO.N,Net-(J2-Pad11)*%
X57745616Y-102325000D03*
%TD*%
D18*
%TO.P,C5,1*%
%TO.N,Net-(J1-~{RESET})*%
X94245616Y-109000000D03*
%TO.P,C5,2*%
%TO.N,GND*%
X94245616Y-107100000D03*
%TD*%
D12*
%TO.P,C2,1*%
%TO.N,+3.3V*%
X85245616Y-108265614D03*
%TO.P,C2,2*%
%TO.N,GND*%
X85245616Y-110165614D03*
%TD*%
D10*
%TO.P,R9,1*%
%TO.N,Net-(U3-ELE2)*%
X45745616Y-100675000D03*
%TO.P,R9,2*%
%TO.N,Net-(J2-Pad3)*%
X45745616Y-102325000D03*
%TD*%
D19*
%TO.P,U6,1,VCC_1*%
%TO.N,+4.5V*%
X116465616Y-113765614D03*
D20*
%TO.P,U6,2,RX_2*%
%TO.N,Net-(U2-PA3)*%
X119005616Y-113765614D03*
%TO.P,U6,3,TX_3*%
%TO.N,Net-(U6-TX)*%
X121545616Y-113765614D03*
%TO.P,U6,4,DAC_R_4*%
%TO.N,unconnected-(U6-DAC_R-Pad4)*%
X124085616Y-113765614D03*
%TO.P,U6,5,DAC_L_5*%
%TO.N,unconnected-(U6-DAC_L-Pad5)*%
X126625616Y-113765614D03*
%TO.P,U6,6,SPK1_6*%
%TO.N,Net-(U6-SPK1)*%
X129165616Y-113765614D03*
%TO.P,U6,7,GND_7*%
%TO.N,GND*%
X131705616Y-113765614D03*
%TO.P,U6,8,SPK2_8*%
%TO.N,Net-(U6-SPK2)*%
X134245616Y-113765614D03*
%TO.P,U6,9,IO1_9*%
%TO.N,unconnected-(U6-IO1-Pad9)*%
X134245616Y-95731614D03*
%TO.P,U6,10,GND_10*%
%TO.N,GND*%
X131705616Y-95731614D03*
%TO.P,U6,11,IO2_11*%
%TO.N,unconnected-(U6-IO2-Pad11)*%
X129165616Y-95731614D03*
%TO.P,U6,12,ADKEY1_12*%
%TO.N,unconnected-(U6-ADKEY1-Pad12)*%
X126625616Y-95731614D03*
%TO.P,U6,13,ADKEY2_13*%
%TO.N,unconnected-(U6-ADKEY2-Pad13)*%
X124085616Y-95731614D03*
%TO.P,U6,14,USB+_14*%
%TO.N,unconnected-(U6-USB+-Pad14)*%
X121545616Y-95731614D03*
%TO.P,U6,15,USB-_15*%
%TO.N,unconnected-(U6-USB--Pad15)*%
X119005616Y-95731614D03*
%TO.P,U6,16,BUSY_16*%
%TO.N,unconnected-(U6-BUSY-Pad16)*%
X116465616Y-95731614D03*
%TD*%
D15*
%TO.P,C1,1*%
%TO.N,+3.3V*%
X82195616Y-110265614D03*
%TO.P,C1,2*%
%TO.N,GND*%
X80295616Y-110265614D03*
%TD*%
D21*
%TO.P,R31,1*%
%TO.N,Net-(U6-TX)*%
X91158116Y-102765614D03*
%TO.P,R31,2*%
%TO.N,Net-(U2-PA2)*%
X89333116Y-102765614D03*
%TD*%
D10*
%TO.P,R8,1*%
%TO.N,Net-(U3-ELE1)*%
X44245616Y-100675000D03*
%TO.P,R8,2*%
%TO.N,Net-(J2-Pad2)*%
X44245616Y-102325000D03*
%TD*%
D14*
%TO.P,R6,1*%
%TO.N,+3.3V*%
X61000000Y-98325000D03*
%TO.P,R6,2*%
%TO.N,Net-(U2-PA5)*%
X61000000Y-96675000D03*
%TD*%
D15*
%TO.P,C8,1*%
%TO.N,GND*%
X56450000Y-96500000D03*
%TO.P,C8,2*%
%TO.N,+3.3V*%
X54550000Y-96500000D03*
%TD*%
D10*
%TO.P,R10,1*%
%TO.N,Net-(U3-ELE3)*%
X47245616Y-100675000D03*
%TO.P,R10,2*%
%TO.N,Net-(J2-Pad4)*%
X47245616Y-102325000D03*
%TD*%
%TO.P,R12,1*%
%TO.N,Net-(U3-LED1{slash}ELE5)*%
X50245616Y-100675000D03*
%TO.P,R12,2*%
%TO.N,Net-(J2-Pad6)*%
X50245616Y-102325000D03*
%TD*%
%TO.P,R16,1*%
%TO.N,Net-(U3-LED5{slash}ELE9)*%
X56245616Y-100675000D03*
%TO.P,R16,2*%
%TO.N,Net-(J2-Pad10)*%
X56245616Y-102325000D03*
%TD*%
%TO.P,R13,1*%
%TO.N,Net-(U3-LED2{slash}ELE6)*%
X51745616Y-100675000D03*
%TO.P,R13,2*%
%TO.N,Net-(J2-Pad7)*%
X51745616Y-102325000D03*
%TD*%
%TO.P,R15,1*%
%TO.N,Net-(U3-LED4{slash}ELE8)*%
X54745616Y-100675000D03*
%TO.P,R15,2*%
%TO.N,Net-(J2-Pad9)*%
X54745616Y-102325000D03*
%TD*%
D22*
%TO.P,SW3,1,1_1*%
%TO.N,Net-(J1-~{RESET})*%
X96745616Y-108265614D03*
X96745616Y-101765614D03*
%TO.P,SW3,2,2_2*%
%TO.N,GND*%
X101245616Y-108265614D03*
X101245616Y-101765614D03*
%TD*%
D10*
%TO.P,R23,1*%
%TO.N,Net-(U5-LED0{slash}ELE4)*%
X29500000Y-100675000D03*
%TO.P,R23,2*%
%TO.N,Net-(J3-Pad5)*%
X29500000Y-102325000D03*
%TD*%
%TO.P,R25,1*%
%TO.N,Net-(U5-LED2{slash}ELE6)*%
X32500000Y-100675000D03*
%TO.P,R25,2*%
%TO.N,Net-(J3-Pad7)*%
X32500000Y-102325000D03*
%TD*%
%TO.P,R11,1*%
%TO.N,Net-(U3-LED0{slash}ELE4)*%
X48745616Y-100675000D03*
%TO.P,R11,2*%
%TO.N,Net-(J2-Pad5)*%
X48745616Y-102325000D03*
%TD*%
%TO.P,R28,1*%
%TO.N,Net-(U5-LED5{slash}ELE9)*%
X37000000Y-100675000D03*
%TO.P,R28,2*%
%TO.N,Net-(J3-Pad10)*%
X37000000Y-102325000D03*
%TD*%
%TO.P,R29,1*%
%TO.N,Net-(U5-LED6{slash}ELE10)*%
X38500000Y-100675000D03*
%TO.P,R29,2*%
%TO.N,Net-(J3-Pad11)*%
X38500000Y-102325000D03*
%TD*%
D23*
%TO.P,U3,1,~{IRQ}_1*%
%TO.N,Net-(U2-PA5)*%
X51933116Y-96112500D03*
D24*
%TO.P,U3,2,SCL_2*%
%TO.N,Net-(U2-PA4)*%
X51533116Y-96112500D03*
%TO.P,U3,3,SDA_3*%
%TO.N,Net-(U2-PA10)*%
X51133116Y-96112500D03*
%TO.P,U3,4,ADDR_4*%
%TO.N,GND*%
X50733116Y-96112500D03*
D25*
%TO.P,U3,5,VREG_5*%
%TO.N,Net-(U3-VREG)*%
X50333116Y-96112500D03*
D26*
%TO.P,U3,6,VSS_6*%
%TO.N,GND*%
X49745616Y-96700000D03*
D27*
%TO.P,U3,7,REXT_7*%
%TO.N,Net-(U3-REXT)*%
X49745616Y-97100000D03*
%TO.P,U3,8,ELE0_8*%
%TO.N,Net-(U3-ELE0)*%
X49745616Y-97500000D03*
%TO.P,U3,9,ELE1_9*%
%TO.N,Net-(U3-ELE1)*%
X49745616Y-97900000D03*
D28*
%TO.P,U3,10,ELE2_10*%
%TO.N,Net-(U3-ELE2)*%
X49745616Y-98300000D03*
D29*
%TO.P,U3,11,ELE3_11*%
%TO.N,Net-(U3-ELE3)*%
X50333116Y-98887500D03*
D24*
%TO.P,U3,12,LED0/ELE4_12*%
%TO.N,Net-(U3-LED0{slash}ELE4)*%
X50733116Y-98887500D03*
%TO.P,U3,13,LED1/ELE5_13*%
%TO.N,Net-(U3-LED1{slash}ELE5)*%
X51133116Y-98887500D03*
%TO.P,U3,14,LED2/ELE6_14*%
%TO.N,Net-(U3-LED2{slash}ELE6)*%
X51533116Y-98887500D03*
D30*
%TO.P,U3,15,LED3/ELE7_15*%
%TO.N,Net-(U3-LED3{slash}ELE7)*%
X51933116Y-98887500D03*
D31*
%TO.P,U3,16,LED4/ELE8_16*%
%TO.N,Net-(U3-LED4{slash}ELE8)*%
X52520616Y-98300000D03*
D27*
%TO.P,U3,17,LED5/ELE9_17*%
%TO.N,Net-(U3-LED5{slash}ELE9)*%
X52520616Y-97900000D03*
%TO.P,U3,18,LED6/ELE10_18*%
%TO.N,Net-(U3-LED6{slash}ELE10)*%
X52520616Y-97500000D03*
%TO.P,U3,19,LED7/ELE11_19*%
%TO.N,Net-(U3-LED7{slash}ELE11)*%
X52520616Y-97100000D03*
D32*
%TO.P,U3,20,VDD_20*%
%TO.N,+3.3V*%
X52520616Y-96700000D03*
%TD*%
D33*
%TO.P,IC3,1,VIN_1*%
%TO.N,+4.5V*%
X72345616Y-107165614D03*
%TO.P,IC3,2,GND_2*%
%TO.N,GND*%
X72995616Y-107165614D03*
%TO.P,IC3,3,EN_3*%
%TO.N,+4.5V*%
X73645616Y-107165614D03*
%TO.P,IC3,4,NC_4*%
%TO.N,unconnected-(IC3-NC-Pad4)*%
X73645616Y-105265614D03*
%TO.P,IC3,5,VOUT_5*%
%TO.N,+3.3V*%
X72345616Y-105265614D03*
%TD*%
D34*
%TO.P,U9,1,P1_1*%
%TO.N,+4.5V*%
X174000000Y-104000000D03*
D35*
%TO.P,U9,2,P2_2*%
%TO.N,GND*%
X174000000Y-106540000D03*
%TD*%
D10*
%TO.P,R18,1*%
%TO.N,Net-(U3-LED7{slash}ELE11)*%
X59245616Y-100675000D03*
%TO.P,R18,2*%
%TO.N,Net-(J2-Pad12)*%
X59245616Y-102325000D03*
%TD*%
D36*
%TO.P,U2,1,VDD_1*%
%TO.N,+3.3V*%
X81632101Y-108179828D03*
%TO.P,U2,2,PC14_2*%
%TO.N,unconnected-(U2-PC14-Pad2)*%
X81985654Y-107826274D03*
%TO.P,U2,3,PC15_3*%
%TO.N,unconnected-(U2-PC15-Pad3)*%
X82339208Y-107472721D03*
%TO.P,U2,4,NRST_4*%
%TO.N,Net-(J1-~{RESET})*%
X82692761Y-107119167D03*
%TO.P,U2,5,VDDA_5*%
%TO.N,+3.3V*%
X83046314Y-106765614D03*
%TO.P,U2,6,PA0_6*%
%TO.N,unconnected-(U2-PA0-Pad6)*%
X83399868Y-106412061D03*
%TO.P,U2,7,PA1_7*%
%TO.N,unconnected-(U2-PA1-Pad7)*%
X83753421Y-106058507D03*
%TO.P,U2,8,PA2_8*%
%TO.N,Net-(U2-PA2)*%
X84106975Y-105704954D03*
D37*
%TO.P,U2,9,PA3_9*%
%TO.N,Net-(U2-PA3)*%
X84106975Y-104732682D03*
%TO.P,U2,10,PA4_10*%
%TO.N,Net-(U2-PA4)*%
X83753421Y-104379129D03*
%TO.P,U2,11,PA5_11*%
%TO.N,Net-(U2-PA5)*%
X83399868Y-104025575D03*
%TO.P,U2,12,PA6_12*%
%TO.N,unconnected-(U2-PA6-Pad12)*%
X83046314Y-103672022D03*
%TO.P,U2,13,PA7_13*%
%TO.N,unconnected-(U2-PA7-Pad13)*%
X82692761Y-103318469D03*
%TO.P,U2,14,PB0_14*%
%TO.N,unconnected-(U2-PB0-Pad14)*%
X82339208Y-102964915D03*
%TO.P,U2,15,PB1_15*%
%TO.N,unconnected-(U2-PB1-Pad15)*%
X81985654Y-102611362D03*
%TO.P,U2,16,PB2_16*%
%TO.N,unconnected-(U2-PB2-Pad16)*%
X81632101Y-102257808D03*
D36*
%TO.P,U2,17,VDD_17*%
%TO.N,+3.3V*%
X80659829Y-102257808D03*
%TO.P,U2,18,PA8_18*%
%TO.N,unconnected-(U2-PA8-Pad18)*%
X80306276Y-102611362D03*
%TO.P,U2,19,PA9_19*%
%TO.N,Net-(U2-PA9)*%
X79952722Y-102964915D03*
%TO.P,U2,20,PA10_20*%
%TO.N,Net-(U2-PA10)*%
X79599169Y-103318469D03*
%TO.P,U2,21,PA11_21*%
%TO.N,unconnected-(U2-PA11-Pad21)*%
X79245616Y-103672022D03*
%TO.P,U2,22,PA12_22*%
%TO.N,unconnected-(U2-PA12-Pad22)*%
X78892062Y-104025575D03*
%TO.P,U2,23,PA13_23*%
%TO.N,Net-(J1-SWDIO{slash}TMS)*%
X78538509Y-104379129D03*
%TO.P,U2,24,PA14_24*%
%TO.N,Net-(J1-SWCLK{slash}TCK)*%
X78184955Y-104732682D03*
D37*
%TO.P,U2,25,PA15_25*%
%TO.N,unconnected-(U2-PA15-Pad25)*%
X78184955Y-105704954D03*
%TO.P,U2,26,PB3_26*%
%TO.N,unconnected-(U2-PB3-Pad26)*%
X78538509Y-106058507D03*
%TO.P,U2,27,PB4_27*%
%TO.N,unconnected-(U2-PB4-Pad27)*%
X78892062Y-106412061D03*
%TO.P,U2,28,PB5_28*%
%TO.N,unconnected-(U2-PB5-Pad28)*%
X79245616Y-106765614D03*
%TO.P,U2,29,PB6_29*%
%TO.N,unconnected-(U2-PB6-Pad29)*%
X79599169Y-107119167D03*
%TO.P,U2,30,PB7_30*%
%TO.N,unconnected-(U2-PB7-Pad30)*%
X79952722Y-107472721D03*
%TO.P,U2,31,PB9_31*%
%TO.N,unconnected-(U2-PB9-Pad31)*%
X80306276Y-107826274D03*
%TO.P,U2,32,PB8_32*%
%TO.N,unconnected-(U2-PB8-Pad32)*%
X80659829Y-108179828D03*
D38*
%TO.P,U2,33,VSS_33*%
%TO.N,GND*%
X81145965Y-105218818D03*
%TD*%
D39*
%TO.P,R1,1*%
%TO.N,Net-(U2-PA9)*%
X76570616Y-103265614D03*
%TO.P,R1,2*%
%TO.N,GND*%
X74920616Y-103265614D03*
%TD*%
D40*
%TO.P,R3,1*%
%TO.N,GND*%
X43000000Y-98000000D03*
%TO.P,R3,2*%
%TO.N,Net-(U3-REXT)*%
X44650000Y-98000000D03*
%TD*%
D10*
%TO.P,R30,1*%
%TO.N,Net-(U5-LED7{slash}ELE11)*%
X40000000Y-100675000D03*
%TO.P,R30,2*%
%TO.N,Net-(J3-Pad12)*%
X40000000Y-102325000D03*
%TD*%
D41*
%TO.P,U7,1,P1_1*%
%TO.N,Net-(U6-SPK1)*%
X138250000Y-113500000D03*
D42*
%TO.P,U7,2,P2_2*%
%TO.N,Net-(U6-SPK2)*%
X139500000Y-113500000D03*
%TD*%
D10*
%TO.P,R7,1*%
%TO.N,Net-(U3-ELE0)*%
X42745616Y-100675000D03*
%TO.P,R7,2*%
%TO.N,Net-(J2-Pad1)*%
X42745616Y-102325000D03*
%TD*%
D15*
%TO.P,C11,1*%
%TO.N,Net-(U5-VREG)*%
X28450000Y-95325000D03*
%TO.P,C11,2*%
%TO.N,GND*%
X26550000Y-95325000D03*
%TD*%
D16*
%TO.P,J2,1*%
%TO.N,Net-(J2-Pad1)*%
X45500000Y-104150000D03*
%TO.P,J2,2*%
%TO.N,Net-(J2-Pad2)*%
X46500000Y-104150000D03*
%TO.P,J2,3*%
%TO.N,Net-(J2-Pad3)*%
X47500000Y-104150000D03*
%TO.P,J2,4*%
%TO.N,Net-(J2-Pad4)*%
X48500000Y-104150000D03*
%TO.P,J2,5*%
%TO.N,Net-(J2-Pad5)*%
X49500000Y-104150000D03*
%TO.P,J2,6*%
%TO.N,Net-(J2-Pad6)*%
X50500000Y-104150000D03*
%TO.P,J2,7*%
%TO.N,Net-(J2-Pad7)*%
X51500000Y-104150000D03*
%TO.P,J2,8*%
%TO.N,Net-(J2-Pad8)*%
X52500000Y-104150000D03*
%TO.P,J2,9*%
%TO.N,Net-(J2-Pad9)*%
X53500000Y-104150000D03*
%TO.P,J2,10*%
%TO.N,Net-(J2-Pad10)*%
X54500000Y-104150000D03*
%TO.P,J2,11*%
%TO.N,Net-(J2-Pad11)*%
X55500000Y-104150000D03*
%TO.P,J2,12*%
%TO.N,Net-(J2-Pad12)*%
X56500000Y-104150000D03*
D17*
%TO.P,J2,Z1*%
%TO.N,GND*%
X43200000Y-106900000D03*
%TO.P,J2,Z2*%
X58800000Y-106900000D03*
%TD*%
D10*
%TO.P,R19,1*%
%TO.N,Net-(U5-ELE0)*%
X23500000Y-100675000D03*
%TO.P,R19,2*%
%TO.N,Net-(J3-Pad1)*%
X23500000Y-102325000D03*
%TD*%
D15*
%TO.P,C10,1*%
%TO.N,Net-(U3-VREG)*%
X47950000Y-96000000D03*
%TO.P,C10,2*%
%TO.N,GND*%
X46050000Y-96000000D03*
%TD*%
D10*
%TO.P,R20,1*%
%TO.N,Net-(U5-ELE1)*%
X25000000Y-100675000D03*
%TO.P,R20,2*%
%TO.N,Net-(J3-Pad2)*%
X25000000Y-102325000D03*
%TD*%
D18*
%TO.P,C4,1*%
%TO.N,+3.3V*%
X76245616Y-106715614D03*
%TO.P,C4,2*%
%TO.N,GND*%
X76245616Y-104815614D03*
%TD*%
D10*
%TO.P,R21,1*%
%TO.N,Net-(U5-ELE2)*%
X26500000Y-100675000D03*
%TO.P,R21,2*%
%TO.N,Net-(J3-Pad3)*%
X26500000Y-102325000D03*
%TD*%
%TO.P,R22,1*%
%TO.N,Net-(U5-ELE3)*%
X28000000Y-100675000D03*
%TO.P,R22,2*%
%TO.N,Net-(J3-Pad4)*%
X28000000Y-102325000D03*
%TD*%
D43*
%TO.P,C3,1*%
%TO.N,+3.3V*%
X79245616Y-101265614D03*
%TO.P,C3,2*%
%TO.N,GND*%
X80589118Y-99922112D03*
%TD*%
D23*
%TO.P,U5,1,~{IRQ}_1*%
%TO.N,Net-(U2-PA5)*%
X32045616Y-96112500D03*
D24*
%TO.P,U5,2,SCL_2*%
%TO.N,Net-(U2-PA4)*%
X31645616Y-96112500D03*
%TO.P,U5,3,SDA_3*%
%TO.N,Net-(U2-PA10)*%
X31245616Y-96112500D03*
%TO.P,U5,4,ADDR_4*%
X30845616Y-96112500D03*
D25*
%TO.P,U5,5,VREG_5*%
%TO.N,Net-(U5-VREG)*%
X30445616Y-96112500D03*
D26*
%TO.P,U5,6,VSS_6*%
%TO.N,GND*%
X29858116Y-96700000D03*
D27*
%TO.P,U5,7,REXT_7*%
%TO.N,Net-(U5-REXT)*%
X29858116Y-97100000D03*
%TO.P,U5,8,ELE0_8*%
%TO.N,Net-(U5-ELE0)*%
X29858116Y-97500000D03*
%TO.P,U5,9,ELE1_9*%
%TO.N,Net-(U5-ELE1)*%
X29858116Y-97900000D03*
D28*
%TO.P,U5,10,ELE2_10*%
%TO.N,Net-(U5-ELE2)*%
X29858116Y-98300000D03*
D29*
%TO.P,U5,11,ELE3_11*%
%TO.N,Net-(U5-ELE3)*%
X30445616Y-98887500D03*
D24*
%TO.P,U5,12,LED0/ELE4_12*%
%TO.N,Net-(U5-LED0{slash}ELE4)*%
X30845616Y-98887500D03*
%TO.P,U5,13,LED1/ELE5_13*%
%TO.N,Net-(U5-LED1{slash}ELE5)*%
X31245616Y-98887500D03*
%TO.P,U5,14,LED2/ELE6_14*%
%TO.N,Net-(U5-LED2{slash}ELE6)*%
X31645616Y-98887500D03*
D30*
%TO.P,U5,15,LED3/ELE7_15*%
%TO.N,Net-(U5-LED3{slash}ELE7)*%
X32045616Y-98887500D03*
D31*
%TO.P,U5,16,LED4/ELE8_16*%
%TO.N,Net-(U5-LED4{slash}ELE8)*%
X32633116Y-98300000D03*
D27*
%TO.P,U5,17,LED5/ELE9_17*%
%TO.N,Net-(U5-LED5{slash}ELE9)*%
X32633116Y-97900000D03*
%TO.P,U5,18,LED6/ELE10_18*%
%TO.N,Net-(U5-LED6{slash}ELE10)*%
X32633116Y-97500000D03*
%TO.P,U5,19,LED7/ELE11_19*%
%TO.N,Net-(U5-LED7{slash}ELE11)*%
X32633116Y-97100000D03*
D32*
%TO.P,U5,20,VDD_20*%
%TO.N,+3.3V*%
X32633116Y-96700000D03*
%TD*%
D10*
%TO.P,R27,1*%
%TO.N,Net-(U5-LED4{slash}ELE8)*%
X35500000Y-100675000D03*
%TO.P,R27,2*%
%TO.N,Net-(J3-Pad9)*%
X35500000Y-102325000D03*
%TD*%
D44*
%TO.N,GND*%
X106500000Y-113000000D03*
X106500000Y-110500000D03*
%TO.N,+3.3V*%
X73245616Y-103090614D03*
X75884525Y-102126705D03*
%TO.N,GND*%
X59000000Y-107000000D03*
X78745616Y-109265614D03*
X81245616Y-105265614D03*
X70500000Y-106500000D03*
X106500000Y-111500000D03*
X49000000Y-96550000D03*
X43500000Y-107000000D03*
X80745616Y-106265614D03*
X49500000Y-95450000D03*
X46000000Y-96000000D03*
X79884525Y-105404523D03*
X23500000Y-107000000D03*
X36500000Y-96500000D03*
X107500000Y-107000000D03*
X82245616Y-104765614D03*
X76245616Y-104765614D03*
X80589118Y-99922112D03*
X39500000Y-107000000D03*
X56500000Y-96500000D03*
X80884525Y-104404523D03*
X26550000Y-95325000D03*
X72745616Y-108265614D03*
X81245616Y-106765614D03*
X25000000Y-96000000D03*
X43000000Y-98000000D03*
X81384525Y-103904523D03*
X85245616Y-110265614D03*
X82245616Y-105765614D03*
X82745616Y-105265614D03*
X94500000Y-107000000D03*
%TO.N,Net-(U2-PA3)*%
X120000000Y-112000000D03*
X99000000Y-100000000D03*
X118500000Y-110500000D03*
X106500000Y-98000000D03*
%TO.N,Net-(U2-PA2)*%
X87245616Y-103265614D03*
X85695616Y-105265614D03*
%TO.N,Net-(J1-~{RESET})*%
X84284874Y-107226356D03*
X83245616Y-107765614D03*
%TO.N,Net-(J1-SWCLK{slash}TCK)*%
X77434936Y-104297464D03*
X83245616Y-99765614D03*
%TO.N,Net-(J1-SWDIO{slash}TMS)*%
X81245616Y-97765614D03*
X78245616Y-103315614D03*
%TO.N,Net-(U2-PA10)*%
X53000000Y-95275000D03*
X42500000Y-95500000D03*
X41000000Y-94950000D03*
X47000000Y-96000000D03*
%TO.N,Net-(U2-PA4)*%
X49000000Y-94800000D03*
X50996767Y-97017573D03*
X66015024Y-98484976D03*
%TO.N,Net-(U2-PA5)*%
X44500000Y-98950000D03*
X53725389Y-95625000D03*
X83473952Y-101904523D03*
X73092799Y-106390614D03*
D45*
%TO.N,+4.5V*%
X73500000Y-112500000D03*
X73000000Y-110000000D03*
D44*
%TO.N,Net-(U6-TX)*%
X119000000Y-109500000D03*
X120500000Y-111000000D03*
X94000000Y-98000000D03*
X91000000Y-101000000D03*
%TD*%
%TO.N,+3.3V*%
D46*
X75244616Y-110816614D02*
X62500000Y-110816614D01*
X75795616Y-110265614D02*
X75244616Y-110816614D01*
X79667635Y-101265614D02*
X80659829Y-102257808D01*
X75795616Y-110265614D02*
X77346616Y-108714614D01*
X72745616Y-105265614D02*
X72345616Y-105265614D01*
X85245616Y-108265614D02*
X84546314Y-108265614D01*
X80310227Y-108803912D02*
X81008017Y-108803912D01*
X83267887Y-108743343D02*
X82195616Y-108743343D01*
X61000000Y-106955384D02*
X61000000Y-109000000D01*
X60745616Y-100245616D02*
X60745616Y-104000000D01*
X77346616Y-108714614D02*
X80220929Y-108714614D01*
X75795616Y-110765614D02*
X75921616Y-110639614D01*
X60745616Y-106701000D02*
X61000000Y-106955384D01*
X82195616Y-110265614D02*
X82195616Y-108743343D01*
X84145965Y-107865265D02*
X83267887Y-108743343D01*
X79245616Y-101265614D02*
X79667635Y-101265614D01*
X75795616Y-110265614D02*
X75795616Y-108315614D01*
X79245616Y-101265614D02*
X78719616Y-101791614D01*
X42020616Y-101520616D02*
X42020616Y-102716938D01*
X76245616Y-106715614D02*
X76245616Y-109815614D01*
X101644616Y-111164614D02*
X83094616Y-111164614D01*
X83094616Y-111164614D02*
X82195616Y-110265614D01*
X72220616Y-104290614D02*
X71745616Y-103815614D01*
X60175000Y-98325000D02*
X59500000Y-99000000D01*
X44353678Y-105050000D02*
X59695616Y-105050000D01*
X38500000Y-98000000D02*
X42020616Y-101520616D01*
X76245616Y-109815614D02*
X75795616Y-110265614D01*
X104960000Y-107849230D02*
X101644616Y-111164614D01*
X72345616Y-105265614D02*
X72345616Y-104415614D01*
X104960000Y-104450000D02*
X104960000Y-107849230D01*
X80220929Y-108714614D02*
X80310227Y-108803912D01*
X52720616Y-96500000D02*
X52520616Y-96700000D01*
X71745616Y-103815614D02*
X71745616Y-103090614D01*
X61000000Y-98325000D02*
X60175000Y-98325000D01*
X82195616Y-108743343D02*
X81632101Y-108179828D01*
X62500000Y-110816614D02*
X61316614Y-110816614D01*
X34500000Y-96500000D02*
X32833116Y-96500000D01*
X36000000Y-98000000D02*
X38500000Y-98000000D01*
X73245616Y-103265614D02*
X73245616Y-103090614D01*
X75795616Y-108315614D02*
X72745616Y-105265614D01*
X72220616Y-104290614D02*
X73245616Y-103265614D01*
X76219616Y-101791614D02*
X75884525Y-102126705D01*
X81008017Y-108803912D02*
X81632101Y-108179828D01*
X61000000Y-110500000D02*
X61000000Y-109000000D01*
X60745616Y-104000000D02*
X60745616Y-106701000D01*
X54550000Y-96500000D02*
X52720616Y-96500000D01*
X72345616Y-104415614D02*
X72220616Y-104290614D01*
X59500000Y-99000000D02*
X60745616Y-100245616D01*
X59695616Y-105050000D02*
X60745616Y-104000000D01*
X78719616Y-101791614D02*
X76219616Y-101791614D01*
X42020616Y-102716938D02*
X44353678Y-105050000D01*
X61316614Y-110816614D02*
X61000000Y-110500000D01*
X84145965Y-107865265D02*
X83046314Y-106765614D01*
X57050000Y-99000000D02*
X59500000Y-99000000D01*
X84546314Y-108265614D02*
X84145965Y-107865265D01*
X32833116Y-96500000D02*
X32633116Y-96700000D01*
X34500000Y-96500000D02*
X36000000Y-98000000D01*
X54550000Y-96500000D02*
X57050000Y-99000000D01*
%TO.N,GND*%
X49595073Y-95354927D02*
X49500000Y-95450000D01*
X81198820Y-105218818D02*
X81245616Y-105265614D01*
X78745616Y-109265614D02*
X78695616Y-109265614D01*
X23600000Y-106900000D02*
X23500000Y-107000000D01*
X70500000Y-106550000D02*
X70500000Y-106500000D01*
X74920616Y-103440614D02*
X76245616Y-104765614D01*
X78745616Y-109215614D02*
X78745616Y-109265614D01*
X85245616Y-110165614D02*
X85245616Y-110265614D01*
X81145965Y-104143083D02*
X81384525Y-103904523D01*
X74920616Y-103265614D02*
X74920616Y-103440614D01*
X108500000Y-107000000D02*
X107500000Y-107000000D01*
X79745616Y-110265614D02*
X78745616Y-109265614D01*
X46050000Y-96000000D02*
X46000000Y-96000000D01*
X72995616Y-108015614D02*
X72745616Y-108265614D01*
X39400000Y-106900000D02*
X39500000Y-107000000D01*
X80070230Y-105218818D02*
X79884525Y-105404523D01*
X29858116Y-96700000D02*
X27925000Y-96700000D01*
X106230000Y-104450000D02*
X106230000Y-105730000D01*
X27925000Y-96700000D02*
X26550000Y-95325000D01*
X50481769Y-95354927D02*
X49595073Y-95354927D01*
X58900000Y-106900000D02*
X59000000Y-107000000D01*
X50733116Y-95606274D02*
X50481769Y-95354927D01*
X49745616Y-96700000D02*
X49150000Y-96700000D01*
X94245616Y-107100000D02*
X94400000Y-107100000D01*
X36400000Y-96500000D02*
X36500000Y-96500000D01*
X56450000Y-96500000D02*
X56500000Y-96500000D01*
X110040000Y-104450000D02*
X110040000Y-105460000D01*
X107500000Y-104450000D02*
X107500000Y-107000000D01*
X43400000Y-106900000D02*
X43500000Y-107000000D01*
X106230000Y-105730000D02*
X107500000Y-107000000D01*
X110040000Y-105460000D02*
X108500000Y-107000000D01*
X49150000Y-96700000D02*
X49000000Y-96550000D01*
X81145965Y-105218818D02*
X81198820Y-105218818D01*
X81145965Y-106665963D02*
X81245616Y-106765614D01*
X43200000Y-106900000D02*
X43400000Y-106900000D01*
X101245616Y-101765614D02*
X101245616Y-108265614D01*
X78695616Y-109265614D02*
X77695616Y-110265614D01*
X81145965Y-105218818D02*
X81698820Y-105218818D01*
X72995616Y-107165614D02*
X72995616Y-108015614D01*
X76245616Y-104815614D02*
X76245616Y-104765614D01*
X94400000Y-107100000D02*
X94500000Y-107000000D01*
X58800000Y-106900000D02*
X58900000Y-106900000D01*
X77695616Y-110765614D02*
X77695616Y-110315614D01*
X39300000Y-106900000D02*
X39400000Y-106900000D01*
X23700000Y-106900000D02*
X23600000Y-106900000D01*
X80295616Y-110265614D02*
X79745616Y-110265614D01*
X50733116Y-96112500D02*
X50733116Y-95606274D01*
X82698820Y-105218818D02*
X82745616Y-105265614D01*
%TO.N,Net-(U2-PA9)*%
X76570616Y-103265614D02*
X76745616Y-103265614D01*
X76745616Y-103265614D02*
X77745616Y-102265614D01*
X77745616Y-102265614D02*
X79253421Y-102265614D01*
X79253421Y-102265614D02*
X79952722Y-102964915D01*
%TO.N,Net-(U2-PA3)*%
X99000000Y-100000000D02*
X97205124Y-100000000D01*
X119550000Y-109272182D02*
X119227818Y-108950000D01*
X118944974Y-108950000D02*
X118500000Y-108505026D01*
X118500000Y-110500000D02*
X118500000Y-109777818D01*
X120000000Y-112771230D02*
X120000000Y-112000000D01*
X84106975Y-104732682D02*
X84282160Y-104732682D01*
X118772182Y-110050000D02*
X119227818Y-110050000D01*
X118500000Y-108505026D02*
X118500000Y-106500000D01*
X111000000Y-98000000D02*
X112000000Y-99000000D01*
X119227818Y-108950000D02*
X118944974Y-108950000D01*
X84282160Y-104732682D02*
X89249228Y-99765614D01*
X119005616Y-113765614D02*
X120000000Y-112771230D01*
X119227818Y-110050000D02*
X119550000Y-109727818D01*
X112000000Y-99000000D02*
X112000000Y-100000000D01*
X89249228Y-99765614D02*
X96970738Y-99765614D01*
X118500000Y-109777818D02*
X118772182Y-110050000D01*
X118500000Y-106500000D02*
X112000000Y-100000000D01*
X119550000Y-109727818D02*
X119550000Y-109272182D01*
X111000000Y-98000000D02*
X106500000Y-98000000D01*
X96970738Y-99765614D02*
X97205124Y-100000000D01*
%TO.N,Net-(U2-PA2)*%
X84667635Y-106265614D02*
X84106975Y-105704954D01*
X85695616Y-105265614D02*
X85745616Y-105315614D01*
X85745616Y-105765614D02*
X85245616Y-106265614D01*
X87245616Y-103265614D02*
X87745616Y-102765614D01*
X85745616Y-105315614D02*
X85745616Y-105765614D01*
X87745616Y-102765614D02*
X89333116Y-102765614D01*
X85245616Y-106265614D02*
X84667635Y-106265614D01*
%TO.N,Net-(J1-~{RESET})*%
X110040000Y-101352000D02*
X110040000Y-100550000D01*
X82692761Y-107212759D02*
X83245616Y-107765614D01*
X88245616Y-110813614D02*
X100745616Y-110813614D01*
X96011230Y-109000000D02*
X96745616Y-108265614D01*
X109040000Y-102352000D02*
X110040000Y-101352000D01*
X85284874Y-107226356D02*
X86245616Y-106265614D01*
X96745616Y-101765614D02*
X96745616Y-108265614D01*
X84284874Y-107226356D02*
X85284874Y-107226356D01*
X104698000Y-102352000D02*
X109040000Y-102352000D01*
X94245616Y-109000000D02*
X96011230Y-109000000D01*
X86245616Y-108813614D02*
X88245616Y-110813614D01*
X97345616Y-101165614D02*
X96745616Y-101765614D01*
X86245616Y-106265614D02*
X86245616Y-108813614D01*
X96295616Y-108265614D02*
X96745616Y-108265614D01*
X95245616Y-100265614D02*
X96745616Y-101765614D01*
X100745616Y-110813614D02*
X102496616Y-109062614D01*
X86245616Y-106265614D02*
X86245616Y-103265614D01*
X89245616Y-100265614D02*
X95245616Y-100265614D01*
X102496616Y-104553384D02*
X104698000Y-102352000D01*
X110040000Y-100550000D02*
X110040000Y-101380000D01*
X102496616Y-109062614D02*
X102496616Y-104553384D01*
X86245616Y-103265614D02*
X89245616Y-100265614D01*
X82692761Y-107119167D02*
X82692761Y-107212759D01*
%TO.N,Net-(J1-SWCLK{slash}TCK)*%
X105581000Y-102001000D02*
X106230000Y-101352000D01*
X83745616Y-99265614D02*
X101603614Y-99265614D01*
X104339000Y-102001000D02*
X105581000Y-102001000D01*
X77749737Y-104297464D02*
X78184955Y-104732682D01*
X101603614Y-99265614D02*
X104339000Y-102001000D01*
X106230000Y-101352000D02*
X106230000Y-100550000D01*
X83245616Y-99765614D02*
X83745616Y-99265614D01*
X77434936Y-104297464D02*
X77749737Y-104297464D01*
%TO.N,Net-(J1-SWDIO{slash}TMS)*%
X81245616Y-97765224D02*
X81245616Y-97765614D01*
X82246006Y-98765614D02*
X81245616Y-97765224D01*
X78245616Y-104086236D02*
X78538509Y-104379129D01*
X104705616Y-100045614D02*
X103425616Y-98765614D01*
X78245616Y-103315614D02*
X78245616Y-104086236D01*
X103425616Y-98765614D02*
X82246006Y-98765614D01*
%TO.N,Net-(U3-VREG)*%
X50220616Y-96000000D02*
X50333116Y-96112500D01*
X47950000Y-96000000D02*
X50220616Y-96000000D01*
%TO.N,Net-(U5-VREG)*%
X29237500Y-96112500D02*
X30445616Y-96112500D01*
X28450000Y-95325000D02*
X29237500Y-96112500D01*
%TO.N,Net-(U5-REXT)*%
X25000000Y-97650000D02*
X25550000Y-97100000D01*
X25550000Y-97100000D02*
X29858116Y-97100000D01*
%TO.N,Net-(U3-REXT)*%
X47225000Y-97100000D02*
X46325000Y-98000000D01*
X46325000Y-98000000D02*
X44650000Y-98000000D01*
X49745616Y-97100000D02*
X47225000Y-97100000D01*
X44675000Y-98000000D02*
X44500000Y-98000000D01*
%TO.N,Net-(U2-PA10)*%
X78896014Y-103047938D02*
X79328638Y-103047938D01*
X51133116Y-95511299D02*
X51133116Y-96112500D01*
X76178264Y-103991614D02*
X76962968Y-103991614D01*
X79328638Y-103047938D02*
X79599169Y-103318469D01*
X30845616Y-95650000D02*
X30845616Y-96112500D01*
X31245616Y-96112500D02*
X31245616Y-95250000D01*
X31245616Y-95250000D02*
X30845616Y-95650000D01*
X75919616Y-103732966D02*
X76178264Y-103991614D01*
X67017844Y-100265614D02*
X62252230Y-95500000D01*
X44275000Y-97275000D02*
X46425000Y-97275000D01*
X75245616Y-102265614D02*
X75919616Y-102939614D01*
X47000000Y-96700000D02*
X47000000Y-96000000D01*
X70646616Y-101440614D02*
X69471616Y-100265614D01*
X61825816Y-95075000D02*
X51569415Y-95075000D01*
X77221616Y-103732966D02*
X77221616Y-103286002D01*
X72570616Y-102265614D02*
X75245616Y-102265614D01*
X42500000Y-95500000D02*
X44275000Y-97275000D01*
X76962968Y-103991614D02*
X77221616Y-103732966D01*
X46425000Y-97275000D02*
X47000000Y-96700000D01*
X77221616Y-103286002D02*
X77742004Y-102765614D01*
X31872616Y-94623000D02*
X40673000Y-94623000D01*
X40673000Y-94623000D02*
X41000000Y-94950000D01*
X78613690Y-102765614D02*
X78896014Y-103047938D01*
X51569415Y-95075000D02*
X51133116Y-95511299D01*
X77742004Y-102765614D02*
X78613690Y-102765614D01*
X71745616Y-101440614D02*
X70646616Y-101440614D01*
X75919616Y-102939614D02*
X75919616Y-103732966D01*
X69471616Y-100265614D02*
X67017844Y-100265614D01*
X62252230Y-95500000D02*
X62250816Y-95500000D01*
X71745616Y-101440614D02*
X72570616Y-102265614D01*
X62250816Y-95500000D02*
X61825816Y-95075000D01*
X31245616Y-95250000D02*
X31872616Y-94623000D01*
%TO.N,Net-(U2-PA4)*%
X77070616Y-101440614D02*
X77070616Y-101429384D01*
X41550000Y-95177818D02*
X41550000Y-95000000D01*
X40450000Y-95177818D02*
X40772182Y-95500000D01*
X31645616Y-96112500D02*
X31645616Y-95606274D01*
X40450000Y-95000000D02*
X40450000Y-95177818D01*
X32251242Y-95411900D02*
X32663142Y-95000000D01*
X81000000Y-98519998D02*
X84023952Y-101543950D01*
X51116193Y-97017573D02*
X50996767Y-97017573D01*
X84023952Y-101543950D02*
X84023952Y-104108598D01*
X42275000Y-94725000D02*
X61973618Y-94725000D01*
X65295662Y-97765614D02*
X66015024Y-98484976D01*
X31861890Y-95390000D02*
X32229342Y-95390000D01*
X51533116Y-96600650D02*
X51116193Y-97017573D01*
X81000000Y-98500000D02*
X81000000Y-98519998D01*
X51533116Y-95606274D02*
X51533116Y-96112500D01*
X84023952Y-104108598D02*
X83753421Y-104379129D01*
X77070616Y-101440614D02*
X73245616Y-101440614D01*
X42000000Y-95000000D02*
X42275000Y-94725000D01*
X70289978Y-98484976D02*
X73245616Y-101440614D01*
X61973618Y-94725000D02*
X65014233Y-97765614D01*
X80000000Y-98500000D02*
X81000000Y-98500000D01*
X65014233Y-97765614D02*
X65295662Y-97765614D01*
X51533116Y-96112500D02*
X51533116Y-96600650D01*
X40772182Y-95500000D02*
X41227818Y-95500000D01*
X66015024Y-98484976D02*
X70289978Y-98484976D01*
X77070616Y-101429384D02*
X80000000Y-98500000D01*
X41550000Y-95000000D02*
X42000000Y-95000000D01*
X31645616Y-95606274D02*
X31861890Y-95390000D01*
X41227818Y-95500000D02*
X41550000Y-95177818D01*
X32229342Y-95390000D02*
X32251242Y-95411900D01*
X32663142Y-95000000D02*
X40450000Y-95000000D01*
%TO.N,Net-(U2-PA5)*%
X40289034Y-98950000D02*
X44500000Y-98950000D01*
X36864034Y-95525000D02*
X40289034Y-98950000D01*
X61000000Y-96675000D02*
X61000000Y-95925000D01*
X53500000Y-96000000D02*
X52045616Y-96000000D01*
X54075000Y-95425000D02*
X53500000Y-96000000D01*
X73092799Y-106390614D02*
X72646456Y-106390614D01*
X83473952Y-101904523D02*
X83672952Y-102103523D01*
X83672952Y-102103523D02*
X83672952Y-103752491D01*
X72646456Y-106390614D02*
X61680842Y-95425000D01*
X61500000Y-95425000D02*
X54075000Y-95425000D01*
X61000000Y-95925000D02*
X61500000Y-95425000D01*
X32633116Y-95525000D02*
X36864034Y-95525000D01*
X61680842Y-95425000D02*
X61500000Y-95425000D01*
X83672952Y-103752491D02*
X83399868Y-104025575D01*
X52045616Y-96000000D02*
X51933116Y-96112500D01*
X32045616Y-96112500D02*
X32633116Y-95525000D01*
%TO.N,Net-(U3-ELE0)*%
X42745616Y-100675000D02*
X43920616Y-99500000D01*
X46780668Y-98650000D02*
X47830668Y-97600000D01*
X47830668Y-97600000D02*
X47900000Y-97600000D01*
X45855026Y-98650000D02*
X46780668Y-98650000D01*
X48000000Y-97500000D02*
X49745616Y-97500000D01*
X43920616Y-99500000D02*
X45005026Y-99500000D01*
X47900000Y-97600000D02*
X48000000Y-97500000D01*
X45005026Y-99500000D02*
X45855026Y-98650000D01*
%TO.N,Net-(U3-ELE1)*%
X48600000Y-97900000D02*
X49745616Y-97900000D01*
X46000000Y-99000000D02*
X46925642Y-99000000D01*
X48550000Y-97950000D02*
X48600000Y-97900000D01*
X44325000Y-100675000D02*
X46000000Y-99000000D01*
X46925642Y-99000000D02*
X47975642Y-97950000D01*
X44245616Y-100675000D02*
X44325000Y-100675000D01*
X47975642Y-97950000D02*
X48550000Y-97950000D01*
%TO.N,Net-(U3-ELE2)*%
X45745616Y-100675000D02*
X48120616Y-98300000D01*
X48120616Y-98300000D02*
X49745616Y-98300000D01*
%TO.N,Net-(U3-ELE3)*%
X47245616Y-100675000D02*
X49033116Y-98887500D01*
X49033116Y-98887500D02*
X50195616Y-98887500D01*
%TO.N,Net-(U3-LED0{slash}ELE4)*%
X50126842Y-100000000D02*
X49420616Y-100000000D01*
X48745616Y-100675000D02*
X48928256Y-100675000D01*
X50733116Y-98887500D02*
X50733116Y-99393726D01*
X49420616Y-100000000D02*
X48745616Y-100675000D01*
X50733116Y-99393726D02*
X50126842Y-100000000D01*
%TO.N,Net-(U3-LED1{slash}ELE5)*%
X51133116Y-99787500D02*
X50245616Y-100675000D01*
X51133116Y-98887500D02*
X51133116Y-99787500D01*
%TO.N,Net-(U3-LED2{slash}ELE6)*%
X51533116Y-98887500D02*
X51533116Y-100462500D01*
X51533116Y-100462500D02*
X51745616Y-100675000D01*
%TO.N,Net-(U3-LED3{slash}ELE7)*%
X51933116Y-99362500D02*
X53245616Y-100675000D01*
X53245616Y-100262500D02*
X53245616Y-100675000D01*
X51933116Y-98887500D02*
X51933116Y-99362500D01*
%TO.N,Net-(U3-LED4{slash}ELE8)*%
X54363968Y-100675000D02*
X54745616Y-100675000D01*
X52520616Y-98300000D02*
X54745616Y-100525000D01*
X54745616Y-100525000D02*
X54745616Y-100675000D01*
%TO.N,Net-(U3-LED5{slash}ELE9)*%
X56245616Y-100675000D02*
X53470616Y-97900000D01*
X53470616Y-97900000D02*
X52520616Y-97900000D01*
%TO.N,Net-(U3-LED6{slash}ELE10)*%
X53615590Y-97550000D02*
X53550000Y-97550000D01*
X56712554Y-100025000D02*
X56090590Y-100025000D01*
X53500000Y-97500000D02*
X52520616Y-97500000D01*
X56970616Y-100675000D02*
X56970616Y-100283062D01*
X56970616Y-100283062D02*
X56712554Y-100025000D01*
X57745616Y-100675000D02*
X56970616Y-100675000D01*
X53550000Y-97550000D02*
X53500000Y-97500000D01*
X56090590Y-100025000D02*
X53615590Y-97550000D01*
%TO.N,Net-(U3-LED7{slash}ELE11)*%
X57278678Y-100025000D02*
X57243103Y-100060575D01*
X53760564Y-97200000D02*
X53694974Y-97200000D01*
X58470616Y-100283062D02*
X58212554Y-100025000D01*
X59245616Y-100675000D02*
X58470616Y-100675000D01*
X53644974Y-97150000D02*
X53150000Y-97150000D01*
X53100000Y-97100000D02*
X52520616Y-97100000D01*
X58212554Y-100025000D02*
X57278678Y-100025000D01*
X56235564Y-99675000D02*
X53760564Y-97200000D01*
X53694974Y-97200000D02*
X53644974Y-97150000D01*
X57243103Y-100060575D02*
X56857528Y-99675000D01*
X53150000Y-97150000D02*
X53100000Y-97100000D01*
X58470616Y-100675000D02*
X58470616Y-100283062D01*
X56857528Y-99675000D02*
X56235564Y-99675000D01*
%TO.N,Net-(U5-ELE0)*%
X23500000Y-100675000D02*
X26675000Y-97500000D01*
X26675000Y-97500000D02*
X29858116Y-97500000D01*
%TO.N,Net-(U5-ELE1)*%
X25000000Y-100675000D02*
X27775000Y-97900000D01*
X27775000Y-97900000D02*
X29858116Y-97900000D01*
%TO.N,Net-(U5-ELE2)*%
X28875000Y-98300000D02*
X29858116Y-98300000D01*
X26500000Y-100675000D02*
X28875000Y-98300000D01*
%TO.N,Net-(U5-ELE3)*%
X28000000Y-100675000D02*
X29787500Y-98887500D01*
X29787500Y-98887500D02*
X30445616Y-98887500D01*
%TO.N,Net-(U5-LED0{slash}ELE4)*%
X30845616Y-99393726D02*
X30845616Y-98887500D01*
X29882640Y-100675000D02*
X29500000Y-100675000D01*
X29564342Y-100675000D02*
X30845616Y-99393726D01*
X29500000Y-100675000D02*
X29564342Y-100675000D01*
%TO.N,Net-(U5-LED1{slash}ELE5)*%
X31000000Y-100675000D02*
X31245616Y-100429384D01*
X31245616Y-100429384D02*
X31245616Y-98887500D01*
%TO.N,Net-(U5-LED2{slash}ELE6)*%
X32500000Y-100675000D02*
X31645616Y-99820616D01*
X31645616Y-99820616D02*
X31645616Y-98887500D01*
%TO.N,Net-(U5-LED3{slash}ELE7)*%
X33833116Y-100675000D02*
X32045616Y-98887500D01*
X34000000Y-100650000D02*
X34000000Y-100675000D01*
X34000000Y-100675000D02*
X33833116Y-100675000D01*
%TO.N,Net-(U5-LED4{slash}ELE8)*%
X35500000Y-100675000D02*
X33125000Y-98300000D01*
X33125000Y-98300000D02*
X32633116Y-98300000D01*
X35200000Y-100675000D02*
X35500000Y-100675000D01*
%TO.N,Net-(U5-LED5{slash}ELE9)*%
X33165000Y-97940000D02*
X33125000Y-97900000D01*
X37000000Y-100675000D02*
X35325000Y-99000000D01*
X35325000Y-99000000D02*
X34319974Y-99000000D01*
X33189342Y-97950000D02*
X33179342Y-97940000D01*
X33269974Y-97950000D02*
X33189342Y-97950000D01*
X33125000Y-97900000D02*
X32633116Y-97900000D01*
X33179342Y-97940000D02*
X33165000Y-97940000D01*
X34319974Y-99000000D02*
X33269974Y-97950000D01*
%TO.N,Net-(U5-LED6{slash}ELE10)*%
X33269974Y-97550000D02*
X33171266Y-97550000D01*
X33171266Y-97550000D02*
X32683116Y-97550000D01*
X35469974Y-98650000D02*
X34464948Y-98650000D01*
X33324316Y-97590000D02*
X33309975Y-97590000D01*
X33334317Y-97600000D02*
X33324316Y-97590000D01*
X32683116Y-97550000D02*
X32633116Y-97500000D01*
X35819974Y-99000000D02*
X35469974Y-98650000D01*
X38500000Y-100675000D02*
X36825000Y-99000000D01*
X33414948Y-97600000D02*
X33334317Y-97600000D01*
X34464948Y-98650000D02*
X33414948Y-97600000D01*
X36825000Y-99000000D02*
X35819974Y-99000000D01*
X33309975Y-97590000D02*
X33269974Y-97550000D01*
%TO.N,Net-(U5-LED7{slash}ELE11)*%
X33221265Y-97199999D02*
X33171266Y-97150000D01*
X40000000Y-100675000D02*
X38325000Y-99000000D01*
X33454949Y-97240000D02*
X33414949Y-97200000D01*
X33469290Y-97239999D02*
X33454949Y-97240000D01*
X33479291Y-97250000D02*
X33469290Y-97239999D01*
X35614948Y-98300000D02*
X34609922Y-98300000D01*
X37319974Y-99000000D02*
X36969974Y-98650000D01*
X33559922Y-97250000D02*
X33479291Y-97250000D01*
X32778090Y-97150000D02*
X32683116Y-97150000D01*
X34609922Y-98300000D02*
X33559922Y-97250000D01*
X38325000Y-99000000D02*
X37319974Y-99000000D01*
X33414949Y-97200000D02*
X33414944Y-97199998D01*
X35964948Y-98650000D02*
X35614948Y-98300000D01*
X33171266Y-97150000D02*
X32778090Y-97150000D01*
X32683116Y-97150000D02*
X32633116Y-97100000D01*
X33414944Y-97199998D02*
X33221265Y-97199999D01*
X36969974Y-98650000D02*
X35964948Y-98650000D01*
%TO.N,+4.5V*%
D47*
X113620000Y-112500000D02*
X115200002Y-112500000D01*
X126231230Y-104000000D02*
X116465616Y-113765614D01*
X113620000Y-112500000D02*
X111925000Y-114195000D01*
X82000000Y-113500000D02*
X77500000Y-113500000D01*
X174000000Y-104000000D02*
X126231230Y-104000000D01*
X72045616Y-107465614D02*
X72345616Y-107165614D01*
X115200002Y-112500000D02*
X116465616Y-113765614D01*
X71450000Y-108450000D02*
X72045616Y-109045616D01*
X70500000Y-108450000D02*
X71450000Y-108450000D01*
X73645616Y-109354384D02*
X73645616Y-107165614D01*
X82695000Y-114195000D02*
X82000000Y-113500000D01*
X73000000Y-110000000D02*
X73645616Y-109354384D01*
X77500000Y-113500000D02*
X74500000Y-113500000D01*
X74500000Y-113500000D02*
X73500000Y-112500000D01*
X111925000Y-114195000D02*
X82695000Y-114195000D01*
X73000000Y-110000000D02*
X72045616Y-109045616D01*
X72045616Y-109045616D02*
X72045616Y-107465614D01*
%TO.N,Net-(U6-TX)*%
D46*
X121545616Y-113765614D02*
X121545616Y-112045616D01*
X91000000Y-102428755D02*
X90910628Y-102518127D01*
X91000000Y-101000000D02*
X91000000Y-102428755D01*
X94000000Y-98000000D02*
X105000000Y-98000000D01*
X111500000Y-99940000D02*
X111500000Y-102000000D01*
X106000000Y-99000000D02*
X110560000Y-99000000D01*
X110560000Y-99000000D02*
X111500000Y-99940000D01*
X121545616Y-112045616D02*
X120500000Y-111000000D01*
X105000000Y-98000000D02*
X106000000Y-99000000D01*
X111500000Y-102000000D02*
X119000000Y-109500000D01*
%TO.N,Net-(U6-SPK1)*%
X136750000Y-112000000D02*
X130931230Y-112000000D01*
X130931230Y-112000000D02*
X129165616Y-113765614D01*
X138250000Y-113500000D02*
X136750000Y-112000000D01*
%TO.N,Net-(U6-SPK2)*%
X139500000Y-113541938D02*
X138641938Y-114400000D01*
X134880002Y-114400000D02*
X134245616Y-113765614D01*
X139500000Y-113500000D02*
X139500000Y-113541938D01*
X138641938Y-114400000D02*
X134880002Y-114400000D01*
%TO.N,Net-(J2-Pad9)*%
X53500000Y-104150000D02*
X53500000Y-103570616D01*
X53500000Y-103570616D02*
X54745616Y-102325000D01*
%TO.N,Net-(J2-Pad5)*%
X49500000Y-103079384D02*
X48745616Y-102325000D01*
X49500000Y-104150000D02*
X49500000Y-103079384D01*
%TO.N,Net-(J2-Pad8)*%
X52500000Y-103070616D02*
X53245616Y-102325000D01*
X52500000Y-104150000D02*
X52500000Y-103070616D01*
%TO.N,Net-(J2-Pad12)*%
X56500000Y-104150000D02*
X57420616Y-104150000D01*
X57420616Y-104150000D02*
X59245616Y-102325000D01*
%TO.N,Net-(J2-Pad3)*%
X47500000Y-104150000D02*
X47500000Y-103800000D01*
X47500000Y-103800000D02*
X46025000Y-102325000D01*
X46025000Y-102325000D02*
X45745616Y-102325000D01*
%TO.N,Net-(J2-Pad4)*%
X47245616Y-102325000D02*
X47245616Y-102420616D01*
X48500000Y-104150000D02*
X48500000Y-103579384D01*
X48500000Y-103579384D02*
X47245616Y-102325000D01*
%TO.N,Net-(J2-Pad10)*%
X55975000Y-102325000D02*
X56245616Y-102325000D01*
X54500000Y-103800000D02*
X55975000Y-102325000D01*
X54500000Y-104150000D02*
X54500000Y-103800000D01*
%TO.N,Net-(J2-Pad7)*%
X51500000Y-102570616D02*
X51745616Y-102325000D01*
X51500000Y-104150000D02*
X51500000Y-102570616D01*
%TO.N,Net-(J2-Pad11)*%
X55500000Y-103800000D02*
X56300000Y-103000000D01*
X57070616Y-103000000D02*
X57745616Y-102325000D01*
X55500000Y-104150000D02*
X55500000Y-103800000D01*
X56300000Y-103000000D02*
X57070616Y-103000000D01*
%TO.N,Net-(J2-Pad6)*%
X50500000Y-104150000D02*
X50500000Y-102579384D01*
X50500000Y-102579384D02*
X50245616Y-102325000D01*
%TO.N,Net-(J2-Pad1)*%
X45500000Y-104150000D02*
X44570616Y-104150000D01*
X44570616Y-104150000D02*
X42745616Y-102325000D01*
%TO.N,Net-(J2-Pad2)*%
X46500000Y-104150000D02*
X46500000Y-103800000D01*
X45700000Y-103000000D02*
X44920616Y-103000000D01*
X46500000Y-103800000D02*
X45700000Y-103000000D01*
X44920616Y-103000000D02*
X44245616Y-102325000D01*
%TO.N,Net-(J3-Pad8)*%
X33000000Y-103325000D02*
X34000000Y-102325000D01*
X33000000Y-104150000D02*
X33000000Y-103325000D01*
%TO.N,Net-(J3-Pad5)*%
X30000000Y-104150000D02*
X30000000Y-102825000D01*
X30000000Y-102825000D02*
X29500000Y-102325000D01*
%TO.N,Net-(J3-Pad10)*%
X35000000Y-103800000D02*
X35800000Y-103000000D01*
X35800000Y-103000000D02*
X36325000Y-103000000D01*
X36325000Y-103000000D02*
X37000000Y-102325000D01*
X35000000Y-104150000D02*
X35000000Y-103800000D01*
%TO.N,Net-(J3-Pad4)*%
X29000000Y-104150000D02*
X29000000Y-103325000D01*
X29000000Y-103325000D02*
X28000000Y-102325000D01*
%TO.N,Net-(J3-Pad2)*%
X27000000Y-104150000D02*
X27000000Y-103800000D01*
X26200000Y-103000000D02*
X25675000Y-103000000D01*
X25675000Y-103000000D02*
X25000000Y-102325000D01*
X27000000Y-103800000D02*
X26200000Y-103000000D01*
%TO.N,Net-(J3-Pad1)*%
X26000000Y-104150000D02*
X25325000Y-104150000D01*
X25325000Y-104150000D02*
X23500000Y-102325000D01*
%TO.N,Net-(J3-Pad12)*%
X40000000Y-102325000D02*
X40000000Y-102754384D01*
X38175000Y-104150000D02*
X40000000Y-102325000D01*
X37000000Y-104150000D02*
X38175000Y-104150000D01*
%TO.N,Net-(J3-Pad6)*%
X31000000Y-104150000D02*
X31000000Y-102325000D01*
%TO.N,Net-(J3-Pad7)*%
X32000000Y-104150000D02*
X32000000Y-102825000D01*
X32000000Y-102825000D02*
X32500000Y-102325000D01*
%TO.N,Net-(J3-Pad3)*%
X28000000Y-104150000D02*
X28000000Y-103825000D01*
X28000000Y-103825000D02*
X26500000Y-102325000D01*
%TO.N,Net-(J3-Pad11)*%
X36000000Y-103819975D02*
X36844975Y-102975000D01*
X36000000Y-104150000D02*
X36000000Y-103819975D01*
X37850000Y-102975000D02*
X38500000Y-102325000D01*
X36844975Y-102975000D02*
X37850000Y-102975000D01*
%TO.N,Net-(J3-Pad9)*%
X34000000Y-104150000D02*
X34000000Y-103825000D01*
X34000000Y-103825000D02*
X35500000Y-102325000D01*
%TD*%
M02*
