%TF.GenerationSoftware,KiCad,Pcbnew,9.0.3*%
%TF.CreationDate,2026-03-08T14:36:49+00:00*%
%TF.ProjectId,vibook,7669626f-6f6b-42e6-9b69-6361645f7063,rev?*%
%TF.SameCoordinates,Original*%
%TF.FileFunction,Soldermask,Top*%
%TF.FilePolarity,Negative*%
%FSLAX46Y46*%
G04 Gerber Fmt 4.6, Leading zero omitted, Abs format (unit mm)*
G04 Created by KiCad (PCBNEW 9.0.3) date 2026-03-08 14:36:49*
%MOMM*%
%LPD*%
G01*
G04 APERTURE LIST*
G04 Aperture macros list*
%AMRoundRect*
0 Rectangle with rounded corners*
0 $1 Rounding radius*
0 $2 $3 $4 $5 $6 $7 $8 $9 X,Y pos of 4 corners*
0 Add a 4 corners polygon primitive as box body*
4,1,4,$2,$3,$4,$5,$6,$7,$8,$9,$2,$3,0*
0 Add four circle primitives for the rounded corners*
1,1,$1+$1,$2,$3*
1,1,$1+$1,$4,$5*
1,1,$1+$1,$6,$7*
1,1,$1+$1,$8,$9*
0 Add four rect primitives between the rounded corners*
20,1,$1+$1,$2,$3,$4,$5,0*
20,1,$1+$1,$4,$5,$6,$7,0*
20,1,$1+$1,$6,$7,$8,$9,0*
20,1,$1+$1,$8,$9,$2,$3,0*%
G04 Aperture macros list end*
%ADD10R,2.600000X2.600000*%
%ADD11R,0.850000X0.300000*%
%ADD12R,0.300000X0.850000*%
%ADD13R,2.510000X1.000000*%
%ADD14RoundRect,0.250000X0.250000X0.475000X-0.250000X0.475000X-0.250000X-0.475000X0.250000X-0.475000X0*%
%ADD15RoundRect,0.250000X-0.250000X-0.475000X0.250000X-0.475000X0.250000X0.475000X-0.250000X0.475000X0*%
%ADD16R,2.400000X0.740000*%
%ADD17RoundRect,0.250000X0.450000X-0.262500X0.450000X0.262500X-0.450000X0.262500X-0.450000X-0.262500X0*%
%ADD18RoundRect,0.250000X-0.262500X-0.450000X0.262500X-0.450000X0.262500X0.450000X-0.262500X0.450000X0*%
%ADD19RoundRect,0.250000X-0.475000X0.250000X-0.475000X-0.250000X0.475000X-0.250000X0.475000X0.250000X0*%
%ADD20RoundRect,0.250000X0.475000X-0.250000X0.475000X0.250000X-0.475000X0.250000X-0.475000X-0.250000X0*%
%ADD21RoundRect,0.250000X0.262500X0.450000X-0.262500X0.450000X-0.262500X-0.450000X0.262500X-0.450000X0*%
%ADD22C,2.000000*%
%ADD23RoundRect,0.062500X-0.375000X-0.062500X0.375000X-0.062500X0.375000X0.062500X-0.375000X0.062500X0*%
%ADD24RoundRect,0.062500X-0.062500X-0.375000X0.062500X-0.375000X0.062500X0.375000X-0.062500X0.375000X0*%
%ADD25R,3.450000X3.450000*%
%ADD26RoundRect,0.100000X-0.130000X-0.100000X0.130000X-0.100000X0.130000X0.100000X-0.130000X0.100000X0*%
G04 APERTURE END LIST*
D10*
%TO.C,IC2*%
X140550000Y-70750000D03*
D11*
X142500000Y-69500000D03*
X142500000Y-70000000D03*
X142500000Y-70500000D03*
X142500000Y-71000000D03*
X142500000Y-71500000D03*
X142500000Y-72000000D03*
D12*
X141800000Y-72700000D03*
X141300000Y-72700000D03*
X140800000Y-72700000D03*
X140300000Y-72700000D03*
X139800000Y-72700000D03*
X139300000Y-72700000D03*
D11*
X138600000Y-72000000D03*
X138600000Y-71500000D03*
X138600000Y-71000000D03*
X138600000Y-70500000D03*
X138600000Y-70000000D03*
X138600000Y-69500000D03*
D12*
X139300000Y-68800000D03*
X139800000Y-68800000D03*
X140300000Y-68800000D03*
X140800000Y-68800000D03*
X141300000Y-68800000D03*
X141800000Y-68800000D03*
%TD*%
D13*
%TO.C,U6*%
X132655000Y-152230000D03*
X129345000Y-154770000D03*
%TD*%
D14*
%TO.C,C6*%
X133500000Y-134000000D03*
X131600000Y-134000000D03*
%TD*%
D15*
%TO.C,C13*%
X135550000Y-64000000D03*
X137450000Y-64000000D03*
%TD*%
D16*
%TO.C,J1*%
X134550000Y-172460000D03*
X138450000Y-172460000D03*
X134550000Y-173730000D03*
X138450000Y-173730000D03*
X134550000Y-175000000D03*
X138450000Y-175000000D03*
X134550000Y-176270000D03*
X138450000Y-176270000D03*
X134550000Y-177540000D03*
X138450000Y-177540000D03*
%TD*%
D17*
%TO.C,R5*%
X143000000Y-144412500D03*
X143000000Y-142587500D03*
%TD*%
D15*
%TO.C,C7*%
X135050000Y-68000000D03*
X136950000Y-68000000D03*
%TD*%
D18*
%TO.C,R4*%
X138500000Y-140000000D03*
X140325000Y-140000000D03*
%TD*%
D19*
%TO.C,C17*%
X144550000Y-95550000D03*
X144550000Y-97450000D03*
%TD*%
D20*
%TO.C,C9*%
X128000000Y-142450000D03*
X128000000Y-140550000D03*
%TD*%
D21*
%TO.C,R2*%
X144412500Y-65500000D03*
X142587500Y-65500000D03*
%TD*%
D19*
%TO.C,C5*%
X143000000Y-162100000D03*
X143000000Y-164000000D03*
%TD*%
D14*
%TO.C,C2*%
X132450000Y-142000000D03*
X130550000Y-142000000D03*
%TD*%
%TO.C,C1*%
X132450000Y-145000000D03*
X130550000Y-145000000D03*
%TD*%
D13*
%TO.C,U4*%
X132310000Y-56800000D03*
X129000000Y-59340000D03*
X132310000Y-61880000D03*
X129000000Y-64420000D03*
X132310000Y-66960000D03*
X129000000Y-69500000D03*
X132310000Y-72040000D03*
X129000000Y-74580000D03*
X132310000Y-77120000D03*
X129000000Y-79660000D03*
X132310000Y-82200000D03*
X129000000Y-84740000D03*
%TD*%
D18*
%TO.C,R6*%
X143087500Y-105500000D03*
X144912500Y-105500000D03*
%TD*%
D15*
%TO.C,C8*%
X135000000Y-101000000D03*
X136900000Y-101000000D03*
%TD*%
D22*
%TO.C,SW3*%
X133500000Y-161500000D03*
X140000000Y-161500000D03*
X133500000Y-166000000D03*
X140000000Y-166000000D03*
%TD*%
D12*
%TO.C,IC1*%
X142500000Y-99100000D03*
X142000000Y-99100000D03*
X141500000Y-99100000D03*
X141000000Y-99100000D03*
X140500000Y-99100000D03*
X140000000Y-99100000D03*
D11*
X139300000Y-99800000D03*
X139300000Y-100300000D03*
X139300000Y-100800000D03*
X139300000Y-101300000D03*
X139300000Y-101800000D03*
X139300000Y-102300000D03*
D12*
X140000000Y-103000000D03*
X140500000Y-103000000D03*
X141000000Y-103000000D03*
X141500000Y-103000000D03*
X142000000Y-103000000D03*
X142500000Y-103000000D03*
D11*
X143200000Y-102300000D03*
X143200000Y-101800000D03*
X143200000Y-101300000D03*
X143200000Y-100800000D03*
X143200000Y-100300000D03*
X143200000Y-99800000D03*
D10*
X141250000Y-101050000D03*
%TD*%
D11*
%TO.C,IC3*%
X130100000Y-136500000D03*
X130100000Y-137000000D03*
X130100000Y-137500000D03*
X130100000Y-138000000D03*
X130100000Y-138500000D03*
X130100000Y-139000000D03*
D12*
X130800000Y-139700000D03*
X131300000Y-139700000D03*
X131800000Y-139700000D03*
X132300000Y-139700000D03*
X132800000Y-139700000D03*
X133300000Y-139700000D03*
D11*
X134000000Y-139000000D03*
X134000000Y-138500000D03*
X134000000Y-138000000D03*
X134000000Y-137500000D03*
X134000000Y-137000000D03*
X134000000Y-136500000D03*
D12*
X133300000Y-135800000D03*
X132800000Y-135800000D03*
X132300000Y-135800000D03*
X131800000Y-135800000D03*
X131300000Y-135800000D03*
X130800000Y-135800000D03*
D10*
X132050000Y-137750000D03*
%TD*%
D15*
%TO.C,C12*%
X135600000Y-97000000D03*
X137500000Y-97000000D03*
%TD*%
D13*
%TO.C,U9*%
X132655000Y-128500000D03*
X129345000Y-131040000D03*
%TD*%
D23*
%TO.C,U2*%
X134412500Y-143100000D03*
X134412500Y-143600000D03*
X134412500Y-144100000D03*
X134412500Y-144600000D03*
X134412500Y-145100000D03*
X134412500Y-145600000D03*
X134412500Y-146100000D03*
X134412500Y-146600000D03*
D24*
X135100000Y-147287500D03*
X135600000Y-147287500D03*
X136100000Y-147287500D03*
X136600000Y-147287500D03*
X137100000Y-147287500D03*
X137600000Y-147287500D03*
X138100000Y-147287500D03*
X138600000Y-147287500D03*
D23*
X139287500Y-146600000D03*
X139287500Y-146100000D03*
X139287500Y-145600000D03*
X139287500Y-145100000D03*
X139287500Y-144600000D03*
X139287500Y-144100000D03*
X139287500Y-143600000D03*
X139287500Y-143100000D03*
D24*
X138600000Y-142412500D03*
X138100000Y-142412500D03*
X137600000Y-142412500D03*
X137100000Y-142412500D03*
X136600000Y-142412500D03*
X136100000Y-142412500D03*
X135600000Y-142412500D03*
X135100000Y-142412500D03*
D25*
X136850000Y-144850000D03*
%TD*%
D26*
%TO.C,R1*%
X140680000Y-145000000D03*
X141320000Y-145000000D03*
%TD*%
D21*
%TO.C,R3*%
X144912500Y-93000000D03*
X143087500Y-93000000D03*
%TD*%
D20*
%TO.C,C16*%
X144000000Y-62950000D03*
X144000000Y-61050000D03*
%TD*%
D14*
%TO.C,C11*%
X137500000Y-66000000D03*
X135600000Y-66000000D03*
%TD*%
%TO.C,C10*%
X137500000Y-99000000D03*
X135600000Y-99000000D03*
%TD*%
D19*
%TO.C,C4*%
X139000000Y-149000000D03*
X139000000Y-150900000D03*
%TD*%
D13*
%TO.C,U1*%
X132310000Y-89420000D03*
X129000000Y-91960000D03*
X132310000Y-94500000D03*
X129000000Y-97040000D03*
X132310000Y-99580000D03*
X129000000Y-102120000D03*
X132310000Y-104660000D03*
X129000000Y-107200000D03*
X132310000Y-109740000D03*
X129000000Y-112280000D03*
X132310000Y-114820000D03*
X129000000Y-117360000D03*
%TD*%
D15*
%TO.C,C15*%
X135550000Y-95000000D03*
X137450000Y-95000000D03*
%TD*%
%TO.C,C14*%
X135550000Y-62000000D03*
X137450000Y-62000000D03*
%TD*%
D19*
%TO.C,C3*%
X141500000Y-146550000D03*
X141500000Y-148450000D03*
%TD*%
M02*
