%TF.GenerationSoftware,KiCad,Pcbnew,9.0.3*%
%TF.CreationDate,2026-03-08T14:36:49+00:00*%
%TF.ProjectId,vibook,7669626f-6f6b-42e6-9b69-6361645f7063,rev?*%
%TF.SameCoordinates,Original*%
%TF.FileFunction,Legend,Top*%
%TF.FilePolarity,Positive*%
%FSLAX46Y46*%
G04 Gerber Fmt 4.6, Leading zero omitted, Abs format (unit mm)*
G04 Created by KiCad (PCBNEW 9.0.3) date 2026-03-08 14:36:49*
%MOMM*%
%LPD*%
G01*
G04 APERTURE LIST*
%ADD10C,0.100000*%
%ADD11C,0.150000*%
%ADD12C,0.250000*%
%ADD13C,0.120000*%
G04 APERTURE END LIST*
D10*
X127327693Y-128920038D02*
X127232455Y-128872419D01*
X127232455Y-128872419D02*
X127089598Y-128872419D01*
X127089598Y-128872419D02*
X126946741Y-128920038D01*
X126946741Y-128920038D02*
X126851503Y-129015276D01*
X126851503Y-129015276D02*
X126803884Y-129110514D01*
X126803884Y-129110514D02*
X126756265Y-129300990D01*
X126756265Y-129300990D02*
X126756265Y-129443847D01*
X126756265Y-129443847D02*
X126803884Y-129634323D01*
X126803884Y-129634323D02*
X126851503Y-129729561D01*
X126851503Y-129729561D02*
X126946741Y-129824800D01*
X126946741Y-129824800D02*
X127089598Y-129872419D01*
X127089598Y-129872419D02*
X127184836Y-129872419D01*
X127184836Y-129872419D02*
X127327693Y-129824800D01*
X127327693Y-129824800D02*
X127375312Y-129777180D01*
X127375312Y-129777180D02*
X127375312Y-129443847D01*
X127375312Y-129443847D02*
X127184836Y-129443847D01*
X127803884Y-129205752D02*
X127803884Y-129872419D01*
X127803884Y-129300990D02*
X127851503Y-129253371D01*
X127851503Y-129253371D02*
X127946741Y-129205752D01*
X127946741Y-129205752D02*
X128089598Y-129205752D01*
X128089598Y-129205752D02*
X128184836Y-129253371D01*
X128184836Y-129253371D02*
X128232455Y-129348609D01*
X128232455Y-129348609D02*
X128232455Y-129872419D01*
X129137217Y-129872419D02*
X129137217Y-128872419D01*
X129137217Y-129824800D02*
X129041979Y-129872419D01*
X129041979Y-129872419D02*
X128851503Y-129872419D01*
X128851503Y-129872419D02*
X128756265Y-129824800D01*
X128756265Y-129824800D02*
X128708646Y-129777180D01*
X128708646Y-129777180D02*
X128661027Y-129681942D01*
X128661027Y-129681942D02*
X128661027Y-129396228D01*
X128661027Y-129396228D02*
X128708646Y-129300990D01*
X128708646Y-129300990D02*
X128756265Y-129253371D01*
X128756265Y-129253371D02*
X128851503Y-129205752D01*
X128851503Y-129205752D02*
X129041979Y-129205752D01*
X129041979Y-129205752D02*
X129137217Y-129253371D01*
X132541027Y-125992419D02*
X132874360Y-126992419D01*
X132874360Y-126992419D02*
X133207693Y-125992419D01*
X133541027Y-126992419D02*
X133541027Y-126325752D01*
X133541027Y-125992419D02*
X133493408Y-126040038D01*
X133493408Y-126040038D02*
X133541027Y-126087657D01*
X133541027Y-126087657D02*
X133588646Y-126040038D01*
X133588646Y-126040038D02*
X133541027Y-125992419D01*
X133541027Y-125992419D02*
X133541027Y-126087657D01*
X134017217Y-126325752D02*
X134017217Y-126992419D01*
X134017217Y-126420990D02*
X134064836Y-126373371D01*
X134064836Y-126373371D02*
X134160074Y-126325752D01*
X134160074Y-126325752D02*
X134302931Y-126325752D01*
X134302931Y-126325752D02*
X134398169Y-126373371D01*
X134398169Y-126373371D02*
X134445788Y-126468609D01*
X134445788Y-126468609D02*
X134445788Y-126992419D01*
X130875312Y-157372419D02*
X130541979Y-156896228D01*
X130303884Y-157372419D02*
X130303884Y-156372419D01*
X130303884Y-156372419D02*
X130684836Y-156372419D01*
X130684836Y-156372419D02*
X130780074Y-156420038D01*
X130780074Y-156420038D02*
X130827693Y-156467657D01*
X130827693Y-156467657D02*
X130875312Y-156562895D01*
X130875312Y-156562895D02*
X130875312Y-156705752D01*
X130875312Y-156705752D02*
X130827693Y-156800990D01*
X130827693Y-156800990D02*
X130780074Y-156848609D01*
X130780074Y-156848609D02*
X130684836Y-156896228D01*
X130684836Y-156896228D02*
X130303884Y-156896228D01*
X131208646Y-157372419D02*
X131732455Y-156705752D01*
X131208646Y-156705752D02*
X131732455Y-157372419D01*
X133161027Y-153372419D02*
X133732455Y-153372419D01*
X133446741Y-154372419D02*
X133446741Y-153372419D01*
X133970551Y-154372419D02*
X134494360Y-153705752D01*
X133970551Y-153705752D02*
X134494360Y-154372419D01*
D11*
X130238095Y-149304819D02*
X130238095Y-150114342D01*
X130238095Y-150114342D02*
X130285714Y-150209580D01*
X130285714Y-150209580D02*
X130333333Y-150257200D01*
X130333333Y-150257200D02*
X130428571Y-150304819D01*
X130428571Y-150304819D02*
X130619047Y-150304819D01*
X130619047Y-150304819D02*
X130714285Y-150257200D01*
X130714285Y-150257200D02*
X130761904Y-150209580D01*
X130761904Y-150209580D02*
X130809523Y-150114342D01*
X130809523Y-150114342D02*
X130809523Y-149304819D01*
X131714285Y-149304819D02*
X131523809Y-149304819D01*
X131523809Y-149304819D02*
X131428571Y-149352438D01*
X131428571Y-149352438D02*
X131380952Y-149400057D01*
X131380952Y-149400057D02*
X131285714Y-149542914D01*
X131285714Y-149542914D02*
X131238095Y-149733390D01*
X131238095Y-149733390D02*
X131238095Y-150114342D01*
X131238095Y-150114342D02*
X131285714Y-150209580D01*
X131285714Y-150209580D02*
X131333333Y-150257200D01*
X131333333Y-150257200D02*
X131428571Y-150304819D01*
X131428571Y-150304819D02*
X131619047Y-150304819D01*
X131619047Y-150304819D02*
X131714285Y-150257200D01*
X131714285Y-150257200D02*
X131761904Y-150209580D01*
X131761904Y-150209580D02*
X131809523Y-150114342D01*
X131809523Y-150114342D02*
X131809523Y-149876247D01*
X131809523Y-149876247D02*
X131761904Y-149781009D01*
X131761904Y-149781009D02*
X131714285Y-149733390D01*
X131714285Y-149733390D02*
X131619047Y-149685771D01*
X131619047Y-149685771D02*
X131428571Y-149685771D01*
X131428571Y-149685771D02*
X131333333Y-149733390D01*
X131333333Y-149733390D02*
X131285714Y-149781009D01*
X131285714Y-149781009D02*
X131238095Y-149876247D01*
X136166666Y-170169819D02*
X136166666Y-170884104D01*
X136166666Y-170884104D02*
X136119047Y-171026961D01*
X136119047Y-171026961D02*
X136023809Y-171122200D01*
X136023809Y-171122200D02*
X135880952Y-171169819D01*
X135880952Y-171169819D02*
X135785714Y-171169819D01*
X137166666Y-171169819D02*
X136595238Y-171169819D01*
X136880952Y-171169819D02*
X136880952Y-170169819D01*
X136880952Y-170169819D02*
X136785714Y-170312676D01*
X136785714Y-170312676D02*
X136690476Y-170407914D01*
X136690476Y-170407914D02*
X136595238Y-170455533D01*
X145039580Y-163216666D02*
X145087200Y-163264285D01*
X145087200Y-163264285D02*
X145134819Y-163407142D01*
X145134819Y-163407142D02*
X145134819Y-163502380D01*
X145134819Y-163502380D02*
X145087200Y-163645237D01*
X145087200Y-163645237D02*
X144991961Y-163740475D01*
X144991961Y-163740475D02*
X144896723Y-163788094D01*
X144896723Y-163788094D02*
X144706247Y-163835713D01*
X144706247Y-163835713D02*
X144563390Y-163835713D01*
X144563390Y-163835713D02*
X144372914Y-163788094D01*
X144372914Y-163788094D02*
X144277676Y-163740475D01*
X144277676Y-163740475D02*
X144182438Y-163645237D01*
X144182438Y-163645237D02*
X144134819Y-163502380D01*
X144134819Y-163502380D02*
X144134819Y-163407142D01*
X144134819Y-163407142D02*
X144182438Y-163264285D01*
X144182438Y-163264285D02*
X144230057Y-163216666D01*
X144134819Y-162311904D02*
X144134819Y-162788094D01*
X144134819Y-162788094D02*
X144611009Y-162835713D01*
X144611009Y-162835713D02*
X144563390Y-162788094D01*
X144563390Y-162788094D02*
X144515771Y-162692856D01*
X144515771Y-162692856D02*
X144515771Y-162454761D01*
X144515771Y-162454761D02*
X144563390Y-162359523D01*
X144563390Y-162359523D02*
X144611009Y-162311904D01*
X144611009Y-162311904D02*
X144706247Y-162264285D01*
X144706247Y-162264285D02*
X144944342Y-162264285D01*
X144944342Y-162264285D02*
X145039580Y-162311904D01*
X145039580Y-162311904D02*
X145087200Y-162359523D01*
X145087200Y-162359523D02*
X145134819Y-162454761D01*
X145134819Y-162454761D02*
X145134819Y-162692856D01*
X145134819Y-162692856D02*
X145087200Y-162788094D01*
X145087200Y-162788094D02*
X145039580Y-162835713D01*
X131333333Y-147039580D02*
X131285714Y-147087200D01*
X131285714Y-147087200D02*
X131142857Y-147134819D01*
X131142857Y-147134819D02*
X131047619Y-147134819D01*
X131047619Y-147134819D02*
X130904762Y-147087200D01*
X130904762Y-147087200D02*
X130809524Y-146991961D01*
X130809524Y-146991961D02*
X130761905Y-146896723D01*
X130761905Y-146896723D02*
X130714286Y-146706247D01*
X130714286Y-146706247D02*
X130714286Y-146563390D01*
X130714286Y-146563390D02*
X130761905Y-146372914D01*
X130761905Y-146372914D02*
X130809524Y-146277676D01*
X130809524Y-146277676D02*
X130904762Y-146182438D01*
X130904762Y-146182438D02*
X131047619Y-146134819D01*
X131047619Y-146134819D02*
X131142857Y-146134819D01*
X131142857Y-146134819D02*
X131285714Y-146182438D01*
X131285714Y-146182438D02*
X131333333Y-146230057D01*
X132285714Y-147134819D02*
X131714286Y-147134819D01*
X132000000Y-147134819D02*
X132000000Y-146134819D01*
X132000000Y-146134819D02*
X131904762Y-146277676D01*
X131904762Y-146277676D02*
X131809524Y-146372914D01*
X131809524Y-146372914D02*
X131714286Y-146420533D01*
X135416667Y-159907200D02*
X135559524Y-159954819D01*
X135559524Y-159954819D02*
X135797619Y-159954819D01*
X135797619Y-159954819D02*
X135892857Y-159907200D01*
X135892857Y-159907200D02*
X135940476Y-159859580D01*
X135940476Y-159859580D02*
X135988095Y-159764342D01*
X135988095Y-159764342D02*
X135988095Y-159669104D01*
X135988095Y-159669104D02*
X135940476Y-159573866D01*
X135940476Y-159573866D02*
X135892857Y-159526247D01*
X135892857Y-159526247D02*
X135797619Y-159478628D01*
X135797619Y-159478628D02*
X135607143Y-159431009D01*
X135607143Y-159431009D02*
X135511905Y-159383390D01*
X135511905Y-159383390D02*
X135464286Y-159335771D01*
X135464286Y-159335771D02*
X135416667Y-159240533D01*
X135416667Y-159240533D02*
X135416667Y-159145295D01*
X135416667Y-159145295D02*
X135464286Y-159050057D01*
X135464286Y-159050057D02*
X135511905Y-159002438D01*
X135511905Y-159002438D02*
X135607143Y-158954819D01*
X135607143Y-158954819D02*
X135845238Y-158954819D01*
X135845238Y-158954819D02*
X135988095Y-159002438D01*
X136321429Y-158954819D02*
X136559524Y-159954819D01*
X136559524Y-159954819D02*
X136750000Y-159240533D01*
X136750000Y-159240533D02*
X136940476Y-159954819D01*
X136940476Y-159954819D02*
X137178572Y-158954819D01*
X137464286Y-158954819D02*
X138083333Y-158954819D01*
X138083333Y-158954819D02*
X137750000Y-159335771D01*
X137750000Y-159335771D02*
X137892857Y-159335771D01*
X137892857Y-159335771D02*
X137988095Y-159383390D01*
X137988095Y-159383390D02*
X138035714Y-159431009D01*
X138035714Y-159431009D02*
X138083333Y-159526247D01*
X138083333Y-159526247D02*
X138083333Y-159764342D01*
X138083333Y-159764342D02*
X138035714Y-159859580D01*
X138035714Y-159859580D02*
X137988095Y-159907200D01*
X137988095Y-159907200D02*
X137892857Y-159954819D01*
X137892857Y-159954819D02*
X137607143Y-159954819D01*
X137607143Y-159954819D02*
X137511905Y-159907200D01*
X137511905Y-159907200D02*
X137464286Y-159859580D01*
X141039580Y-150116666D02*
X141087200Y-150164285D01*
X141087200Y-150164285D02*
X141134819Y-150307142D01*
X141134819Y-150307142D02*
X141134819Y-150402380D01*
X141134819Y-150402380D02*
X141087200Y-150545237D01*
X141087200Y-150545237D02*
X140991961Y-150640475D01*
X140991961Y-150640475D02*
X140896723Y-150688094D01*
X140896723Y-150688094D02*
X140706247Y-150735713D01*
X140706247Y-150735713D02*
X140563390Y-150735713D01*
X140563390Y-150735713D02*
X140372914Y-150688094D01*
X140372914Y-150688094D02*
X140277676Y-150640475D01*
X140277676Y-150640475D02*
X140182438Y-150545237D01*
X140182438Y-150545237D02*
X140134819Y-150402380D01*
X140134819Y-150402380D02*
X140134819Y-150307142D01*
X140134819Y-150307142D02*
X140182438Y-150164285D01*
X140182438Y-150164285D02*
X140230057Y-150116666D01*
X140468152Y-149259523D02*
X141134819Y-149259523D01*
X140087200Y-149497618D02*
X140801485Y-149735713D01*
X140801485Y-149735713D02*
X140801485Y-149116666D01*
X129893095Y-86494819D02*
X129893095Y-87304342D01*
X129893095Y-87304342D02*
X129940714Y-87399580D01*
X129940714Y-87399580D02*
X129988333Y-87447200D01*
X129988333Y-87447200D02*
X130083571Y-87494819D01*
X130083571Y-87494819D02*
X130274047Y-87494819D01*
X130274047Y-87494819D02*
X130369285Y-87447200D01*
X130369285Y-87447200D02*
X130416904Y-87399580D01*
X130416904Y-87399580D02*
X130464523Y-87304342D01*
X130464523Y-87304342D02*
X130464523Y-86494819D01*
X131464523Y-87494819D02*
X130893095Y-87494819D01*
X131178809Y-87494819D02*
X131178809Y-86494819D01*
X131178809Y-86494819D02*
X131083571Y-86637676D01*
X131083571Y-86637676D02*
X130988333Y-86732914D01*
X130988333Y-86732914D02*
X130893095Y-86780533D01*
D12*
%TO.C,IC2*%
X142675000Y-68375000D02*
G75*
G02*
X142425000Y-68375000I-125000J0D01*
G01*
X142425000Y-68375000D02*
G75*
G02*
X142675000Y-68375000I125000J0D01*
G01*
D13*
%TO.C,U6*%
X129620000Y-150850000D02*
X129620000Y-153960000D01*
X129620000Y-150850000D02*
X132380000Y-150850000D01*
X129620000Y-151420000D02*
X129620000Y-153960000D01*
X129620000Y-155580000D02*
X129620000Y-156150000D01*
X129620000Y-156150000D02*
X132380000Y-156150000D01*
X132380000Y-150850000D02*
X132380000Y-151420000D01*
X132380000Y-151420000D02*
X133850000Y-151420000D01*
X132380000Y-153040000D02*
X132380000Y-156150000D01*
%TO.C,C6*%
X132811252Y-133265000D02*
X132288748Y-133265000D01*
X132811252Y-134735000D02*
X132288748Y-134735000D01*
%TO.C,C13*%
X136238748Y-63265000D02*
X136761252Y-63265000D01*
X136238748Y-64735000D02*
X136761252Y-64735000D01*
%TO.C,J1*%
X133410000Y-171780000D02*
X134685000Y-171780000D01*
X134685000Y-171715000D02*
X134685000Y-171780000D01*
X134685000Y-171715000D02*
X138315000Y-171715000D01*
X134685000Y-178220000D02*
X134685000Y-178285000D01*
X134685000Y-178285000D02*
X138315000Y-178285000D01*
X138315000Y-171715000D02*
X138315000Y-171780000D01*
X138315000Y-178220000D02*
X138315000Y-178285000D01*
%TO.C,R5*%
X142265000Y-143727064D02*
X142265000Y-143272936D01*
X143735000Y-143727064D02*
X143735000Y-143272936D01*
%TO.C,C7*%
X135738748Y-67265000D02*
X136261252Y-67265000D01*
X135738748Y-68735000D02*
X136261252Y-68735000D01*
%TO.C,R4*%
X139185436Y-139265000D02*
X139639564Y-139265000D01*
X139185436Y-140735000D02*
X139639564Y-140735000D01*
%TO.C,C17*%
X143815000Y-96238748D02*
X143815000Y-96761252D01*
X145285000Y-96238748D02*
X145285000Y-96761252D01*
%TO.C,C9*%
X128735000Y-141761252D02*
X128735000Y-141238748D01*
X127265000Y-141761252D02*
X127265000Y-141238748D01*
%TO.C,R2*%
X143727064Y-64765000D02*
X143272936Y-64765000D01*
X143727064Y-66235000D02*
X143272936Y-66235000D01*
%TO.C,C5*%
X143735000Y-162788748D02*
X143735000Y-163311252D01*
X142265000Y-162788748D02*
X142265000Y-163311252D01*
%TO.C,C2*%
X131761252Y-141265000D02*
X131238748Y-141265000D01*
X131761252Y-142735000D02*
X131238748Y-142735000D01*
%TO.C,C1*%
X131761252Y-144265000D02*
X131238748Y-144265000D01*
X131761252Y-145735000D02*
X131238748Y-145735000D01*
%TO.C,U4*%
X129275000Y-55420000D02*
X129275000Y-58530000D01*
X129275000Y-55420000D02*
X132035000Y-55420000D01*
X129275000Y-55990000D02*
X129275000Y-58530000D01*
X129275000Y-60150000D02*
X129275000Y-63610000D01*
X129275000Y-65230000D02*
X129275000Y-68690000D01*
X129275000Y-70310000D02*
X129275000Y-73770000D01*
X129275000Y-75390000D02*
X129275000Y-78850000D01*
X129275000Y-80470000D02*
X129275000Y-83930000D01*
X129275000Y-85550000D02*
X129275000Y-86120000D01*
X129275000Y-86120000D02*
X132035000Y-86120000D01*
X132035000Y-55420000D02*
X132035000Y-55990000D01*
X132035000Y-55990000D02*
X133505000Y-55990000D01*
X132035000Y-57610000D02*
X132035000Y-61070000D01*
X132035000Y-62690000D02*
X132035000Y-66150000D01*
X132035000Y-67770000D02*
X132035000Y-71230000D01*
X132035000Y-72850000D02*
X132035000Y-76310000D01*
X132035000Y-77930000D02*
X132035000Y-81390000D01*
X132035000Y-83010000D02*
X132035000Y-86120000D01*
%TO.C,R6*%
X143772936Y-104765000D02*
X144227064Y-104765000D01*
X143772936Y-106235000D02*
X144227064Y-106235000D01*
%TO.C,C8*%
X135688748Y-100265000D02*
X136211252Y-100265000D01*
X135688748Y-101735000D02*
X136211252Y-101735000D01*
%TO.C,SW3*%
X133250000Y-163000000D02*
X133250000Y-164500000D01*
X134500000Y-167000000D02*
X139000000Y-167000000D01*
X139000000Y-160500000D02*
X134500000Y-160500000D01*
X140250000Y-164500000D02*
X140250000Y-163000000D01*
D12*
%TO.C,IC1*%
X143375000Y-98675000D02*
G75*
G02*
X143125000Y-98675000I-125000J0D01*
G01*
X143125000Y-98675000D02*
G75*
G02*
X143375000Y-98675000I125000J0D01*
G01*
%TO.C,IC3*%
X129800000Y-135750000D02*
G75*
G02*
X129550000Y-135750000I-125000J0D01*
G01*
X129550000Y-135750000D02*
G75*
G02*
X129800000Y-135750000I125000J0D01*
G01*
D13*
%TO.C,C12*%
X136288748Y-96265000D02*
X136811252Y-96265000D01*
X136288748Y-97735000D02*
X136811252Y-97735000D01*
%TO.C,U9*%
X129620000Y-127120000D02*
X129620000Y-130230000D01*
X129620000Y-127120000D02*
X132380000Y-127120000D01*
X129620000Y-127690000D02*
X129620000Y-130230000D01*
X129620000Y-131850000D02*
X129620000Y-132420000D01*
X129620000Y-132420000D02*
X132380000Y-132420000D01*
X132380000Y-127120000D02*
X132380000Y-127690000D01*
X132380000Y-127690000D02*
X133850000Y-127690000D01*
X132380000Y-129310000D02*
X132380000Y-132420000D01*
%TO.C,U2*%
X134240000Y-142715000D02*
X134240000Y-142480000D01*
X134240000Y-147460000D02*
X134240000Y-146985000D01*
X134715000Y-142240000D02*
X134540000Y-142240000D01*
X134715000Y-147460000D02*
X134240000Y-147460000D01*
X138985000Y-142240000D02*
X139460000Y-142240000D01*
X138985000Y-147460000D02*
X139460000Y-147460000D01*
X139460000Y-142240000D02*
X139460000Y-142715000D01*
X139460000Y-147460000D02*
X139460000Y-146985000D01*
X134240000Y-142240000D02*
X134000000Y-141910000D01*
X134480000Y-141910000D01*
X134240000Y-142240000D01*
G36*
X134240000Y-142240000D02*
G01*
X134000000Y-141910000D01*
X134480000Y-141910000D01*
X134240000Y-142240000D01*
G37*
%TO.C,R3*%
X144227064Y-92265000D02*
X143772936Y-92265000D01*
X144227064Y-93735000D02*
X143772936Y-93735000D01*
%TO.C,C16*%
X144735000Y-62261252D02*
X144735000Y-61738748D01*
X143265000Y-62261252D02*
X143265000Y-61738748D01*
%TO.C,C11*%
X136811252Y-65265000D02*
X136288748Y-65265000D01*
X136811252Y-66735000D02*
X136288748Y-66735000D01*
%TO.C,C10*%
X136811252Y-98265000D02*
X136288748Y-98265000D01*
X136811252Y-99735000D02*
X136288748Y-99735000D01*
%TO.C,C4*%
X138265000Y-149688748D02*
X138265000Y-150211252D01*
X139735000Y-149688748D02*
X139735000Y-150211252D01*
%TO.C,U1*%
X129275000Y-88040000D02*
X129275000Y-91150000D01*
X129275000Y-88040000D02*
X132035000Y-88040000D01*
X129275000Y-88610000D02*
X129275000Y-91150000D01*
X129275000Y-92770000D02*
X129275000Y-96230000D01*
X129275000Y-97850000D02*
X129275000Y-101310000D01*
X129275000Y-102930000D02*
X129275000Y-106390000D01*
X129275000Y-108010000D02*
X129275000Y-111470000D01*
X129275000Y-113090000D02*
X129275000Y-116550000D01*
X129275000Y-118170000D02*
X129275000Y-118740000D01*
X129275000Y-118740000D02*
X132035000Y-118740000D01*
X132035000Y-88040000D02*
X132035000Y-88610000D01*
X132035000Y-88610000D02*
X133505000Y-88610000D01*
X132035000Y-90230000D02*
X132035000Y-93690000D01*
X132035000Y-95310000D02*
X132035000Y-98770000D01*
X132035000Y-100390000D02*
X132035000Y-103850000D01*
X132035000Y-105470000D02*
X132035000Y-108930000D01*
X132035000Y-110550000D02*
X132035000Y-114010000D01*
X132035000Y-115630000D02*
X132035000Y-118740000D01*
%TO.C,C15*%
X136238748Y-94265000D02*
X136761252Y-94265000D01*
X136238748Y-95735000D02*
X136761252Y-95735000D01*
%TO.C,C14*%
X136238748Y-61265000D02*
X136761252Y-61265000D01*
X136238748Y-62735000D02*
X136761252Y-62735000D01*
%TO.C,C3*%
X140765000Y-147238748D02*
X140765000Y-147761252D01*
X142235000Y-147238748D02*
X142235000Y-147761252D01*
%TD*%
M02*
