M48
; DRILL file {KiCad 9.0.3} date 2026-03-08T14:37:15+0000
; FORMAT={-:-/ absolute / metric / decimal}
; #@! TF.CreationDate,2026-03-08T14:37:15+00:00
; #@! TF.GenerationSoftware,Kicad,Pcbnew,9.0.3
; #@! TF.FileFunction,Plated,1,2,PTH
FMAT,2
METRIC
; #@! TA.AperFunction,Plated,PTH,ViaDrill
T1C0.300
; #@! TA.AperFunction,Plated,PTH,ComponentDrill
T2C1.100
%
G90
G05
T1
X128.0Y-133.0
X128.5Y-137.05
X129.0Y-143.5
X132.0Y-175.0
X132.45Y-145.0
X132.5Y-143.474
X133.5Y-148.0
X134.5Y-66.0
X134.5Y-98.0
X134.952Y-153.048
X135.0Y-134.0
X135.5Y-144.5
X135.95Y-146.0
X136.0Y-102.5
X136.0Y-152.5
X136.5Y-148.45
X137.05Y-144.604
X137.5Y-143.5
X137.5Y-145.0
X137.5Y-146.0
X137.5Y-148.5
X138.109Y-100.609
X138.361Y-67.639
X140.5Y-142.5
X140.5Y-143.5
X141.5Y-106.5
X141.5Y-150.5
X141.551Y-144.051
X142.0Y-93.0
X142.5Y-67.0
X143.0Y-60.0
X143.5Y-107.0
X143.812Y-91.5
X144.0Y-90.5
X144.0Y-104.0
X144.333Y-146.333
X144.362Y-100.891
X144.45Y-101.636
X145.0Y-99.5
X145.0Y-144.5
X145.5Y-131.0
T2
X133.5Y-161.5
X133.5Y-166.0
X140.0Y-161.5
X140.0Y-166.0
M30
