M48
; DRILL file KiCad 10.0.0 date 2026-04-02T19:21:07
; FORMAT={-:-/ absolute / metric / decimal}
; #@! TF.CreationDate,2026-04-02T19:21:07+01:00
; #@! TF.GenerationSoftware,Kicad,Pcbnew,10.0.0
; #@! TF.FileFunction,MixedPlating,1,2
FMAT,2
METRIC
; #@! TA.AperFunction,Plated,PTH,ViaDrill
T1C0.300
; #@! TA.AperFunction,Plated,PTH,ViaDrill
T2C0.400
; #@! TA.AperFunction,Plated,PTH,ComponentDrill
T3C0.500
; #@! TA.AperFunction,Plated,PTH,ComponentDrill
T4C0.800
; #@! TA.AperFunction,Plated,PTH,ComponentDrill
T5C1.000
; #@! TA.AperFunction,Plated,PTH,ComponentDrill
T6C1.100
%
G90
G05
T1
X23.5Y-107.0
X25.0Y-96.0
X26.55Y-95.325
X36.5Y-96.5
X39.5Y-107.0
X41.0Y-94.95
X42.5Y-95.5
X43.0Y-98.0
X43.5Y-107.0
X44.5Y-98.95
X46.0Y-96.0
X47.0Y-96.0
X49.0Y-94.8
X49.0Y-96.55
X49.5Y-95.45
X50.997Y-97.018
X53.0Y-95.275
X53.725Y-95.625
X56.5Y-96.5
X59.0Y-107.0
X63.504Y-106.5
X65.75Y-108.266
X66.097Y-106.391
X66.25Y-103.091
X68.889Y-102.127
X69.25Y-104.766
X70.439Y-104.297
X71.25Y-103.316
X71.75Y-109.266
X72.889Y-105.405
X73.594Y-99.922
X73.75Y-106.266
X73.889Y-104.405
X74.25Y-97.766
X74.25Y-105.266
X74.25Y-106.766
X74.389Y-103.905
X75.25Y-104.766
X75.25Y-105.766
X75.75Y-105.266
X76.25Y-99.766
X76.25Y-107.766
X76.478Y-101.905
X77.289Y-107.226
X78.25Y-110.266
X78.7Y-105.266
X80.25Y-103.266
X84.004Y-101.0
X87.004Y-98.0
X87.504Y-107.0
X92.004Y-100.0
X99.504Y-98.0
X99.504Y-110.5
X99.504Y-111.5
X99.504Y-113.0
X100.504Y-107.0
X111.5Y-109.5
X112.5Y-109.0
X113.5Y-111.5
X114.5Y-110.5
T2
X66.004Y-110.0
X66.504Y-112.5
T3
X141.25Y-113.0
X142.5Y-113.0
T4
X109.61Y-95.483
X109.61Y-113.517
X112.15Y-95.483
X112.15Y-113.517
X114.69Y-95.483
X114.69Y-113.517
X117.23Y-95.483
X117.23Y-113.517
X119.77Y-95.483
X119.77Y-113.517
X122.31Y-95.483
X122.31Y-113.517
X124.85Y-95.483
X124.85Y-113.517
X127.39Y-95.483
X127.39Y-113.517
T5
X141.115Y-102.96
X141.115Y-105.5
T6
X89.75Y-101.766
X89.75Y-108.266
X94.25Y-101.766
X94.25Y-108.266
M30
