%TF.GenerationSoftware,KiCad,Pcbnew,10.0.0*%
%TF.CreationDate,2026-04-02T19:20:58+01:00*%
%TF.ProjectId,vibook,7669626f-6f6b-42e6-9b69-6361645f7063,rev?*%
%TF.SameCoordinates,Original*%
%TF.FileFunction,Soldermask,Top*%
%TF.FilePolarity,Negative*%
%FSLAX46Y46*%
G04 Gerber Fmt 4.6, Leading zero omitted, Abs format (unit mm)*
G04 Created by KiCad (PCBNEW 10.0.0) date 2026-04-02 19:20:58*
%MOMM*%
%LPD*%
G01*
G04 APERTURE LIST*
G04 Aperture macros list*
%AMRoundRect*
0 Rectangle with rounded corners*
0 $1 Rounding radius*
0 $2 $3 $4 $5 $6 $7 $8 $9 X,Y pos of 4 corners*
0 Add a 4 corners polygon primitive as box body*
4,1,4,$2,$3,$4,$5,$6,$7,$8,$9,$2,$3,0*
0 Add four circle primitives for the rounded corners*
1,1,$1+$1,$2,$3*
1,1,$1+$1,$4,$5*
1,1,$1+$1,$6,$7*
1,1,$1+$1,$8,$9*
0 Add four rect primitives between the rounded corners*
20,1,$1+$1,$2,$3,$4,$5,0*
20,1,$1+$1,$4,$5,$6,$7,0*
20,1,$1+$1,$6,$7,$8,$9,0*
20,1,$1+$1,$8,$9,$2,$3,0*%
%AMRotRect*
0 Rectangle, with rotation*
0 The origin of the aperture is its center*
0 $1 length*
0 $2 width*
0 $3 Rotation angle, in degrees counterclockwise*
0 Add horizontal line*
21,1,$1,$2,0,0,$3*%
%AMFreePoly0*
4,1,14,0.354215,0.088284,0.450784,-0.008285,0.462500,-0.036569,0.462500,-0.060000,0.450784,-0.088284,0.422500,-0.100000,-0.422500,-0.100000,-0.450784,-0.088284,-0.462500,-0.060000,-0.462500,0.060000,-0.450784,0.088284,-0.422500,0.100000,0.325931,0.100000,0.354215,0.088284,0.354215,0.088284,$1*%
%AMFreePoly1*
4,1,14,0.450784,0.088284,0.462500,0.060000,0.462500,0.036569,0.450784,0.008285,0.354215,-0.088284,0.325931,-0.100000,-0.422500,-0.100000,-0.450784,-0.088284,-0.462500,-0.060000,-0.462500,0.060000,-0.450784,0.088284,-0.422500,0.100000,0.422500,0.100000,0.450784,0.088284,0.450784,0.088284,$1*%
%AMFreePoly2*
4,1,14,0.088284,0.450784,0.100000,0.422500,0.100000,-0.422500,0.088284,-0.450784,0.060000,-0.462500,-0.060000,-0.462500,-0.088284,-0.450784,-0.100000,-0.422500,-0.100000,0.325931,-0.088284,0.354215,0.008285,0.450784,0.036569,0.462500,0.060000,0.462500,0.088284,0.450784,0.088284,0.450784,$1*%
%AMFreePoly3*
4,1,14,-0.008285,0.450784,0.088284,0.354215,0.100000,0.325931,0.100000,-0.422500,0.088284,-0.450784,0.060000,-0.462500,-0.060000,-0.462500,-0.088284,-0.450784,-0.100000,-0.422500,-0.100000,0.422500,-0.088284,0.450784,-0.060000,0.462500,-0.036569,0.462500,-0.008285,0.450784,-0.008285,0.450784,$1*%
%AMFreePoly4*
4,1,14,0.450784,0.088284,0.462500,0.060000,0.462500,-0.060000,0.450784,-0.088284,0.422500,-0.100000,-0.325931,-0.100000,-0.354215,-0.088284,-0.450784,0.008285,-0.462500,0.036569,-0.462500,0.060000,-0.450784,0.088284,-0.422500,0.100000,0.422500,0.100000,0.450784,0.088284,0.450784,0.088284,$1*%
%AMFreePoly5*
4,1,14,0.450784,0.088284,0.462500,0.060000,0.462500,-0.060000,0.450784,-0.088284,0.422500,-0.100000,-0.422500,-0.100000,-0.450784,-0.088284,-0.462500,-0.060000,-0.462500,-0.036569,-0.450784,-0.008285,-0.354215,0.088284,-0.325931,0.100000,0.422500,0.100000,0.450784,0.088284,0.450784,0.088284,$1*%
%AMFreePoly6*
4,1,14,0.088284,0.450784,0.100000,0.422500,0.100000,-0.325931,0.088284,-0.354215,-0.008285,-0.450784,-0.036569,-0.462500,-0.060000,-0.462500,-0.088284,-0.450784,-0.100000,-0.422500,-0.100000,0.422500,-0.088284,0.450784,-0.060000,0.462500,0.060000,0.462500,0.088284,0.450784,0.088284,0.450784,$1*%
%AMFreePoly7*
4,1,14,0.088284,0.450784,0.100000,0.422500,0.100000,-0.422500,0.088284,-0.450784,0.060000,-0.462500,0.036569,-0.462500,0.008285,-0.450784,-0.088284,-0.354215,-0.100000,-0.325931,-0.100000,0.422500,-0.088284,0.450784,-0.060000,0.462500,0.060000,0.462500,0.088284,0.450784,0.088284,0.450784,$1*%
G04 Aperture macros list end*
%ADD10RoundRect,0.200000X-0.275000X0.200000X-0.275000X-0.200000X0.275000X-0.200000X0.275000X0.200000X0*%
%ADD11RoundRect,0.250000X-0.785000X-1.895000X0.785000X-1.895000X0.785000X1.895000X-0.785000X1.895000X0*%
%ADD12RoundRect,0.250000X-0.475000X0.250000X-0.475000X-0.250000X0.475000X-0.250000X0.475000X0.250000X0*%
%ADD13R,0.740000X2.400000*%
%ADD14RoundRect,0.200000X0.275000X-0.200000X0.275000X0.200000X-0.275000X0.200000X-0.275000X-0.200000X0*%
%ADD15RoundRect,0.250000X0.250000X0.475000X-0.250000X0.475000X-0.250000X-0.475000X0.250000X-0.475000X0*%
%ADD16RoundRect,0.102000X-0.300000X-0.650000X0.300000X-0.650000X0.300000X0.650000X-0.300000X0.650000X0*%
%ADD17RoundRect,0.102000X-1.000000X-0.900000X1.000000X-0.900000X1.000000X0.900000X-1.000000X0.900000X0*%
%ADD18RoundRect,0.250000X0.475000X-0.250000X0.475000X0.250000X-0.475000X0.250000X-0.475000X-0.250000X0*%
%ADD19RoundRect,0.102000X0.654000X-0.654000X0.654000X0.654000X-0.654000X0.654000X-0.654000X-0.654000X0*%
%ADD20C,1.512000*%
%ADD21RoundRect,0.250000X0.262500X0.450000X-0.262500X0.450000X-0.262500X-0.450000X0.262500X-0.450000X0*%
%ADD22C,2.000000*%
%ADD23FreePoly0,270.000000*%
%ADD24RoundRect,0.050000X-0.050000X0.412500X-0.050000X-0.412500X0.050000X-0.412500X0.050000X0.412500X0*%
%ADD25FreePoly1,270.000000*%
%ADD26FreePoly2,270.000000*%
%ADD27RoundRect,0.050000X-0.412500X0.050000X-0.412500X-0.050000X0.412500X-0.050000X0.412500X0.050000X0*%
%ADD28FreePoly3,270.000000*%
%ADD29FreePoly4,270.000000*%
%ADD30FreePoly5,270.000000*%
%ADD31FreePoly6,270.000000*%
%ADD32FreePoly7,270.000000*%
%ADD33RoundRect,0.100000X0.100000X-0.225000X0.100000X0.225000X-0.100000X0.225000X-0.100000X-0.225000X0*%
%ADD34R,1.700000X1.700000*%
%ADD35C,1.700000*%
%ADD36RoundRect,0.062500X0.309359X-0.220971X-0.220971X0.309359X-0.309359X0.220971X0.220971X-0.309359X0*%
%ADD37RoundRect,0.062500X0.309359X0.220971X0.220971X0.309359X-0.309359X-0.220971X-0.220971X-0.309359X0*%
%ADD38RotRect,3.450000X3.450000X135.000000*%
%ADD39RoundRect,0.200000X0.200000X0.275000X-0.200000X0.275000X-0.200000X-0.275000X0.200000X-0.275000X0*%
%ADD40RoundRect,0.200000X-0.200000X-0.275000X0.200000X-0.275000X0.200000X0.275000X-0.200000X0.275000X0*%
%ADD41RoundRect,0.200000X-0.200000X-0.450000X0.200000X-0.450000X0.200000X0.450000X-0.200000X0.450000X0*%
%ADD42O,0.800000X1.300000*%
%ADD43RoundRect,0.250000X0.159099X-0.512652X0.512652X-0.159099X-0.159099X0.512652X-0.512652X0.159099X0*%
G04 APERTURE END LIST*
D10*
%TO.C,R14*%
X53245616Y-100675000D03*
X53245616Y-102325000D03*
%TD*%
D11*
%TO.C,C12*%
X99504384Y-111500000D03*
X105744384Y-111500000D03*
%TD*%
D12*
%TO.C,C6*%
X63504384Y-106550000D03*
X63504384Y-108450000D03*
%TD*%
D13*
%TO.C,J1*%
X97964384Y-104450000D03*
X97964384Y-100550000D03*
X99234384Y-104450000D03*
X99234384Y-100550000D03*
X100504384Y-104450000D03*
X100504384Y-100550000D03*
X101774384Y-104450000D03*
X101774384Y-100550000D03*
X103044384Y-104450000D03*
X103044384Y-100550000D03*
%TD*%
D14*
%TO.C,R5*%
X66250000Y-103090614D03*
X66250000Y-101440614D03*
%TD*%
D15*
%TO.C,C7*%
X36400000Y-96500000D03*
X34500000Y-96500000D03*
%TD*%
D16*
%TO.C,J3*%
X26000000Y-104150000D03*
X27000000Y-104150000D03*
X28000000Y-104150000D03*
X29000000Y-104150000D03*
X30000000Y-104150000D03*
X31000000Y-104150000D03*
X32000000Y-104150000D03*
X33000000Y-104150000D03*
X34000000Y-104150000D03*
X35000000Y-104150000D03*
X36000000Y-104150000D03*
X37000000Y-104150000D03*
D17*
X23700000Y-106900000D03*
X39300000Y-106900000D03*
%TD*%
D14*
%TO.C,R4*%
X64750000Y-103090614D03*
X64750000Y-101440614D03*
%TD*%
D15*
%TO.C,C9*%
X70700000Y-110265614D03*
X68800000Y-110265614D03*
%TD*%
D10*
%TO.C,R24*%
X31000000Y-100675000D03*
X31000000Y-102325000D03*
%TD*%
%TO.C,R2*%
X25000000Y-96000000D03*
X25000000Y-97650000D03*
%TD*%
%TO.C,R26*%
X34000000Y-100675000D03*
X34000000Y-102325000D03*
%TD*%
%TO.C,R17*%
X57745616Y-100675000D03*
X57745616Y-102325000D03*
%TD*%
D18*
%TO.C,C5*%
X87250000Y-109000000D03*
X87250000Y-107100000D03*
%TD*%
D12*
%TO.C,C2*%
X78250000Y-108265614D03*
X78250000Y-110165614D03*
%TD*%
D10*
%TO.C,R9*%
X45745616Y-100675000D03*
X45745616Y-102325000D03*
%TD*%
D19*
%TO.C,U6*%
X109610000Y-113517000D03*
D20*
X112150000Y-113517000D03*
X114690000Y-113517000D03*
X117230000Y-113517000D03*
X119770000Y-113517000D03*
X122310000Y-113517000D03*
X124850000Y-113517000D03*
X127390000Y-113517000D03*
X127390000Y-95483000D03*
X124850000Y-95483000D03*
X122310000Y-95483000D03*
X119770000Y-95483000D03*
X117230000Y-95483000D03*
X114690000Y-95483000D03*
X112150000Y-95483000D03*
X109610000Y-95483000D03*
%TD*%
D15*
%TO.C,C1*%
X75200000Y-110265614D03*
X73300000Y-110265614D03*
%TD*%
D21*
%TO.C,R31*%
X84162500Y-102765614D03*
X82337500Y-102765614D03*
%TD*%
D10*
%TO.C,R8*%
X44245616Y-100675000D03*
X44245616Y-102325000D03*
%TD*%
D14*
%TO.C,R6*%
X61000000Y-98325000D03*
X61000000Y-96675000D03*
%TD*%
D15*
%TO.C,C8*%
X56450000Y-96500000D03*
X54550000Y-96500000D03*
%TD*%
D10*
%TO.C,R10*%
X47245616Y-100675000D03*
X47245616Y-102325000D03*
%TD*%
%TO.C,R12*%
X50245616Y-100675000D03*
X50245616Y-102325000D03*
%TD*%
%TO.C,R16*%
X56245616Y-100675000D03*
X56245616Y-102325000D03*
%TD*%
%TO.C,R13*%
X51745616Y-100675000D03*
X51745616Y-102325000D03*
%TD*%
%TO.C,R15*%
X54745616Y-100675000D03*
X54745616Y-102325000D03*
%TD*%
D22*
%TO.C,SW3*%
X89750000Y-108265614D03*
X89750000Y-101765614D03*
X94250000Y-108265614D03*
X94250000Y-101765614D03*
%TD*%
D10*
%TO.C,R23*%
X29500000Y-100675000D03*
X29500000Y-102325000D03*
%TD*%
%TO.C,R25*%
X32500000Y-100675000D03*
X32500000Y-102325000D03*
%TD*%
%TO.C,R11*%
X48745616Y-100675000D03*
X48745616Y-102325000D03*
%TD*%
%TO.C,R28*%
X37000000Y-100675000D03*
X37000000Y-102325000D03*
%TD*%
%TO.C,R29*%
X38500000Y-100675000D03*
X38500000Y-102325000D03*
%TD*%
D23*
%TO.C,U3*%
X51933116Y-96112500D03*
D24*
X51533116Y-96112500D03*
X51133116Y-96112500D03*
X50733116Y-96112500D03*
D25*
X50333116Y-96112500D03*
D26*
X49745616Y-96700000D03*
D27*
X49745616Y-97100000D03*
X49745616Y-97500000D03*
X49745616Y-97900000D03*
D28*
X49745616Y-98300000D03*
D29*
X50333116Y-98887500D03*
D24*
X50733116Y-98887500D03*
X51133116Y-98887500D03*
X51533116Y-98887500D03*
D30*
X51933116Y-98887500D03*
D31*
X52520616Y-98300000D03*
D27*
X52520616Y-97900000D03*
X52520616Y-97500000D03*
X52520616Y-97100000D03*
D32*
X52520616Y-96700000D03*
%TD*%
D33*
%TO.C,IC3*%
X65350000Y-107165614D03*
X66000000Y-107165614D03*
X66650000Y-107165614D03*
X66650000Y-105265614D03*
X65350000Y-105265614D03*
%TD*%
D34*
%TO.C,U9*%
X141115000Y-102960000D03*
D35*
X141115000Y-105500000D03*
%TD*%
D10*
%TO.C,R18*%
X59245616Y-100675000D03*
X59245616Y-102325000D03*
%TD*%
D36*
%TO.C,U2*%
X74636485Y-108179828D03*
X74990038Y-107826274D03*
X75343592Y-107472721D03*
X75697145Y-107119167D03*
X76050698Y-106765614D03*
X76404252Y-106412061D03*
X76757805Y-106058507D03*
X77111359Y-105704954D03*
D37*
X77111359Y-104732682D03*
X76757805Y-104379129D03*
X76404252Y-104025575D03*
X76050698Y-103672022D03*
X75697145Y-103318469D03*
X75343592Y-102964915D03*
X74990038Y-102611362D03*
X74636485Y-102257808D03*
D36*
X73664213Y-102257808D03*
X73310660Y-102611362D03*
X72957106Y-102964915D03*
X72603553Y-103318469D03*
X72250000Y-103672022D03*
X71896446Y-104025575D03*
X71542893Y-104379129D03*
X71189339Y-104732682D03*
D37*
X71189339Y-105704954D03*
X71542893Y-106058507D03*
X71896446Y-106412061D03*
X72250000Y-106765614D03*
X72603553Y-107119167D03*
X72957106Y-107472721D03*
X73310660Y-107826274D03*
X73664213Y-108179828D03*
D38*
X74150349Y-105218818D03*
%TD*%
D39*
%TO.C,R1*%
X69575000Y-103265614D03*
X67925000Y-103265614D03*
%TD*%
D40*
%TO.C,R3*%
X43000000Y-98000000D03*
X44650000Y-98000000D03*
%TD*%
D10*
%TO.C,R30*%
X40000000Y-100675000D03*
X40000000Y-102325000D03*
%TD*%
D41*
%TO.C,U7*%
X141250000Y-113000000D03*
D42*
X142500000Y-113000000D03*
%TD*%
D10*
%TO.C,R7*%
X42745616Y-100675000D03*
X42745616Y-102325000D03*
%TD*%
D15*
%TO.C,C11*%
X28450000Y-95325000D03*
X26550000Y-95325000D03*
%TD*%
D16*
%TO.C,J2*%
X45500000Y-104150000D03*
X46500000Y-104150000D03*
X47500000Y-104150000D03*
X48500000Y-104150000D03*
X49500000Y-104150000D03*
X50500000Y-104150000D03*
X51500000Y-104150000D03*
X52500000Y-104150000D03*
X53500000Y-104150000D03*
X54500000Y-104150000D03*
X55500000Y-104150000D03*
X56500000Y-104150000D03*
D17*
X43200000Y-106900000D03*
X58800000Y-106900000D03*
%TD*%
D10*
%TO.C,R19*%
X23500000Y-100675000D03*
X23500000Y-102325000D03*
%TD*%
D15*
%TO.C,C10*%
X47950000Y-96000000D03*
X46050000Y-96000000D03*
%TD*%
D10*
%TO.C,R20*%
X25000000Y-100675000D03*
X25000000Y-102325000D03*
%TD*%
D18*
%TO.C,C4*%
X69250000Y-106715614D03*
X69250000Y-104815614D03*
%TD*%
D10*
%TO.C,R21*%
X26500000Y-100675000D03*
X26500000Y-102325000D03*
%TD*%
%TO.C,R22*%
X28000000Y-100675000D03*
X28000000Y-102325000D03*
%TD*%
D43*
%TO.C,C3*%
X72250000Y-101265614D03*
X73593502Y-99922112D03*
%TD*%
D23*
%TO.C,U5*%
X32045616Y-96112500D03*
D24*
X31645616Y-96112500D03*
X31245616Y-96112500D03*
X30845616Y-96112500D03*
D25*
X30445616Y-96112500D03*
D26*
X29858116Y-96700000D03*
D27*
X29858116Y-97100000D03*
X29858116Y-97500000D03*
X29858116Y-97900000D03*
D28*
X29858116Y-98300000D03*
D29*
X30445616Y-98887500D03*
D24*
X30845616Y-98887500D03*
X31245616Y-98887500D03*
X31645616Y-98887500D03*
D30*
X32045616Y-98887500D03*
D31*
X32633116Y-98300000D03*
D27*
X32633116Y-97900000D03*
X32633116Y-97500000D03*
X32633116Y-97100000D03*
D32*
X32633116Y-96700000D03*
%TD*%
D10*
%TO.C,R27*%
X35500000Y-100675000D03*
X35500000Y-102325000D03*
%TD*%
M02*
